<svg xmlns="http://www.w3.org/2000/svg" viewBox="0 0 315.5 130.7"><path d="M278 0H0v93.2c0 20.7 16.8 37.5 37.5 37.5h278V37.5C315.5 16.8 298.7 0 278 0zM311.5 126.7H37.4c-18.5 0-33.5-15-33.5-33.5V3.9L278 4c18.5 0 33.5 15 33.5 33.5V126.7z"></path><path d="M134.6 55.2c0.7-1.9 1-3.8 1-5.8 0.1-2.1-0.4-4.2-1.2-6.1 -0.8-1.8-1.9-3.4-3.4-4.7 -1.5-1.3-3.2-2.3-5-3.1 -2-0.8-4.1-1.2-6.2-1.2h-18.4l-0.6-0.1c-1.3 0.1-2.5 0.7-3.4 1.7 -0.5 0.5-0.8 1-1.1 1.5 -0.5 0.7-0.7 1.5-0.7 2.3V66v3c0 0.1 0 0.2 0 0.3h-0.1v2L80.3 40.4c-0.6-1.3-1.8-2.3-3.1-2.8 -0.5-0.2-1.1-0.3-1.7-0.3h-0.1 -0.1 -0.1c-0.6 0-1.1 0.1-1.7 0.3 -1.4 0.5-2.5 1.5-3.1 2.8L53.1 76h-8.5V40c0-1.5-0.6-2.9-1.7-3.9 -1-1-2.4-1.6-3.8-1.6 -1.5 0-2.9 0.5-4 1.6 -1.1 1-1.7 2.4-1.7 3.9v41.5c0 1.5 0.7 2.9 1.7 4 1.1 1.1 2.5 1.6 4 1.6h17c0.1 0 0.2 0 0.3-0.1 0.7 0 1.3-0.1 2-0.3 1.4-0.5 2.5-1.5 3.2-2.8l13.7-28.5L99.7 105c0.6 1.3 1.8 2.4 3.2 2.8 1.4 0.5 2.9 0.4 4.2-0.2 1.4-0.6 2.4-1.8 2.9-3.2 0.5-1.4 0.4-2.9-0.3-4.2L103.2 87h16.7c2.1 0 4.2-0.4 6.2-1.3 1.8-0.8 3.5-2 5-3.4 1.5-1.6 2.7-3.4 3.4-5.4 0.8-2.1 1.2-4.3 1.2-6.5 0-3.8-1.4-7.5-3.9-10.4C133 58.6 133.9 56.9 134.6 55.2zM116.7 65.5c2.8 1 8.6 2.9 8.2 6.3 -0.4 2.5-2.5 4.3-5 4.2h-1c-0.1 0-0.2 0-0.3 0h-12.1v-6c0.1-0.3 0.1-0.7 0.1-1V44.6H120c0.1 0 0.3 0 0.4 0 2.6 0.1 4.7 2.4 4.6 5 -0.2 3.9-6.4 4.1-9.5 5.3s-6.3 2.1-6.4 4.9C108.9 63.2 113.1 64.1 116.7 65.5z"></path><path d="M280 36.5c-2.2-1.5-5.1-0.9-6.6 1.2 -0.2 0.2-0.3 0.4-0.4 0.6L258.7 63l-14.3-25c-0.4-0.6-0.8-1.1-1.4-1.5 -2.1-1.5-5.1-1-6.6 1.1 -0.7 0.9-1 2.1-0.9 3.2v40c-0.1 1.3 0.4 2.6 1.4 3.5 1.9 1.6 4.8 1.6 6.7 0 1-0.9 1.5-2.2 1.4-3.5V58.4l9 15.7c2.1 4.2 7.3 4.2 9.5 0.1l9-15.8v22.4c-0.1 1.3 0.4 2.6 1.4 3.5 1.9 1.6 4.8 1.6 6.7 0 1-0.9 1.5-2.2 1.4-3.5V40.7c0.1-1.2-0.3-2.4-1.2-3.3C280.5 37.1 280.3 36.8 280 36.5z"></path><path d="M218.1 36.3c-6.6-2.8-14.1-2.8-20.7 0 -3.1 1.3-6 3.3-8.4 5.7 -2.4 2.4-4.3 5.3-5.6 8.4 -1.4 3.2-2.1 6.7-2.1 10.3s0.7 7.1 2.1 10.4c2.6 6.3 7.7 11.3 14 14 6.6 2.8 14.1 2.8 20.7 0 3.1-1.3 6-3.2 8.4-5.6 2.4-2.4 4.4-5.3 5.7-8.4 2.8-6.6 2.8-14.1 0-20.7C229.5 44.1 224.5 39 218.1 36.3zM219.5 72.3c-1.6 1.5-3.3 2.7-5.3 3.5 -4.1 1.7-8.7 1.7-12.8 0 -3.9-1.6-7.1-4.8-8.7-8.7 -0.9-2-1.3-4.2-1.3-6.4s0.5-4.3 1.3-6.4c0.8-2 2-3.8 3.5-5.3 4.8-4.7 11.9-6.1 18-3.5 4 1.7 7.1 4.8 8.8 8.8C225.6 60.5 224.2 67.6 219.5 72.3z"></path><path d="M181.5 71.3L181.5 71.3l-0.2-0.2c-1.1-0.8-2.6-1-3.9-0.7 -1.1 0.2-2.1 0.8-2.9 1.7 -1.4 1.6-3.3 2.9-5.3 3.7 -2.1 1-4.4 1.4-6.7 1.4 -2.2 0-4.4-0.4-6.4-1.3 -1.9-0.9-3.7-2.1-5.2-3.6 -1.5-1.6-2.7-3.3-3.5-5.3 -1.7-4.1-1.7-8.7 0-12.8 0.8-2 2-3.8 3.5-5.3s3.2-2.8 5.2-3.6c2-0.9 4.2-1.3 6.4-1.3 2.2 0 4.4 0.6 6.4 1.6 2.1 1.1 4 2.3 5.7 3.8 1.1 1.1 2.5 1.6 4 1.5 1.6-0.1 3-0.9 3.9-2.2 0.8-1.2 1-2.7 0.5-4.1 -0.3-1-0.8-1.9-1.5-2.6 -2.4-2.5-5.3-4.5-8.5-5.9 -6.6-2.8-14.2-2.9-20.8 0 -6.3 2.8-11.3 7.8-14 14.2 -2.8 6.6-2.8 14.1 0 20.7 1.3 3.2 3.2 6.1 5.6 8.5 2.4 2.4 5.3 4.4 8.4 5.7 3.2 1.4 6.7 2.1 10.3 2.1 3.7 0 7.3-0.7 10.7-2.2 3.3-1.4 6.3-3.5 8.7-6.2 0.9-1 1.4-2.3 1.4-3.7C183.4 73.7 182.7 72.3 181.5 71.3z"></path></svg>
