<?xml version="1.0" standalone="no"?>
<!DOCTYPE svg PUBLIC "-//W3C//DTD SVG 1.1//EN" "http://www.w3.org/Graphics/SVG/1.1/DTD/svg11.dtd" >
<svg>
<metadata>
Created by FontForge 20090622 at Tue Oct 11 13:15:47 2016
 By deploy user
&#194;&#169;2012 Optimo.
</metadata>
<defs>
<font id="DowCorporate-MediumIta" horiz-adv-x="590" >
  <font-face 
    font-family="Dow Corporate Medium"
    font-weight="500"
    font-style="italic"
    font-stretch="normal"
    units-per-em="1000"
    panose-1="2 11 6 3 2 2 2 9 2 4"
    ascent="802"
    descent="-198"
    x-height="476"
    cap-height="680"
    bbox="-128 -289 1330 937"
    underline-thickness="45"
    underline-position="-76"
    unicode-range="U+000D-U+FB02"
  />
<missing-glyph horiz-adv-x="644" 
d="M50 289l309 309q16 -9 26 -23l-335 -335v49zM50 191l347 347v-15q0 -17 -9.5 -31t-23.5 -27t-30 -25t-29 -25q-23 -22 -36 -54l-219 -219v49zM55 0l261 261h49l-93 -93h-23v-23l-145 -145h-49zM594 441v-49l-224 -224h-49zM50 387l148 148l39 -2q0 27 19 51t56 24h8
l-270 -270v49zM349 0l33 33h2v2l210 210v-49l-196 -196h-49zM594 343v-49l-210 -210v49zM50 93l206 206v-38h11l-217 -217v49zM246 779h49l-44 -44q-54 -14 -93 -53.5t-54 -93.5l-54 -54v49zM594 539v-49l-216 -216v7q0 16 5 26.5t14 19.5t22 18l29 21l20.5 15.5t26 23
t25 32.5t17.5 45zM148 779h49l-147 -147v49zM447 0l147 147v-49l-98 -98h-49zM540 779h49l-104 -104l-26 23zM50 485l56 56l46 -3l-102 -102v49zM594 735v-49l-70 -70q-7 15 -18 31zM153 0l96 96v-49l-47 -47h-49zM442 779h49l-62 -62q-17 9 -34 15zM594 637v-49l-52 -52
q0 11 -2 21.5l-4 21.5zM344 779h49l-38 -38q-7 1 -14 1.5t-14 0.5q-3 0 -6.5 -0.5t-6.5 -0.5h-7zM251 0l33 33h49l-33 -33h-49zM594 0h-49l49 49v-49zM99 779l-49 -49v49h49z" />
    <glyph glyph-name="fi" unicode="fi" horiz-adv-x="580" 
d="M353 387h-114l-83 -387h-113l82 387h-84l19 89h84l14 62q9 44 20.5 69t29.5 42q21 20 51 29t72 9q29 0 51 -3t33 -5l-20 -94q-8 1 -22 2.5t-26 1.5q-19 0 -32 -3.5t-23 -13.5q-16 -16 -25 -55l-9 -41h114zM457 0h-113l100 475h114zM576 564h-114l25 116h114z" />
    <glyph glyph-name="fl" unicode="fl" horiz-adv-x="587" 
d="M353 387h-114l-83 -387h-113l82 387h-84l19 89h84l14 62q9 44 20.5 69t29.5 42q21 20 51 29t72 9q29 0 51 -3t33 -5l-20 -94q-8 1 -22 2.5t-26 1.5q-19 0 -32 -3.5t-23 -13.5q-16 -16 -25 -55l-9 -41h114zM460 0h-113l142 679h114z" />
    <glyph glyph-name=".notdef" horiz-adv-x="644" 
d="M50 289l309 309q16 -9 26 -23l-335 -335v49zM50 191l347 347v-15q0 -17 -9.5 -31t-23.5 -27t-30 -25t-29 -25q-23 -22 -36 -54l-219 -219v49zM55 0l261 261h49l-93 -93h-23v-23l-145 -145h-49zM594 441v-49l-224 -224h-49zM50 387l148 148l39 -2q0 27 19 51t56 24h8
l-270 -270v49zM349 0l33 33h2v2l210 210v-49l-196 -196h-49zM594 343v-49l-210 -210v49zM50 93l206 206v-38h11l-217 -217v49zM246 779h49l-44 -44q-54 -14 -93 -53.5t-54 -93.5l-54 -54v49zM594 539v-49l-216 -216v7q0 16 5 26.5t14 19.5t22 18l29 21l20.5 15.5t26 23
t25 32.5t17.5 45zM148 779h49l-147 -147v49zM447 0l147 147v-49l-98 -98h-49zM540 779h49l-104 -104l-26 23zM50 485l56 56l46 -3l-102 -102v49zM594 735v-49l-70 -70q-7 15 -18 31zM153 0l96 96v-49l-47 -47h-49zM442 779h49l-62 -62q-17 9 -34 15zM594 637v-49l-52 -52
q0 11 -2 21.5l-4 21.5zM344 779h49l-38 -38q-7 1 -14 1.5t-14 0.5q-3 0 -6.5 -0.5t-6.5 -0.5h-7zM251 0l33 33h49l-33 -33h-49zM594 0h-49l49 49v-49zM99 779l-49 -49v49h49z" />
    <glyph glyph-name="NULL" horiz-adv-x="0" 
 />
    <glyph glyph-name="NULL" horiz-adv-x="0" 
 />
    <glyph glyph-name="carriagereturn" unicode="&#xd;" horiz-adv-x="822" 
d="M414 475l-196 -187h425v187h114v-287h-539l196 -188h-142l-237 238l237 237h142z" />
    <glyph glyph-name="space" unicode=" " horiz-adv-x="200" 
 />
    <glyph glyph-name="numbersign" unicode="#" horiz-adv-x="671" 
d="M652 372h-153l-22 -94h146l-7 -100h-161l-41 -178h-101l41 178h-92l-41 -178h-101l41 178h-129l7 100h145l21 94h-138l7 101h155l47 207h101l-48 -207h93l47 207h101l-48 -207h137zM284 278h93l21 94h-92z" />
    <glyph glyph-name="dollar" unicode="$" horiz-adv-x="594" 
d="M429 669q51 -17 90 -46t66 -67l-90 -65q-20 25 -41.5 43t-46.5 29l-38 -178l14 -4q30 -9 58.5 -22t51 -33t36.5 -48.5t14 -68.5q0 -47 -16.5 -86t-48 -67.5t-78 -44.5t-105.5 -16h-8l-20 -94h-105l23 110q-64 21 -108.5 60.5t-67.5 83.5l91 68q37 -73 108 -106l40 190
l-10 3q-28 8 -55 21.5t-48 34.5t-33.5 51t-12.5 71q0 46 18.5 82.5t50 62t74 39t91.5 13.5h5l19 90h105zM422 194q0 36 -22 54t-54 29l-37 -178q54 3 83.5 28.5t29.5 66.5zM210 499q0 -27 13 -47.5t48 -34.5l35 162q-48 -3 -72 -25.5t-24 -54.5z" />
    <glyph glyph-name="percent" unicode="%" horiz-adv-x="968" 
d="M785 414q21 0 45 -7t45 -25t34.5 -49.5t13.5 -79.5q0 -47 -12.5 -93.5t-37 -84.5t-60 -61.5t-81.5 -23.5q-72 0 -107 44t-35 119q0 47 13 94t38 84t61 60t83 23zM688 155q0 -41 14 -59t34 -18q21 0 37.5 15.5t28 40t17.5 54.5t6 60q0 32 -11.5 54.5t-35.5 22.5t-41 -16.5
t-28 -41.5t-16 -55t-5 -57zM318 0h-107l456 680h105zM265 689q21 0 45 -7t45 -25t34.5 -49.5t13.5 -79.5q0 -47 -12.5 -93.5t-37 -84.5t-60 -61.5t-81.5 -23.5q-72 0 -107 44t-35 119q0 47 13 94t38 84t61 60t83 23zM168 430q0 -41 14 -59t34 -18q21 0 37.5 15.5t28 40
t17.5 54.5t6 60q0 32 -11.5 54.5t-35.5 22.5t-41 -16.5t-28 -41.5t-16 -55t-5 -57z" />
    <glyph glyph-name="ampersand" unicode="&#x26;" horiz-adv-x="644" 
d="M470 0q-8 8 -17 19l-17 21q-10 11 -19 22q-12 -12 -29.5 -25t-41 -24t-53 -18t-65.5 -7q-45 0 -81.5 12.5t-63 36t-41 56.5t-14.5 74t16.5 74.5t43.5 60t61.5 47t70.5 35.5q-14 23 -23 57t-9 73q0 33 11.5 64t33.5 55t54.5 38.5t74.5 14.5q36 0 64 -11t47.5 -30t30 -43.5
t10.5 -52.5q0 -64 -39.5 -112t-123.5 -86q15 -28 36 -61l41 -62q16 27 32 60.5t30 68.5l85 -57q-16 -42 -38.5 -81.5t-46.5 -70.5q19 -26 47.5 -61l73.5 -87h-141zM141 177q0 -45 28 -67t71 -22t73 16t46 36l-54 80t-48 83q-25 -11 -46.5 -23.5t-37 -27.5t-24 -33t-8.5 -42z
M356 590q-34 0 -47.5 -22.5t-13.5 -52.5q0 -23 6 -45.5t16 -39.5q5 3 10.5 5.5t10.5 5.5q36 20 52 45t16 55q0 20 -12 34.5t-38 14.5z" />
    <glyph glyph-name="quotesingle" unicode="'" horiz-adv-x="217" 
d="M166 387h-75l27 213l17 80h116l-17 -80z" />
    <glyph glyph-name="parenleft" unicode="(" horiz-adv-x="281" 
d="M70 -169q-45 154 -45 298q0 151 53 289.5t169 271.5l100 -11q-108 -134 -159.5 -283.5t-51.5 -314.5q0 -58 6 -118t18 -120z" />
    <glyph glyph-name="parenright" unicode=")" horiz-adv-x="281" 
d="M202 690q45 -155 45 -298q0 -151 -52.5 -289.5t-168.5 -271.5l-101 11q108 134 159.5 283.5t51.5 314.5q0 58 -6 118t-18 120z" />
    <glyph glyph-name="asterisk" unicode="*" horiz-adv-x="495" 
d="M345 533l134 30l20 -105l-132 -22l72 -121l-92 -45l-70 121l-101 -98l-77 70l106 98l-124 57l48 95l121 -67l14 139l106 -14z" />
    <glyph glyph-name="plus" unicode="+" horiz-adv-x="672" 
d="M394 0h-107v246h-243v106h243v245h107v-245h242v-106h-242v-246z" />
    <glyph glyph-name="comma" unicode="," horiz-adv-x="240" 
d="M154 132l-23 -102q-8 -35 -19 -72.5t-35 -61.5q-19 -19 -46.5 -30.5t-67.5 -13.5l17 77q30 3 43.5 24t18.5 47h-46l29 132h129z" />
    <glyph glyph-name="hyphen" unicode="-" horiz-adv-x="407" 
d="M46 214l23 108h285l-23 -108h-285z" />
    <glyph glyph-name="period" unicode="." horiz-adv-x="240" 
d="M154 132l-29 -132h-129l29 132h129z" />
    <glyph glyph-name="slash" unicode="/" horiz-adv-x="397" 
d="M449 680l-358 -680h-117l359 680h116z" />
    <glyph glyph-name="zero" unicode="0" 
d="M354 689q37 0 75.5 -11t70.5 -40t52.5 -79t20.5 -128q0 -75 -18 -153t-56.5 -142.5t-97.5 -105.5t-140 -41q-56 0 -97 19t-68.5 53.5t-41 83t-13.5 108.5q0 78 20 156t60 140.5t98 101t135 38.5zM160 262q0 -92 29.5 -130.5t76.5 -38.5q43 0 77.5 28.5t59 75t37.5 105.5
t13 121q0 74 -24 118.5t-81 44.5q-43 0 -78 -27.5t-59.5 -72.5t-37.5 -103.5t-13 -120.5z" />
    <glyph glyph-name="one" unicode="1" 
d="M357 0h-117l92 442h-185l20 93h30q41 0 70 7.5t52 21.5q30 19 48.5 48t28.5 68h105z" />
    <glyph glyph-name="two" unicode="2" 
d="M106 411q-8 30 -8 61q0 45 17 85t48 70t75.5 47.5t100.5 17.5q52 0 94 -14.5t70.5 -40.5t44 -62.5t15.5 -79.5q0 -70 -34.5 -129t-87 -108t-115 -88.5t-118.5 -69.5v-1q21 0 47 1q22 1 51 1.5t61 0.5h138l-23 -102h-474l16 92q28 15 61 35.5l66.5 43l67.5 46.5l66 47
q30 22 58.5 46.5t51 52t36.5 58.5t14 66q0 46 -28.5 74.5t-82.5 28.5q-33 0 -56.5 -10.5t-39 -28t-23 -41t-7.5 -49.5q0 -36 12 -70z" />
    <glyph glyph-name="three" unicode="3" 
d="M138 232q1 -30 10 -56t26 -45t42 -30t59 -11q35 0 59.5 10.5t40 27t22.5 38t7 42.5q0 67 -63 92q-24 9 -52.5 10.5t-68.5 1.5h-19l16 93h60q31 0 55.5 3.5t44.5 13.5q24 11 39 32t15 54t-24 58.5t-80 25.5q-53 0 -85.5 -27.5t-42.5 -79.5l-101 29q4 31 20 63t45 57.5
t71.5 41.5t99.5 16q55 0 95.5 -13.5t67 -36.5t39.5 -54t13 -66q0 -36 -11 -63.5t-27.5 -47.5t-36.5 -33.5t-39 -20.5q17 -11 32 -25.5t26.5 -33t18 -42t6.5 -53.5q0 -42 -15 -81t-46 -69t-77 -47.5t-107 -17.5q-114 0 -174.5 59.5t-67.5 158.5z" />
    <glyph glyph-name="four" unicode="4" 
d="M329 250l24 114l18 83t20 79h-3q-14 -23 -40 -56.5t-66 -79.5l-122 -140h169zM552 250l-22 -102h-107l-31 -148h-114l30 148h-308l18 90l390 442h128l-91 -430h107z" />
    <glyph glyph-name="five" unicode="5" 
d="M67 323l107 357h396l-29 -107h-289l-42 -129q15 11 44.5 19.5t66.5 8.5q45 0 83.5 -14.5t67 -42t44.5 -68t16 -91.5q0 -57 -17 -106t-50.5 -85t-83.5 -56.5t-115 -20.5q-50 0 -89.5 14t-69 38t-48 56.5t-27.5 69.5l112 39q4 -23 14.5 -43.5t27 -36t39.5 -24.5t51 -9
q31 0 56.5 11.5t44 32t28.5 49t10 62.5q0 58 -35 93t-89 35q-52 0 -83 -25t-45 -64z" />
    <glyph glyph-name="six" unicode="6" 
d="M467 485q-6 48 -33.5 75.5t-76.5 27.5q-32 0 -59.5 -14t-49.5 -37.5t-37 -55t-23 -66.5q25 26 62.5 39t79.5 13q37 0 74 -12.5t66.5 -38t47.5 -66t18 -95.5q0 -57 -19 -105.5t-53.5 -84.5t-81.5 -56.5t-104 -20.5q-53 0 -95.5 18.5t-71.5 53t-44.5 83t-15.5 109.5
q0 87 21.5 166.5t62 140.5t99 97t131.5 36q51 0 88.5 -14.5t62.5 -39.5t38.5 -58.5t16.5 -70.5zM286 92q31 0 56 13t42.5 34t26.5 48t9 55q0 59 -31 92t-89 33q-39 0 -75.5 -19.5t-57.5 -52.5q-3 -21 -3 -42q0 -32 6.5 -61.5t21.5 -51.5t38 -35t56 -13z" />
    <glyph glyph-name="seven" unicode="7" 
d="M620 586q-25 -25 -52.5 -55.5t-53.5 -62.5q-85 -105 -150 -224t-104 -244h-137q21 72 55 143t76 140q51 79 106.5 152.5t115.5 139.5h-253q-6 -29 -13 -59t-13 -59h-113l47 223h509z" />
    <glyph glyph-name="eight" unicode="8" 
d="M24 185q0 66 38 114.5t104 74.5q-25 17 -45 49t-20 85q0 40 17.5 73.5t49.5 58t76.5 38.5t98.5 14q107 0 163.5 -47.5t56.5 -122.5q0 -31 -9 -57t-24.5 -46.5t-36 -35.5t-44.5 -25q34 -24 59 -61.5t25 -94.5q0 -45 -17 -84.5t-51 -68t-83.5 -45t-114.5 -16.5
q-59 0 -104.5 14.5t-76 40.5t-46.5 62t-16 80zM140 196q0 -47 35 -77.5t95 -30.5q65 0 104 32t39 89q0 49 -34.5 77t-94.5 28q-37 0 -64 -9.5t-45 -26t-26.5 -38t-8.5 -44.5zM216 499q0 -35 26.5 -60t81.5 -25q61 0 90.5 26t29.5 70q0 37 -28 60.5t-82 23.5q-30 0 -52 -8
t-37 -21.5t-22 -30.5t-7 -35z" />
    <glyph glyph-name="nine" unicode="9" 
d="M147 195q6 -48 33.5 -75t76.5 -27q32 0 59.5 13.5t49.5 37t37 55t23 66.5q-25 -26 -62.5 -39t-79.5 -13q-38 0 -74.5 12.5t-66 38.5t-47.5 66t-18 96q0 57 19 105.5t53.5 84t81.5 56t104 20.5q53 0 95 -18.5t71.5 -53t45 -83t15.5 -109.5q0 -87 -21.5 -166.5t-62 -140.5
t-99 -97t-131.5 -36q-51 0 -88.5 14.5t-62.5 39.5t-38.5 58.5t-16.5 70.5zM328 589q-32 0 -56.5 -12.5t-42 -33.5t-26.5 -48t-9 -55q0 -59 31 -92.5t89 -33.5q39 0 75.5 18.5t57.5 51.5q3 21 3 44q0 32 -6.5 61.5t-21.5 51.5t-38 35t-56 13z" />
    <glyph glyph-name="colon" unicode=":" horiz-adv-x="256" 
d="M161 132l-29 -132h-129l29 132h129zM234 476l-29 -132h-129l29 132h129z" />
    <glyph glyph-name="semicolon" unicode=";" horiz-adv-x="257" 
d="M235 476l-29 -132h-129l29 132h129zM162 132l-23 -102q-8 -35 -19 -72.5t-35 -61.5q-19 -19 -46.5 -30.5t-67.5 -13.5l17 77q30 3 43.5 24t18.5 47h-46l29 132h129z" />
    <glyph glyph-name="less" unicode="&#x3c;" horiz-adv-x="779" 
d="M689 -26l-640 318v88l640 316v-110l-499 -248l499 -254v-110z" />
    <glyph glyph-name="equal" unicode="=" horiz-adv-x="839" 
d="M755 332h-674v88h674v-88zM755 166h-674v88h674v-88z" />
    <glyph glyph-name="greater" unicode="&#x3e;" horiz-adv-x="779" 
d="M113 84l499 254l-499 248v110l640 -316v-88l-640 -318v110z" />
    <glyph glyph-name="question" unicode="?" horiz-adv-x="495" 
d="M86 428q-7 28 -7 57q0 43 16 80.5t45.5 65t71.5 43t93 15.5q52 0 90 -14t62.5 -38t36 -55.5t11.5 -65.5q0 -59 -29.5 -106.5t-76.5 -82.5l-73 -54q-27 -20 -41 -42.5t-21 -65.5h-115q7 39 15.5 65.5t21.5 46.5t31.5 37.5t46.5 38.5l65 48q33 24 46 51.5t13 55.5
q0 34 -22 58t-71 24q-29 0 -49 -9.5t-33 -25.5t-19 -37.5t-6 -44.5q0 -15 2.5 -31.5t7.5 -30.5zM261 131l-26 -131h-123l27 131h122z" />
    <glyph glyph-name="at" unicode="@" horiz-adv-x="801" 
d="M463 217q-12 -5 -34.5 -7.5t-42.5 -5.5t-37 -7.5t-30 -11.5t-20 -18t-7 -28q0 -25 19.5 -36t47.5 -11q33 0 58.5 17t31.5 45zM446 55q-16 -14 -43.5 -25.5t-74.5 -11.5q-26 0 -50 6.5t-42.5 20t-30 35.5t-11.5 53q0 67 43 98t118 42l107 15q11 2 14.5 4.5t5.5 11.5
q4 15 4 25q0 41 -68 41q-40 0 -63 -16.5t-28 -53.5l-93 5q4 39 22 65.5t45 43t60.5 24t69.5 7.5q65 0 107 -25t42 -78q0 -13 -2 -25t-4 -21l-35 -159q-1 -3 -2.5 -11t-1.5 -16q0 -7 3.5 -12t13.5 -5q22 0 43 18.5t37 49.5t25.5 70.5t9.5 81.5q0 41 -11.5 80t-38.5 69
t-70.5 48.5t-107.5 18.5q-74 0 -133 -28.5t-101 -77t-64.5 -112.5t-22.5 -134q0 -68 21 -118t57 -83.5t83.5 -50t100.5 -16.5q36 0 73 7t73 21t69.5 35.5t61.5 50.5l20 -89q-66 -55 -143 -81t-166 -26q-68 0 -130 20.5t-109 63t-75 107t-28 152.5q0 85 29.5 165t83.5 141.5
t131 99t173 37.5q83 0 142.5 -25t97.5 -66t55.5 -94t17.5 -109q0 -57 -15 -112.5t-43.5 -99t-69 -70t-92.5 -26.5q-37 0 -59 12.5t-29 31.5h-2z" />
    <glyph glyph-name="A" unicode="A" horiz-adv-x="618" 
d="M77 0h-128l379 680h135l92 -680h-123l-18 154h-252zM404 255l-25 211q-2 12 -3.5 26t-2.5 27q-2 14 -2 29h-1q-7 -15 -15 -30l-14.5 -28l-13.5 -27l-111 -208h188z" />
    <glyph glyph-name="B" unicode="B" horiz-adv-x="674" 
d="M18 0l144 680h257q57 0 93.5 -6.5t61.5 -20.5q38 -21 56.5 -57t18.5 -79q0 -54 -25 -97.5t-76 -69.5q32 -24 50 -55t18 -76q0 -56 -21.5 -99.5t-61.5 -71.5q-17 -12 -35 -21t-41.5 -15t-54.5 -9t-73 -3h-311zM200 303l-42 -200h180q44 0 70.5 6t43.5 17q21 14 33.5 38
t12.5 58q0 56 -44 72q-16 6 -35 7.5t-50 1.5h-169zM385 399q44 0 66.5 4.5t38.5 15.5q18 12 29.5 35.5t11.5 53.5q0 23 -9 37t-24.5 21.5t-37.5 9.5t-48 2h-153l-38 -179h164z" />
    <glyph glyph-name="C" unicode="C" horiz-adv-x="642" 
d="M597 138q-20 -32 -47 -59.5t-61 -47.5t-75.5 -31.5t-90.5 -11.5q-70 0 -121 21.5t-84.5 60t-49.5 92.5t-16 119q0 76 22.5 150t66 132t108.5 93.5t151 35.5q100 0 164.5 -49t88.5 -129l-107 -51q-14 57 -51 89.5t-102 32.5q-57 0 -99 -26.5t-69 -68.5t-40 -95.5
t-13 -107.5q0 -89 39 -140t120 -51q59 0 100.5 27.5t68.5 72.5z" />
    <glyph glyph-name="D" unicode="D" horiz-adv-x="684" 
d="M18 0l144 680h165q83 0 139.5 -12.5t98.5 -41.5q45 -32 69.5 -81.5t24.5 -122.5q0 -53 -11 -108t-33 -105t-55 -92t-78 -68q-28 -17 -54 -26.5t-53 -14.5t-57 -6.5t-67 -1.5h-233zM159 108h93q54 0 97 7t75 30q30 21 52 54.5t36.5 71t22 75t7.5 68.5q0 88 -57 126
q-33 21 -79 25.5t-95 4.5h-53z" />
    <glyph glyph-name="E" unicode="E" horiz-adv-x="611" 
d="M259 573l-37 -168h326l-23 -107h-326l-40 -191h379l-22 -107h-498l144 680h474l-22 -107h-355z" />
    <glyph glyph-name="F" unicode="F" horiz-adv-x="550" 
d="M259 573l-38 -173h306l-23 -107h-306l-61 -293h-119l144 680h436l-22 -107h-317z" />
    <glyph glyph-name="G" unicode="G" horiz-adv-x="680" 
d="M311 -12q-56 0 -103.5 18.5t-82 55.5t-54 92t-19.5 127q0 76 22.5 150t66 132t108.5 93.5t151 35.5q100 0 164.5 -49t88.5 -129l-107 -51q-14 57 -51 89.5t-102 32.5q-57 0 -99 -26.5t-69 -68.5t-40 -95t-13 -107q0 -89 39 -141t120 -52q39 0 70 13.5t54.5 36.5t39 53.5
t24.5 65.5h-221l20 105h334l-78 -369h-114l11 52h-1q-7 -8 -20.5 -19t-33.5 -21t-46.5 -17t-58.5 -7z" />
    <glyph glyph-name="H" unicode="H" horiz-adv-x="687" 
d="M199 297l-63 -297h-118l143 680h119l-58 -275h295l57 275h120l-145 -680h-117l62 297h-295z" />
    <glyph glyph-name="I" unicode="I" horiz-adv-x="273" 
d="M280 680l-144 -680h-118l143 680h119z" />
    <glyph glyph-name="J" unicode="J" horiz-adv-x="373" 
d="M385 680l-112 -518q-9 -42 -21.5 -72t-31.5 -50q-29 -32 -73.5 -43t-92.5 -11q-26 0 -51.5 2.5t-45.5 6.5l23 101q14 -2 30.5 -4t33.5 -2q24 0 43.5 4.5t33.5 16.5q17 14 27.5 39t19.5 67l99 463h118z" />
    <glyph glyph-name="K" unicode="K" horiz-adv-x="661" 
d="M599 0h-143l-150 315l-123 -100l-46 -215h-119l143 680h120l-65 -307l358 307h168l-343 -285z" />
    <glyph glyph-name="L" unicode="L" horiz-adv-x="504" 
d="M280 680l-121 -570h296l-23 -110h-414l143 680h119z" />
    <glyph glyph-name="M" unicode="M" horiz-adv-x="809" 
d="M277 0l-20 382q-2 25 -2.5 55.5t-1.5 58.5t-1 49v28h-1l-20 -111l-19 -101.5t-19 -96.5l-56 -264h-119l144 680h187l20 -381q2 -32 2 -62.5t1 -54.5q0 -28 1 -54h1q7 21 18 47l22 54l30 69l176 382h196l-145 -680h-117l56 264q9 44 22 97l24 101q13 55 28 112h-1l-32 -75
l-29 -66l-27 -59l-177 -374h-141z" />
    <glyph glyph-name="N" unicode="N" horiz-adv-x="709" 
d="M18 0l144 680h120l149 -336l23 -53.5t21 -50.5q11 -26 20 -51h1q6 35 14 73q6 32 14.5 73l17.5 83l57 262h117l-144 -680h-120l-158 365q-14 31 -24 56.5l-17 42.5q-8 20 -13 36h-1l-16 -83l-14.5 -74t-14.5 -71l-57 -272h-119z" />
    <glyph glyph-name="O" unicode="O" horiz-adv-x="710" 
d="M52 281q0 76 22.5 150t66.5 132t110.5 93.5t153.5 35.5q65 0 116.5 -20.5t87.5 -58.5t55 -91t19 -117q0 -77 -21.5 -151.5t-66 -133.5t-112 -95.5t-159.5 -36.5q-69 0 -120 21.5t-85 60t-50.5 92.5t-16.5 119zM398 585q-60 0 -103 -27t-70 -69.5t-40 -96.5t-13 -108
q0 -87 39 -137.5t120 -50.5q57 0 100.5 27t73 70t44 97t14.5 108q0 86 -42 136.5t-123 50.5z" />
    <glyph glyph-name="P" unicode="P" horiz-adv-x="618" 
d="M193 267l-57 -267h-118l143 680h234q57 0 95.5 -8t65.5 -22q35 -19 57.5 -57t22.5 -92q0 -64 -29 -118.5t-86 -85.5q-14 -7 -29 -12.5t-35 -9.5t-46.5 -6t-63.5 -2h-154zM356 374q44 0 70.5 5.5t45.5 18.5t31 38t12 60q0 47 -29 63t-88 16h-140l-44 -201h142z" />
    <glyph glyph-name="Q" unicode="Q" horiz-adv-x="728" 
d="M52 281q0 76 22 150t66 132t110 93.5t155 35.5q65 0 116.5 -20.5t87.5 -58.5t55 -91t19 -117q0 -71 -18.5 -139.5t-55.5 -125.5l69 -91l-97 -79l-59 78q-39 -28 -88.5 -44t-109.5 -16q-69 0 -120 21.5t-85 60t-50.5 92.5t-16.5 119zM398 585q-60 0 -103 -27t-70 -69.5
t-40 -96.5t-13 -108q0 -87 39 -137.5t120 -50.5q57 0 100.5 27t73 70t44 97t14.5 108q0 86 -42 136.5t-123 50.5z" />
    <glyph glyph-name="R" unicode="R" horiz-adv-x="667" 
d="M355 269h-161l-58 -269h-118l143 680h249q57 0 95.5 -8t65.5 -22q35 -19 57.5 -57t22.5 -92q0 -64 -28.5 -117.5t-85.5 -84.5q-14 -7 -28 -12.5t-34 -9.5l111 -277h-130zM372 376q44 0 70.5 5.5t45.5 18.5t30.5 37t11.5 59q0 47 -29 63t-88 16h-155l-43 -199h157z" />
    <glyph glyph-name="S" unicode="S" horiz-adv-x="589" 
d="M98 221q29 -59 80 -93t117 -34q60 0 92.5 26.5t32.5 70.5q0 21 -7.5 36t-21 25.5t-31.5 17.5t-38 13l-86 26q-28 9 -55 22.5t-48 35t-33.5 52t-12.5 72.5q0 47 18.5 84.5t50 63.5t74 39.5t91.5 13.5q89 0 155.5 -37t106.5 -95l-90 -66q-35 46 -77 68.5t-97 22.5
t-83 -23.5t-28 -59.5q0 -32 19.5 -55t71.5 -39l82 -26q30 -9 58.5 -22.5t51 -34t36.5 -50t14 -69.5q0 -48 -16.5 -88t-48 -69t-78 -45t-105.5 -16q-54 0 -99.5 14t-81.5 37t-62.5 52.5t-42.5 59.5z" />
    <glyph glyph-name="T" unicode="T" horiz-adv-x="554" 
d="M160 0l120 573h-199l23 107h516l-23 -107h-198l-121 -573h-118z" />
    <glyph glyph-name="U" unicode="U" horiz-adv-x="673" 
d="M294 -12q-59 0 -103.5 14.5t-74 41t-44 63.5t-14.5 81q0 19 3.5 43.5t8.5 50.5l83 398h119l-84 -398q-5 -22 -8.5 -42.5t-3.5 -40.5q0 -104 126 -104q38 0 67.5 8.5t52.5 29.5q36 33 58 134l87 413h117l-87 -419q-16 -78 -40.5 -129.5t-62.5 -82.5q-33 -27 -83.5 -44
t-116.5 -17z" />
    <glyph glyph-name="V" unicode="V" horiz-adv-x="610" 
d="M683 680l-365 -680h-159l-65 680h126l34 -411l4 -47.5t4 -44.5l4 -46h1l22 44l22 44l25 49l213 412h134z" />
    <glyph glyph-name="W" unicode="W" horiz-adv-x="905" 
d="M500 0v350v65.5t1 54.5q1 27 2 51h-1l-21 -56l-22 -56t-25 -61l-149 -348h-175v680h125l-6 -432q0 -17 -0.5 -38t-1.5 -41q-1 -23 -1 -47h1l18 47l16.5 41.5t15.5 37.5l185 432h147l1 -438q0 -17 -0.5 -37t-0.5 -39q-1 -22 -1 -44h1l18 47l16.5 41.5t15.5 37.5l178 432
h129l-292 -680h-174z" />
    <glyph glyph-name="X" unicode="X" horiz-adv-x="642" 
d="M448 0l-128 269l-242 -269h-144l334 361l-160 319h129l117 -245l219 245h145l-311 -334l174 -346h-133z" />
    <glyph glyph-name="Y" unicode="Y" horiz-adv-x="609" 
d="M181 0l55 266l-156 414h119l115 -307l244 307h138l-341 -414l-55 -266h-119z" />
    <glyph glyph-name="Z" unicode="Z" 
d="M495 0h-522l20 96l460 477h-344l22 107h503l-20 -95l-458 -477h361z" />
    <glyph glyph-name="bracketleft" unicode="[" horiz-adv-x="307" 
d="M181 -159h-205l178 839h206l-18 -85h-93l-142 -668h93z" />
    <glyph glyph-name="backslash" unicode="\" horiz-adv-x="509" 
d="M214 680l216 -680h-111l-215 680h110z" />
    <glyph glyph-name="bracketright" unicode="]" horiz-adv-x="306" 
d="M116 680h205l-178 -839h-206l18 85h93l142 668h-93z" />
    <glyph glyph-name="asciicircum" unicode="^" horiz-adv-x="457" 
d="M455 326h-115l-52 211l-142 -211h-126l251 354h89z" />
    <glyph glyph-name="underscore" unicode="_" horiz-adv-x="731" 
d="M537 -166h-534l21 100h535z" />
    <glyph glyph-name="grave" unicode="`" horiz-adv-x="500" 
d="M321 680l64 -128h-98l-101 128h135z" />
    <glyph glyph-name="a" unicode="a" horiz-adv-x="514" 
d="M323 220q-14 -5 -40 -8.5t-49 -7.5t-43 -8.5t-34.5 -13t-23 -21t-8.5 -32.5q0 -29 22.5 -42t54.5 -13q39 0 68.5 20t36.5 52zM452 312q-2 -7 -8.5 -39l-14.5 -69l-21 -95q-3 -14 -3 -21q0 -19 26 -19h7l-16 -76q-3 -1 -16 -3t-38 -2q-29 0 -49.5 10t-22.5 35
q-19 -16 -50 -30.5t-83 -14.5q-30 0 -57.5 8t-48.5 24.5t-33.5 42t-12.5 59.5q0 78 49.5 114.5t137.5 48.5l124 17q12 2 16.5 5t6.5 14l2 9q2 8 2.5 12t0.5 10q0 25 -21.5 35t-57.5 10q-47 0 -73.5 -19t-32.5 -62l-108 6q5 45 26 76t52 50.5t70 28t81 8.5q38 0 69.5 -7
t54.5 -22t36 -37.5t13 -53.5q0 -15 -2.5 -28.5z" />
    <glyph glyph-name="b" unicode="b" horiz-adv-x="549" 
d="M300 394q-35 0 -61.5 -19.5t-44 -49t-26 -64.5t-8.5 -67q0 -48 21 -79t68 -31q34 0 60.5 19t44.5 48t27.5 64t9.5 67q0 50 -21.5 81t-69.5 31zM261 680l-57 -263q24 35 61 53t79 18q33 0 62.5 -11.5t51.5 -35t35 -59t13 -83.5q0 -62 -17 -118.5t-49 -99t-77.5 -68
t-101.5 -25.5q-44 0 -80.5 20t-51.5 53l-12 -61h-113l143 680h114z" />
    <glyph glyph-name="c" unicode="c" horiz-adv-x="496" 
d="M373 316q-3 14 -10 27.5t-18.5 24.5t-27.5 18t-38 7q-36 0 -63 -17.5t-45 -45.5t-27 -62.5t-9 -67.5q0 -57 27 -86t73 -29q42 0 69 22t44 54l95 -48q-13 -23 -32 -45.5t-45.5 -40t-61 -28.5t-76.5 -11q-97 0 -150 54t-53 152q0 56 18 109t51.5 94t82.5 66t111 25
q43 0 74.5 -11t54 -30t37 -44t22.5 -53z" />
    <glyph glyph-name="d" unicode="d" horiz-adv-x="549" 
d="M230 82q35 0 61.5 19.5t44 49t26 64.5t8.5 67q0 48 -21 79t-68 31q-35 0 -61.5 -18.5t-44.5 -47t-27 -63.5t-9 -67q0 -51 21.5 -82.5t69.5 -31.5zM570 680l-143 -680h-115l13 56q-24 -35 -60.5 -51.5t-78.5 -16.5q-33 0 -62.5 11.5t-51.5 35t-35 59t-13 83.5
q0 62 17 118.5t49 99t77.5 68t101.5 25.5q44 0 80.5 -20t51.5 -53l56 265h113z" />
    <glyph glyph-name="e" unicode="e" horiz-adv-x="526" 
d="M465 112q-13 -19 -33 -41t-48 -40.5t-65 -30.5t-85 -12q-100 0 -154 56t-54 161q0 55 18.5 106t53 90.5t82.5 63t107 23.5q51 0 88 -16t61 -44t36 -65.5t12 -79.5q0 -18 -2 -38t-6 -35h-341v-14q0 -58 33 -84.5t78 -26.5q47 0 82 23.5t57 60.5zM277 398q-48 0 -83 -30
t-45 -75h227q0 55 -26 80t-73 25z" />
    <glyph glyph-name="f" unicode="f" horiz-adv-x="349" 
d="M353 387h-114l-83 -387h-113l82 387h-84l19 89h84l14 62q9 44 20.5 69t29.5 42q21 20 51 29t72 9q29 0 51 -3t33 -5l-20 -94q-8 1 -22 2.5t-26 1.5q-19 0 -32 -3.5t-23 -13.5q-16 -16 -25 -55l-9 -41h114z" />
    <glyph glyph-name="g" unicode="g" horiz-adv-x="546" 
d="M232 94q35 0 61 19t43.5 48t26 63.5t8.5 64.5q0 47 -21 77t-68 30q-35 0 -61.5 -19t-44.5 -48t-27 -63t-9 -64q0 -48 22 -78t70 -30zM99 -21v-12q0 -39 24 -58.5t75 -19.5q30 0 49 7t31.5 21t19.5 34t13 46l14 64h-1q-17 -22 -50.5 -38.5t-81.5 -16.5q-33 0 -63 10
t-53.5 32t-37 55.5t-13.5 81.5q0 59 17 114t49 97t77.5 67t101.5 25q44 0 80.5 -19t51.5 -51l12 58h111l-105 -493q-12 -56 -33 -91t-49.5 -55t-64.5 -27.5t-78 -7.5q-37 0 -74.5 6.5t-67.5 23t-48.5 45.5t-18.5 73v11t1 12z" />
    <glyph glyph-name="h" unicode="h" horiz-adv-x="545" 
d="M427 0h-113l49 232l8.5 42t4.5 44q0 29 -14 50t-56 21q-30 0 -53 -14t-40.5 -36.5t-28.5 -50t-17 -53.5l-50 -235h-114l145 680h114l-60 -273q23 38 63 59.5t91 21.5q27 0 52 -7.5t44 -23.5t30.5 -41t11.5 -59q0 -16 -2.5 -38.5t-7.5 -48.5z" />
    <glyph glyph-name="i" unicode="i" horiz-adv-x="240" 
d="M117 0h-113l100 476h114zM236 564h-114l25 116h114z" />
    <glyph glyph-name="j" unicode="j" horiz-adv-x="239" 
d="M218 476l-119 -556q-5 -21 -10.5 -39.5t-16.5 -32.5q-20 -27 -49.5 -37.5t-67.5 -10.5q-44 0 -83 10l21 93q9 -2 20 -3t23 -1q11 0 20 2t17 8q6 5 11 14.5t9 28.5l111 524h114zM237 564h-114l25 116h114z" />
    <glyph glyph-name="k" unicode="k" horiz-adv-x="530" 
d="M261 680l-85 -393l230 189h151l-229 -189l138 -287h-130l-98 217l-90 -68l-32 -149h-113l144 680h114z" />
    <glyph glyph-name="l" unicode="l" horiz-adv-x="248" 
d="M265 680l-144 -680h-113l143 680h114z" />
    <glyph glyph-name="m" unicode="m" horiz-adv-x="836" 
d="M654 232l8.5 42t4.5 44q0 29 -14 50t-53 21q-28 0 -50 -14t-38.5 -35.5t-27 -48.5t-16.5 -53l-51 -238h-112l49 232l8.5 42t4.5 44q0 29 -14 50t-53 21q-28 0 -50 -14t-38.5 -35.5t-27 -48.5t-16.5 -53l-51 -238h-114l101 476h114l-16 -69q23 38 62 59.5t84 21.5
q42 0 77 -18.5t50 -59.5q25 30 69 54t101 24q29 0 54.5 -7.5t44.5 -23.5t30 -41t11 -59q0 -16 -2.5 -38.5t-7.5 -48.5l-57 -270h-113z" />
    <glyph glyph-name="n" unicode="n" horiz-adv-x="545" 
d="M427 0h-113l49 232l8.5 42t4.5 44q0 29 -14 50t-56 21q-30 0 -53 -14t-40.5 -36.5t-28.5 -50t-17 -53.5l-50 -235h-114l101 476h114l-16 -69q23 38 63 59.5t91 21.5q27 0 52 -7.5t44 -23.5t30.5 -41t11.5 -59q0 -16 -2.5 -38.5t-7.5 -48.5z" />
    <glyph glyph-name="o" unicode="o" horiz-adv-x="534" 
d="M25 192q0 56 17.5 109.5t51 95t83 66.5t114.5 25q98 0 148.5 -56.5t50.5 -149.5q0 -53 -15.5 -105.5t-47.5 -94.5t-81 -68t-117 -26q-97 0 -150.5 55t-53.5 149zM279 393q-36 0 -63 -18t-45 -46t-27 -63t-9 -68q0 -55 27 -84t73 -29q37 0 64 17.5t44.5 45.5t26 62.5
t8.5 68.5q0 54 -25.5 84t-73.5 30z" />
    <glyph glyph-name="p" unicode="p" horiz-adv-x="550" 
d="M301 394q-35 0 -61.5 -19.5t-44 -49t-26 -64.5t-8.5 -67q0 -48 21 -79t68 -31q34 0 60.5 19t44.5 48t27.5 64t9.5 67q0 50 -21.5 81t-69.5 31zM-36 -190l140 666h115l-14 -59q24 35 61 53t79 18q33 0 62.5 -11.5t51.5 -35t35 -59t13 -83.5q0 -62 -17 -118.5t-49 -99
t-77.5 -68t-101.5 -25.5q-44 0 -80.5 20t-51.5 53l-53 -251h-113z" />
    <glyph glyph-name="q" unicode="q" horiz-adv-x="548" 
d="M230 82q35 0 61.5 19.5t44 49t26 64.5t8.5 67q0 48 -21 79t-68 31q-34 0 -60.5 -19t-44.5 -48t-27.5 -64t-9.5 -67q0 -50 21.5 -81t69.5 -31zM271 -190l54 246q-24 -35 -60.5 -51.5t-78.5 -16.5q-33 0 -62.5 11.5t-51.5 35t-35 59t-13 83.5q0 62 17 118.5t49 99t77.5 68
t101.5 25.5q44 0 80.5 -20t51.5 -53l12 61h113l-140 -666h-115z" />
    <glyph glyph-name="r" unicode="r" horiz-adv-x="356" 
d="M218 476l-17 -72h1q5 12 18 26t32.5 26.5t45 21t54.5 8.5q6 0 12 -0.5t12 -1.5l-26 -117q-8 1 -15.5 1.5t-15.5 0.5q-46 0 -76 -16.5t-50 -48.5q-11 -18 -19 -42t-15 -57l-42 -205h-114l101 476h114z" />
    <glyph glyph-name="s" unicode="s" horiz-adv-x="468" 
d="M361 335q-21 26 -54.5 42.5t-75.5 16.5q-32 0 -49.5 -13t-17.5 -33q0 -22 13.5 -32.5t39.5 -18.5l66 -19q24 -7 46.5 -16.5t40.5 -24.5t28.5 -36.5t10.5 -51.5q0 -39 -14 -69.5t-39.5 -50.5t-61.5 -30.5t-79 -10.5q-45 0 -81 9.5t-63.5 25.5t-47.5 36.5t-33 43.5l79 62
q16 -31 52.5 -56.5t95.5 -25.5q42 0 62 15t20 38q0 22 -17.5 32t-45.5 18l-67 18q-21 6 -42 15t-37.5 25t-27 38.5t-10.5 55.5q0 37 15 65t40 47t57 28.5t67 9.5q69 0 122 -25t84 -67z" />
    <glyph glyph-name="t" unicode="t" horiz-adv-x="359" 
d="M269 -5q-12 -3 -32.5 -5t-50.5 -2q-23 0 -45.5 3t-40.5 11.5t-29 23t-11 37.5q0 12 3 28.5t8 38.5l54 257h-91l19 89h91l37 173l117 18l-40 -191h114l-19 -89h-114l-49 -238q-5 -23 -5 -33q0 -22 16.5 -28t44.5 -6q10 0 18.5 0.5t14.5 1.5q7 1 12 2z" />
    <glyph glyph-name="u" unicode="u" horiz-adv-x="540" 
d="M98 476h113l-49 -232l-8.5 -42t-4.5 -44q0 -29 13.5 -50t56.5 -21q27 0 49.5 14t39.5 36.5t28.5 50t17.5 53.5l50 235h114l-101 -476h-114l16 69q-23 -38 -62.5 -59.5t-88.5 -21.5q-28 0 -53 8t-43.5 24.5t-29.5 41.5t-11 59q0 16 2.5 37.5t7.5 47.5z" />
    <glyph glyph-name="v" unicode="v" horiz-adv-x="461" 
d="M491 476l-258 -476h-125l-54 476h117l21 -246q2 -19 3 -35t2 -29q1 -15 2 -28h1q5 13 12 28l14 30t19 37l122 243h124z" />
    <glyph glyph-name="w" unicode="w" horiz-adv-x="744" 
d="M387 187q-2 35 -3 71l-2 73h-1l-33.5 -73.5t-35.5 -72.5l-93 -185h-126l-36 476h120l9 -213q2 -35 2.5 -65.5t1.5 -67.5h1l14.5 33.5l13 31.5t14.5 33l18 38l99 210h122l10 -213q1 -23 2 -39.5t1.5 -31l1 -29.5t0.5 -33h1q7 18 13.5 33l13 30l14 32.5t18.5 40.5l99 210
h126l-243 -476h-132z" />
    <glyph glyph-name="x" unicode="x" horiz-adv-x="473" 
d="M491 476l-199 -229l118 -247h-122l-74 165l-134 -165h-134l223 256l-103 220h122l59 -138l109 138h135z" />
    <glyph glyph-name="y" unicode="y" horiz-adv-x="462" 
d="M-26 -101q8 -2 17.5 -3t20.5 -1q21 0 35.5 5t26 16t21 28t20.5 41l-68 491h118l26 -255q2 -17 3 -34.5t3 -31.5q2 -17 3 -33h1l13 30l13.5 31l15.5 35l121 258h120l-270 -533q-19 -38 -36 -63t-36 -41q-23 -20 -53 -29t-73 -9q-18 0 -34 2t-27 4z" />
    <glyph glyph-name="z" unicode="z" horiz-adv-x="486" 
d="M488 476l-19 -89l-318 -287h257l-21 -100h-414l19 88l321 288h-244l21 100h398z" />
    <glyph glyph-name="braceleft" unicode="{" horiz-adv-x="327" 
d="M227 383q-6 -28 -12 -45.5t-13 -29t-16.5 -18.5t-21.5 -13q22 -21 22 -59q0 -24 -6 -51.5t-11 -53.5l-21 -106q-5 -21 -6.5 -31.5t-1.5 -18.5q0 -11 3.5 -17.5t12.5 -10t24.5 -5.5t40.5 -2l-17 -81h-20q-32 0 -60.5 3t-49.5 13.5t-33 31.5t-12 57q0 20 6 51l11 57l21 97
q4 19 6.5 32.5t2.5 23.5q0 17 -11.5 25.5t-40.5 13.5l18 85q23 0 37.5 6.5t23.5 19t14.5 31.5t10.5 45l19 96q9 42 18.5 71.5t27 47.5t45.5 26t73 8q21 0 39 -0.5t29 -2.5l-18 -83q-7 1 -13 1h-11q-24 0 -38 -5t-22.5 -16.5t-13.5 -28.5t-10 -41z" />
    <glyph glyph-name="bar" unicode="|" horiz-adv-x="303" 
d="M90 680h113v-838h-113v838z" />
    <glyph glyph-name="braceright" unicode="}" horiz-adv-x="326" 
d="M95 164q6 28 12 45.5t13 29t16.5 18.5t21.5 13q-22 21 -22 59q0 24 6 51.5t11 53.5l16 82q5 21 6.5 31.5t1.5 18.5q0 21 -16.5 27.5t-62.5 7.5l17 81h18q32 0 60.5 -2.5t49.5 -13t33 -31t12 -56.5q0 -21 -5.5 -52t-11.5 -58l-16 -73q-4 -19 -6.5 -32.5t-2.5 -23.5
q0 -17 11.5 -25.5t40.5 -13.5l-18 -85q-23 0 -37.5 -6.5t-23.5 -19t-14.5 -31.5t-10.5 -45l-24 -120q-9 -42 -18.5 -71.5t-27 -47.5t-45.5 -26t-73 -8q-21 0 -39.5 0.5t-29.5 2.5l19 83q7 -1 13 -1h11q24 0 38 5t22.5 16.5t13.5 28.5t10 41z" />
    <glyph glyph-name="asciitilde" unicode="~" horiz-adv-x="575" 
d="M543 286q-30 -38 -74 -58.5t-86 -20.5q-18 0 -33 3t-28.5 8t-27.5 12l-30 15q-15 8 -36 16.5t-40 8.5q-17 0 -41 -9.5t-56 -48.5l-55 89q7 12 21.5 27t34 27.5t44.5 21.5t54 9q33 0 60.5 -11.5t58.5 -27.5l34.5 -17t43.5 -9q28 0 57 14.5t49 37.5z" />
    <glyph glyph-name="uni00A0" unicode="&#xa0;" horiz-adv-x="200" 
 />
    <glyph glyph-name="exclamdown" unicode="&#xa1;" horiz-adv-x="237" 
d="M-41 -204l63 300l57 206h87l-31 -206l-63 -300h-113zM73 349l27 127h121l-26 -127h-122z" />
    <glyph glyph-name="cent" unicode="&#xa2;" horiz-adv-x="516" 
d="M380 316q-5 17 -14.5 34t-26.5 28l-61 -288q26 8 45 27.5t32 43.5l95 -48q-12 -22 -30 -43t-42 -38t-54.5 -28.5t-67.5 -14.5l-21 -102h-95l23 111q-63 17 -97 67.5t-34 128.5q0 52 16 102.5t46 90.5t73.5 66.5t99.5 32.5l20 94h95l-22 -101q53 -14 81.5 -49.5
t41.5 -79.5zM142 200q0 -36 11.5 -61t31.5 -39l61 286q-26 -9 -45.5 -28.5t-32.5 -45t-19.5 -55t-6.5 -57.5z" />
    <glyph glyph-name="sterling" unicode="&#xa3;" horiz-adv-x="558" 
d="M457 482v17q0 16 -3.5 31.5t-12.5 28t-23 20t-35 7.5q-30 0 -49 -15t-30.5 -41.5t-18 -61t-12.5 -73.5h143l-22 -104h-135q-8 -44 -14 -74t-13 -51t-15 -34.5t-19 -23.5v-1h45q20 0 44.5 0.5t49.5 0.5h146l-22 -108h-475l21 98q28 1 48.5 8.5t35.5 23t25.5 40.5t18.5 63
q3 13 6 27.5t5 30.5h-101l22 104h94q8 58 21 111t37.5 93.5t65 64t102.5 23.5q90 0 132.5 -46t42.5 -124v-17z" />
    <glyph glyph-name="currency" unicode="&#xa4;" horiz-adv-x="603" 
d="M97 282q0 29 7 55t20 49l-27 26l-36 34l79 79l61 -62q44 25 101 25q28 0 54 -5.5t49 -18.5l59 59l77 -77l-59 -60q25 -44 25 -104q0 -29 -5.5 -54.5t-18.5 -48.5l59 -57l-78 -78l-59 59q-46 -25 -103 -25q-28 0 -54 5.5t-49 19.5l-60 -60l-78 78l61 60q-25 45 -25 101z
M206 282q0 -41 27.5 -69.5t68.5 -28.5q21 0 39 7.5t30.5 21t20 31.5t7.5 38q0 42 -27 70.5t-70 28.5q-20 0 -37.5 -7.5t-30.5 -21t-20.5 -31.5t-7.5 -39z" />
    <glyph glyph-name="yen" unicode="&#xa5;" horiz-adv-x="678" 
d="M256 217l13 63h-180l21 98h126l-122 321h119l116 -314l252 314h138l-272 -321h130l-21 -98h-188l-13 -63h188l-21 -98h-187l-24 -120h-119l24 120h-181l21 98h180z" />
    <glyph glyph-name="brokenbar" unicode="&#xa6;" horiz-adv-x="315" 
d="M96 680h113v-323h-113v323zM96 164h113v-323h-113v323z" />
    <glyph glyph-name="section" unicode="&#xa7;" horiz-adv-x="508" 
d="M280 228q31 8 53 27.5t22 49.5q0 29 -22 44t-51 29l-31 15q-37 -2 -60.5 -20t-23.5 -45q0 -29 21 -46.5t61 -37.5zM349 467q23 -12 45 -25t38.5 -30t26.5 -38.5t10 -51.5t-10 -55t-26 -44t-34.5 -32.5t-36.5 -20.5q17 -16 32 -37.5t15 -56.5q0 -78 -54 -119.5t-141 -41.5
q-42 0 -77.5 9.5t-64 25.5t-49.5 36.5t-34 43.5l79 62q16 -31 53.5 -56.5t94.5 -25.5q39 0 60.5 14t21.5 41q0 12 -5.5 21t-14.5 16t-20.5 13l-23.5 12l-49 25q-29 15 -53.5 31t-42 35t-27 43t-9.5 56q0 52 31.5 86t80.5 47q-16 16 -26 38t-10 54q0 37 15 65t40 47t57 28.5
t67 9.5q69 0 122 -25t84 -67l-76 -61q-21 26 -55 42.5t-73 16.5q-33 0 -51 -13t-18 -33q0 -21 14.5 -33t50.5 -30z" />
    <glyph glyph-name="dieresis" unicode="&#xa8;" horiz-adv-x="480" 
d="M190 670h108l-25 -118h-108zM377 670h108l-25 -118h-108z" />
    <glyph glyph-name="copyright" unicode="&#xa9;" horiz-adv-x="779" 
d="M563 248q-6 -14 -18.5 -30.5t-31 -31.5t-45 -25t-60.5 -10q-44 0 -78.5 14.5t-57.5 40.5t-35 62t-12 80t13 80t36.5 62t57.5 40.5t76 14.5q33 0 58.5 -9.5t44 -23t31 -29t19.5 -27.5l-65 -45q-30 64 -88 64q-48 0 -73.5 -35t-25.5 -92t25.5 -91t73.5 -34q57 0 87 59z
M745 350q0 -72 -26 -134.5t-72 -108.5t-108 -72.5t-135 -26.5t-135.5 26.5t-108 72.5t-71.5 108.5t-26 134.5t26 134.5t71.5 108.5t108 72.5t135.5 26.5t135 -26.5t108 -72.5t72 -108.5t26 -134.5zM662 350q0 54 -20 102t-54.5 84t-81.5 56.5t-102 20.5t-102 -20.5
t-81.5 -56.5t-54.5 -84t-20 -102t20 -102t54.5 -84t81.5 -56.5t102 -20.5t102 20.5t81.5 56.5t54.5 84t20 102z" />
    <glyph glyph-name="ordfeminine" unicode="&#xaa;" horiz-adv-x="382" 
d="M287 509q-8 -2 -15 -3t-19 -3l-22 -3q-32 -5 -52 -14t-20 -30q0 -38 47 -38q27 0 46 12t24 33zM346 434q-1 -4 -1 -10q0 -10 15 -10h7l-14 -55q-4 -1 -11 -2t-21 -1q-18 0 -32 6t-19 22q-13 -10 -34 -19t-53 -9q-20 0 -39 5.5t-33.5 17t-23 28.5t-8.5 40q0 54 33.5 78
t92.5 32l83 11q12 1 14 11l2 10t1 11q0 16 -14 22t-37 6q-30 0 -47 -12.5t-21 -41.5l-76 4q4 31 18 52t35 34.5t47 19.5t54 6q51 0 84 -19.5t33 -61.5q0 -11 -1.5 -20t-3.5 -16z" />
    <glyph glyph-name="guillemotleft" unicode="&#xab;" horiz-adv-x="455" 
d="M33 229l29 127l181 128l-29 -132l-105 -67l75 -78l-24 -117zM229 229l29 127l181 128l-29 -132l-105 -67l75 -78l-24 -117z" />
    <glyph glyph-name="logicalnot" unicode="&#xac;" 
d="M521 178h-114v180h-342v96h456v-276z" />
    <glyph glyph-name="uni00AD" unicode="&#xad;" horiz-adv-x="407" 
d="M46 214l23 108h285l-23 -108h-285z" />
    <glyph glyph-name="registered" unicode="&#xae;" horiz-adv-x="779" 
d="M745 350q0 -72 -26 -134.5t-72 -108.5t-108 -72.5t-135 -26.5t-135.5 26.5t-108 72.5t-71.5 108.5t-26 134.5t26 134.5t71.5 108.5t108 72.5t135.5 26.5t135 -26.5t108 -72.5t72 -108.5t26 -134.5zM662 350q0 54 -20 102t-54.5 84t-81.5 56.5t-102 20.5t-102 -20.5
t-81.5 -56.5t-54.5 -84t-20 -102t20 -102t54.5 -84t81.5 -56.5t102 -20.5t102 20.5t81.5 56.5t54.5 84t20 102zM326 162h-78v379h167q54 0 81 -14q29 -14 49.5 -41t20.5 -67q0 -49 -25.5 -77t-63.5 -40l102 -140h-99l-95 135h-59v-135zM405 370q24 0 37 1.5t21 5.5
q24 12 24 42q0 31 -24 42q-8 4 -20.5 5t-37.5 1h-79v-97h79z" />
    <glyph glyph-name="macron" unicode="&#xaf;" horiz-adv-x="500" 
d="M183 680h292l-19 -93h-292z" />
    <glyph glyph-name="degree" unicode="&#xb0;" horiz-adv-x="441" 
d="M92 545q0 38 14 71t39 58t58 39t71 14t71 -14t58 -39t39 -58t14 -71t-14 -71t-39 -58t-58 -39t-71 -14t-71 14t-58 39t-39 58t-14 71zM198 545q0 -31 22.5 -53.5t53.5 -22.5t53.5 22.5t22.5 53.5t-22.5 53.5t-53.5 22.5t-53.5 -22.5t-22.5 -53.5z" />
    <glyph glyph-name="plusminus" unicode="&#xb1;" horiz-adv-x="739" 
d="M58 0v106h592v-106h-592zM408 136h-107v157h-243v106h243v198h107v-198h242v-106h-242v-157z" />
    <glyph glyph-name="twosuperior" unicode="&#xb2;" horiz-adv-x="408" 
d="M111 510q-3 16 -3 27q0 30 10 57t29.5 47t48 31.5t64.5 11.5q71 0 108 -36.5t37 -92.5q0 -35 -16 -66t-42 -57.5t-58 -48t-64 -37.5v-1h34q14 0 29.5 0.5t28.5 0.5h58l-21 -88h-302l13 78q29 15 72 42t84 58q34 26 59 52t25 61q0 21 -11.5 34t-34.5 13q-30 0 -42.5 -20.5
t-12.5 -46.5q0 -16 5 -36z" />
    <glyph glyph-name="threesuperior" unicode="&#xb3;" horiz-adv-x="382" 
d="M150 413q3 -29 19.5 -47.5t44.5 -18.5q26 0 40.5 13.5t14.5 36.5q0 47 -76 47h-24l15 70h38q64 0 64 47q0 17 -11.5 28.5t-34.5 11.5q-26 0 -38.5 -16.5t-15.5 -39.5l-85 14q3 24 13.5 47t29 40t44.5 27.5t60 10.5q33 0 57.5 -9t41 -24.5t25 -35.5t8.5 -42
q0 -41 -20.5 -64t-45.5 -34q19 -11 34.5 -33t15.5 -54q0 -55 -37.5 -90.5t-113.5 -35.5q-35 0 -62 10t-46 28t-30 42t-13 52z" />
    <glyph glyph-name="acute" unicode="&#xb4;" horiz-adv-x="450" 
d="M415 680l-101 -128h-98l64 128h135z" />
    <glyph glyph-name="mu" unicode="&#xb5;" horiz-adv-x="536" 
d="M-34 -190l141 666h114l-13 -61l-46 -216q-4 -19 -4 -41q0 -29 13.5 -50t56.5 -21q27 0 49.5 14t39.5 36.5t28.5 50t17.5 53.5l50 235h114l-101 -476h-114l16 69q-21 -37 -62 -56t-83 -19q-37 0 -63 13l-41 -197h-113z" />
    <glyph glyph-name="paragraph" unicode="&#xb6;" horiz-adv-x="638" 
d="M269 297h-8q-40 0 -74.5 10t-60 31t-40 52.5t-14.5 74.5q0 101 62 155q18 15 38.5 26.5t48.5 19t65.5 11t88.5 3.5h306l-17 -83h-71l-154 -725h-85l154 725h-87l-154 -725h-88z" />
    <glyph glyph-name="periodcentered" unicode="&#xb7;" horiz-adv-x="249" 
d="M210 386l-29 -132h-129l29 132h129z" />
    <glyph glyph-name="cedilla" unicode="&#xb8;" horiz-adv-x="445" 
d="M220 3l-38 -33q35 -1 59 -19.5t24 -56.5q0 -23 -9 -39.5t-23 -27.5t-33 -16.5t-38 -5.5q-31 0 -56 12l15 46q13 -5 21.5 -6t16.5 -1q18 0 29.5 8.5t11.5 23.5q0 17 -12 24t-28 7q-17 0 -37 -10l-23 42l62 52h58z" />
    <glyph glyph-name="onesuperior" unicode="&#xb9;" horiz-adv-x="275" 
d="M113 263l58 258h-93l19 81h33q38 0 55 22.5t25 55.5h88l-92 -417h-93z" />
    <glyph glyph-name="ordmasculine" unicode="&#xba;" horiz-adv-x="376" 
d="M259 691q60 0 95.5 -34.5t35.5 -96.5q0 -37 -10.5 -73t-32.5 -65t-54.5 -47t-75.5 -18q-64 0 -97 37.5t-33 98.5q0 38 11.5 74t33.5 63.5t54 44t73 16.5zM220 425q24 0 41.5 12.5t28.5 31.5t16.5 42t5.5 44q0 32 -13 51t-45 19q-22 0 -39 -12t-28.5 -30.5t-17.5 -41
t-6 -43.5q0 -35 14 -54t43 -19z" />
    <glyph glyph-name="guillemotright" unicode="&#xbb;" horiz-adv-x="455" 
d="M424 345l-29 -127l-181 -128l30 135l105 67l-75 78l23 114zM228 345l-29 -127l-181 -128l30 135l105 67l-75 78l23 114z" />
    <glyph glyph-name="onequarter" unicode="&#xbc;" horiz-adv-x="799" 
d="M734 417l-54 -242h67l-15 -72h-67l-22 -103h-91l23 103h-179l15 64l236 250h87zM117 263l58 258h-93l19 81h33q38 0 55 22.5t25 55.5h88l-92 -417h-93zM198 0h-107l456 680h105zM591 175l14 61q2 8 3.5 16t3.5 15q2 8 3 15h-1q-4 -6 -9 -12q-5 -5 -10.5 -11.5
l-10.5 -12.5l-24 -27q-6 -8 -13.5 -15l-14.5 -14l-15 -15v-1h12q5 0 11 0.5t11 0.5h40z" />
    <glyph glyph-name="onehalf" unicode="&#xbd;" horiz-adv-x="829" 
d="M116 263l58 258h-93l19 81h33q38 0 55 22.5t25 55.5h88l-92 -417h-93zM490 252q-3 16 -3 27q0 30 10 57t29.5 47t48 31.5t64.5 11.5q71 0 108 -36.5t37 -92.5q0 -35 -16 -66t-42 -57.5t-58 -48t-64 -37.5v-1h34q14 0 29.5 0.5t28.5 0.5h58l-21 -88h-302l13 78
q29 15 72 42t84 58q34 26 59 52t25 61q0 21 -11.5 34t-34.5 13q-30 0 -42.5 -20.5t-12.5 -46.5q0 -16 5 -36zM197 0h-107l456 680h105z" />
    <glyph glyph-name="threequarters" unicode="&#xbe;" horiz-adv-x="912" 
d="M146 413q3 -29 19.5 -47.5t44.5 -18.5q26 0 40.5 13.5t14.5 36.5q0 47 -76 47h-24l15 70h38q64 0 64 47q0 17 -11.5 28.5t-34.5 11.5q-26 0 -38.5 -16.5t-15.5 -39.5l-85 14q3 24 13.5 47t29 40t44.5 27.5t60 10.5q33 0 57.5 -9t41 -24.5t25 -35.5t8.5 -42
q0 -41 -20.5 -64t-45.5 -34q19 -11 34.5 -33t15.5 -54q0 -55 -37.5 -90.5t-113.5 -35.5q-35 0 -62 10t-46 28t-30 42t-13 52zM311 0h-107l456 680h105zM847 417l-54 -242h67l-15 -72h-67l-22 -103h-91l23 103h-179l15 64l236 250h87zM704 175l14 61q2 8 3.5 16t3.5 15
q2 8 3 15h-1q-4 -6 -9 -12q-5 -5 -10.5 -11.5l-10.5 -12.5l-24 -27q-6 -8 -13.5 -15l-14.5 -14l-15 -15v-1h12q5 0 11 0.5t11 0.5h40z" />
    <glyph glyph-name="questiondown" unicode="&#xbf;" horiz-adv-x="484" 
d="M383 48q7 -28 7 -57q0 -43 -16 -80.5t-45.5 -65t-71.5 -43t-93 -15.5q-53 0 -90.5 14t-62 38t-36 55t-11.5 66q0 59 29.5 106.5t76.5 82.5l73 54q13 10 23 20t17.5 22.5t12.5 28.5t9 37h115q-7 -39 -15.5 -65.5t-21.5 -46.5t-31.5 -37.5t-46.5 -38.5l-65 -48
q-33 -24 -46 -51.5t-13 -55.5q0 -34 22 -58t71 -24q28 0 48.5 9.5t33.5 25.5t19 37.5t6 44.5q0 15 -2.5 31.5t-7.5 30.5zM208 345l26 131h123l-27 -131h-122z" />
    <glyph glyph-name="Agrave" unicode="&#xc0;" horiz-adv-x="618" 
d="M77 0h-128l379 680h135l92 -680h-123l-18 154h-252zM404 255l-25 211q-2 12 -3.5 26t-2.5 27q-2 14 -2 29h-1q-7 -15 -15 -30l-14.5 -28l-13.5 -27l-111 -208h188zM384 889l67 -145h-98l-109 145h140z" />
    <glyph glyph-name="Aacute" unicode="&#xc1;" horiz-adv-x="618" 
d="M77 0h-128l379 680h135l92 -680h-123l-18 154h-252zM404 255l-25 211q-2 12 -3.5 26t-2.5 27q-2 14 -2 29h-1q-7 -15 -15 -30l-14.5 -28l-13.5 -27l-111 -208h188zM566 889l-109 -145h-98l67 145h140z" />
    <glyph glyph-name="Acircumflex" unicode="&#xc2;" horiz-adv-x="618" 
d="M77 0h-128l379 680h135l92 -680h-123l-18 154h-252zM404 255l-25 211q-2 12 -3.5 26t-2.5 27q-2 14 -2 29h-1q-7 -15 -15 -30l-14.5 -28l-13.5 -27l-111 -208h188zM415 806l-69 -62h-118l158 145h80l95 -145h-106z" />
    <glyph glyph-name="Atilde" unicode="&#xc3;" horiz-adv-x="618" 
d="M77 0h-128l379 680h135l92 -680h-123l-18 154h-252zM404 255l-25 211q-2 12 -3.5 26t-2.5 27q-2 14 -2 29h-1q-7 -15 -15 -30l-14.5 -28l-13.5 -27l-111 -208h188zM587 854q-8 -19 -17.5 -37.5t-23 -33.5t-31 -24t-41.5 -9q-20 0 -35 5t-31 13l-31.5 15t-25.5 7
q-17 0 -25 -14t-13 -29l-73 23q3 12 11.5 30t22.5 34.5t33.5 28t45.5 11.5q19 0 34.5 -6t30.5 -14q14 -8 27.5 -13.5t26.5 -5.5q17 0 27.5 13.5t15.5 29.5z" />
    <glyph glyph-name="Adieresis" unicode="&#xc4;" horiz-adv-x="618" 
d="M77 0h-128l379 680h135l92 -680h-123l-18 154h-252zM404 255l-25 211q-2 12 -3.5 26t-2.5 27q-2 14 -2 29h-1q-7 -15 -15 -30l-14.5 -28l-13.5 -27l-111 -208h188zM281 871h112l-27 -127h-112zM472 871h112l-27 -127h-112z" />
    <glyph glyph-name="Aring" unicode="&#xc5;" horiz-adv-x="618" 
d="M77 0h-128l379 680h135l92 -680h-123l-18 154h-252zM404 255l-25 211q-2 12 -3.5 26t-2.5 27q-2 14 -2 29h-1q-7 -15 -15 -30l-14.5 -28l-13.5 -27l-111 -208h188zM306 829q0 46 31 76.5t77 30.5t77 -30.5t31 -76.5t-31 -76.5t-77 -30.5t-77 30.5t-31 76.5zM374 829
q0 -17 11.5 -28t27.5 -11t27.5 11t11.5 28t-11.5 28t-27.5 11t-27.5 -11t-11.5 -28z" />
    <glyph glyph-name="AE" unicode="&#xc6;" horiz-adv-x="911" 
d="M595 573l-37 -168h290l-23 -107h-290l-40 -191h343l-22 -107h-464l38 176h-201l-131 -176h-138l511 680h505l-22 -107h-319zM453 469q5 22 9 42t8 35q4 18 8 33h-1l-21 -33l-21.5 -31l-22.5 -33l-146 -205h145z" />
    <glyph glyph-name="Ccedilla" unicode="&#xc7;" horiz-adv-x="642" 
d="M274 -9q-57 7 -99 31t-69 62t-40.5 88t-13.5 109q0 76 22.5 150t66 132t108.5 93.5t151 35.5q100 0 164.5 -49t88.5 -129l-107 -51q-14 57 -51 89.5t-102 32.5q-57 0 -99 -26.5t-69 -68.5t-40 -95.5t-13 -107.5q0 -89 39 -140t120 -51q59 0 100.5 27.5t68.5 72.5l97 -58
q-41 -64 -106.5 -106t-162.5 -44l-19 -18q35 -1 59 -19.5t24 -56.5q0 -23 -9 -39.5t-23 -27.5t-33 -16.5t-38 -5.5q-31 0 -56 12l15 46q13 -5 21.5 -6t16.5 -1q18 0 29.5 8.5t11.5 23.5q0 17 -12 24t-28 7q-17 0 -37 -10l-23 42z" />
    <glyph glyph-name="Egrave" unicode="&#xc8;" horiz-adv-x="611" 
d="M259 573l-37 -168h326l-23 -107h-326l-40 -191h379l-22 -107h-498l144 680h474l-22 -107h-355zM404 889l67 -145h-98l-109 145h140z" />
    <glyph glyph-name="Eacute" unicode="&#xc9;" horiz-adv-x="611" 
d="M259 573l-37 -168h326l-23 -107h-326l-40 -191h379l-22 -107h-498l144 680h474l-22 -107h-355zM553 889l-109 -145h-98l67 145h140z" />
    <glyph glyph-name="Ecircumflex" unicode="&#xca;" horiz-adv-x="611" 
d="M259 573l-37 -168h326l-23 -107h-326l-40 -191h379l-22 -107h-498l144 680h474l-22 -107h-355zM432 806l-69 -62h-118l158 145h80l95 -145h-106z" />
    <glyph glyph-name="Edieresis" unicode="&#xcb;" horiz-adv-x="611" 
d="M259 573l-37 -168h326l-23 -107h-326l-40 -191h379l-22 -107h-498l144 680h474l-22 -107h-355zM292 871h112l-27 -127h-112zM483 871h112l-27 -127h-112z" />
    <glyph glyph-name="Igrave" unicode="&#xcc;" horiz-adv-x="273" 
d="M280 680l-144 -680h-118l143 680h119zM214 889l67 -145h-98l-109 145h140z" />
    <glyph glyph-name="Iacute" unicode="&#xcd;" horiz-adv-x="273" 
d="M280 680l-144 -680h-118l143 680h119zM392 889l-109 -145h-98l67 145h140z" />
    <glyph glyph-name="Icircumflex" unicode="&#xce;" horiz-adv-x="273" 
d="M280 680l-144 -680h-118l143 680h119zM248 806l-69 -62h-118l158 145h80l95 -145h-106z" />
    <glyph glyph-name="Idieresis" unicode="&#xcf;" horiz-adv-x="273" 
d="M280 680l-144 -680h-118l143 680h119zM109 871h112l-27 -127h-112zM300 871h112l-27 -127h-112z" />
    <glyph glyph-name="Eth" unicode="&#xd0;" horiz-adv-x="696" 
d="M30 0l61 289h-96l20 101h97l62 290h165q83 0 139.5 -12.5t98.5 -41.5q45 -32 69.5 -81.5t24.5 -122.5q0 -53 -11 -108t-33 -105t-55 -92t-78 -68q-28 -17 -54 -26.5t-53 -14.5t-57 -6.5t-67 -1.5h-233zM231 390h168l-21 -101h-168l-39 -181h93q54 0 97 7t75 30
q30 21 52 54.5t36.5 71t22 75t7.5 68.5q0 88 -57 126q-33 21 -79 25.5t-95 4.5h-53z" />
    <glyph glyph-name="Ntilde" unicode="&#xd1;" horiz-adv-x="709" 
d="M18 0l144 680h120l149 -336l23 -53.5t21 -50.5q11 -26 20 -51h1q6 35 14 73q6 32 14.5 73l17.5 83l57 262h117l-144 -680h-120l-158 365q-14 31 -24 56.5l-17 42.5q-8 20 -13 36h-1l-16 -83l-14.5 -74t-14.5 -71l-57 -272h-119zM635 854q-8 -19 -17.5 -37.5t-23 -33.5
t-31 -24t-41.5 -9q-20 0 -35 5t-31 13l-31.5 15t-25.5 7q-17 0 -25 -14t-13 -29l-73 23q3 12 11.5 30t22.5 34.5t33.5 28t45.5 11.5q19 0 34.5 -6t30.5 -14q14 -8 27.5 -13.5t26.5 -5.5q17 0 27.5 13.5t15.5 29.5z" />
    <glyph glyph-name="Ograve" unicode="&#xd2;" horiz-adv-x="710" 
d="M420 889l67 -145h-98l-109 145h140zM52 281q0 76 22.5 150t66.5 132t110.5 93.5t153.5 35.5q65 0 116.5 -20.5t87.5 -58.5t55 -91t19 -117q0 -77 -21.5 -151.5t-66 -133.5t-112 -95.5t-159.5 -36.5q-69 0 -120 21.5t-85 60t-50.5 92.5t-16.5 119zM398 585q-60 0 -103 -27
t-70 -69.5t-40 -96.5t-13 -108q0 -87 39 -137.5t120 -50.5q57 0 100.5 27t73 70t44 97t14.5 108q0 86 -42 136.5t-123 50.5z" />
    <glyph glyph-name="Oacute" unicode="&#xd3;" horiz-adv-x="710" 
d="M577 889l-109 -145h-98l67 145h140zM52 281q0 76 22.5 150t66.5 132t110.5 93.5t153.5 35.5q65 0 116.5 -20.5t87.5 -58.5t55 -91t19 -117q0 -77 -21.5 -151.5t-66 -133.5t-112 -95.5t-159.5 -36.5q-69 0 -120 21.5t-85 60t-50.5 92.5t-16.5 119zM398 585q-60 0 -103 -27
t-70 -69.5t-40 -96.5t-13 -108q0 -87 39 -137.5t120 -50.5q57 0 100.5 27t73 70t44 97t14.5 108q0 86 -42 136.5t-123 50.5z" />
    <glyph glyph-name="Ocircumflex" unicode="&#xd4;" horiz-adv-x="710" 
d="M446 806l-69 -62h-118l158 145h80l95 -145h-106zM52 281q0 76 22.5 150t66.5 132t110.5 93.5t153.5 35.5q65 0 116.5 -20.5t87.5 -58.5t55 -91t19 -117q0 -77 -21.5 -151.5t-66 -133.5t-112 -95.5t-159.5 -36.5q-69 0 -120 21.5t-85 60t-50.5 92.5t-16.5 119zM398 585
q-60 0 -103 -27t-70 -69.5t-40 -96.5t-13 -108q0 -87 39 -137.5t120 -50.5q57 0 100.5 27t73 70t44 97t14.5 108q0 86 -42 136.5t-123 50.5z" />
    <glyph glyph-name="Otilde" unicode="&#xd5;" horiz-adv-x="710" 
d="M615 854q-8 -19 -17.5 -37.5t-23 -33.5t-31 -24t-41.5 -9q-20 0 -35 5t-31 13l-31.5 15t-25.5 7q-17 0 -25 -14t-13 -29l-73 23q3 12 11.5 30t22.5 34.5t33.5 28t45.5 11.5q19 0 34.5 -6t30.5 -14q14 -8 27.5 -13.5t26.5 -5.5q17 0 27.5 13.5t15.5 29.5zM52 281
q0 76 22.5 150t66.5 132t110.5 93.5t153.5 35.5q65 0 116.5 -20.5t87.5 -58.5t55 -91t19 -117q0 -77 -21.5 -151.5t-66 -133.5t-112 -95.5t-159.5 -36.5q-69 0 -120 21.5t-85 60t-50.5 92.5t-16.5 119zM398 585q-60 0 -103 -27t-70 -69.5t-40 -96.5t-13 -108
q0 -87 39 -137.5t120 -50.5q57 0 100.5 27t73 70t44 97t14.5 108q0 86 -42 136.5t-123 50.5z" />
    <glyph glyph-name="Odieresis" unicode="&#xd6;" horiz-adv-x="710" 
d="M297 871h112l-27 -127h-112zM488 871h112l-27 -127h-112zM52 281q0 76 22.5 150t66.5 132t110.5 93.5t153.5 35.5q65 0 116.5 -20.5t87.5 -58.5t55 -91t19 -117q0 -77 -21.5 -151.5t-66 -133.5t-112 -95.5t-159.5 -36.5q-69 0 -120 21.5t-85 60t-50.5 92.5t-16.5 119z
M398 585q-60 0 -103 -27t-70 -69.5t-40 -96.5t-13 -108q0 -87 39 -137.5t120 -50.5q57 0 100.5 27t73 70t44 97t14.5 108q0 86 -42 136.5t-123 50.5z" />
    <glyph glyph-name="multiply" unicode="&#xd7;" horiz-adv-x="716" 
d="M285 298l-209 209l76 76l209 -209l211 209l76 -75l-211 -210l211 -211l-76 -76l-211 211l-210 -211l-75 76z" />
    <glyph glyph-name="Oslash" unicode="&#xd8;" horiz-adv-x="738" 
d="M71 281q0 76 22 150t66 132t110 93.5t155 35.5q69 0 122.5 -23t89.5 -65l94 69l66 -93l-107 -78q13 -43 13 -97q0 -77 -21.5 -151.5t-66 -133.5t-112 -95.5t-159.5 -36.5q-78 0 -133 26.5t-88 74.5l-86 -63l-68 92l110 80q-4 20 -5.5 40.5t-1.5 42.5zM582 398
q0 6 -0.5 12.5t-0.5 12.5l-361 -263q20 -31 52 -47.5t78 -16.5q57 0 100.5 27t73 70t44 97t14.5 108zM417 585q-60 0 -103 -27t-70 -69.5t-40 -96.5t-13 -108v-4l349 254q-43 51 -123 51z" />
    <glyph glyph-name="Ugrave" unicode="&#xd9;" horiz-adv-x="673" 
d="M294 -12q-59 0 -103.5 14.5t-74 41t-44 63.5t-14.5 81q0 19 3.5 43.5t8.5 50.5l83 398h119l-84 -398q-5 -22 -8.5 -42.5t-3.5 -40.5q0 -104 126 -104q38 0 67.5 8.5t52.5 29.5q36 33 58 134l87 413h117l-87 -419q-16 -78 -40.5 -129.5t-62.5 -82.5q-33 -27 -83.5 -44
t-116.5 -17zM426 889l67 -145h-98l-109 145h140z" />
    <glyph glyph-name="Uacute" unicode="&#xda;" horiz-adv-x="673" 
d="M294 -12q-59 0 -103.5 14.5t-74 41t-44 63.5t-14.5 81q0 19 3.5 43.5t8.5 50.5l83 398h119l-84 -398q-5 -22 -8.5 -42.5t-3.5 -40.5q0 -104 126 -104q38 0 67.5 8.5t52.5 29.5q36 33 58 134l87 413h117l-87 -419q-16 -78 -40.5 -129.5t-62.5 -82.5q-33 -27 -83.5 -44
t-116.5 -17zM573 889l-109 -145h-98l67 145h140z" />
    <glyph glyph-name="Ucircumflex" unicode="&#xdb;" horiz-adv-x="673" 
d="M294 -12q-59 0 -103.5 14.5t-74 41t-44 63.5t-14.5 81q0 19 3.5 43.5t8.5 50.5l83 398h119l-84 -398q-5 -22 -8.5 -42.5t-3.5 -40.5q0 -104 126 -104q38 0 67.5 8.5t52.5 29.5q36 33 58 134l87 413h117l-87 -419q-16 -78 -40.5 -129.5t-62.5 -82.5q-33 -27 -83.5 -44
t-116.5 -17zM449 806l-69 -62h-118l158 145h80l95 -145h-106z" />
    <glyph glyph-name="Udieresis" unicode="&#xdc;" horiz-adv-x="673" 
d="M294 -12q-59 0 -103.5 14.5t-74 41t-44 63.5t-14.5 81q0 19 3.5 43.5t8.5 50.5l83 398h119l-84 -398q-5 -22 -8.5 -42.5t-3.5 -40.5q0 -104 126 -104q38 0 67.5 8.5t52.5 29.5q36 33 58 134l87 413h117l-87 -419q-16 -78 -40.5 -129.5t-62.5 -82.5q-33 -27 -83.5 -44
t-116.5 -17zM304 871h112l-27 -127h-112zM495 871h112l-27 -127h-112z" />
    <glyph glyph-name="Yacute" unicode="&#xdd;" horiz-adv-x="609" 
d="M533 889l-109 -145h-98l67 145h140zM181 0l55 266l-156 414h119l115 -307l244 307h138l-341 -414l-55 -266h-119z" />
    <glyph glyph-name="Thorn" unicode="&#xde;" horiz-adv-x="632" 
d="M278 680l-20 -92h123q60 0 98.5 -7.5t67.5 -23.5q37 -20 59.5 -58.5t22.5 -93.5q0 -66 -30 -121.5t-88 -87.5q-14 -8 -29.5 -13.5t-36.5 -9.5t-48.5 -6t-64.5 -2h-162l-33 -165h-118l142 680h117zM341 271q48 0 74.5 5.5t46.5 19.5q21 14 33.5 40t12.5 64q0 32 -12 49.5
t-32 24.5q-17 6 -38.5 7.5t-45.5 1.5h-142l-46 -212h149z" />
    <glyph glyph-name="germandbls" unicode="&#xdf;" horiz-adv-x="496" 
d="M174 90q18 -3 37 -3q30 0 49 10t31.5 27.5t20 42t14.5 54.5q10 41 10 68q0 35 -21 47t-68 12h-20l20 94h18q22 0 40.5 5t32.5 16t22 27.5t8 40.5q0 27 -17 42.5t-47 15.5q-39 0 -60 -30q-11 -16 -17 -38t-11 -49l-100 -472h-113l103 492q10 46 22 76.5t32 55.5
q24 31 60.5 47t87.5 16q46 0 78.5 -12t53 -32.5t30 -46.5t9.5 -54q0 -48 -23.5 -86.5t-61.5 -56.5q26 -17 41 -40.5t15 -60.5q0 -23 -3.5 -45.5t-8.5 -45.5q-12 -54 -29.5 -94t-45.5 -66.5t-67 -39t-94 -12.5q-11 0 -24 1t-23 3z" />
    <glyph glyph-name="agrave" unicode="&#xe0;" horiz-adv-x="514" 
d="M323 220q-14 -5 -40 -8.5t-49 -7.5t-43 -8.5t-34.5 -13t-23 -21t-8.5 -32.5q0 -29 22.5 -42t54.5 -13q39 0 68.5 20t36.5 52zM452 312q-2 -7 -8.5 -39l-14.5 -69l-21 -95q-3 -14 -3 -21q0 -19 26 -19h7l-16 -76q-3 -1 -16 -3t-38 -2q-29 0 -49.5 10t-22.5 35
q-19 -16 -50 -30.5t-83 -14.5q-30 0 -57.5 8t-48.5 24.5t-33.5 42t-12.5 59.5q0 78 49.5 114.5t137.5 48.5l124 17q12 2 16.5 5t6.5 14l2 9q2 8 2.5 12t0.5 10q0 25 -21.5 35t-57.5 10q-47 0 -73.5 -19t-32.5 -62l-108 6q5 45 26 76t52 50.5t70 28t81 8.5q38 0 69.5 -7
t54.5 -22t36 -37.5t13 -53.5q0 -15 -2.5 -28.5zM304 680l64 -128h-98l-101 128h135z" />
    <glyph glyph-name="aacute" unicode="&#xe1;" horiz-adv-x="514" 
d="M323 220q-14 -5 -40 -8.5t-49 -7.5t-43 -8.5t-34.5 -13t-23 -21t-8.5 -32.5q0 -29 22.5 -42t54.5 -13q39 0 68.5 20t36.5 52zM452 312q-2 -7 -8.5 -39l-14.5 -69l-21 -95q-3 -14 -3 -21q0 -19 26 -19h7l-16 -76q-3 -1 -16 -3t-38 -2q-29 0 -49.5 10t-22.5 35
q-19 -16 -50 -30.5t-83 -14.5q-30 0 -57.5 8t-48.5 24.5t-33.5 42t-12.5 59.5q0 78 49.5 114.5t137.5 48.5l124 17q12 2 16.5 5t6.5 14l2 9q2 8 2.5 12t0.5 10q0 25 -21.5 35t-57.5 10q-47 0 -73.5 -19t-32.5 -62l-108 6q5 45 26 76t52 50.5t70 28t81 8.5q38 0 69.5 -7
t54.5 -22t36 -37.5t13 -53.5q0 -15 -2.5 -28.5zM425 680l-101 -128h-98l64 128h135z" />
    <glyph glyph-name="acircumflex" unicode="&#xe2;" horiz-adv-x="514" 
d="M323 220q-14 -5 -40 -8.5t-49 -7.5t-43 -8.5t-34.5 -13t-23 -21t-8.5 -32.5q0 -29 22.5 -42t54.5 -13q39 0 68.5 20t36.5 52zM452 312q-2 -7 -8.5 -39l-14.5 -69l-21 -95q-3 -14 -3 -21q0 -19 26 -19h7l-16 -76q-3 -1 -16 -3t-38 -2q-29 0 -49.5 10t-22.5 35
q-19 -16 -50 -30.5t-83 -14.5q-30 0 -57.5 8t-48.5 24.5t-33.5 42t-12.5 59.5q0 78 49.5 114.5t137.5 48.5l124 17q12 2 16.5 5t6.5 14l2 9q2 8 2.5 12t0.5 10q0 25 -21.5 35t-57.5 10q-47 0 -73.5 -19t-32.5 -62l-108 6q5 45 26 76t52 50.5t70 28t81 8.5q38 0 69.5 -7
t54.5 -22t36 -37.5t13 -53.5q0 -15 -2.5 -28.5zM259 552h-110l145 128h76l92 -128h-99l-42 50z" />
    <glyph glyph-name="atilde" unicode="&#xe3;" horiz-adv-x="514" 
d="M478 651q-8 -19 -17.5 -37.5t-23 -33.5t-31 -24t-41.5 -9q-20 0 -35 5t-31 13l-31.5 15t-25.5 7q-17 0 -25 -14t-13 -29l-73 23q3 12 11.5 30t22.5 34.5t33.5 28t45.5 11.5q19 0 34.5 -6t30.5 -14q14 -8 27.5 -13.5t26.5 -5.5q17 0 27.5 13.5t15.5 29.5zM323 220
q-14 -5 -40 -8.5t-49 -7.5t-43 -8.5t-34.5 -13t-23 -21t-8.5 -32.5q0 -29 22.5 -42t54.5 -13q39 0 68.5 20t36.5 52zM452 312q-2 -7 -8.5 -39l-14.5 -69l-21 -95q-3 -14 -3 -21q0 -19 26 -19h7l-16 -76q-3 -1 -16 -3t-38 -2q-29 0 -49.5 10t-22.5 35q-19 -16 -50 -30.5
t-83 -14.5q-30 0 -57.5 8t-48.5 24.5t-33.5 42t-12.5 59.5q0 78 49.5 114.5t137.5 48.5l124 17q12 2 16.5 5t6.5 14l2 9q2 8 2.5 12t0.5 10q0 25 -21.5 35t-57.5 10q-47 0 -73.5 -19t-32.5 -62l-108 6q5 45 26 76t52 50.5t70 28t81 8.5q38 0 69.5 -7t54.5 -22t36 -37.5
t13 -53.5q0 -15 -2.5 -28.5z" />
    <glyph glyph-name="adieresis" unicode="&#xe4;" horiz-adv-x="514" 
d="M323 220q-14 -5 -40 -8.5t-49 -7.5t-43 -8.5t-34.5 -13t-23 -21t-8.5 -32.5q0 -29 22.5 -42t54.5 -13q39 0 68.5 20t36.5 52zM452 312q-2 -7 -8.5 -39l-14.5 -69l-21 -95q-3 -14 -3 -21q0 -19 26 -19h7l-16 -76q-3 -1 -16 -3t-38 -2q-29 0 -49.5 10t-22.5 35
q-19 -16 -50 -30.5t-83 -14.5q-30 0 -57.5 8t-48.5 24.5t-33.5 42t-12.5 59.5q0 78 49.5 114.5t137.5 48.5l124 17q12 2 16.5 5t6.5 14l2 9q2 8 2.5 12t0.5 10q0 25 -21.5 35t-57.5 10q-47 0 -73.5 -19t-32.5 -62l-108 6q5 45 26 76t52 50.5t70 28t81 8.5q38 0 69.5 -7
t54.5 -22t36 -37.5t13 -53.5q0 -15 -2.5 -28.5zM181 670h108l-25 -118h-108zM368 670h108l-25 -118h-108z" />
    <glyph glyph-name="aring" unicode="&#xe5;" horiz-adv-x="514" 
d="M204 633q0 46 31 76.5t77 30.5t77 -30.5t31 -76.5t-31 -76.5t-77 -30.5t-77 30.5t-31 76.5zM272 633q0 -17 11.5 -28t27.5 -11t27.5 11t11.5 28t-11.5 28t-27.5 11t-27.5 -11t-11.5 -28zM323 220q-14 -5 -40 -8.5t-49 -7.5t-43 -8.5t-34.5 -13t-23 -21t-8.5 -32.5
q0 -29 22.5 -42t54.5 -13q39 0 68.5 20t36.5 52zM452 312q-2 -7 -8.5 -39l-14.5 -69l-21 -95q-3 -14 -3 -21q0 -19 26 -19h7l-16 -76q-3 -1 -16 -3t-38 -2q-29 0 -49.5 10t-22.5 35q-19 -16 -50 -30.5t-83 -14.5q-30 0 -57.5 8t-48.5 24.5t-33.5 42t-12.5 59.5
q0 78 49.5 114.5t137.5 48.5l124 17q12 2 16.5 5t6.5 14l2 9q2 8 2.5 12t0.5 10q0 25 -21.5 35t-57.5 10q-47 0 -73.5 -19t-32.5 -62l-108 6q5 45 26 76t52 50.5t70 28t81 8.5q38 0 69.5 -7t54.5 -22t36 -37.5t13 -53.5q0 -15 -2.5 -28.5z" />
    <glyph glyph-name="ae" unicode="&#xe6;" horiz-adv-x="820" 
d="M759 112q-13 -19 -33 -41t-48 -40.5t-65 -30.5t-85 -12q-114 0 -167 73q-10 -11 -26 -23.5t-39.5 -23.5t-54 -18.5t-69.5 -7.5q-34 0 -63.5 8t-51 24.5t-34 42t-12.5 59.5q0 78 49.5 114.5t137.5 48.5l124 17q12 2 16.5 5t6.5 14l2 9q2 8 2.5 12t0.5 10q0 25 -21.5 35
t-57.5 10q-47 0 -73.5 -19t-32.5 -62l-108 6q5 45 26 76t52 50.5t70 28t81 8.5q48 0 85 -12t60 -35q31 23 68.5 36.5t81.5 13.5q51 0 88 -16t61 -44t36 -65.5t12 -79.5q0 -18 -2 -38t-6 -35h-341v-14q0 -58 33 -84.5t78 -26.5q47 0 82 23.5t57 60.5zM323 220
q-14 -5 -40 -8.5t-49 -7.5t-43 -8.5t-34.5 -13t-23 -21t-8.5 -32.5q0 -29 22.5 -42t54.5 -13q39 0 68.5 20t36.5 52zM571 398q-48 0 -83 -30t-45 -75h227q0 55 -26 80t-73 25z" />
    <glyph glyph-name="ccedilla" unicode="&#xe7;" horiz-adv-x="496" 
d="M373 316q-3 14 -10 27.5t-18.5 24.5t-27.5 18t-38 7q-36 0 -63 -17.5t-45 -45.5t-27 -62.5t-9 -67.5q0 -57 27 -86t73 -29q42 0 69 22t44 54l95 -48q-13 -23 -32 -45.5t-45.5 -40t-61 -28.5t-76.5 -11h-2l-19 -18q35 -1 59 -19.5t24 -56.5q0 -23 -9 -39.5t-23 -27.5
t-33 -16.5t-38 -5.5q-31 0 -56 12l15 46q13 -5 21.5 -6t16.5 -1q18 0 29.5 8.5t11.5 23.5q0 17 -12 24t-28 7q-17 0 -37 -10l-23 42l49 42q-72 14 -110.5 65.5t-38.5 135.5q0 56 18 109t51.5 94t82.5 66t111 25q43 0 74.5 -11t54 -30t37 -44t22.5 -53z" />
    <glyph glyph-name="egrave" unicode="&#xe8;" horiz-adv-x="526" 
d="M465 112q-13 -19 -33 -41t-48 -40.5t-65 -30.5t-85 -12q-100 0 -154 56t-54 161q0 55 18.5 106t53 90.5t82.5 63t107 23.5q51 0 88 -16t61 -44t36 -65.5t12 -79.5q0 -18 -2 -38t-6 -35h-341v-14q0 -58 33 -84.5t78 -26.5q47 0 82 23.5t57 60.5zM277 398q-48 0 -83 -30
t-45 -75h227q0 55 -26 80t-73 25zM298 680l64 -128h-98l-101 128h135z" />
    <glyph glyph-name="eacute" unicode="&#xe9;" horiz-adv-x="526" 
d="M465 112q-13 -19 -33 -41t-48 -40.5t-65 -30.5t-85 -12q-100 0 -154 56t-54 161q0 55 18.5 106t53 90.5t82.5 63t107 23.5q51 0 88 -16t61 -44t36 -65.5t12 -79.5q0 -18 -2 -38t-6 -35h-341v-14q0 -58 33 -84.5t78 -26.5q47 0 82 23.5t57 60.5zM277 398q-48 0 -83 -30
t-45 -75h227q0 55 -26 80t-73 25zM435 680l-101 -128h-98l64 128h135z" />
    <glyph glyph-name="ecircumflex" unicode="&#xea;" horiz-adv-x="526" 
d="M465 112q-13 -19 -33 -41t-48 -40.5t-65 -30.5t-85 -12q-100 0 -154 56t-54 161q0 55 18.5 106t53 90.5t82.5 63t107 23.5q51 0 88 -16t61 -44t36 -65.5t12 -79.5q0 -18 -2 -38t-6 -35h-341v-14q0 -58 33 -84.5t78 -26.5q47 0 82 23.5t57 60.5zM277 398q-48 0 -83 -30
t-45 -75h227q0 55 -26 80t-73 25zM256 552h-110l145 128h76l92 -128h-99l-42 50z" />
    <glyph glyph-name="edieresis" unicode="&#xeb;" horiz-adv-x="526" 
d="M465 112q-13 -19 -33 -41t-48 -40.5t-65 -30.5t-85 -12q-100 0 -154 56t-54 161q0 55 18.5 106t53 90.5t82.5 63t107 23.5q51 0 88 -16t61 -44t36 -65.5t12 -79.5q0 -18 -2 -38t-6 -35h-341v-14q0 -58 33 -84.5t78 -26.5q47 0 82 23.5t57 60.5zM277 398q-48 0 -83 -30
t-45 -75h227q0 55 -26 80t-73 25zM176 670h108l-25 -118h-108zM363 670h108l-25 -118h-108z" />
    <glyph glyph-name="igrave" unicode="&#xec;" horiz-adv-x="240" 
d="M117 0h-113l100 476h114zM160 680l64 -128h-98l-101 128h135z" />
    <glyph glyph-name="iacute" unicode="&#xed;" horiz-adv-x="240" 
d="M117 0h-113l100 476h114zM324 680l-101 -128h-98l64 128h135z" />
    <glyph glyph-name="icircumflex" unicode="&#xee;" horiz-adv-x="240" 
d="M117 0h-113l100 476h114zM128 552h-110l145 128h76l92 -128h-99l-42 50z" />
    <glyph glyph-name="idieresis" unicode="&#xef;" horiz-adv-x="240" 
d="M117 0h-113l100 476h114zM54 670h108l-25 -118h-108zM241 670h108l-25 -118h-108z" />
    <glyph glyph-name="eth" unicode="&#xf0;" horiz-adv-x="532" 
d="M459 566q11 -33 23 -81.5t12 -120.5q0 -69 -14.5 -136.5t-46.5 -121t-83.5 -86.5t-126.5 -33q-91 0 -144.5 54t-53.5 151q0 56 17.5 109.5t50 95.5t79.5 68t106 26q42 0 68 -14t39 -30q-5 29 -12 52.5t-17 39.5l-103 -30l-24 84l85 25l-18 27l-17 24l89 50l27 -34t26 -40
l100 32l22 -87zM280 394q-35 0 -62 -18t-45 -46t-27 -63t-9 -69q0 -54 24 -84t65 -30q37 0 64.5 18.5t45.5 47.5t26.5 64.5t8.5 69.5q0 53 -24.5 81.5t-66.5 28.5z" />
    <glyph glyph-name="ntilde" unicode="&#xf1;" horiz-adv-x="545" 
d="M427 0h-113l49 232l8.5 42t4.5 44q0 29 -14 50t-56 21q-30 0 -53 -14t-40.5 -36.5t-28.5 -50t-17 -53.5l-50 -235h-114l101 476h114l-16 -69q23 38 63 59.5t91 21.5q27 0 52 -7.5t44 -23.5t30.5 -41t11.5 -59q0 -16 -2.5 -38.5t-7.5 -48.5zM508 651q-8 -19 -17.5 -37.5
t-23 -33.5t-31 -24t-41.5 -9q-20 0 -35 5t-31 13l-31.5 15t-25.5 7q-17 0 -25 -14t-13 -29l-73 23q3 12 11.5 30t22.5 34.5t33.5 28t45.5 11.5q19 0 34.5 -6t30.5 -14q14 -8 27.5 -13.5t26.5 -5.5q17 0 27.5 13.5t15.5 29.5z" />
    <glyph glyph-name="ograve" unicode="&#xf2;" horiz-adv-x="534" 
d="M25 192q0 56 17.5 109.5t51 95t83 66.5t114.5 25q98 0 148.5 -56.5t50.5 -149.5q0 -53 -15.5 -105.5t-47.5 -94.5t-81 -68t-117 -26q-97 0 -150.5 55t-53.5 149zM279 393q-36 0 -63 -18t-45 -46t-27 -63t-9 -68q0 -55 27 -84t73 -29q37 0 64 17.5t44.5 45.5t26 62.5
t8.5 68.5q0 54 -25.5 84t-73.5 30zM297 680l64 -128h-98l-101 128h135z" />
    <glyph glyph-name="oacute" unicode="&#xf3;" horiz-adv-x="534" 
d="M25 192q0 56 17.5 109.5t51 95t83 66.5t114.5 25q98 0 148.5 -56.5t50.5 -149.5q0 -53 -15.5 -105.5t-47.5 -94.5t-81 -68t-117 -26q-97 0 -150.5 55t-53.5 149zM279 393q-36 0 -63 -18t-45 -46t-27 -63t-9 -68q0 -55 27 -84t73 -29q37 0 64 17.5t44.5 45.5t26 62.5
t8.5 68.5q0 54 -25.5 84t-73.5 30zM446 680l-101 -128h-98l64 128h135z" />
    <glyph glyph-name="ocircumflex" unicode="&#xf4;" horiz-adv-x="534" 
d="M25 192q0 56 17.5 109.5t51 95t83 66.5t114.5 25q98 0 148.5 -56.5t50.5 -149.5q0 -53 -15.5 -105.5t-47.5 -94.5t-81 -68t-117 -26q-97 0 -150.5 55t-53.5 149zM279 393q-36 0 -63 -18t-45 -46t-27 -63t-9 -68q0 -55 27 -84t73 -29q37 0 64 17.5t44.5 45.5t26 62.5
t8.5 68.5q0 54 -25.5 84t-73.5 30zM256 552h-110l145 128h76l92 -128h-99l-42 50z" />
    <glyph glyph-name="otilde" unicode="&#xf5;" horiz-adv-x="534" 
d="M25 192q0 56 17.5 109.5t51 95t83 66.5t114.5 25q98 0 148.5 -56.5t50.5 -149.5q0 -53 -15.5 -105.5t-47.5 -94.5t-81 -68t-117 -26q-97 0 -150.5 55t-53.5 149zM279 393q-36 0 -63 -18t-45 -46t-27 -63t-9 -68q0 -55 27 -84t73 -29q37 0 64 17.5t44.5 45.5t26 62.5
t8.5 68.5q0 54 -25.5 84t-73.5 30zM497 651q-8 -19 -17.5 -37.5t-23 -33.5t-31 -24t-41.5 -9q-20 0 -35 5t-31 13l-31.5 15t-25.5 7q-17 0 -25 -14t-13 -29l-73 23q3 12 11.5 30t22.5 34.5t33.5 28t45.5 11.5q19 0 34.5 -6t30.5 -14q14 -8 27.5 -13.5t26.5 -5.5
q17 0 27.5 13.5t15.5 29.5z" />
    <glyph glyph-name="odieresis" unicode="&#xf6;" horiz-adv-x="534" 
d="M25 192q0 56 17.5 109.5t51 95t83 66.5t114.5 25q98 0 148.5 -56.5t50.5 -149.5q0 -53 -15.5 -105.5t-47.5 -94.5t-81 -68t-117 -26q-97 0 -150.5 55t-53.5 149zM279 393q-36 0 -63 -18t-45 -46t-27 -63t-9 -68q0 -55 27 -84t73 -29q37 0 64 17.5t44.5 45.5t26 62.5
t8.5 68.5q0 54 -25.5 84t-73.5 30zM184 670h108l-25 -118h-108zM371 670h108l-25 -118h-108z" />
    <glyph glyph-name="divide" unicode="&#xf7;" horiz-adv-x="760" 
d="M35 185v106h672v-106h-672zM435 132v-132h-129v132h129zM435 476v-132h-129v132h129z" />
    <glyph glyph-name="oslash" unicode="&#xf8;" horiz-adv-x="536" 
d="M26 192q0 56 17.5 109.5t51 95t83 66.5t114.5 25q41 0 73 -10.5t56 -29.5l53 45l62 -75l-58 -50q13 -38 13 -86q0 -53 -15.5 -105.5t-47.5 -94.5t-81 -68t-117 -26q-90 0 -142 47l-48 -41l-65 76l60 51q-9 31 -9 71zM236 85q37 0 64 17.5t44.5 45.5t26 62.5t8.5 68.5v4
l-208 -177q25 -21 65 -21zM280 393q-35 0 -61.5 -17t-44.5 -44t-27.5 -60t-10.5 -66l201 171q-24 16 -57 16z" />
    <glyph glyph-name="ugrave" unicode="&#xf9;" horiz-adv-x="540" 
d="M98 476h113l-49 -232l-8.5 -42t-4.5 -44q0 -29 13.5 -50t56.5 -21q27 0 49.5 14t39.5 36.5t28.5 50t17.5 53.5l50 235h114l-101 -476h-114l16 69q-23 -38 -62.5 -59.5t-88.5 -21.5q-28 0 -53 8t-43.5 24.5t-29.5 41.5t-11 59q0 16 2.5 37.5t7.5 47.5zM319 680l64 -128
h-98l-101 128h135z" />
    <glyph glyph-name="uacute" unicode="&#xfa;" horiz-adv-x="540" 
d="M98 476h113l-49 -232l-8.5 -42t-4.5 -44q0 -29 13.5 -50t56.5 -21q27 0 49.5 14t39.5 36.5t28.5 50t17.5 53.5l50 235h114l-101 -476h-114l16 69q-23 -38 -62.5 -59.5t-88.5 -21.5q-28 0 -53 8t-43.5 24.5t-29.5 41.5t-11 59q0 16 2.5 37.5t7.5 47.5zM462 680l-101 -128
h-98l64 128h135z" />
    <glyph glyph-name="ucircumflex" unicode="&#xfb;" horiz-adv-x="540" 
d="M98 476h113l-49 -232l-8.5 -42t-4.5 -44q0 -29 13.5 -50t56.5 -21q27 0 49.5 14t39.5 36.5t28.5 50t17.5 53.5l50 235h114l-101 -476h-114l16 69q-23 -38 -62.5 -59.5t-88.5 -21.5q-28 0 -53 8t-43.5 24.5t-29.5 41.5t-11 59q0 16 2.5 37.5t7.5 47.5zM274 552h-110
l145 128h76l92 -128h-99l-42 50z" />
    <glyph glyph-name="udieresis" unicode="&#xfc;" horiz-adv-x="540" 
d="M98 476h113l-49 -232l-8.5 -42t-4.5 -44q0 -29 13.5 -50t56.5 -21q27 0 49.5 14t39.5 36.5t28.5 50t17.5 53.5l50 235h114l-101 -476h-114l16 69q-23 -38 -62.5 -59.5t-88.5 -21.5q-28 0 -53 8t-43.5 24.5t-29.5 41.5t-11 59q0 16 2.5 37.5t7.5 47.5zM199 670h108
l-25 -118h-108zM386 670h108l-25 -118h-108z" />
    <glyph glyph-name="yacute" unicode="&#xfd;" horiz-adv-x="462" 
d="M422 680l-109 -145h-98l67 145h140zM-26 -101q8 -2 17.5 -3t20.5 -1q21 0 35.5 5t26 16t21 28t20.5 41l-68 491h118l26 -255q2 -17 3 -34.5t3 -31.5q2 -17 3 -33h1l13 30l13.5 31l15.5 35l121 258h120l-270 -533q-19 -38 -36 -63t-36 -41q-23 -20 -53 -29t-73 -9
q-18 0 -34 2t-27 4z" />
    <glyph glyph-name="thorn" unicode="&#xfe;" horiz-adv-x="551" 
d="M302 394q-35 0 -61.5 -19.5t-44 -49t-26 -64.5t-8.5 -67q0 -48 21 -79t68 -31q34 0 60.5 19t44.5 48t27.5 64t9.5 67q0 50 -21.5 81t-69.5 31zM-36 -190l183 870h114l-55 -263q24 35 61 53t79 18q33 0 62.5 -11.5t51.5 -35t35 -59t13 -83.5q0 -62 -17 -118.5t-49 -99
t-77.5 -68t-101.5 -25.5q-44 0 -80.5 20t-51.5 53l-54 -251h-113z" />
    <glyph glyph-name="ydieresis" unicode="&#xff;" horiz-adv-x="462" 
d="M-26 -101q8 -2 17.5 -3t20.5 -1q21 0 35.5 5t26 16t21 28t20.5 41l-68 491h118l26 -255q2 -17 3 -34.5t3 -31.5q2 -17 3 -33h1l13 30l13.5 31l15.5 35l121 258h120l-270 -533q-19 -38 -36 -63t-36 -41q-23 -20 -53 -29t-73 -9q-18 0 -34 2t-27 4zM155 670h108l-25 -118
h-108zM342 670h108l-25 -118h-108z" />
    <glyph glyph-name="Amacron" unicode="&#x100;" horiz-adv-x="618" 
d="M77 0h-128l379 680h135l92 -680h-123l-18 154h-252zM404 255l-25 211q-2 12 -3.5 26t-2.5 27q-2 14 -2 29h-1q-7 -15 -15 -30l-14.5 -28l-13.5 -27l-111 -208h188zM289 867h292l-19 -93h-292z" />
    <glyph glyph-name="amacron" unicode="&#x101;" horiz-adv-x="514" 
d="M323 220q-14 -5 -40 -8.5t-49 -7.5t-43 -8.5t-34.5 -13t-23 -21t-8.5 -32.5q0 -29 22.5 -42t54.5 -13q39 0 68.5 20t36.5 52zM452 312q-2 -7 -8.5 -39l-14.5 -69l-21 -95q-3 -14 -3 -21q0 -19 26 -19h7l-16 -76q-3 -1 -16 -3t-38 -2q-29 0 -49.5 10t-22.5 35
q-19 -16 -50 -30.5t-83 -14.5q-30 0 -57.5 8t-48.5 24.5t-33.5 42t-12.5 59.5q0 78 49.5 114.5t137.5 48.5l124 17q12 2 16.5 5t6.5 14l2 9q2 8 2.5 12t0.5 10q0 25 -21.5 35t-57.5 10q-47 0 -73.5 -19t-32.5 -62l-108 6q5 45 26 76t52 50.5t70 28t81 8.5q38 0 69.5 -7
t54.5 -22t36 -37.5t13 -53.5q0 -15 -2.5 -28.5zM186 680h292l-19 -93h-292z" />
    <glyph glyph-name="Abreve" unicode="&#x102;" horiz-adv-x="618" 
d="M77 0h-128l379 680h135l92 -680h-123l-18 154h-252zM404 255l-25 211q-2 12 -3.5 26t-2.5 27q-2 14 -2 29h-1q-7 -15 -15 -30l-14.5 -28l-13.5 -27l-111 -208h188zM433 826q47 0 75 63h91q-26 -72 -70.5 -111.5t-107.5 -39.5t-97.5 39.5t-28.5 111.5h90q2 -63 48 -63z
" />
    <glyph glyph-name="abreve" unicode="&#x103;" horiz-adv-x="514" 
d="M323 220q-14 -5 -40 -8.5t-49 -7.5t-43 -8.5t-34.5 -13t-23 -21t-8.5 -32.5q0 -29 22.5 -42t54.5 -13q39 0 68.5 20t36.5 52zM452 312q-2 -7 -8.5 -39l-14.5 -69l-21 -95q-3 -14 -3 -21q0 -19 26 -19h7l-16 -76q-3 -1 -16 -3t-38 -2q-29 0 -49.5 10t-22.5 35
q-19 -16 -50 -30.5t-83 -14.5q-30 0 -57.5 8t-48.5 24.5t-33.5 42t-12.5 59.5q0 78 49.5 114.5t137.5 48.5l124 17q12 2 16.5 5t6.5 14l2 9q2 8 2.5 12t0.5 10q0 25 -21.5 35t-57.5 10q-47 0 -73.5 -19t-32.5 -62l-108 6q5 45 26 76t52 50.5t70 28t81 8.5q38 0 69.5 -7
t54.5 -22t36 -37.5t13 -53.5q0 -15 -2.5 -28.5zM339 617q47 0 75 63h91q-26 -72 -70.5 -111.5t-107.5 -39.5t-97.5 39.5t-28.5 111.5h90q2 -63 48 -63z" />
    <glyph glyph-name="Aogonek" unicode="&#x104;" horiz-adv-x="618" 
d="M539 -202q-19 -11 -39 -15t-36 -4q-23 0 -43 6.5t-36 19.5t-25 32t-9 45q0 22 8 40t20 33t26 26t27 19l-18 154h-252l-85 -154h-128l379 680h135l92 -680l-34 -21t-36.5 -26t-29.5 -29.5t-12 -31.5q0 -26 28 -26q10 0 18 2.5t16 6.5zM404 255l-25 211q-2 12 -3.5 26
t-2.5 27q-2 14 -2 29h-1q-7 -15 -15 -30l-14.5 -28l-13.5 -27l-111 -208h188z" />
    <glyph glyph-name="aogonek" unicode="&#x105;" horiz-adv-x="514" 
d="M407 -202q-19 -11 -39 -15t-36 -4q-23 0 -43 5t-36 17t-25 31t-9 47q0 21 7.5 39.5t20 34.5t28.5 29t33 23q-11 11 -12 28q-19 -16 -50 -30.5t-83 -14.5q-30 0 -57.5 8t-48.5 24.5t-33.5 42t-12.5 59.5q0 78 49.5 114.5t137.5 48.5l124 17q12 2 16.5 5t6.5 14l2 9
q2 8 2.5 12t0.5 10q0 25 -21.5 35t-57.5 10q-47 0 -73.5 -19t-32.5 -62l-108 6q5 45 26 76t52 50.5t70 28t81 8.5q38 0 69.5 -7t54.5 -22t36 -37.5t13 -53.5q0 -15 -2.5 -28.5l-4.5 -24.5q-2 -7 -8.5 -39l-14.5 -69l-21 -95q-3 -14 -3 -21q0 -19 26 -19h7l-16 -76
q-2 0 -9.5 -1.5t-21.5 -2.5q-14 -9 -28 -20.5t-25.5 -24.5t-19 -26t-7.5 -26q0 -26 28 -26q10 0 18 2.5t16 6.5zM323 220q-14 -5 -40 -8.5t-49 -7.5t-43 -8.5t-34.5 -13t-23 -21t-8.5 -32.5q0 -29 22.5 -42t54.5 -13q39 0 68.5 20t36.5 52z" />
    <glyph glyph-name="Cacute" unicode="&#x106;" horiz-adv-x="642" 
d="M575 889l-109 -145h-98l67 145h140zM597 138q-20 -32 -47 -59.5t-61 -47.5t-75.5 -31.5t-90.5 -11.5q-70 0 -121 21.5t-84.5 60t-49.5 92.5t-16 119q0 76 22.5 150t66 132t108.5 93.5t151 35.5q100 0 164.5 -49t88.5 -129l-107 -51q-14 57 -51 89.5t-102 32.5
q-57 0 -99 -26.5t-69 -68.5t-40 -95.5t-13 -107.5q0 -89 39 -140t120 -51q59 0 100.5 27.5t68.5 72.5z" />
    <glyph glyph-name="cacute" unicode="&#x107;" horiz-adv-x="496" 
d="M373 316q-3 14 -10 27.5t-18.5 24.5t-27.5 18t-38 7q-36 0 -63 -17.5t-45 -45.5t-27 -62.5t-9 -67.5q0 -57 27 -86t73 -29q42 0 69 22t44 54l95 -48q-13 -23 -32 -45.5t-45.5 -40t-61 -28.5t-76.5 -11q-97 0 -150 54t-53 152q0 56 18 109t51.5 94t82.5 66t111 25
q43 0 74.5 -11t54 -30t37 -44t22.5 -53zM444 680l-101 -128h-98l64 128h135z" />
    <glyph glyph-name="Ccircumflex" unicode="&#x108;" horiz-adv-x="642" 
d="M597 138q-20 -32 -47 -59.5t-61 -47.5t-75.5 -31.5t-90.5 -11.5q-70 0 -121 21.5t-84.5 60t-49.5 92.5t-16 119q0 76 22.5 150t66 132t108.5 93.5t151 35.5q100 0 164.5 -49t88.5 -129l-107 -51q-14 57 -51 89.5t-102 32.5q-57 0 -99 -26.5t-69 -68.5t-40 -95.5
t-13 -107.5q0 -89 39 -140t120 -51q59 0 100.5 27.5t68.5 72.5zM372 756h-110l145 128h76l92 -128h-99l-42 50z" />
    <glyph glyph-name="ccircumflex" unicode="&#x109;" horiz-adv-x="496" 
d="M373 316q-3 14 -10 27.5t-18.5 24.5t-27.5 18t-38 7q-36 0 -63 -17.5t-45 -45.5t-27 -62.5t-9 -67.5q0 -57 27 -86t73 -29q42 0 69 22t44 54l95 -48q-13 -23 -32 -45.5t-45.5 -40t-61 -28.5t-76.5 -11q-97 0 -150 54t-53 152q0 56 18 109t51.5 94t82.5 66t111 25
q43 0 74.5 -11t54 -30t37 -44t22.5 -53zM257 552h-110l145 128h76l92 -128h-99l-42 50z" />
    <glyph glyph-name="Cdotaccent" unicode="&#x10a;" horiz-adv-x="642" 
d="M597 138q-20 -32 -47 -59.5t-61 -47.5t-75.5 -31.5t-90.5 -11.5q-70 0 -121 21.5t-84.5 60t-49.5 92.5t-16 119q0 76 22.5 150t66 132t108.5 93.5t151 35.5q100 0 164.5 -49t88.5 -129l-107 -51q-14 57 -51 89.5t-102 32.5q-57 0 -99 -26.5t-69 -68.5t-40 -95.5
t-13 -107.5q0 -89 39 -140t120 -51q59 0 100.5 27.5t68.5 72.5zM389 889h117l-27 -127h-117z" />
    <glyph glyph-name="cdotaccent" unicode="&#x10b;" horiz-adv-x="496" 
d="M373 316q-3 14 -10 27.5t-18.5 24.5t-27.5 18t-38 7q-36 0 -63 -17.5t-45 -45.5t-27 -62.5t-9 -67.5q0 -57 27 -86t73 -29q42 0 69 22t44 54l95 -48q-13 -23 -32 -45.5t-45.5 -40t-61 -28.5t-76.5 -11q-97 0 -150 54t-53 152q0 56 18 109t51.5 94t82.5 66t111 25
q43 0 74.5 -11t54 -30t37 -44t22.5 -53zM278 680h117l-27 -127h-117z" />
    <glyph glyph-name="Ccaron" unicode="&#x10c;" horiz-adv-x="642" 
d="M435 827l69 62h118l-158 -145h-80l-95 145h106zM597 138q-20 -32 -47 -59.5t-61 -47.5t-75.5 -31.5t-90.5 -11.5q-70 0 -121 21.5t-84.5 60t-49.5 92.5t-16 119q0 76 22.5 150t66 132t108.5 93.5t151 35.5q100 0 164.5 -49t88.5 -129l-107 -51q-14 57 -51 89.5t-102 32.5
q-57 0 -99 -26.5t-69 -68.5t-40 -95.5t-13 -107.5q0 -89 39 -140t120 -51q59 0 100.5 27.5t68.5 72.5z" />
    <glyph glyph-name="ccaron" unicode="&#x10d;" horiz-adv-x="496" 
d="M373 316q-3 14 -10 27.5t-18.5 24.5t-27.5 18t-38 7q-36 0 -63 -17.5t-45 -45.5t-27 -62.5t-9 -67.5q0 -57 27 -86t73 -29q42 0 69 22t44 54l95 -48q-13 -23 -32 -45.5t-45.5 -40t-61 -28.5t-76.5 -11q-97 0 -150 54t-53 152q0 56 18 109t51.5 94t82.5 66t111 25
q43 0 74.5 -11t54 -30t37 -44t22.5 -53zM378 680h110l-145 -128h-76l-92 128h99l42 -50z" />
    <glyph glyph-name="Dcaron" unicode="&#x10e;" horiz-adv-x="684" 
d="M418 827l69 62h118l-158 -145h-80l-95 145h106zM18 0l144 680h165q83 0 139.5 -12.5t98.5 -41.5q45 -32 69.5 -81.5t24.5 -122.5q0 -53 -11 -108t-33 -105t-55 -92t-78 -68q-28 -17 -54 -26.5t-53 -14.5t-57 -6.5t-67 -1.5h-233zM159 108h93q54 0 97 7t75 30
q30 21 52 54.5t36.5 71t22 75t7.5 68.5q0 88 -57 126q-33 21 -79 25.5t-95 4.5h-53z" />
    <glyph glyph-name="dcaron" unicode="&#x10f;" horiz-adv-x="560" 
d="M230 82q35 0 61.5 19.5t44 49t26 64.5t8.5 67q0 48 -21 79t-68 31q-35 0 -61.5 -18.5t-44.5 -47t-27 -63.5t-9 -67q0 -51 21.5 -82.5t69.5 -31.5zM570 680l-143 -680h-115l13 56q-24 -35 -60.5 -51.5t-78.5 -16.5q-33 0 -62.5 11.5t-51.5 35t-35 59t-13 83.5
q0 62 17 118.5t49 99t77.5 68t101.5 25.5q44 0 80.5 -20t51.5 -53l56 265h113zM608 552l29 128h121l-64 -128h-86z" />
    <glyph glyph-name="Dcroat" unicode="&#x110;" horiz-adv-x="696" 
d="M30 0l61 289h-96l20 101h97l62 290h165q83 0 139.5 -12.5t98.5 -41.5q45 -32 69.5 -81.5t24.5 -122.5q0 -53 -11 -108t-33 -105t-55 -92t-78 -68q-28 -17 -54 -26.5t-53 -14.5t-57 -6.5t-67 -1.5h-233zM231 390h168l-21 -101h-168l-39 -181h93q54 0 97 7t75 30
q30 21 52 54.5t36.5 71t22 75t7.5 68.5q0 88 -57 126q-33 21 -79 25.5t-95 4.5h-53z" />
    <glyph glyph-name="dcroat" unicode="&#x111;" horiz-adv-x="550" 
d="M276 540l17 77h150l14 63h113l-13 -63h89l-17 -77h-88l-114 -540h-115l13 56q-24 -35 -60.5 -51.5t-78.5 -16.5q-33 0 -62.5 11.5t-51.5 35t-35 59t-13 83.5q0 62 17 118.5t49 99t77.5 68t101.5 25.5q44 0 80.5 -20t51.5 -53l26 125h-151zM230 82q35 0 61.5 19.5t44 49
t26 64.5t8.5 67q0 48 -21 79t-68 31q-35 0 -61.5 -18.5t-44.5 -47t-27 -63.5t-9 -67q0 -51 21.5 -82.5t69.5 -31.5z" />
    <glyph glyph-name="Emacron" unicode="&#x112;" horiz-adv-x="611" 
d="M259 573l-37 -168h326l-23 -107h-326l-40 -191h379l-22 -107h-498l144 680h474l-22 -107h-355zM287 867h292l-19 -93h-292z" />
    <glyph glyph-name="emacron" unicode="&#x113;" horiz-adv-x="526" 
d="M465 112q-13 -19 -33 -41t-48 -40.5t-65 -30.5t-85 -12q-100 0 -154 56t-54 161q0 55 18.5 106t53 90.5t82.5 63t107 23.5q51 0 88 -16t61 -44t36 -65.5t12 -79.5q0 -18 -2 -38t-6 -35h-341v-14q0 -58 33 -84.5t78 -26.5q47 0 82 23.5t57 60.5zM277 398q-48 0 -83 -30
t-45 -75h227q0 55 -26 80t-73 25zM185 680h292l-19 -93h-292z" />
    <glyph glyph-name="Ebreve" unicode="&#x114;" horiz-adv-x="611" 
d="M259 573l-37 -168h326l-23 -107h-326l-40 -191h379l-22 -107h-498l144 680h474l-22 -107h-355zM431 827q47 0 75 63h91q-26 -72 -70.5 -111.5t-107.5 -39.5t-97.5 39.5t-28.5 111.5h90q2 -63 48 -63z" />
    <glyph glyph-name="ebreve" unicode="&#x115;" horiz-adv-x="526" 
d="M465 112q-13 -19 -33 -41t-48 -40.5t-65 -30.5t-85 -12q-100 0 -154 56t-54 161q0 55 18.5 106t53 90.5t82.5 63t107 23.5q51 0 88 -16t61 -44t36 -65.5t12 -79.5q0 -18 -2 -38t-6 -35h-341v-14q0 -58 33 -84.5t78 -26.5q47 0 82 23.5t57 60.5zM277 398q-48 0 -83 -30
t-45 -75h227q0 55 -26 80t-73 25zM323 617q47 0 75 63h91q-26 -72 -70.5 -111.5t-107.5 -39.5t-97.5 39.5t-28.5 111.5h90q2 -63 48 -63z" />
    <glyph glyph-name="Edotaccent" unicode="&#x116;" horiz-adv-x="611" 
d="M259 573l-37 -168h326l-23 -107h-326l-40 -191h379l-22 -107h-498l144 680h474l-22 -107h-355zM375 889h117l-27 -127h-117z" />
    <glyph glyph-name="edotaccent" unicode="&#x117;" horiz-adv-x="526" 
d="M465 112q-13 -19 -33 -41t-48 -40.5t-65 -30.5t-85 -12q-100 0 -154 56t-54 161q0 55 18.5 106t53 90.5t82.5 63t107 23.5q51 0 88 -16t61 -44t36 -65.5t12 -79.5q0 -18 -2 -38t-6 -35h-341v-14q0 -58 33 -84.5t78 -26.5q47 0 82 23.5t57 60.5zM277 398q-48 0 -83 -30
t-45 -75h227q0 55 -26 80t-73 25zM267 680h117l-27 -127h-117z" />
    <glyph glyph-name="Eogonek" unicode="&#x118;" horiz-adv-x="611" 
d="M444 -202q-19 -11 -39 -15t-36 -4q-23 0 -43.5 6t-36 18t-24.5 30.5t-9 44.5q0 20 7.5 37.5t19 33t26.5 28t30 23.5h-321l144 680h474l-22 -107h-355l-37 -168h326l-23 -107h-326l-40 -191h379l-22 -107h-59q-18 -11 -37.5 -24.5t-35.5 -27.5t-26 -28.5t-10 -27.5
q0 -26 28 -26q10 0 18 2.5t16 6.5z" />
    <glyph glyph-name="eogonek" unicode="&#x119;" horiz-adv-x="526" 
d="M295 -202q-19 -11 -39 -15t-36 -4q-23 0 -43 6t-36 18.5t-25 31.5t-9 45q0 35 22.5 63.5t49.5 49.5q-74 14 -113.5 68t-39.5 144q0 55 18.5 106t53 90.5t82.5 63t107 23.5q51 0 88 -16t61 -44t36 -65.5t12 -79.5q0 -18 -2 -38t-6 -35h-341v-14q0 -58 33 -84.5t78 -26.5
q47 0 82 23.5t57 60.5l80 -57q-11 -16 -26 -33.5t-35.5 -34t-47 -29.5t-59.5 -20q-17 -11 -34.5 -24t-31.5 -26.5t-23 -27t-9 -25.5q0 -26 28 -26q10 0 18 2.5t16 6.5zM277 398q-48 0 -83 -30t-45 -75h227q0 55 -26 80t-73 25z" />
    <glyph glyph-name="Ecaron" unicode="&#x11a;" horiz-adv-x="611" 
d="M416 827l69 62h118l-158 -145h-80l-95 145h106zM259 573l-37 -168h326l-23 -107h-326l-40 -191h379l-22 -107h-498l144 680h474l-22 -107h-355z" />
    <glyph glyph-name="ecaron" unicode="&#x11b;" horiz-adv-x="526" 
d="M465 112q-13 -19 -33 -41t-48 -40.5t-65 -30.5t-85 -12q-100 0 -154 56t-54 161q0 55 18.5 106t53 90.5t82.5 63t107 23.5q51 0 88 -16t61 -44t36 -65.5t12 -79.5q0 -18 -2 -38t-6 -35h-341v-14q0 -58 33 -84.5t78 -26.5q47 0 82 23.5t57 60.5zM277 398q-48 0 -83 -30
t-45 -75h227q0 55 -26 80t-73 25zM379 680h110l-145 -128h-76l-92 128h99l42 -50z" />
    <glyph glyph-name="Gcircumflex" unicode="&#x11c;" horiz-adv-x="680" 
d="M437 806l-69 -62h-118l158 145h80l95 -145h-106zM311 -12q-56 0 -103.5 18.5t-82 55.5t-54 92t-19.5 127q0 76 22.5 150t66 132t108.5 93.5t151 35.5q100 0 164.5 -49t88.5 -129l-107 -51q-14 57 -51 89.5t-102 32.5q-57 0 -99 -26.5t-69 -68.5t-40 -95t-13 -107
q0 -89 39 -141t120 -52q39 0 70 13.5t54.5 36.5t39 53.5t24.5 65.5h-221l20 105h334l-78 -369h-114l11 52h-1q-7 -8 -20.5 -19t-33.5 -21t-46.5 -17t-58.5 -7z" />
    <glyph glyph-name="gcircumflex" unicode="&#x11d;" horiz-adv-x="546" 
d="M232 94q35 0 61 19t43.5 48t26 63.5t8.5 64.5q0 47 -21 77t-68 30q-35 0 -61.5 -19t-44.5 -48t-27 -63t-9 -64q0 -48 22 -78t70 -30zM99 -21v-12q0 -39 24 -58.5t75 -19.5q30 0 49 7t31.5 21t19.5 34t13 46l14 64h-1q-17 -22 -50.5 -38.5t-81.5 -16.5q-33 0 -63 10
t-53.5 32t-37 55.5t-13.5 81.5q0 59 17 114t49 97t77.5 67t101.5 25q44 0 80.5 -19t51.5 -51l12 58h111l-105 -493q-12 -56 -33 -91t-49.5 -55t-64.5 -27.5t-78 -7.5q-37 0 -74.5 6.5t-67.5 23t-48.5 45.5t-18.5 73v11t1 12zM286 552h-110l145 128h76l92 -128h-99l-42 50z
" />
    <glyph glyph-name="Gbreve" unicode="&#x11e;" horiz-adv-x="680" 
d="M311 -12q-56 0 -103.5 18.5t-82 55.5t-54 92t-19.5 127q0 76 22.5 150t66 132t108.5 93.5t151 35.5q100 0 164.5 -49t88.5 -129l-107 -51q-14 57 -51 89.5t-102 32.5q-57 0 -99 -26.5t-69 -68.5t-40 -95t-13 -107q0 -89 39 -141t120 -52q39 0 70 13.5t54.5 36.5t39 53.5
t24.5 65.5h-221l20 105h334l-78 -369h-114l11 52h-1q-7 -8 -20.5 -19t-33.5 -21t-46.5 -17t-58.5 -7zM451 825q47 0 75 63h91q-26 -72 -70.5 -111.5t-107.5 -39.5t-97.5 39.5t-28.5 111.5h90q2 -63 48 -63z" />
    <glyph glyph-name="gbreve" unicode="&#x11f;" horiz-adv-x="546" 
d="M232 94q35 0 61 19t43.5 48t26 63.5t8.5 64.5q0 47 -21 77t-68 30q-35 0 -61.5 -19t-44.5 -48t-27 -63t-9 -64q0 -48 22 -78t70 -30zM99 -21v-12q0 -39 24 -58.5t75 -19.5q30 0 49 7t31.5 21t19.5 34t13 46l14 64h-1q-17 -22 -50.5 -38.5t-81.5 -16.5q-33 0 -63 10
t-53.5 32t-37 55.5t-13.5 81.5q0 59 17 114t49 97t77.5 67t101.5 25q44 0 80.5 -19t51.5 -51l12 58h111l-105 -493q-12 -56 -33 -91t-49.5 -55t-64.5 -27.5t-78 -7.5q-37 0 -74.5 6.5t-67.5 23t-48.5 45.5t-18.5 73v11t1 12zM352 617q47 0 75 63h91q-26 -72 -70.5 -111.5
t-107.5 -39.5t-97.5 39.5t-28.5 111.5h90q2 -63 48 -63z" />
    <glyph glyph-name="Gdotaccent" unicode="&#x120;" horiz-adv-x="680" 
d="M311 -12q-56 0 -103.5 18.5t-82 55.5t-54 92t-19.5 127q0 76 22.5 150t66 132t108.5 93.5t151 35.5q100 0 164.5 -49t88.5 -129l-107 -51q-14 57 -51 89.5t-102 32.5q-57 0 -99 -26.5t-69 -68.5t-40 -95t-13 -107q0 -89 39 -141t120 -52q39 0 70 13.5t54.5 36.5t39 53.5
t24.5 65.5h-221l20 105h334l-78 -369h-114l11 52h-1q-7 -8 -20.5 -19t-33.5 -21t-46.5 -17t-58.5 -7zM385 889h117l-27 -127h-117z" />
    <glyph glyph-name="gdotaccent" unicode="&#x121;" horiz-adv-x="546" 
d="M232 94q35 0 61 19t43.5 48t26 63.5t8.5 64.5q0 47 -21 77t-68 30q-35 0 -61.5 -19t-44.5 -48t-27 -63t-9 -64q0 -48 22 -78t70 -30zM99 -21v-12q0 -39 24 -58.5t75 -19.5q30 0 49 7t31.5 21t19.5 34t13 46l14 64h-1q-17 -22 -50.5 -38.5t-81.5 -16.5q-33 0 -63 10
t-53.5 32t-37 55.5t-13.5 81.5q0 59 17 114t49 97t77.5 67t101.5 25q44 0 80.5 -19t51.5 -51l12 58h111l-105 -493q-12 -56 -33 -91t-49.5 -55t-64.5 -27.5t-78 -7.5q-37 0 -74.5 6.5t-67.5 23t-48.5 45.5t-18.5 73v11t1 12zM289 680h117l-27 -127h-117z" />
    <glyph glyph-name="Gcommaaccent" unicode="&#x122;" horiz-adv-x="680" 
d="M311 -12q-56 0 -103.5 18.5t-82 55.5t-54 92t-19.5 127q0 76 22.5 150t66 132t108.5 93.5t151 35.5q100 0 164.5 -49t88.5 -129l-107 -51q-14 57 -51 89.5t-102 32.5q-57 0 -99 -26.5t-69 -68.5t-40 -95t-13 -107q0 -89 39 -141t120 -52q39 0 70 13.5t54.5 36.5t39 53.5
t24.5 65.5h-221l20 105h334l-78 -369h-114l11 52h-1q-7 -8 -20.5 -19t-33.5 -21t-46.5 -17t-58.5 -7zM373 -60l-11 -51q-8 -35 -19 -72.5t-35 -61.5q-19 -19 -46.5 -30.5t-67.5 -13.5l16 67q30 3 42 19.5t14 31.5h-46l25 111h128z" />
    <glyph glyph-name="gcommaaccent" unicode="&#x123;" horiz-adv-x="546" 
d="M232 94q35 0 61 19t43.5 48t26 63.5t8.5 64.5q0 47 -21 77t-68 30q-35 0 -61.5 -19t-44.5 -48t-27 -63t-9 -64q0 -48 22 -78t70 -30zM99 -21v-12q0 -39 24 -58.5t75 -19.5q30 0 49 7t31.5 21t19.5 34t13 46l14 64h-1q-17 -22 -50.5 -38.5t-81.5 -16.5q-33 0 -63 10
t-53.5 32t-37 55.5t-13.5 81.5q0 59 17 114t49 97t77.5 67t101.5 25q44 0 80.5 -19t51.5 -51l12 58h111l-105 -493q-12 -56 -33 -91t-49.5 -55t-64.5 -27.5t-78 -7.5q-37 0 -74.5 6.5t-67.5 23t-48.5 45.5t-18.5 73v11t1 12zM257 569l11 51q8 35 19 72.5t35 61.5
q19 19 46.5 30.5t67.5 13.5l-16 -67q-30 -3 -42 -19.5t-14 -31.5h46l-25 -111h-128z" />
    <glyph glyph-name="Hcircumflex" unicode="&#x124;" horiz-adv-x="687" 
d="M452 806l-69 -62h-118l158 145h80l95 -145h-106zM199 297l-63 -297h-118l143 680h119l-58 -275h295l57 275h120l-145 -680h-117l62 297h-295z" />
    <glyph glyph-name="hcircumflex" unicode="&#x125;" horiz-adv-x="545" 
d="M427 0h-113l49 232l8.5 42t4.5 44q0 29 -14 50t-56 21q-30 0 -53 -14t-40.5 -36.5t-28.5 -50t-17 -53.5l-50 -235h-114l145 680h114l-60 -273q23 38 63 59.5t91 21.5q27 0 52 -7.5t44 -23.5t30.5 -41t11.5 -59q0 -16 -2.5 -38.5t-7.5 -48.5zM340 744h-110l145 128h76
l92 -128h-99l-42 50z" />
    <glyph glyph-name="Hbar" unicode="&#x126;" horiz-adv-x="687" 
d="M199 297l-63 -297h-118l143 680h119l-26 -121h295l25 121h120l-145 -680h-117l62 297h-295zM517 405l14 69h-295l-14 -69h295z" />
    <glyph glyph-name="hbar" unicode="&#x127;" horiz-adv-x="545" 
d="M49 617h85l14 63h114l-14 -63h152l-17 -77h-152l-29 -133q23 38 63 59.5t91 21.5q27 0 52 -7.5t44 -23.5t30.5 -41t11.5 -59q0 -16 -2.5 -38.5t-7.5 -48.5l-57 -270h-113l49 232l8.5 42t4.5 44q0 29 -14 50t-56 21q-30 0 -53 -14t-40.5 -36.5t-28.5 -50t-17 -53.5
l-50 -235h-114l115 540h-86z" />
    <glyph glyph-name="Itilde" unicode="&#x128;" horiz-adv-x="273" 
d="M280 680l-144 -680h-118l143 680h119zM415 854q-8 -19 -17.5 -37.5t-23 -33.5t-31 -24t-41.5 -9q-20 0 -35 5t-31 13l-31.5 15t-25.5 7q-17 0 -25 -14t-13 -29l-73 23q3 12 11.5 30t22.5 34.5t33.5 28t45.5 11.5q19 0 34.5 -6t30.5 -14q14 -8 27.5 -13.5t26.5 -5.5
q17 0 27.5 13.5t15.5 29.5z" />
    <glyph glyph-name="itilde" unicode="&#x129;" horiz-adv-x="240" 
d="M117 0h-113l100 476h114zM349 651q-8 -19 -17.5 -37.5t-23 -33.5t-31 -24t-41.5 -9q-20 0 -35 5t-31 13l-31.5 15t-25.5 7q-17 0 -25 -14t-13 -29l-73 23q3 12 11.5 30t22.5 34.5t33.5 28t45.5 11.5q19 0 34.5 -6t30.5 -14q14 -8 27.5 -13.5t26.5 -5.5q17 0 27.5 13.5
t15.5 29.5z" />
    <glyph glyph-name="Imacron" unicode="&#x12a;" horiz-adv-x="273" 
d="M280 680l-144 -680h-118l143 680h119zM109 867h292l-19 -93h-292z" />
    <glyph glyph-name="imacron" unicode="&#x12b;" horiz-adv-x="240" 
d="M117 0h-113l100 476h114zM56 680h292l-19 -93h-292z" />
    <glyph glyph-name="Ibreve" unicode="&#x12c;" horiz-adv-x="273" 
d="M280 680l-144 -680h-118l143 680h119zM257 826q47 0 75 63h91q-26 -72 -70.5 -111.5t-107.5 -39.5t-97.5 39.5t-28.5 111.5h90q2 -63 48 -63z" />
    <glyph glyph-name="ibreve" unicode="&#x12d;" horiz-adv-x="240" 
d="M117 0h-113l100 476h114zM198 617q47 0 75 63h91q-26 -72 -70.5 -111.5t-107.5 -39.5t-97.5 39.5t-28.5 111.5h90q2 -63 48 -63z" />
    <glyph glyph-name="Iogonek" unicode="&#x12e;" horiz-adv-x="273" 
d="M126 -202q-19 -11 -39 -15t-36 -4q-23 0 -43 6.5t-36 20t-25 32.5t-9 45q0 22 8 40.5t20 33t26 25t26 18.5l143 680h119l-144 -680q-15 -8 -33 -19t-34.5 -25.5t-27.5 -30.5t-11 -33q0 -26 28 -26q10 0 18 2.5t16 6.5z" />
    <glyph glyph-name="iogonek" unicode="&#x12f;" horiz-adv-x="240" 
d="M117 0q-15 -8 -33 -19.5t-34 -25.5t-27 -30.5t-11 -32.5q0 -26 28 -26q10 0 18 2.5t16 6.5l34 -77q-19 -11 -39 -15t-36 -4q-23 0 -43 6.5t-36 20t-25 32.5t-9 45q0 23 8.5 41.5t21 32.5t27.5 24.5l27 18.5l100 476h114zM236 564h-114l25 116h114z" />
    <glyph glyph-name="Idotaccent" unicode="&#x130;" horiz-adv-x="273" 
d="M280 680l-144 -680h-118l143 680h119zM206 889h117l-27 -127h-117z" />
    <glyph glyph-name="dotlessi" unicode="&#x131;" horiz-adv-x="240" 
d="M117 0h-113l100 476h114z" />
    <glyph glyph-name="IJ" unicode="&#x132;" horiz-adv-x="606" 
d="M280 680l-144 -680h-118l143 680h119zM618 680l-112 -518q-9 -42 -21.5 -72t-31.5 -50q-29 -32 -73.5 -43t-92.5 -11q-26 0 -51.5 2.5t-45.5 6.5l23 101q14 -2 30.5 -4t33.5 -2q24 0 43.5 4.5t33.5 16.5q17 14 27.5 39t19.5 67l99 463h118z" />
    <glyph glyph-name="ij" unicode="&#x133;" horiz-adv-x="485" 
d="M117 0h-113l100 476h114zM236 564h-114l25 116h114zM464 476l-119 -556q-5 -21 -10.5 -39.5t-16.5 -32.5q-20 -27 -49.5 -37.5t-67.5 -10.5q-44 0 -83 10l21 93q9 -2 20 -3t23 -1q11 0 20 2t17 8q6 5 11 14.5t9 28.5l111 524h114zM483 564h-114l25 116h114z" />
    <glyph glyph-name="Jcircumflex" unicode="&#x134;" horiz-adv-x="373" 
d="M341 806l-69 -62h-118l158 145h80l95 -145h-106zM385 680l-112 -518q-9 -42 -21.5 -72t-31.5 -50q-29 -32 -73.5 -43t-92.5 -11q-26 0 -51.5 2.5t-45.5 6.5l23 101q14 -2 30.5 -4t33.5 -2q24 0 43.5 4.5t33.5 16.5q17 14 27.5 39t19.5 67l99 463h118z" />
    <glyph glyph-name="jcircumflex" unicode="&#x135;" horiz-adv-x="239" 
d="M218 476l-119 -556q-5 -21 -10.5 -39.5t-16.5 -32.5q-20 -27 -49.5 -37.5t-67.5 -10.5q-44 0 -83 10l21 93q9 -2 20 -3t23 -1q11 0 20 2t17 8q6 5 11 14.5t9 28.5l111 524h114zM113 552h-110l145 128h76l92 -128h-99l-42 50z" />
    <glyph glyph-name="Kcommaaccent" unicode="&#x136;" horiz-adv-x="661" 
d="M599 0h-143l-150 315l-123 -100l-46 -215h-119l143 680h120l-65 -307l358 307h168l-343 -285zM345 -60l-11 -51q-8 -35 -19 -72.5t-35 -61.5q-19 -19 -46.5 -30.5t-67.5 -13.5l16 67q30 3 42 19.5t14 31.5h-46l25 111h128z" />
    <glyph glyph-name="kcommaaccent" unicode="&#x137;" horiz-adv-x="530" 
d="M261 680l-85 -393l230 189h151l-229 -189l138 -287h-130l-98 217l-90 -68l-32 -149h-113l144 680h114zM275 -60l-11 -51q-8 -35 -19 -72.5t-35 -61.5q-19 -19 -46.5 -30.5t-67.5 -13.5l16 67q30 3 42 19.5t14 31.5h-46l25 111h128z" />
    <glyph glyph-name="kgreenlandic" unicode="&#x138;" horiz-adv-x="527" 
d="M285 377l48 38t49.5 34t53.5 24.5t60 9.5q6 0 12.5 -0.5t11.5 -0.5l-23 -111h-10q-19 0 -36 -5t-35 -15t-39.5 -26l-49.5 -38l138 -287h-130l-98 217l-90 -68l-32 -149h-113l100 475h113l-40 -188z" />
    <glyph glyph-name="Lacute" unicode="&#x139;" horiz-adv-x="504" 
d="M379 889l-109 -145h-98l67 145h140zM280 680l-121 -570h296l-23 -110h-414l143 680h119z" />
    <glyph glyph-name="lacute" unicode="&#x13a;" horiz-adv-x="248" 
d="M373 889l-109 -145h-98l67 145h140zM265 680l-144 -680h-113l143 680h114z" />
    <glyph glyph-name="Lcommaaccent" unicode="&#x13b;" horiz-adv-x="504" 
d="M280 680l-121 -570h296l-23 -110h-414l143 680h119zM291 -60l-11 -51q-8 -35 -19 -72.5t-35 -61.5q-19 -19 -46.5 -30.5t-67.5 -13.5l16 67q30 3 42 19.5t14 31.5h-46l25 111h128z" />
    <glyph glyph-name="lcommaaccent" unicode="&#x13c;" horiz-adv-x="248" 
d="M265 680l-144 -680h-113l143 680h114zM116 -60l-11 -51q-8 -35 -19 -72.5t-35 -61.5q-19 -19 -46.5 -30.5t-67.5 -13.5l16 67q30 3 42 19.5t14 31.5h-46l25 111h128z" />
    <glyph glyph-name="Lcaron" unicode="&#x13d;" horiz-adv-x="505" 
d="M280 680l-121 -570h296l-23 -110h-414l143 680h119zM336 552l29 128h121l-64 -128h-86z" />
    <glyph glyph-name="lcaron" unicode="&#x13e;" horiz-adv-x="258" 
d="M265 680l-144 -680h-113l143 680h114zM304 552l29 128h121l-64 -128h-86z" />
    <glyph glyph-name="Ldot" unicode="&#x13f;" horiz-adv-x="514" 
d="M280 680l-121 -570h296l-23 -110h-414l143 680h119zM455 476l-29 -132h-129l29 132h129z" />
    <glyph glyph-name="ldot" unicode="&#x140;" horiz-adv-x="355" 
d="M265 680l-144 -680h-113l143 680h114zM408 476l-29 -132h-129l29 132h129z" />
    <glyph glyph-name="Lslash" unicode="&#x141;" horiz-adv-x="517" 
d="M293 680l-60 -280l210 118l-25 -119l-210 -119l-36 -170h296l-23 -110h-414l43 203l-81 -46l25 120l81 47l75 356h119z" />
    <glyph glyph-name="lslash" unicode="&#x142;" horiz-adv-x="273" 
d="M282 680l-41 -194l75 43l-27 -125l-75 -44l-76 -360h-113l60 286l-75 -42l26 125l75 43l57 268h114z" />
    <glyph glyph-name="Nacute" unicode="&#x143;" horiz-adv-x="709" 
d="M601 889l-109 -145h-98l67 145h140zM18 0l144 680h120l149 -336l23 -53.5t21 -50.5q11 -26 20 -51h1q6 35 14 73q6 32 14.5 73l17.5 83l57 262h117l-144 -680h-120l-158 365q-14 31 -24 56.5l-17 42.5q-8 20 -13 36h-1l-16 -83l-14.5 -74t-14.5 -71l-57 -272h-119z" />
    <glyph glyph-name="nacute" unicode="&#x144;" horiz-adv-x="545" 
d="M427 0h-113l49 232l8.5 42t4.5 44q0 29 -14 50t-56 21q-30 0 -53 -14t-40.5 -36.5t-28.5 -50t-17 -53.5l-50 -235h-114l101 476h114l-16 -69q23 38 63 59.5t91 21.5q27 0 52 -7.5t44 -23.5t30.5 -41t11.5 -59q0 -16 -2.5 -38.5t-7.5 -48.5zM455 680l-101 -128h-98l64 128
h135z" />
    <glyph glyph-name="Ncommaaccent" unicode="&#x145;" horiz-adv-x="709" 
d="M18 0l144 680h120l149 -336l23 -53.5t21 -50.5q11 -26 20 -51h1q6 35 14 73q6 32 14.5 73l17.5 83l57 262h117l-144 -680h-120l-158 365q-14 31 -24 56.5l-17 42.5q-8 20 -13 36h-1l-16 -83l-14.5 -74t-14.5 -71l-57 -272h-119zM359 -60l-11 -51q-8 -35 -19 -72.5
t-35 -61.5q-19 -19 -46.5 -30.5t-67.5 -13.5l16 67q30 3 42 19.5t14 31.5h-46l25 111h128z" />
    <glyph glyph-name="ncommaaccent" unicode="&#x146;" horiz-adv-x="545" 
d="M427 0h-113l49 232l8.5 42t4.5 44q0 29 -14 50t-56 21q-30 0 -53 -14t-40.5 -36.5t-28.5 -50t-17 -53.5l-50 -235h-114l101 476h114l-16 -69q23 38 63 59.5t91 21.5q27 0 52 -7.5t44 -23.5t30.5 -41t11.5 -59q0 -16 -2.5 -38.5t-7.5 -48.5zM268 -60l-11 -51
q-8 -35 -19 -72.5t-35 -61.5q-19 -19 -46.5 -30.5t-67.5 -13.5l16 67q30 3 42 19.5t14 31.5h-46l25 111h128z" />
    <glyph glyph-name="Ncaron" unicode="&#x147;" horiz-adv-x="709" 
d="M459 827l69 62h118l-158 -145h-80l-95 145h106zM18 0l144 680h120l149 -336l23 -53.5t21 -50.5q11 -26 20 -51h1q6 35 14 73q6 32 14.5 73l17.5 83l57 262h117l-144 -680h-120l-158 365q-14 31 -24 56.5l-17 42.5q-8 20 -13 36h-1l-16 -83l-14.5 -74t-14.5 -71l-57 -272
h-119z" />
    <glyph glyph-name="ncaron" unicode="&#x148;" horiz-adv-x="545" 
d="M427 0h-113l49 232l8.5 42t4.5 44q0 29 -14 50t-56 21q-30 0 -53 -14t-40.5 -36.5t-28.5 -50t-17 -53.5l-50 -235h-114l101 476h114l-16 -69q23 38 63 59.5t91 21.5q27 0 52 -7.5t44 -23.5t30.5 -41t11.5 -59q0 -16 -2.5 -38.5t-7.5 -48.5zM397 680h110l-145 -128h-76
l-92 128h99l42 -50z" />
    <glyph glyph-name="napostrophe" unicode="&#x149;" horiz-adv-x="545" 
d="M427 0h-113l49 232l8.5 42t4.5 44q0 29 -14 50t-56 21q-30 0 -53 -14t-40.5 -36.5t-28.5 -50t-17 -53.5l-50 -235h-114l101 476h114l-16 -69q23 38 63 59.5t91 21.5q27 0 52 -7.5t44 -23.5t30.5 -41t11.5 -59q0 -16 -2.5 -38.5t-7.5 -48.5zM220 791l-11 -51
q-8 -35 -19 -72.5t-35 -61.5q-19 -19 -46.5 -30.5t-67.5 -13.5l16 67q30 3 42 19.5t14 31.5h-46l25 111h128z" />
    <glyph glyph-name="Eng" unicode="&#x14a;" horiz-adv-x="709" 
d="M18 0l144 680h120l149 -336l23 -53.5t21 -50.5q11 -26 20 -51h1q6 35 14 73q6 32 14.5 73l17.5 83l57 262h117l-149 -702q-9 -42 -21.5 -72t-31.5 -50q-29 -32 -73.5 -43t-92.5 -11q-26 0 -51.5 2.5t-45.5 6.5l23 101q14 -2 30.5 -4t33.5 -2q24 0 43 4.5t33 16.5
q13 11 21.5 29t16.5 44l-158 365q-14 31 -24 56.5l-17 42.5q-8 20 -13 36h-1l-16 -83l-14.5 -74t-14.5 -71l-57 -272h-119z" />
    <glyph glyph-name="eng" unicode="&#x14b;" horiz-adv-x="544" 
d="M363 232l8.5 42t4.5 44q0 29 -14 50t-56 21q-30 0 -53 -14t-40.5 -36.5t-28.5 -50t-17 -53.5l-50 -235h-114l101 476h114l-16 -69q23 38 63 59.5t91 21.5q27 0 52 -7.5t44 -23.5t30.5 -41t11.5 -59q0 -16 -2.5 -38.5t-7.5 -48.5l-75 -350q-5 -21 -10.5 -39.5t-16.5 -32.5
q-20 -27 -49.5 -37.5t-67.5 -10.5q-44 0 -83 10l21 93q9 -2 20 -3t23 -1q11 0 20 2t17 8q6 5 11 14.5t9 28.5z" />
    <glyph glyph-name="Omacron" unicode="&#x14c;" horiz-adv-x="710" 
d="M52 281q0 76 22.5 150t66.5 132t110.5 93.5t153.5 35.5q65 0 116.5 -20.5t87.5 -58.5t55 -91t19 -117q0 -77 -21.5 -151.5t-66 -133.5t-112 -95.5t-159.5 -36.5q-69 0 -120 21.5t-85 60t-50.5 92.5t-16.5 119zM398 585q-60 0 -103 -27t-70 -69.5t-40 -96.5t-13 -108
q0 -87 39 -137.5t120 -50.5q57 0 100.5 27t73 70t44 97t14.5 108q0 86 -42 136.5t-123 50.5zM291 867h292l-19 -93h-292z" />
    <glyph glyph-name="omacron" unicode="&#x14d;" horiz-adv-x="534" 
d="M25 192q0 56 17.5 109.5t51 95t83 66.5t114.5 25q98 0 148.5 -56.5t50.5 -149.5q0 -53 -15.5 -105.5t-47.5 -94.5t-81 -68t-117 -26q-97 0 -150.5 55t-53.5 149zM279 393q-36 0 -63 -18t-45 -46t-27 -63t-9 -68q0 -55 27 -84t73 -29q37 0 64 17.5t44.5 45.5t26 62.5
t8.5 68.5q0 54 -25.5 84t-73.5 30zM181 680h292l-19 -93h-292z" />
    <glyph glyph-name="Obreve" unicode="&#x14e;" horiz-adv-x="710" 
d="M52 281q0 76 22.5 150t66.5 132t110.5 93.5t153.5 35.5q65 0 116.5 -20.5t87.5 -58.5t55 -91t19 -117q0 -77 -21.5 -151.5t-66 -133.5t-112 -95.5t-159.5 -36.5q-69 0 -120 21.5t-85 60t-50.5 92.5t-16.5 119zM398 585q-60 0 -103 -27t-70 -69.5t-40 -96.5t-13 -108
q0 -87 39 -137.5t120 -50.5q57 0 100.5 27t73 70t44 97t14.5 108q0 86 -42 136.5t-123 50.5zM443 826q47 0 75 63h91q-26 -72 -70.5 -111.5t-107.5 -39.5t-97.5 39.5t-28.5 111.5h90q2 -63 48 -63z" />
    <glyph glyph-name="obreve" unicode="&#x14f;" horiz-adv-x="534" 
d="M25 192q0 56 17.5 109.5t51 95t83 66.5t114.5 25q98 0 148.5 -56.5t50.5 -149.5q0 -53 -15.5 -105.5t-47.5 -94.5t-81 -68t-117 -26q-97 0 -150.5 55t-53.5 149zM279 393q-36 0 -63 -18t-45 -46t-27 -63t-9 -68q0 -55 27 -84t73 -29q37 0 64 17.5t44.5 45.5t26 62.5
t8.5 68.5q0 54 -25.5 84t-73.5 30zM321 617q47 0 75 63h91q-26 -72 -70.5 -111.5t-107.5 -39.5t-97.5 39.5t-28.5 111.5h90q2 -63 48 -63z" />
    <glyph glyph-name="Ohungarumlaut" unicode="&#x150;" horiz-adv-x="710" 
d="M675 889l-109 -145h-98l67 145h140zM476 889l-109 -145h-98l67 145h140zM52 281q0 76 22.5 150t66.5 132t110.5 93.5t153.5 35.5q65 0 116.5 -20.5t87.5 -58.5t55 -91t19 -117q0 -77 -21.5 -151.5t-66 -133.5t-112 -95.5t-159.5 -36.5q-69 0 -120 21.5t-85 60t-50.5 92.5
t-16.5 119zM398 585q-60 0 -103 -27t-70 -69.5t-40 -96.5t-13 -108q0 -87 39 -137.5t120 -50.5q57 0 100.5 27t73 70t44 97t14.5 108q0 86 -42 136.5t-123 50.5z" />
    <glyph glyph-name="ohungarumlaut" unicode="&#x151;" horiz-adv-x="534" 
d="M25 192q0 56 17.5 109.5t51 95t83 66.5t114.5 25q98 0 148.5 -56.5t50.5 -149.5q0 -53 -15.5 -105.5t-47.5 -94.5t-81 -68t-117 -26q-97 0 -150.5 55t-53.5 149zM279 393q-36 0 -63 -18t-45 -46t-27 -63t-9 -68q0 -55 27 -84t73 -29q37 0 64 17.5t44.5 45.5t26 62.5
t8.5 68.5q0 54 -25.5 84t-73.5 30zM540 680l-101 -128h-98l64 128h135zM358 680l-101 -128h-98l64 128h135z" />
    <glyph glyph-name="OE" unicode="&#x152;" horiz-adv-x="900" 
d="M591 573l-37 -168h283l-23 -107h-283l-40 -191h336l-22 -107h-457l4 9q-14 -5 -31 -7.5t-40 -2.5q-45 0 -86 17t-72.5 52t-50.5 88.5t-19 126.5q0 88 26 162.5t71 129t105.5 85.5t130.5 31q33 0 58 -5t48 -17l2 11h431l-22 -107h-312zM318 105q16 0 30 2.5t25 6.5l96 450
q-16 10 -36 16t-46 6q-53 0 -94 -27.5t-69 -70.5t-42 -96t-14 -105q0 -88 37.5 -135t112.5 -47z" />
    <glyph glyph-name="oe" unicode="&#x153;" horiz-adv-x="862" 
d="M801 112q-13 -19 -33 -41t-48 -40.5t-65 -30.5t-85 -12q-110 0 -165 69q-32 -32 -75.5 -50.5t-100.5 -18.5q-97 0 -150.5 55t-53.5 149q0 56 17.5 109.5t51 95t83 66.5t114.5 25q54 0 94 -18t65 -51q33 32 77 50.5t97 18.5q50 0 87 -16t61 -43.5t36 -65t12 -79.5
q0 -19 -1.5 -37.5t-6.5 -38.5h-341v-12q0 -58 33 -84.5t78 -26.5q47 0 82 23.5t57 60.5zM279 393q-36 0 -63 -18t-45 -46t-27 -63t-9 -68q0 -55 27 -84t73 -29q37 0 64 17.5t44.5 45.5t26 62.5t8.5 68.5q0 54 -25.5 84t-73.5 30zM613 398q-48 0 -83 -30t-45 -77h227
q0 55 -26 81t-73 26z" />
    <glyph glyph-name="Racute" unicode="&#x154;" horiz-adv-x="667" 
d="M556 889l-109 -145h-98l67 145h140zM355 269h-161l-58 -269h-118l143 680h249q57 0 95.5 -8t65.5 -22q35 -19 57.5 -57t22.5 -92q0 -64 -28.5 -117.5t-85.5 -84.5q-14 -7 -28 -12.5t-34 -9.5l111 -277h-130zM372 376q44 0 70.5 5.5t45.5 18.5t30.5 37t11.5 59
q0 47 -29 63t-88 16h-155l-43 -199h157z" />
    <glyph glyph-name="racute" unicode="&#x155;" horiz-adv-x="356" 
d="M218 476l-17 -72h1q5 12 18 26t32.5 26.5t45 21t54.5 8.5q6 0 12 -0.5t12 -1.5l-26 -117q-8 1 -15.5 1.5t-15.5 0.5q-46 0 -76 -16.5t-50 -48.5q-11 -18 -19 -42t-15 -57l-42 -205h-114l101 476h114zM318 680l-101 -128h-98l64 128h135z" />
    <glyph glyph-name="Rcommaaccent" unicode="&#x156;" horiz-adv-x="667" 
d="M355 269h-161l-58 -269h-118l143 680h249q57 0 95.5 -8t65.5 -22q35 -19 57.5 -57t22.5 -92q0 -64 -28.5 -117.5t-85.5 -84.5q-14 -7 -28 -12.5t-34 -9.5l111 -277h-130zM372 376q44 0 70.5 5.5t45.5 18.5t30.5 37t11.5 59q0 47 -29 63t-88 16h-155l-43 -199h157z
M324 -60l-11 -51q-8 -35 -19 -72.5t-35 -61.5q-19 -19 -46.5 -30.5t-67.5 -13.5l16 67q30 3 42 19.5t14 31.5h-46l25 111h128z" />
    <glyph glyph-name="rcommaaccent" unicode="&#x157;" horiz-adv-x="356" 
d="M218 476l-17 -72h1q5 12 18 26t32.5 26.5t45 21t54.5 8.5q6 0 12 -0.5t12 -1.5l-26 -117q-8 1 -15.5 1.5t-15.5 0.5q-46 0 -76 -16.5t-50 -48.5q-11 -18 -19 -42t-15 -57l-42 -205h-114l101 476h114zM113 -60l-11 -51q-8 -35 -19 -72.5t-35 -61.5q-19 -19 -46.5 -30.5
t-67.5 -13.5l16 67q30 3 42 19.5t14 31.5h-46l25 111h128z" />
    <glyph glyph-name="Rcaron" unicode="&#x158;" horiz-adv-x="667" 
d="M407 827l69 62h118l-158 -145h-80l-95 145h106zM355 269h-161l-58 -269h-118l143 680h249q57 0 95.5 -8t65.5 -22q35 -19 57.5 -57t22.5 -92q0 -64 -28.5 -117.5t-85.5 -84.5q-14 -7 -28 -12.5t-34 -9.5l111 -277h-130zM372 376q44 0 70.5 5.5t45.5 18.5t30.5 37t11.5 59
q0 47 -29 63t-88 16h-155l-43 -199h157z" />
    <glyph glyph-name="rcaron" unicode="&#x159;" horiz-adv-x="356" 
d="M218 476l-17 -72h1q5 12 18 26t32.5 26.5t45 21t54.5 8.5q6 0 12 -0.5t12 -1.5l-26 -117q-8 1 -15.5 1.5t-15.5 0.5q-46 0 -76 -16.5t-50 -48.5q-11 -18 -19 -42t-15 -57l-42 -205h-114l101 476h114zM325 680h110l-145 -128h-76l-92 128h99l42 -50z" />
    <glyph glyph-name="Sacute" unicode="&#x15a;" horiz-adv-x="589" 
d="M486 889l-109 -145h-98l67 145h140zM98 221q29 -59 80 -93t117 -34q60 0 92.5 26.5t32.5 70.5q0 21 -7.5 36t-21 25.5t-31.5 17.5t-38 13l-86 26q-28 9 -55 22.5t-48 35t-33.5 52t-12.5 72.5q0 47 18.5 84.5t50 63.5t74 39.5t91.5 13.5q89 0 155.5 -37t106.5 -95l-90 -66
q-35 46 -77 68.5t-97 22.5t-83 -23.5t-28 -59.5q0 -32 19.5 -55t71.5 -39l82 -26q30 -9 58.5 -22.5t51 -34t36.5 -50t14 -69.5q0 -48 -16.5 -88t-48 -69t-78 -45t-105.5 -16q-54 0 -99.5 14t-81.5 37t-62.5 52.5t-42.5 59.5z" />
    <glyph glyph-name="sacute" unicode="&#x15b;" horiz-adv-x="468" 
d="M361 335q-21 26 -54.5 42.5t-75.5 16.5q-32 0 -49.5 -13t-17.5 -33q0 -22 13.5 -32.5t39.5 -18.5l66 -19q24 -7 46.5 -16.5t40.5 -24.5t28.5 -36.5t10.5 -51.5q0 -39 -14 -69.5t-39.5 -50.5t-61.5 -30.5t-79 -10.5q-45 0 -81 9.5t-63.5 25.5t-47.5 36.5t-33 43.5l79 62
q16 -31 52.5 -56.5t95.5 -25.5q42 0 62 15t20 38q0 22 -17.5 32t-45.5 18l-67 18q-21 6 -42 15t-37.5 25t-27 38.5t-10.5 55.5q0 37 15 65t40 47t57 28.5t67 9.5q69 0 122 -25t84 -67zM390 680l-101 -128h-98l64 128h135z" />
    <glyph glyph-name="Scircumflex" unicode="&#x15c;" horiz-adv-x="589" 
d="M356 806l-69 -62h-118l158 145h80l95 -145h-106zM98 221q29 -59 80 -93t117 -34q60 0 92.5 26.5t32.5 70.5q0 21 -7.5 36t-21 25.5t-31.5 17.5t-38 13l-86 26q-28 9 -55 22.5t-48 35t-33.5 52t-12.5 72.5q0 47 18.5 84.5t50 63.5t74 39.5t91.5 13.5q89 0 155.5 -37
t106.5 -95l-90 -66q-35 46 -77 68.5t-97 22.5t-83 -23.5t-28 -59.5q0 -32 19.5 -55t71.5 -39l82 -26q30 -9 58.5 -22.5t51 -34t36.5 -50t14 -69.5q0 -48 -16.5 -88t-48 -69t-78 -45t-105.5 -16q-54 0 -99.5 14t-81.5 37t-62.5 52.5t-42.5 59.5z" />
    <glyph glyph-name="scircumflex" unicode="&#x15d;" horiz-adv-x="468" 
d="M361 335q-21 26 -54.5 42.5t-75.5 16.5q-32 0 -49.5 -13t-17.5 -33q0 -22 13.5 -32.5t39.5 -18.5l66 -19q24 -7 46.5 -16.5t40.5 -24.5t28.5 -36.5t10.5 -51.5q0 -39 -14 -69.5t-39.5 -50.5t-61.5 -30.5t-79 -10.5q-45 0 -81 9.5t-63.5 25.5t-47.5 36.5t-33 43.5l79 62
q16 -31 52.5 -56.5t95.5 -25.5q42 0 62 15t20 38q0 22 -17.5 32t-45.5 18l-67 18q-21 6 -42 15t-37.5 25t-27 38.5t-10.5 55.5q0 37 15 65t40 47t57 28.5t67 9.5q69 0 122 -25t84 -67zM210 552h-110l145 128h76l92 -128h-99l-42 50z" />
    <glyph glyph-name="Scedilla" unicode="&#x15e;" horiz-adv-x="589" 
d="M98 221q29 -59 80 -93t117 -34q60 0 92.5 26.5t32.5 70.5q0 21 -7.5 36t-21 25.5t-31.5 17.5t-38 13l-86 26q-28 9 -55 22.5t-48 35t-33.5 52t-12.5 72.5q0 47 18.5 84.5t50 63.5t74 39.5t91.5 13.5q89 0 155.5 -37t106.5 -95l-90 -66q-35 46 -77 68.5t-97 22.5
t-83 -23.5t-28 -59.5q0 -32 19.5 -55t71.5 -39l82 -26q30 -9 58.5 -22.5t51 -34t36.5 -50t14 -69.5q0 -47 -16 -86.5t-46.5 -68t-75 -45.5t-101.5 -18l-20 -18q35 -1 59 -19.5t24 -56.5q0 -23 -9 -39.5t-23 -27.5t-33 -16.5t-38 -5.5q-31 0 -56 12l15 46q13 -5 21.5 -6
t16.5 -1q18 0 29.5 8.5t11.5 23.5q0 17 -12 24t-28 7q-17 0 -37 -10l-23 42l47 40q-45 6 -83 21.5t-68 37t-52.5 48t-36.5 53.5z" />
    <glyph glyph-name="scedilla" unicode="&#x15f;" horiz-adv-x="468" 
d="M361 336q-21 26 -54.5 42.5t-75.5 16.5q-32 0 -49.5 -13t-17.5 -33q0 -22 13.5 -32.5t39.5 -18.5l66 -19q24 -7 46.5 -16.5t40.5 -24.5t28.5 -37t10.5 -52q0 -77 -52 -118.5t-136 -42.5l-20 -18q35 -1 59 -19.5t24 -56.5q0 -23 -9 -39.5t-23 -27.5t-33 -16.5t-38 -5.5
q-31 0 -56 12l15 46q13 -5 21.5 -6t16.5 -1q18 0 29.5 8.5t11.5 23.5q0 17 -12 24t-28 7q-17 0 -37 -10l-23 42l48 40q-69 9 -111.5 41t-65.5 71l79 62q16 -31 52.5 -56.5t95.5 -25.5q42 0 62 15t20 38q0 22 -17.5 32.5t-45.5 18.5l-67 18q-21 6 -42 15t-37.5 25t-27 38.5
t-10.5 55.5q0 37 15 65t40 47t57 28.5t67 9.5q69 0 122 -25t84 -67z" />
    <glyph glyph-name="Scaron" unicode="&#x160;" horiz-adv-x="589" 
d="M98 221q29 -59 80 -93t117 -34q60 0 92.5 26.5t32.5 70.5q0 21 -7.5 36t-21 25.5t-31.5 17.5t-38 13l-86 26q-28 9 -55 22.5t-48 35t-33.5 52t-12.5 72.5q0 47 18.5 84.5t50 63.5t74 39.5t91.5 13.5q89 0 155.5 -37t106.5 -95l-90 -66q-35 46 -77 68.5t-97 22.5
t-83 -23.5t-28 -59.5q0 -32 19.5 -54.5t71.5 -39.5l82 -26q30 -9 58.5 -22.5t51 -34t36.5 -50t14 -69.5q0 -48 -16.5 -88t-48 -69t-78 -45t-105.5 -16q-54 0 -99.5 14t-81.5 37t-62.5 52.5t-42.5 59.5zM356 827l69 62h118l-158 -145h-80l-95 145h106z" />
    <glyph glyph-name="scaron" unicode="&#x161;" horiz-adv-x="468" 
d="M361 336q-21 26 -54.5 42.5t-75.5 16.5q-32 0 -49.5 -13t-17.5 -33q0 -22 13.5 -32.5t39.5 -18.5l66 -19q24 -7 46.5 -16.5t40.5 -24.5t28.5 -37t10.5 -52q0 -39 -14 -69.5t-39.5 -50.5t-61.5 -30.5t-79 -10.5q-45 0 -81 9.5t-63.5 25.5t-47.5 36.5t-33 43.5l79 62
q16 -31 52.5 -56.5t95.5 -25.5q42 0 62 15t20 38q0 22 -17.5 32.5t-45.5 18.5l-67 18q-21 6 -42 15t-37.5 25t-27 38.5t-10.5 55.5q0 37 15 65t40 47t57 28.5t67 9.5q69 0 122 -25t84 -67zM335 680h110l-145 -128h-76l-92 128h99l42 -50z" />
    <glyph glyph-name="uni0162" unicode="&#x162;" horiz-adv-x="554" 
d="M245 0l-34 -30q35 -1 59 -19.5t24 -56.5q0 -23 -9 -39.5t-23 -27.5t-33 -16.5t-38 -5.5q-31 0 -56 12l15 46q13 -5 21.5 -6t16.5 -1q18 0 29.5 8.5t11.5 23.5q0 17 -12 24t-28 7q-17 0 -37 -10l-23 42l58 49h-27l120 573h-199l23 107h516l-23 -107h-198l-121 -573h-33z
" />
    <glyph glyph-name="uni0163" unicode="&#x163;" horiz-adv-x="359" 
d="M269 -5q-12 -3 -32.5 -5t-50.5 -2h-10.5t-10.5 1l-21 -19q35 -1 59 -19.5t24 -56.5q0 -23 -9 -39.5t-23 -27.5t-33 -16.5t-38 -5.5q-31 0 -56 12l15 46q13 -5 21.5 -6t16.5 -1q18 0 29.5 8.5t11.5 23.5q0 17 -12 24t-28 7q-17 0 -37 -10l-23 42l54 46q-24 7 -40 22.5
t-16 43.5q0 12 3 28.5t8 38.5l54 257h-91l19 89h91l37 173l117 18l-40 -191h114l-19 -89h-114l-49 -238q-5 -23 -5 -33q0 -22 16.5 -28t44.5 -6q10 0 18.5 0.5t14.5 1.5q7 1 12 2z" />
    <glyph glyph-name="Tcaron" unicode="&#x164;" horiz-adv-x="554" 
d="M387 827l69 62h118l-158 -145h-80l-95 145h106zM160 0l120 573h-199l23 107h516l-23 -107h-198l-121 -573h-118z" />
    <glyph glyph-name="tcaron" unicode="&#x165;" horiz-adv-x="359" 
d="M269 -5q-12 -3 -32.5 -5t-50.5 -2q-23 0 -45.5 3t-40.5 11.5t-29 23t-11 37.5q0 12 3 28.5t8 38.5l54 257h-91l19 89h91l37 173l117 18l-40 -191h114l-19 -89h-114l-49 -238q-5 -23 -5 -33q0 -22 16.5 -28t44.5 -6q10 0 18.5 0.5t14.5 1.5q7 1 12 2zM350 552l29 128h121
l-64 -128h-86z" />
    <glyph glyph-name="Tbar" unicode="&#x166;" horiz-adv-x="554" 
d="M132 460h125l24 113h-199l23 107h516l-23 -107h-198l-24 -113h126l-18 -85h-126l-79 -375h-118l78 375h-125z" />
    <glyph glyph-name="tbar" unicode="&#x167;" horiz-adv-x="365" 
d="M23 319h91l15 68h-91l19 89h91l37 173l117 18l-40 -191h114l-19 -89h-114l-14 -68h114l-17 -77h-113l-19 -93q-5 -23 -5 -33q0 -22 16.5 -28t44.5 -6q10 0 18.5 0.5t14.5 1.5q7 1 12 2l-22 -91q-12 -3 -32.5 -5t-50.5 -2q-23 0 -45.5 3t-40.5 11.5t-29 23t-11 37.5
q0 12 3 28.5t8 38.5l23 112h-92z" />
    <glyph glyph-name="Utilde" unicode="&#x168;" horiz-adv-x="673" 
d="M294 -12q-59 0 -103.5 14.5t-74 41t-44 63.5t-14.5 81q0 19 3.5 43.5t8.5 50.5l83 398h119l-84 -398q-5 -22 -8.5 -42.5t-3.5 -40.5q0 -104 126 -104q38 0 67.5 8.5t52.5 29.5q36 33 58 134l87 413h117l-87 -419q-16 -78 -40.5 -129.5t-62.5 -82.5q-33 -27 -83.5 -44
t-116.5 -17zM613 854q-8 -19 -17.5 -37.5t-23 -33.5t-31 -24t-41.5 -9q-20 0 -35 5t-31 13l-31.5 15t-25.5 7q-17 0 -25 -14t-13 -29l-73 23q3 12 11.5 30t22.5 34.5t33.5 28t45.5 11.5q19 0 34.5 -6t30.5 -14q14 -8 27.5 -13.5t26.5 -5.5q17 0 27.5 13.5t15.5 29.5z" />
    <glyph glyph-name="utilde" unicode="&#x169;" horiz-adv-x="540" 
d="M98 476h113l-49 -232l-8.5 -42t-4.5 -44q0 -29 13.5 -50t56.5 -21q27 0 49.5 14t39.5 36.5t28.5 50t17.5 53.5l50 235h114l-101 -476h-114l16 69q-23 -38 -62.5 -59.5t-88.5 -21.5q-28 0 -53 8t-43.5 24.5t-29.5 41.5t-11 59q0 16 2.5 37.5t7.5 47.5zM497 651
q-8 -19 -17.5 -37.5t-23 -33.5t-31 -24t-41.5 -9q-20 0 -35 5t-31 13l-31.5 15t-25.5 7q-17 0 -25 -14t-13 -29l-73 23q3 12 11.5 30t22.5 34.5t33.5 28t45.5 11.5q19 0 34.5 -6t30.5 -14q14 -8 27.5 -13.5t26.5 -5.5q17 0 27.5 13.5t15.5 29.5z" />
    <glyph glyph-name="Umacron" unicode="&#x16a;" horiz-adv-x="673" 
d="M294 -12q-59 0 -103.5 14.5t-74 41t-44 63.5t-14.5 81q0 19 3.5 43.5t8.5 50.5l83 398h119l-84 -398q-5 -22 -8.5 -42.5t-3.5 -40.5q0 -104 126 -104q38 0 67.5 8.5t52.5 29.5q36 33 58 134l87 413h117l-87 -419q-16 -78 -40.5 -129.5t-62.5 -82.5q-33 -27 -83.5 -44
t-116.5 -17zM309 870h292l-19 -93h-292z" />
    <glyph glyph-name="umacron" unicode="&#x16b;" horiz-adv-x="540" 
d="M98 476h113l-49 -232l-8.5 -42t-4.5 -44q0 -29 13.5 -50t56.5 -21q27 0 49.5 14t39.5 36.5t28.5 50t17.5 53.5l50 235h114l-101 -476h-114l16 69q-23 -38 -62.5 -59.5t-88.5 -21.5q-28 0 -53 8t-43.5 24.5t-29.5 41.5t-11 59q0 16 2.5 37.5t7.5 47.5zM204 680h292
l-19 -93h-292z" />
    <glyph glyph-name="Ubreve" unicode="&#x16c;" horiz-adv-x="673" 
d="M294 -12q-59 0 -103.5 14.5t-74 41t-44 63.5t-14.5 81q0 19 3.5 43.5t8.5 50.5l83 398h119l-84 -398q-5 -22 -8.5 -42.5t-3.5 -40.5q0 -104 126 -104q38 0 67.5 8.5t52.5 29.5q36 33 58 134l87 413h117l-87 -419q-16 -78 -40.5 -129.5t-62.5 -82.5q-33 -27 -83.5 -44
t-116.5 -17zM449 825q47 0 75 63h91q-26 -72 -70.5 -111.5t-107.5 -39.5t-97.5 39.5t-28.5 111.5h90q2 -63 48 -63z" />
    <glyph glyph-name="ubreve" unicode="&#x16d;" horiz-adv-x="540" 
d="M98 476h113l-49 -232l-8.5 -42t-4.5 -44q0 -29 13.5 -50t56.5 -21q27 0 49.5 14t39.5 36.5t28.5 50t17.5 53.5l50 235h114l-101 -476h-114l16 69q-23 -38 -62.5 -59.5t-88.5 -21.5q-28 0 -53 8t-43.5 24.5t-29.5 41.5t-11 59q0 16 2.5 37.5t7.5 47.5zM336 617q47 0 75 63
h91q-26 -72 -70.5 -111.5t-107.5 -39.5t-97.5 39.5t-28.5 111.5h90q2 -63 48 -63z" />
    <glyph glyph-name="Uring" unicode="&#x16e;" horiz-adv-x="673" 
d="M294 -12q-59 0 -103.5 14.5t-74 41t-44 63.5t-14.5 81q0 19 3.5 43.5t8.5 50.5l83 398h119l-84 -398q-5 -22 -8.5 -42.5t-3.5 -40.5q0 -104 126 -104q38 0 67.5 8.5t52.5 29.5q36 33 58 134l87 413h117l-87 -419q-16 -78 -40.5 -129.5t-62.5 -82.5q-33 -27 -83.5 -44
t-116.5 -17zM319 830q0 46 31 76.5t77 30.5t77 -30.5t31 -76.5t-31 -76.5t-77 -30.5t-77 30.5t-31 76.5zM387 830q0 -17 11.5 -28t27.5 -11t27.5 11t11.5 28t-11.5 28t-27.5 11t-27.5 -11t-11.5 -28z" />
    <glyph glyph-name="uring" unicode="&#x16f;" horiz-adv-x="540" 
d="M98 476h113l-49 -232l-8.5 -42t-4.5 -44q0 -29 13.5 -50t56.5 -21q27 0 49.5 14t39.5 36.5t28.5 50t17.5 53.5l50 235h114l-101 -476h-114l16 69q-23 -38 -62.5 -59.5t-88.5 -21.5q-28 0 -53 8t-43.5 24.5t-29.5 41.5t-11 59q0 16 2.5 37.5t7.5 47.5zM213 633
q0 46 31 76.5t77 30.5t77 -30.5t31 -76.5t-31 -76.5t-77 -30.5t-77 30.5t-31 76.5zM281 633q0 -17 11.5 -28t27.5 -11t27.5 11t11.5 28t-11.5 28t-27.5 11t-27.5 -11t-11.5 -28z" />
    <glyph glyph-name="Uhungarumlaut" unicode="&#x170;" horiz-adv-x="673" 
d="M673 889l-109 -145h-98l67 145h140zM474 889l-109 -145h-98l67 145h140zM294 -12q-59 0 -103.5 14.5t-74 41t-44 63.5t-14.5 81q0 19 3.5 43.5t8.5 50.5l83 398h119l-84 -398q-5 -22 -8.5 -42.5t-3.5 -40.5q0 -104 126 -104q38 0 67.5 8.5t52.5 29.5q36 33 58 134l87 413
h117l-87 -419q-16 -78 -40.5 -129.5t-62.5 -82.5q-33 -27 -83.5 -44t-116.5 -17z" />
    <glyph glyph-name="uhungarumlaut" unicode="&#x171;" horiz-adv-x="540" 
d="M98 476h113l-49 -232l-8.5 -42t-4.5 -44q0 -29 13.5 -50t56.5 -21q27 0 49.5 14t39.5 36.5t28.5 50t17.5 53.5l50 235h114l-101 -476h-114l16 69q-23 -38 -62.5 -59.5t-88.5 -21.5q-28 0 -53 8t-43.5 24.5t-29.5 41.5t-11 59q0 16 2.5 37.5t7.5 47.5zM556 680l-101 -128
h-98l64 128h135zM374 680l-101 -128h-98l64 128h135z" />
    <glyph glyph-name="Uogonek" unicode="&#x172;" horiz-adv-x="673" 
d="M347 -202q-19 -11 -39 -15t-36 -4q-23 0 -43 6.5t-36 19.5t-25 33t-9 48q0 34 19.5 61.5t45.5 47.5q-84 15 -125 66.5t-41 126.5q0 19 3.5 43.5t8.5 50.5l83 398h119l-84 -398q-5 -22 -8.5 -42.5t-3.5 -40.5q0 -104 126 -104q38 0 67.5 8.5t52.5 29.5q36 33 58 134
l87 413h117l-87 -419q-16 -78 -40.5 -129.5t-62.5 -82.5q-26 -22 -64 -37t-86 -21q-17 -11 -33.5 -23.5t-29.5 -25.5t-21.5 -25.5t-8.5 -24.5q0 -26 28 -26q10 0 18 2.5t16 6.5z" />
    <glyph glyph-name="uogonek" unicode="&#x173;" horiz-adv-x="540" 
d="M408 -202q-19 -11 -39 -15t-36 -4q-23 0 -43 6.5t-36 19.5t-25 33t-9 48q0 22 8.5 40.5t21 32.5t27 24.5t26.5 16.5l16 69q-23 -38 -62.5 -59.5t-88.5 -21.5q-28 0 -53 8t-43.5 24.5t-29.5 41.5t-11 59q0 16 2.5 37.5t7.5 47.5l57 270h113l-49 -232l-8.5 -42t-4.5 -44
q0 -29 13.5 -50t56.5 -21q27 0 49.5 14t39.5 36.5t28.5 50t17.5 53.5l50 235h114l-101 -476l-33.5 -22.5t-34.5 -27t-26.5 -29.5t-10.5 -29q0 -26 28 -26q10 0 18 2.5t16 6.5z" />
    <glyph glyph-name="Wcircumflex" unicode="&#x174;" horiz-adv-x="905" 
d="M561 806l-69 -62h-118l158 145h80l95 -145h-106zM500 0v350v65.5t1 54.5q1 27 2 51h-1l-21 -56l-22 -56t-25 -61l-149 -348h-175v680h125l-6 -432q0 -17 -0.5 -38t-1.5 -41q-1 -23 -1 -47h1l18 47l16.5 41.5t15.5 37.5l185 432h147l1 -438q0 -17 -0.5 -37t-0.5 -39
q-1 -22 -1 -44h1l18 47l16.5 41.5t15.5 37.5l178 432h129l-292 -680h-174z" />
    <glyph glyph-name="wcircumflex" unicode="&#x175;" horiz-adv-x="744" 
d="M387 187q-2 35 -3 71l-2 73h-1l-33.5 -73.5t-35.5 -72.5l-93 -185h-126l-36 476h120l9 -213q2 -35 2.5 -65.5t1.5 -67.5h1l14.5 33.5l13 31.5t14.5 33l18 38l99 210h122l10 -213q1 -23 2 -39.5t1.5 -31l1 -29.5t0.5 -33h1q7 18 13.5 33l13 30l14 32.5t18.5 40.5l99 210
h126l-243 -476h-132zM372 552h-110l145 128h76l92 -128h-99l-42 50z" />
    <glyph glyph-name="Ycircumflex" unicode="&#x176;" horiz-adv-x="609" 
d="M406 806l-69 -62h-118l158 145h80l95 -145h-106zM181 0l55 266l-156 414h119l115 -307l244 307h138l-341 -414l-55 -266h-119z" />
    <glyph glyph-name="ycircumflex" unicode="&#x177;" horiz-adv-x="462" 
d="M-26 -101q8 -2 17.5 -3t20.5 -1q21 0 35.5 5t26 16t21 28t20.5 41l-68 491h118l26 -255q2 -17 3 -34.5t3 -31.5q2 -17 3 -33h1l13 30l13.5 31l15.5 35l121 258h120l-270 -533q-19 -38 -36 -63t-36 -41q-23 -20 -53 -29t-73 -9q-18 0 -34 2t-27 4zM229 552h-110l145 128
h76l92 -128h-99l-42 50z" />
    <glyph glyph-name="Ydieresis" unicode="&#x178;" horiz-adv-x="609" 
d="M181 0l55 266l-156 414h119l115 -307l244 307h138l-341 -414l-55 -266h-119zM258 871h112l-27 -127h-112zM449 871h112l-27 -127h-112z" />
    <glyph glyph-name="Zacute" unicode="&#x179;" 
d="M525 889l-109 -145h-98l67 145h140zM495 0h-522l20 96l460 477h-344l22 107h503l-20 -95l-458 -477h361z" />
    <glyph glyph-name="zacute" unicode="&#x17a;" horiz-adv-x="486" 
d="M488 476l-19 -89l-318 -287h257l-21 -100h-414l19 88l321 288h-244l21 100h398zM426 680l-101 -128h-98l64 128h135z" />
    <glyph glyph-name="Zdotaccent" unicode="&#x17b;" 
d="M495 0h-522l20 96l460 477h-344l22 107h503l-20 -95l-458 -477h361zM363 889h117l-27 -127h-117z" />
    <glyph glyph-name="zdotaccent" unicode="&#x17c;" horiz-adv-x="486" 
d="M488 476l-19 -89l-318 -287h257l-21 -100h-414l19 88l321 288h-244l21 100h398zM266 680h117l-27 -127h-117z" />
    <glyph glyph-name="Zcaron" unicode="&#x17d;" 
d="M495 0h-522l20 96l460 477h-344l22 107h503l-20 -95l-458 -477h361zM406 827l69 62h118l-158 -145h-80l-95 145h106z" />
    <glyph glyph-name="zcaron" unicode="&#x17e;" horiz-adv-x="486" 
d="M488 476l-19 -89l-318 -287h257l-21 -100h-414l19 88l321 288h-244l21 100h398zM377 680h110l-145 -128h-76l-92 128h99l42 -50z" />
    <glyph glyph-name="florin" unicode="&#x192;" horiz-adv-x="353" 
d="M-65 -81q13 -5 29.5 -8t33.5 -3q15 0 24 4.5t14.5 13.5t9 22t7.5 31l84 384l-97 4l20 101l97 -4l25 116q13 60 40.5 86t77.5 26q35 0 65.5 -5.5t59.5 -16.5l-25 -95l-33.5 6.5t-35.5 3.5q-28 0 -36.5 -15.5t-14.5 -43.5l-15 -69h101l-19 -100l-101 4q-21 -106 -46 -215
t-47 -215q-13 -64 -44.5 -96t-93.5 -32q-39 0 -70.5 7t-48.5 14z" />
    <glyph glyph-name="Aringacute" unicode="&#x1fa;" horiz-adv-x="618" 
d="M339 761q0 29 19.5 48t48.5 19t48 -19t19 -48t-19 -48t-48 -19t-48.5 19t-19.5 48zM388 761q0 -8 5 -13t13 -5t13 5t5 13t-5 13t-13 5t-13 -5t-5 -13zM352 839l86 80h169l-127 -80h-128zM77 0h-128l379 680h135l92 -680h-123l-18 154h-252zM404 255l-25 211
q-2 12 -3.5 26t-2.5 27q-2 14 -2 29h-1q-7 -15 -15 -30l-14.5 -28l-13.5 -27l-111 -208h188z" />
    <glyph glyph-name="aringacute" unicode="&#x1fb;" horiz-adv-x="514" 
d="M241 731l86 80h169l-127 -80h-128zM202 608q0 42 28 69.5t70 27.5t70 -27.5t28 -69.5t-28 -69.5t-70 -27.5t-70 27.5t-28 69.5zM264 608q0 -15 10.5 -25t24.5 -10t24.5 10t10.5 25t-10.5 25t-24.5 10t-24.5 -10t-10.5 -25zM323 220q-14 -5 -40 -8.5t-49 -7.5t-43 -8.5
t-34.5 -13t-23 -21t-8.5 -32.5q0 -29 22.5 -42t54.5 -13q39 0 68.5 20t36.5 52zM452 312q-2 -7 -8.5 -39l-14.5 -69l-21 -95q-3 -14 -3 -21q0 -19 26 -19h7l-16 -76q-3 -1 -16 -3t-38 -2q-29 0 -49.5 10t-22.5 35q-19 -16 -50 -30.5t-83 -14.5q-30 0 -57.5 8t-48.5 24.5
t-33.5 42t-12.5 59.5q0 78 49.5 114.5t137.5 48.5l124 17q12 2 16.5 5t6.5 14l2 9q2 8 2.5 12t0.5 10q0 25 -21.5 35t-57.5 10q-47 0 -73.5 -19t-32.5 -62l-108 6q5 45 26 76t52 50.5t70 28t81 8.5q38 0 69.5 -7t54.5 -22t36 -37.5t13 -53.5q0 -15 -2.5 -28.5z" />
    <glyph glyph-name="AEacute" unicode="&#x1fc;" horiz-adv-x="911" 
d="M669 889l-109 -145h-98l67 145h140zM595 573l-37 -168h290l-23 -107h-290l-40 -191h343l-22 -107h-464l38 176h-201l-131 -176h-138l511 680h505l-22 -107h-319zM453 469q5 22 9 42t8 35q4 18 8 33h-1l-21 -33l-21.5 -31l-22.5 -33l-146 -205h145z" />
    <glyph glyph-name="aeacute" unicode="&#x1fd;" horiz-adv-x="820" 
d="M759 112q-13 -19 -33 -41t-48 -40.5t-65 -30.5t-85 -12q-114 0 -167 73q-10 -11 -26 -23.5t-39.5 -23.5t-54 -18.5t-69.5 -7.5q-34 0 -63.5 8t-51 24.5t-34 42t-12.5 59.5q0 78 49.5 114.5t137.5 48.5l124 17q12 2 16.5 5t6.5 14l2 9q2 8 2.5 12t0.5 10q0 25 -21.5 35
t-57.5 10q-47 0 -73.5 -19t-32.5 -62l-108 6q5 45 26 76t52 50.5t70 28t81 8.5q48 0 85 -12t60 -35q31 23 68.5 36.5t81.5 13.5q51 0 88 -16t61 -44t36 -65.5t12 -79.5q0 -18 -2 -38t-6 -35h-341v-14q0 -58 33 -84.5t78 -26.5q47 0 82 23.5t57 60.5zM323 220
q-14 -5 -40 -8.5t-49 -7.5t-43 -8.5t-34.5 -13t-23 -21t-8.5 -32.5q0 -29 22.5 -42t54.5 -13q39 0 68.5 20t36.5 52zM571 398q-48 0 -83 -30t-45 -75h227q0 55 -26 80t-73 25zM593 680l-101 -128h-98l64 128h135z" />
    <glyph glyph-name="Oslashacute" unicode="&#x1fe;" horiz-adv-x="738" 
d="M71 281q0 76 22 150t66 132t110 93.5t155 35.5q69 0 122.5 -23t89.5 -65l94 69l66 -93l-107 -78q13 -43 13 -97q0 -77 -21.5 -151.5t-66 -133.5t-112 -95.5t-159.5 -36.5q-78 0 -133 26.5t-88 74.5l-86 -63l-68 92l110 80q-4 20 -5.5 40.5t-1.5 42.5zM582 398
q0 6 -0.5 12.5t-0.5 12.5l-361 -263q20 -31 52 -47.5t78 -16.5q57 0 100.5 27t73 70t44 97t14.5 108zM417 585q-60 0 -103 -27t-70 -69.5t-40 -96.5t-13 -108v-4l349 254q-43 51 -123 51zM581 889l-109 -145h-98l67 145h140z" />
    <glyph glyph-name="oslashacute" unicode="&#x1ff;" horiz-adv-x="536" 
d="M26 192q0 56 17.5 109.5t51 95t83 66.5t114.5 25q41 0 73 -10.5t56 -29.5l53 45l62 -75l-58 -50q13 -38 13 -86q0 -53 -15.5 -105.5t-47.5 -94.5t-81 -68t-117 -26q-90 0 -142 47l-48 -41l-65 76l60 51q-9 31 -9 71zM236 85q37 0 64 17.5t44.5 45.5t26 62.5t8.5 68.5v4
l-208 -177q25 -21 65 -21zM280 393q-35 0 -61.5 -17t-44.5 -44t-27.5 -60t-10.5 -66l201 171q-24 16 -57 16zM441 680l-101 -128h-98l64 128h135z" />
    <glyph glyph-name="uni0218" unicode="&#x218;" horiz-adv-x="589" 
d="M98 221q29 -59 80 -93t117 -34q60 0 92.5 26.5t32.5 70.5q0 21 -7.5 36t-21 25.5t-31.5 17.5t-38 13l-86 26q-28 9 -55 22.5t-48 35t-33.5 52t-12.5 72.5q0 47 18.5 84.5t50 63.5t74 39.5t91.5 13.5q89 0 155.5 -37t106.5 -95l-90 -66q-35 46 -77 68.5t-97 22.5
t-83 -23.5t-28 -59.5q0 -32 19.5 -55t71.5 -39l82 -26q30 -9 58.5 -22.5t51 -34t36.5 -50t14 -69.5q0 -48 -16.5 -88t-48 -69t-78 -45t-105.5 -16q-54 0 -99.5 14t-81.5 37t-62.5 52.5t-42.5 59.5zM344 -60l-11 -51q-8 -35 -19 -72.5t-35 -61.5q-19 -19 -46.5 -30.5
t-67.5 -13.5l16 67q30 3 42 19.5t14 31.5h-46l25 111h128z" />
    <glyph glyph-name="uni0219" unicode="&#x219;" horiz-adv-x="468" 
d="M361 335q-21 26 -54.5 42.5t-75.5 16.5q-32 0 -49.5 -13t-17.5 -33q0 -22 13.5 -32.5t39.5 -18.5l66 -19q24 -7 46.5 -16.5t40.5 -24.5t28.5 -36.5t10.5 -51.5q0 -39 -14 -69.5t-39.5 -50.5t-61.5 -30.5t-79 -10.5q-45 0 -81 9.5t-63.5 25.5t-47.5 36.5t-33 43.5l79 62
q16 -31 52.5 -56.5t95.5 -25.5q42 0 62 15t20 38q0 22 -17.5 32t-45.5 18l-67 18q-21 6 -42 15t-37.5 25t-27 38.5t-10.5 55.5q0 37 15 65t40 47t57 28.5t67 9.5q69 0 122 -25t84 -67zM271 -60l-11 -51q-8 -35 -19 -72.5t-35 -61.5q-19 -19 -46.5 -30.5t-67.5 -13.5l16 67
q30 3 42 19.5t14 31.5h-46l25 111h128z" />
    <glyph glyph-name="uni021A" unicode="&#x21a;" horiz-adv-x="554" 
d="M160 0l120 573h-199l23 107h516l-23 -107h-198l-121 -573h-118zM272 -60l-11 -51q-8 -35 -19 -72.5t-35 -61.5q-19 -19 -46.5 -30.5t-67.5 -13.5l16 67q30 3 42 19.5t14 31.5h-46l25 111h128z" />
    <glyph glyph-name="uni021B" unicode="&#x21b;" horiz-adv-x="359" 
d="M269 -5q-12 -3 -32.5 -5t-50.5 -2q-23 0 -45.5 3t-40.5 11.5t-29 23t-11 37.5q0 12 3 28.5t8 38.5l54 257h-91l19 89h91l37 173l117 18l-40 -191h114l-19 -89h-114l-49 -238q-5 -23 -5 -33q0 -22 16.5 -28t44.5 -6q10 0 18.5 0.5t14.5 1.5q7 1 12 2zM189 -60l-11 -51
q-8 -35 -19 -72.5t-35 -61.5q-19 -19 -46.5 -30.5t-67.5 -13.5l16 67q30 3 42 19.5t14 31.5h-46l25 111h128z" />
    <glyph glyph-name="circumflex" unicode="&#x2c6;" horiz-adv-x="488" 
d="M284 552h-110l145 128h76l92 -128h-99l-42 50z" />
    <glyph glyph-name="caron" unicode="&#x2c7;" horiz-adv-x="488" 
d="M386 680h110l-145 -128h-76l-92 128h99l42 -50z" />
    <glyph glyph-name="breve" unicode="&#x2d8;" horiz-adv-x="500" 
d="M323 617q47 0 75 63h91q-26 -72 -70.5 -111.5t-107.5 -39.5t-97.5 39.5t-28.5 111.5h90q2 -63 48 -63z" />
    <glyph glyph-name="dotaccent" unicode="&#x2d9;" horiz-adv-x="430" 
d="M216 680h117l-27 -127h-117z" />
    <glyph glyph-name="ring" unicode="&#x2da;" horiz-adv-x="416" 
d="M181 633q0 46 31 76.5t77 30.5t77 -30.5t31 -76.5t-31 -76.5t-77 -30.5t-77 30.5t-31 76.5zM249 633q0 -17 11.5 -28t27.5 -11t27.5 11t11.5 28t-11.5 28t-27.5 11t-27.5 -11t-11.5 -28z" />
    <glyph glyph-name="ogonek" unicode="&#x2db;" horiz-adv-x="469" 
d="M227 -202q-19 -11 -39 -15t-36 -4q-23 0 -43 6.5t-36 19.5t-25 33t-9 48q0 24 10.5 45t26.5 38t35 30.5t35 23.5h133l-40 -24.5t-49 -33.5t-41.5 -37t-17.5 -36q0 -26 28 -26q10 0 18 2.5t16 6.5z" />
    <glyph glyph-name="tilde" unicode="&#x2dc;" horiz-adv-x="473" 
d="M450 651q-8 -19 -17.5 -37.5t-23 -33.5t-31 -24t-41.5 -9q-20 0 -35 5t-31 13l-31.5 15t-25.5 7q-17 0 -25 -14t-13 -29l-73 23q3 12 11.5 30t22.5 34.5t33.5 28t45.5 11.5q19 0 34.5 -6t30.5 -14q14 -8 27.5 -13.5t26.5 -5.5q17 0 27.5 13.5t15.5 29.5z" />
    <glyph glyph-name="hungarumlaut" unicode="&#x2dd;" horiz-adv-x="500" 
d="M528 680l-101 -128h-98l64 128h135zM346 680l-101 -128h-98l64 128h135z" />
    <glyph glyph-name="uni0394" unicode="&#x394;" horiz-adv-x="635" 
d="M232 680h91l265 -680h-621zM115 99h326l-163 421z" />
    <glyph glyph-name="uni03A9" unicode="&#x3a9;" horiz-adv-x="798" 
d="M397 711q84 0 146 -27.5t103 -72.5t61 -103.5t20 -120.5q0 -78 -30.5 -152t-92.5 -128h128v-107h-286v104q162 97 162 275q0 49 -14 90t-41 71t-66 46.5t-90 16.5h1q-51 0 -90 -16.5t-66 -46.5t-41 -71t-14 -90q0 -178 162 -275v-104h-286v107h128q-62 54 -92.5 128
t-30.5 152q0 62 20 120.5t61 103.5t103 72.5t146 27.5h-1z" />
    <glyph glyph-name="uni03BC" unicode="&#x3bc;" horiz-adv-x="546" 
d="M-37 -190l141 666h114l-13 -61l-46 -216q-4 -19 -4 -41q0 -29 13.5 -50t56.5 -21q27 0 49.5 14t39.5 36.5t28.5 50t17.5 53.5l50 235h114l-101 -476h-114l16 69q-21 -37 -62 -56t-83 -19q-37 0 -63 13l-41 -197h-113z" />
    <glyph glyph-name="pi" unicode="&#x3c0;" horiz-adv-x="681" 
d="M501 148q-5 -23 -5 -33q0 -22 15 -28.5t44 -6.5q11 0 20 0.5t15 1.5q7 1 12 2l-21 -88q-12 -3 -32.5 -5.5t-50.5 -2.5q-23 0 -45.5 3t-40.5 11.5t-29 23t-11 37.5q0 12 3 28.5t8 38.5l54 253h-181l-82 -383h-114l82 383h-102l19 93h625l-19 -93h-114z" />
    <glyph glyph-name="Wgrave" unicode="&#x1e80;" horiz-adv-x="905" 
d="M529 889l67 -145h-98l-109 145h140zM500 0v350v65.5t1 54.5q1 27 2 51h-1l-21 -56l-22 -56t-25 -61l-149 -348h-175v680h125l-6 -432q0 -17 -0.5 -38t-1.5 -41q-1 -23 -1 -47h1l18 47l16.5 41.5t15.5 37.5l185 432h147l1 -438q0 -17 -0.5 -37t-0.5 -39q-1 -22 -1 -44h1
l18 47l16.5 41.5t15.5 37.5l178 432h129l-292 -680h-174z" />
    <glyph glyph-name="wgrave" unicode="&#x1e81;" horiz-adv-x="744" 
d="M387 187q-2 35 -3 71l-2 73h-1l-33.5 -73.5t-35.5 -72.5l-93 -185h-126l-36 476h120l9 -213q2 -35 2.5 -65.5t1.5 -67.5h1l14.5 33.5l13 31.5t14.5 33l18 38l99 210h122l10 -213q1 -23 2 -39.5t1.5 -31l1 -29.5t0.5 -33h1q7 18 13.5 33l13 30l14 32.5t18.5 40.5l99 210
h126l-243 -476h-132zM404 680l64 -128h-98l-101 128h135z" />
    <glyph glyph-name="Wacute" unicode="&#x1e82;" horiz-adv-x="905" 
d="M687 889l-109 -145h-98l67 145h140zM500 0v350v65.5t1 54.5q1 27 2 51h-1l-21 -56l-22 -56t-25 -61l-149 -348h-175v680h125l-6 -432q0 -17 -0.5 -38t-1.5 -41q-1 -23 -1 -47h1l18 47l16.5 41.5t15.5 37.5l185 432h147l1 -438q0 -17 -0.5 -37t-0.5 -39q-1 -22 -1 -44h1
l18 47l16.5 41.5t15.5 37.5l178 432h129l-292 -680h-174z" />
    <glyph glyph-name="wacute" unicode="&#x1e83;" horiz-adv-x="744" 
d="M387 187q-2 35 -3 71l-2 73h-1l-33.5 -73.5t-35.5 -72.5l-93 -185h-126l-36 476h120l9 -213q2 -35 2.5 -65.5t1.5 -67.5h1l14.5 33.5l13 31.5t14.5 33l18 38l99 210h122l10 -213q1 -23 2 -39.5t1.5 -31l1 -29.5t0.5 -33h1q7 18 13.5 33l13 30l14 32.5t18.5 40.5l99 210
h126l-243 -476h-132zM562 680l-101 -128h-98l64 128h135z" />
    <glyph glyph-name="Wdieresis" unicode="&#x1e84;" horiz-adv-x="905" 
d="M500 0v350v65.5t1 54.5q1 27 2 51h-1l-21 -56l-22 -56t-25 -61l-149 -348h-175v680h125l-6 -432q0 -17 -0.5 -38t-1.5 -41q-1 -23 -1 -47h1l18 47l16.5 41.5t15.5 37.5l185 432h147l1 -438q0 -17 -0.5 -37t-0.5 -39q-1 -22 -1 -44h1l18 47l16.5 41.5t15.5 37.5l178 432
h129l-292 -680h-174zM432 888h108l-25 -118h-108zM619 888h108l-25 -118h-108z" />
    <glyph glyph-name="wdieresis" unicode="&#x1e85;" horiz-adv-x="744" 
d="M387 187q-2 35 -3 71l-2 73h-1l-33.5 -73.5t-35.5 -72.5l-93 -185h-126l-36 476h120l9 -213q2 -35 2.5 -65.5t1.5 -67.5h1l14.5 33.5l13 31.5t14.5 33l18 38l99 210h122l10 -213q1 -23 2 -39.5t1.5 -31l1 -29.5t0.5 -33h1q7 18 13.5 33l13 30l14 32.5t18.5 40.5l99 210
h126l-243 -476h-132zM302 670h108l-25 -118h-108zM489 670h108l-25 -118h-108z" />
    <glyph glyph-name="Ygrave" unicode="&#x1ef2;" horiz-adv-x="609" 
d="M393 889l67 -145h-98l-109 145h140zM181 0l55 266l-156 414h119l115 -307l244 307h138l-341 -414l-55 -266h-119z" />
    <glyph glyph-name="ygrave" unicode="&#x1ef3;" horiz-adv-x="462" 
d="M-26 -101q8 -2 17.5 -3t20.5 -1q21 0 35.5 5t26 16t21 28t20.5 41l-68 491h118l26 -255q2 -17 3 -34.5t3 -31.5q2 -17 3 -33h1l13 30l13.5 31l15.5 35l121 258h120l-270 -533q-19 -38 -36 -63t-36 -41q-23 -20 -53 -29t-73 -9q-18 0 -34 2t-27 4zM280 680l64 -128h-98
l-101 128h135z" />
    <glyph glyph-name="endash" unicode="&#x2013;" horiz-adv-x="629" 
d="M44 211l24 111h509l-24 -111h-509z" />
    <glyph glyph-name="emdash" unicode="&#x2014;" horiz-adv-x="818" 
d="M44 211l24 111h698l-24 -111h-698z" />
    <glyph glyph-name="quoteleft" unicode="&#x2018;" horiz-adv-x="237" 
d="M78 409l23 102q8 35 19 72.5t35 61.5q19 19 46.5 30.5t67.5 13.5l-17 -77q-30 -3 -43.5 -24t-18.5 -47h46l-29 -132h-129z" />
    <glyph glyph-name="quoteright" unicode="&#x2019;" horiz-adv-x="234" 
d="M271 680l-23 -102q-8 -35 -19 -72.5t-35 -61.5q-19 -19 -46.5 -30.5t-67.5 -13.5l17 77q30 3 43.5 24t18.5 47h-46l29 132h129z" />
    <glyph glyph-name="quotesinglbase" unicode="&#x201a;" horiz-adv-x="240" 
d="M154 132l-23 -102q-8 -35 -19 -72.5t-35 -61.5q-19 -19 -46.5 -30.5t-67.5 -13.5l17 77q30 3 43.5 24t18.5 47h-46l29 132h129z" />
    <glyph glyph-name="quotedblleft" unicode="&#x201c;" horiz-adv-x="418" 
d="M78 409l23 102q8 35 19 72.5t35 61.5q19 19 46.5 30.5t67.5 13.5l-17 -77q-30 -3 -43.5 -24t-18.5 -47h46l-29 -132h-129zM259 409l23 102q8 35 19 72.5t35 61.5q19 19 46.5 30.5t67.5 13.5l-17 -77q-30 -3 -43.5 -24t-18.5 -47h46l-29 -132h-129z" />
    <glyph glyph-name="quotedblright" unicode="&#x201d;" horiz-adv-x="415" 
d="M452 680l-23 -102q-8 -35 -19 -72.5t-35 -61.5q-19 -19 -46.5 -30.5t-67.5 -13.5l17 77q30 3 43.5 24t18.5 47h-46l29 132h129zM271 680l-23 -102q-8 -35 -19 -72.5t-35 -61.5q-19 -19 -46.5 -30.5t-67.5 -13.5l17 77q30 3 43.5 24t18.5 47h-46l29 132h129z" />
    <glyph glyph-name="quotedblbase" unicode="&#x201e;" horiz-adv-x="421" 
d="M335 132l-23 -102q-8 -35 -19 -72.5t-35 -61.5q-19 -19 -46.5 -30.5t-67.5 -13.5l17 77q30 3 43.5 24t18.5 47h-46l29 132h129zM154 132l-23 -102q-8 -35 -19 -72.5t-35 -61.5q-19 -19 -46.5 -30.5t-67.5 -13.5l17 77q30 3 43.5 24t18.5 47h-46l29 132h129z" />
    <glyph glyph-name="dagger" unicode="&#x2020;" horiz-adv-x="475" 
d="M318 414l-88 -414h-108l88 414h-152l22 101h152l35 165h108l-35 -165h153l-22 -101h-153z" />
    <glyph glyph-name="daggerdbl" unicode="&#x2021;" horiz-adv-x="505" 
d="M303 266h153l-22 -101h-153l-35 -165h-108l35 165h-152l22 101h152l31 148h-152l22 101h152l35 165h108l-35 -165h153l-22 -101h-153z" />
    <glyph glyph-name="bullet" unicode="&#x2022;" horiz-adv-x="425" 
d="M71 333q0 31 12 59t32 48t47.5 32t58.5 12t58.5 -12t48 -32t32 -48t11.5 -59t-11.5 -58.5t-32 -47.5t-48 -32t-58.5 -12t-58.5 12t-47.5 32t-32 47.5t-12 58.5z" />
    <glyph glyph-name="ellipsis" unicode="&#x2026;" horiz-adv-x="908" 
d="M487 132l-29 -132h-129l29 132h129zM822 132l-29 -132h-129l29 132h129zM154 132l-29 -132h-129l29 132h129z" />
    <glyph glyph-name="perthousand" unicode="&#x2030;" horiz-adv-x="1375" 
d="M785 414q21 0 45 -7t45 -25t34.5 -49.5t13.5 -79.5q0 -47 -12.5 -93.5t-37 -84.5t-60 -61.5t-81.5 -23.5q-72 0 -107 44t-35 119q0 47 13 94t38 84t61 60t83 23zM318 0h-107l456 680h105zM688 155q0 -41 14 -59t34 -18q21 0 37.5 15.5t28 40t17.5 54.5t6 60
q0 32 -11.5 54.5t-35.5 22.5t-41 -16.5t-28 -41.5t-16 -55t-5 -57zM265 689q21 0 45 -7t45 -25t34.5 -49.5t13.5 -79.5q0 -47 -12.5 -93.5t-37 -84.5t-60 -61.5t-81.5 -23.5q-72 0 -107 44t-35 119q0 47 13 94t38 84t61 60t83 23zM168 430q0 -41 14 -59t34 -18
q21 0 37.5 15.5t28 40t17.5 54.5t6 60q0 32 -11.5 54.5t-35.5 22.5t-41 -16.5t-28 -41.5t-16 -55t-5 -57zM1192 414q21 0 45 -7t45 -25t34.5 -49.5t13.5 -79.5q0 -47 -12.5 -93.5t-37 -84.5t-60 -61.5t-81.5 -23.5q-72 0 -107 44t-35 119q0 47 13 94t38 84t61 60t83 23z
M1095 155q0 -41 14 -59t34 -18q21 0 37.5 15.5t28 40t17.5 54.5t6 60q0 32 -11.5 54.5t-35.5 22.5t-41 -16.5t-28 -41.5t-16 -55t-5 -57z" />
    <glyph glyph-name="guilsinglleft" unicode="&#x2039;" horiz-adv-x="259" 
d="M33 229l29 127l181 128l-29 -132l-105 -67l75 -78l-24 -117z" />
    <glyph glyph-name="guilsinglright" unicode="&#x203a;" horiz-adv-x="259" 
d="M228 345l-29 -127l-181 -128l30 135l105 67l-75 78l23 114z" />
    <glyph glyph-name="fraction" unicode="&#x2044;" horiz-adv-x="480" 
d="M63 0h-127l513 700h126z" />
    <glyph glyph-name="Euro" unicode="&#x20ac;" horiz-adv-x="643" 
d="M245 361l-6 -53h180l-52 -100h-128q7 -64 34.5 -90t68.5 -26q45 0 80.5 31.5t58.5 81.5l104 -46q-19 -37 -43.5 -68.5t-55.5 -54t-68 -35.5t-81 -13q-101 0 -156 59.5t-63 160.5h-101l52 100l50 3l6 50h-76l54 101h48q17 48 43.5 89.5t62 73t79.5 49.5t96 18
q85 0 139 -48.5t68 -138.5l-114 -37q-5 56 -30.5 88.5t-73.5 32.5q-27 0 -49.5 -10t-40.5 -27t-32.5 -40t-24.5 -50h223l-53 -101h-199z" />
    <glyph glyph-name="trademark" unicode="&#x2122;" horiz-adv-x="943" 
d="M131 680h329v-83h-120v-345h-89v345h-120v83zM805 250v158v34.5t1 31.5q0 17 1 33h-2q-5 -16 -9 -33q-5 -14 -10 -32l-10 -35l-48 -157h-68l-54 168q-5 14 -9 30t-8 30l-8 31h-2q0 -19 1 -37q0 -15 0.5 -31.5t0.5 -27.5v-163h-85v430h105l55 -155l15 -46l12 -39l11 -36h2
q4 17 13.5 52t20.5 69l51 155h108v-430h-84z" />
    <glyph glyph-name="Omega" unicode="&#x2126;" horiz-adv-x="830" 
d="M409 711q84 0 146 -27.5t103 -72.5t61 -103.5t20 -120.5q0 -78 -30.5 -152t-92.5 -128h128v-107h-286v104q162 97 162 275q0 49 -14 90t-41 71t-66 46.5t-90 16.5h1q-51 0 -90 -16.5t-66 -46.5t-41 -71t-14 -90q0 -178 162 -275v-104h-286v107h128q-62 54 -92.5 128
t-30.5 152q0 62 20 120.5t61 103.5t103 72.5t146 27.5h-1z" />
    <glyph glyph-name="arrowleft" unicode="&#x2190;" horiz-adv-x="802" 
d="M757 188h-539l196 -188h-142l-237 238l237 237h142l-196 -187h539v-100z" />
    <glyph glyph-name="arrowup" unicode="&#x2191;" horiz-adv-x="586" 
d="M55 485l238 237l238 -237v-125l-185 184v-544h-106v544l-185 -184v125z" />
    <glyph glyph-name="arrowright" unicode="&#x2192;" horiz-adv-x="802" 
d="M530 475l237 -237l-237 -238h-142l196 188h-539v100h538l-195 187h142z" />
    <glyph glyph-name="arrowdown" unicode="&#x2193;" horiz-adv-x="586" 
d="M55 352l185 -184v544h106v-544l185 184v-125l-238 -237l-238 237v125z" />
    <glyph glyph-name="uni2196" unicode="&#x2196;" horiz-adv-x="617" 
d="M525 -10l-370 365l3 -261l-96 90v336h336l88 -91l-259 2l372 -367z" />
    <glyph glyph-name="uni2197" unicode="&#x2197;" horiz-adv-x="617" 
d="M219 520h336v-336l-96 -90l2 261l-369 -365l-74 74l372 367l-259 -2z" />
    <glyph glyph-name="uni2198" unicode="&#x2198;" horiz-adv-x="617" 
d="M131 121l259 -2l-372 367l74 74l369 -365l-2 261l96 -90v-336h-336z" />
    <glyph glyph-name="uni2199" unicode="&#x2199;" horiz-adv-x="617" 
d="M599 486l-372 -367l259 2l-88 -91h-336v336l96 90l-3 -261l370 365z" />
    <glyph glyph-name="uni21A4" unicode="&#x21a4;" horiz-adv-x="822" 
d="M643 0v188h-425l196 -188h-142l-237 238l237 237h142l-196 -187h425v187h114v-475h-114z" />
    <glyph glyph-name="uni21A5" unicode="&#x21a5;" horiz-adv-x="586" 
d="M55 485l238 237l238 -237v-125l-185 184v-444h185v-100h-476v100h185v444l-185 -184v125z" />
    <glyph glyph-name="uni21A6" unicode="&#x21a6;" horiz-adv-x="822" 
d="M550 475l237 -237l-237 -238h-142l196 188h-425v-188h-114v475h114v-187h424l-195 187h142z" />
    <glyph glyph-name="uni21A7" unicode="&#x21a7;" horiz-adv-x="586" 
d="M55 352l185 -184v444h-185v100h476v-100h-185v-444l185 184v-125l-238 -237l-238 237v125z" />
    <glyph glyph-name="uni21B0" unicode="&#x21b0;" horiz-adv-x="822" 
d="M272 0l-237 237l237 238h142l-196 -188h539v-287h-114v187h-425l196 -187h-142z" />
    <glyph glyph-name="uni21B1" unicode="&#x21b1;" horiz-adv-x="822" 
d="M408 0l195 187h-424v-187h-114v287h539l-196 188h142l237 -238l-237 -237h-142z" />
    <glyph glyph-name="uni21B2" unicode="&#x21b2;" horiz-adv-x="822" 
d="M414 475l-196 -187h425v187h114v-287h-539l196 -188h-142l-237 238l237 237h142z" />
    <glyph glyph-name="uni21B3" unicode="&#x21b3;" horiz-adv-x="822" 
d="M550 475l237 -237l-237 -238h-142l196 188h-539v287h114v-187h424l-195 187h142z" />
    <glyph glyph-name="uni21B4" unicode="&#x21b4;" horiz-adv-x="586" 
d="M346 712v-544l185 184v-125l-238 -237l-238 237v125l185 -184v444h-185v100h291z" />
    <glyph glyph-name="exclam" unicode="!" horiz-adv-x="254" 
d="M268 680l-63 -300l-57 -206h-87l31 206l63 300h113zM154 127l-27 -127h-121l26 127h122z" />
    <glyph glyph-name="partialdiff" unicode="&#x2202;" horiz-adv-x="508" 
d="M186 631q5 6 16.5 15.5t28.5 19t39.5 16t49.5 6.5q78 0 123 -55.5t45 -161.5q0 -38 -7.5 -88.5t-22.5 -105.5q-14 -53 -34.5 -104.5t-52 -92.5t-75.5 -66.5t-104 -25.5q-46 0 -78.5 14t-53.5 39.5t-30.5 60.5t-9.5 76q0 60 19.5 112.5t52.5 91.5t76.5 61t91.5 22
q44 0 72 -16t41 -33q2 12 2.5 28t0.5 27q0 54 -17 84.5t-54 30.5q-20 0 -38.5 -11.5t-32.5 -27.5zM200 89q31 0 55 19t41.5 48.5t29.5 65t19 68.5q-3 12 -10 24t-17.5 22t-25 16.5t-31.5 6.5q-26 0 -49.5 -13.5t-41 -37.5t-27.5 -56.5t-10 -71.5q0 -42 17 -66.5t50 -24.5z
" />
    <glyph glyph-name="Delta" unicode="&#x2206;" horiz-adv-x="688" 
d="M255 680h91l265 -680h-621zM138 99h326l-163 421z" />
    <glyph glyph-name="product" unicode="&#x220f;" horiz-adv-x="964" 
d="M329 593v-804h-119v804h-101v107h813v-107h-101v-804h-119v804h-373z" />
    <glyph glyph-name="summation" unicode="&#x2211;" horiz-adv-x="839" 
d="M357 241l-248 372v87h602v-107h-453l234 -349l-236 -347h455v-108h-602v83z" />
    <glyph glyph-name="minus" unicode="&#x2212;" horiz-adv-x="821" 
d="M76 246v106h672v-106h-672z" />
    <glyph glyph-name="uni2219" unicode="&#x2219;" horiz-adv-x="248" 
d="M210 386l-29 -132h-129l29 132h129z" />
    <glyph glyph-name="radical" unicode="&#x221a;" horiz-adv-x="540" 
d="M564 680l-181 -683h-101l-135 404h-94v93h184l63 -195q5 -14 10.5 -34t11.5 -39q6 -22 14 -46h1l10 44q5 19 9.5 39t9.5 37l98 380h100z" />
    <glyph glyph-name="infinity" unicode="&#x221e;" horiz-adv-x="927" 
d="M884 331q0 -36 -11.5 -69.5t-34 -59.5t-56.5 -41.5t-79 -15.5q-34 0 -66.5 11t-62 28t-56.5 38t-50 41l-51.5 -42t-55.5 -38.5t-59.5 -28.5t-63.5 -11q-47 0 -80 15.5t-54 41t-30.5 58.5t-9.5 67q0 41 11.5 75t34 58.5t56 38t76.5 13.5q30 0 58 -8.5t56 -24t57 -37
l62 -47.5l50.5 39.5t55 37.5t60.5 28.5t67 11.5q44 0 77 -14.5t55 -39.5t33 -57t11 -68zM774 327q0 36 -19.5 56t-52.5 20q-16 0 -34 -6.5t-36.5 -17t-37 -24l-35.5 -26.5l36.5 -25.5t39.5 -25t38.5 -19t33.5 -7.5q33 0 50 21.5t17 53.5zM243 252q16 0 34.5 7t37.5 17.5
t37 23.5l35 26l-37.5 27t-38.5 25t-37 18t-33 7q-32 0 -50 -21.5t-18 -53.5q0 -35 18.5 -55.5t51.5 -20.5z" />
    <glyph glyph-name="uni2224" unicode="&#x2224;" horiz-adv-x="288" 
d="M230 386l-29 -132h-129l29 132h129z" />
    <glyph glyph-name="logicaland" unicode="&#x2227;" horiz-adv-x="248" 
d="M210 386l-29 -132h-129l29 132h129z" />
    <glyph glyph-name="integral" unicode="&#x222b;" horiz-adv-x="367" 
d="M165 -69q-14 -64 -45 -96t-93 -32q-39 0 -70.5 7t-48.5 14l39 95q13 -5 29.5 -8t33.5 -3q15 0 24 4.5t14.5 13.5t9 22t7.5 31l129 601q13 60 40.5 86t77.5 26q35 0 65.5 -5.5t59.5 -16.5l-25 -95l-33.5 6.5t-35.5 3.5q-28 0 -36.5 -15t-14.5 -44z" />
    <glyph glyph-name="approxequal" unicode="&#x2248;" horiz-adv-x="620" 
d="M560 366q-30 -38 -74 -58.5t-86 -20.5q-18 0 -33 3t-28.5 8t-27.5 12l-30 15q-15 8 -36 16.5t-40 8.5q-17 0 -41 -9.5t-56 -48.5l-55 85q7 12 21.5 27t34 27.5t44.5 21.5t54 9q33 0 60.5 -11.5t58.5 -27.5l34.5 -17t43.5 -9q28 0 57 14.5t49 37.5zM560 150
q-30 -38 -74 -58.5t-86 -20.5q-18 0 -33 3t-28.5 8t-27.5 12l-30 15q-15 8 -36 16.5t-40 8.5q-17 0 -41 -9.5t-56 -48.5l-55 85q7 12 21.5 27t34 27.5t44.5 21.5t54 9q33 0 60.5 -11.5t58.5 -27.5l34.5 -17t43.5 -9q28 0 57 14.5t49 37.5z" />
    <glyph glyph-name="notequal" unicode="&#x2260;" horiz-adv-x="785" 
d="M728 332h-287l-41 -78h328v-88h-374l-88 -166h-95l89 166h-206v88h252l40 78h-292v88h339l94 175h93l-92 -175h240v-88z" />
    <glyph glyph-name="lessequal" unicode="&#x2264;" horiz-adv-x="834" 
d="M69 0v106h678v-106h-678zM747 116l-678 248v88l678 246v-110l-529 -178l529 -185v-109z" />
    <glyph glyph-name="greaterequal" unicode="&#x2265;" horiz-adv-x="878" 
d="M113 0v106h678v-106h-678zM113 225l529 185l-529 178v110l678 -246v-88l-678 -248v109z" />
    <glyph glyph-name="dotmath" unicode="&#x22c5;" horiz-adv-x="248" 
d="M210 386l-29 -132h-129l29 132h129z" />
    <glyph glyph-name="lozenge" unicode="&#x25ca;" horiz-adv-x="571" 
d="M340 703l213 -355l-213 -351h-80l-214 351l214 355h80zM426 348l-126 214l-127 -214l127 -211z" />
    <glyph glyph-name="uni2B0F" unicode="&#x2b0f;" horiz-adv-x="586" 
d="M55 485l238 237l238 -237v-125l-185 184v-544h-291v100h185v444l-185 -184v125z" />
    <glyph glyph-name="uni2B10" unicode="&#x2b10;" horiz-adv-x="586" 
d="M531 712v-100h-185v-444l185 184v-125l-238 -237l-238 237v125l185 -184v544h291z" />
    <glyph glyph-name="uni2B11" unicode="&#x2b11;" horiz-adv-x="586" 
d="M531 360l-185 184v-444h185v-100h-291v544l-185 -184v125l238 237l238 -237v-125z" />
    <glyph glyph-name="uniF8FF" unicode="&#xf8ff;" horiz-adv-x="823" 
d="M40 361q0 77 29 144.5t79.5 118t118 80t144.5 29.5t144.5 -29.5t118 -80t80 -118t29.5 -144.5t-29.5 -144.5t-80 -118t-118 -79.5t-144.5 -29t-144.5 29t-118 79.5t-79.5 118t-29 144.5z" />
    <glyph glyph-name="uni21B0.salt" horiz-adv-x="954" 
d="M882 0h-107v287h-557l292 -287h-140l-340 340l340 340h140l-291 -286h663v-394z" />
    <glyph glyph-name="uni21B1.salt" horiz-adv-x="954" 
d="M444 0l292 287h-557v-287h-107v394h663l-291 286h140l340 -340l-340 -340h-140z" />
    <glyph glyph-name="uni21B2.salt" horiz-adv-x="954" 
d="M882 286h-663l291 -286h-140l-340 340l340 340h140l-292 -287h557v287h107v-394z" />
    <glyph glyph-name="uni21B3.salt" horiz-adv-x="954" 
d="M584 680l340 -340l-340 -340h-140l291 286h-663v394h107v-287h557l-292 287h140z" />
    <glyph glyph-name="uni21B4.salt" horiz-adv-x="790" 
d="M455 756v-646l280 281v-147l-340 -340l-340 340v147l280 -281v539h-280v107h400z" />
    <glyph glyph-name="carriagereturn.salt" horiz-adv-x="954" 
d="M882 286h-663l291 -286h-140l-340 340l340 340h140l-292 -287h557v287h107v-394z" />
    <glyph glyph-name="uni2B0F.salt" horiz-adv-x="790" 
d="M55 426l340 340l340 -340v-147l-280 281v-646h-400v107h280v539l-280 -281v147z" />
    <glyph glyph-name="uni2B11.salt" horiz-adv-x="790" 
d="M735 279l-280 281v-539h280v-107h-400v646l-280 -281v147l340 340l340 -340v-147z" />
    <glyph glyph-name="uni2B10.salt" horiz-adv-x="790" 
d="M735 756v-107h-280v-539l280 281v-147l-340 -340l-340 340v147l280 -281v646h400z" />
    <glyph glyph-name="caron.alt" horiz-adv-x="488" 
d="M304 552l29 128h121l-64 -128h-86z" />
    <glyph glyph-name="commaaccent" unicode="&#xf6c3;" horiz-adv-x="189" 
d="M107 -60l-11 -51q-8 -35 -19 -72.5t-35 -61.5q-19 -19 -46.5 -30.5t-67.5 -13.5l16 67q30 3 42 19.5t14 31.5h-46l25 111h128z" />
    <glyph glyph-name="commaturn" horiz-adv-x="189" 
d="M80 569l11 51q8 35 19 72.5t35 61.5q19 19 46.5 30.5t67.5 13.5l-16 -67q-30 -3 -42 -19.5t-14 -31.5h46l-25 -111h-128z" />
    <glyph glyph-name="zero.tlfslash" 
d="M354 689q37 0 75.5 -11t70.5 -40t52.5 -79t20.5 -128q0 -75 -18 -153t-56.5 -142.5t-97.5 -105.5t-140 -41q-56 0 -97 19t-68.5 53.5t-41 83t-13.5 108.5q0 78 20 156t60 140.5t98 101t135 38.5zM198 120q26 -27 68 -27q43 0 77.5 28.5t59 75t37.5 105.5t13 121v10.5
t-1 10.5zM416 559q-27 27 -68 27q-43 0 -78 -27.5t-59.5 -72.5t-37.5 -103.5t-13 -120.5v-15.5t1 -14.5z" />
    <glyph glyph-name="zero.plfslash" horiz-adv-x="611" 
d="M365 689q37 0 75.5 -11t70.5 -40t52.5 -79t20.5 -128q0 -75 -18 -153t-56.5 -142.5t-97.5 -105.5t-140 -41q-56 0 -97 19t-68.5 53.5t-41 83t-13.5 108.5q0 78 20 156t60 140.5t98 101t135 38.5zM209 120q26 -27 68 -27q43 0 77.5 28.5t59 75t37.5 105.5t13 121v10.5
t-1 10.5zM427 559q-27 27 -68 27q-43 0 -78 -27.5t-59.5 -72.5t-37.5 -103.5t-13 -120.5v-15.5t1 -14.5z" />
    <glyph glyph-name="zero.plf" horiz-adv-x="611" 
d="M365 689q37 0 75.5 -11t70.5 -40t52.5 -79t20.5 -128q0 -75 -18 -153t-56.5 -142.5t-97.5 -105.5t-140 -41q-56 0 -97 19t-68.5 53.5t-41 83t-13.5 108.5q0 78 20 156t60 140.5t98 101t135 38.5zM171 262q0 -92 29.5 -130.5t76.5 -38.5q43 0 77.5 28.5t59 75t37.5 105.5
t13 121q0 74 -24 118.5t-81 44.5q-43 0 -78 -27.5t-59.5 -72.5t-37.5 -103.5t-13 -120.5z" />
    <glyph glyph-name="one.plf" horiz-adv-x="398" 
d="M261 0h-117l92 442h-185l20 93h30q41 0 70 7.5t52 21.5q30 19 48.5 48t28.5 68h105z" />
    <glyph glyph-name="two.plf" horiz-adv-x="566" 
d="M94 411q-8 30 -8 61q0 45 17 85t48 70t75.5 47.5t100.5 17.5q52 0 94 -14.5t70.5 -40.5t44 -62.5t15.5 -79.5q0 -70 -34.5 -129t-87 -108t-115 -88.5t-118.5 -69.5v-1q21 0 47 1q22 1 51 1.5t61 0.5h138l-23 -102h-474l16 92q28 15 61 35.5l66.5 43l67.5 46.5l66 47
q30 22 58.5 46.5t51 52t36.5 58.5t14 66q0 46 -28.5 74.5t-82.5 28.5q-33 0 -56.5 -10.5t-39 -28t-23 -41t-7.5 -49.5q0 -36 12 -70z" />
    <glyph glyph-name="three.plf" horiz-adv-x="571" 
d="M129 232q1 -30 10 -56t26 -45t42 -30t59 -11q35 0 59.5 10.5t40 27t22.5 37.5t7 42q0 67 -63 92q-24 9 -52.5 10.5t-68.5 1.5h-19l16 93h60q31 0 55.5 3.5t44.5 13.5q24 11 39 32.5t15 54.5t-24 58.5t-80 25.5q-53 0 -85.5 -27.5t-42.5 -79.5l-101 29q4 31 20 63t45 57.5
t71.5 41.5t99.5 16q55 0 95.5 -13.5t67 -36.5t39.5 -54t13 -66q0 -36 -11 -63.5t-27.5 -48t-36.5 -34t-39 -20.5q17 -11 32 -25.5t26.5 -33t18 -42t6.5 -53.5q0 -42 -15 -81t-46 -68.5t-77 -47t-107 -17.5q-114 0 -174.5 59.5t-67.5 158.5z" />
    <glyph glyph-name="four.plf" horiz-adv-x="575" 
d="M322 250l24 114l18 83t20 79h-3q-14 -23 -40 -56.5t-66 -79.5l-122 -140h169zM545 250l-22 -102h-107l-31 -148h-114l30 148h-308l18 90l390 442h128l-91 -430h107z" />
    <glyph glyph-name="five.plf" horiz-adv-x="564" 
d="M54 323l107 357h396l-29 -107h-289l-42 -129q15 11 44.5 19.5t66.5 8.5q45 0 83.5 -14.5t67 -42t44.5 -68t16 -91.5q0 -57 -17 -106t-50.5 -85t-83.5 -56.5t-115 -20.5q-50 0 -89.5 14t-69 38t-48 56.5t-27.5 69.5l112 39q4 -23 14.5 -43.5t27 -36t39.5 -24.5t51 -9
q31 0 56.5 11.5t44 32t28.5 49t10 62.5q0 58 -35 93t-89 35q-52 0 -83 -25t-45 -64z" />
    <glyph glyph-name="six.plf" horiz-adv-x="592" 
d="M469 482q-6 48 -33.5 75.5t-76.5 27.5q-32 0 -59.5 -14t-49.5 -37.5t-37 -55t-23 -66.5q25 26 62.5 39t79.5 13q37 0 74 -12t66.5 -37.5t47.5 -65.5t18 -95q0 -57 -19 -105.5t-53.5 -84t-81.5 -55.5t-104 -20q-107 0 -167 70t-60 192q0 87 21.5 166.5t62 139.5t99 96
t131.5 36q51 0 88.5 -14.5t62.5 -39.5t38.5 -58.5t16.5 -70.5zM288 93q31 0 56 12.5t42.5 33.5t26.5 47.5t9 54.5q0 59 -31 91t-89 32q-39 0 -75.5 -18.5t-57.5 -51.5q-3 -21 -3 -42q0 -32 6.5 -61t21.5 -51t38 -34.5t56 -12.5z" />
    <glyph glyph-name="seven.plf" horiz-adv-x="551" 
d="M601 586q-25 -25 -52.5 -55.5t-53.5 -62.5q-85 -105 -150 -224t-104 -244h-137q21 72 55 143t76 140q51 79 106.5 152.5t115.5 139.5h-253q-6 -29 -13 -59t-13 -59h-113l47 223h509z" />
    <glyph glyph-name="eight.plf" horiz-adv-x="601" 
d="M30 184q0 66 38 114t104 74q-25 17 -45 49t-20 85q0 40 17.5 73.5t49.5 58t76.5 38.5t98.5 14q107 0 163.5 -47.5t56.5 -122.5q0 -31 -9 -57t-24.5 -46.5t-36 -35.5t-44.5 -25q34 -24 59 -61.5t25 -93.5q0 -45 -17 -84t-51 -67.5t-83.5 -44.5t-114.5 -16q-59 0 -104.5 14
t-76 40t-46.5 61.5t-16 79.5zM146 195q0 -47 35 -76.5t95 -29.5q65 0 104 31t39 88q0 49 -34.5 76.5t-94.5 27.5q-37 0 -64 -9.5t-45 -25.5t-26.5 -37.5t-8.5 -44.5zM222 497q0 -35 26.5 -60t81.5 -25q61 0 90.5 26t29.5 70q0 37 -28 60.5t-82 23.5q-30 0 -52 -8t-37 -21.5
t-22 -30.5t-7 -35z" />
    <glyph glyph-name="nine.plf" horiz-adv-x="593" 
d="M148 196q6 -48 33.5 -75t76.5 -27q32 0 59.5 13.5t49.5 37t37 55t23 66.5q-25 -26 -62.5 -39t-79.5 -13q-38 0 -74.5 12t-66 37.5t-47.5 65t-18 95.5q0 57 19 105.5t53.5 84t81.5 55.5t104 20q107 0 167 -70t60 -192q0 -87 -21.5 -166.5t-62 -139.5t-99 -96t-131.5 -36
q-51 0 -88.5 14.5t-62.5 39.5t-38.5 58.5t-16.5 70.5zM329 586q-32 0 -56.5 -12.5t-42 -33.5t-26.5 -47.5t-9 -54.5q0 -59 31 -91t89 -32q39 0 75.5 18.5t57.5 51.5q3 21 3 42q0 32 -6.5 61t-21.5 50.5t-38 34.5t-56 13z" />
    <glyph glyph-name="at.case" horiz-adv-x="800" 
d="M488 337q-12 -5 -34.5 -7.5t-42.5 -5.5t-37 -7.5t-30 -11.5t-20 -18t-7 -28q0 -25 19.5 -36t47.5 -11q33 0 58.5 17t31.5 45zM471 175q-16 -14 -43.5 -25.5t-74.5 -11.5q-26 0 -50 6.5t-42.5 20t-30 35.5t-11.5 53q0 67 43 98t118 42l107 15q11 2 14.5 4.5t5.5 11.5
q4 15 4 25q0 41 -68 41q-40 0 -63 -16.5t-28 -53.5l-93 5q4 39 22 65.5t45 43t60.5 24t69.5 7.5q65 0 107 -25t42 -78q0 -13 -2 -25t-4 -21l-35 -159q-1 -3 -2.5 -11t-1.5 -16q0 -7 3.5 -12t13.5 -5q22 0 43 18.5t37 49.5t25.5 70.5t9.5 81.5q0 41 -11.5 80t-38.5 69
t-70.5 48.5t-107.5 18.5q-74 0 -133 -28.5t-101 -77t-64.5 -112.5t-22.5 -134q0 -68 21 -118t57 -83.5t83.5 -50t100.5 -16.5q36 0 73 7t73 21t69.5 35.5t61.5 50.5l20 -89q-66 -55 -143 -81t-166 -26q-68 0 -130 20.5t-109 63t-75 107t-28 152.5q0 85 29.5 165t83.5 141.5
t131 99t173 37.5q83 0 142.5 -25t97.5 -66t55.5 -94t17.5 -109q0 -57 -15 -112.5t-43.5 -99t-69 -70t-92.5 -26.5q-37 0 -59 12.5t-29 31.5h-2z" />
    <glyph glyph-name="bar.case" horiz-adv-x="303" 
d="M104 750h113v-838h-113v838z" />
    <glyph glyph-name="plus.case" horiz-adv-x="672" 
d="M402 40h-107v246h-243v106h243v245h107v-245h242v-106h-242v-246z" />
    <glyph glyph-name="minus.case" horiz-adv-x="817" 
d="M83 289v106h672v-106h-672z" />
    <glyph glyph-name="plusminus.case" horiz-adv-x="738" 
d="M65 40v106h592v-106h-592zM415 176h-107v157h-243v106h243v198h107v-198h242v-106h-242v-157z" />
    <glyph glyph-name="multiply.case" horiz-adv-x="715" 
d="M293 342l-209 209l76 76l209 -209l211 209l76 -75l-211 -210l211 -211l-76 -76l-211 211l-210 -211l-75 76z" />
    <glyph glyph-name="divide.case" horiz-adv-x="763" 
d="M58 288v106h672v-106h-672zM458 235v-132h-129v132h129zM458 579v-132h-129v132h129z" />
    <glyph glyph-name="equal.case" horiz-adv-x="835" 
d="M759 372h-674v88h674v-88zM759 206h-674v88h674v-88z" />
    <glyph glyph-name="notequal.case" horiz-adv-x="778" 
d="M730 372h-287l-41 -78h328v-88h-374l-88 -166h-95l89 166h-206v88h252l40 78h-292v88h339l94 175h93l-92 -175h240v-88z" />
    <glyph glyph-name="approxequal.case" horiz-adv-x="620" 
d="M569 426q-30 -38 -74 -58.5t-86 -20.5q-18 0 -33 3t-28.5 8t-27.5 12l-30 15q-15 8 -36 16.5t-40 8.5q-17 0 -41 -9.5t-56 -48.5l-55 85q7 12 21.5 27t34 27.5t44.5 21.5t54 9q33 0 60.5 -11.5t58.5 -27.5l34.5 -17t43.5 -9q28 0 57 14.5t49 37.5zM569 210
q-30 -38 -74 -58.5t-86 -20.5q-18 0 -33 3t-28.5 8t-27.5 12l-30 15q-15 8 -36 16.5t-40 8.5q-17 0 -41 -9.5t-56 -48.5l-55 85q7 12 21.5 27t34 27.5t44.5 21.5t54 9q33 0 60.5 -11.5t58.5 -27.5l34.5 -17t43.5 -9q28 0 57 14.5t49 37.5z" />
    <glyph glyph-name="logicalnot.case" horiz-adv-x="592" 
d="M525 199h-114v180h-342v96h456v-276z" />
    <glyph glyph-name="parenleft.case" horiz-adv-x="282" 
d="M85 -99q-45 154 -45 298q0 151 53 289.5t169 271.5l100 -11q-108 -134 -159.5 -283.5t-51.5 -314.5q0 -58 6 -118t18 -120z" />
    <glyph glyph-name="parenright.case" horiz-adv-x="281" 
d="M217 760q45 -155 45 -298q0 -151 -52.5 -289.5t-168.5 -271.5l-101 11q108 134 159.5 283.5t51.5 314.5q0 58 -6 118t-18 120z" />
    <glyph glyph-name="hyphen.case" horiz-adv-x="402" 
d="M59 284l23 108h285l-23 -108h-285z" />
    <glyph glyph-name="bracketleft.case" horiz-adv-x="307" 
d="M196 -89h-205l178 839h206l-18 -85h-93l-142 -668h93z" />
    <glyph glyph-name="bracketright.case" horiz-adv-x="306" 
d="M131 750h205l-178 -839h-206l18 85h93l142 668h-93z" />
    <glyph glyph-name="braceleft.case" horiz-adv-x="328" 
d="M242 453q-6 -28 -12 -45.5t-13 -29t-16.5 -18.5t-21.5 -13q22 -21 22 -59q0 -24 -6 -51.5t-11 -53.5l-21 -106q-5 -21 -6.5 -31.5t-1.5 -18.5q0 -11 3.5 -17.5t12.5 -10t24.5 -5.5t40.5 -2l-17 -81h-20q-32 0 -60.5 3t-49.5 13.5t-33 31.5t-12 57q0 20 6 51l11 57l21 97
q4 19 6.5 32.5t2.5 23.5q0 17 -11.5 25.5t-40.5 13.5l18 85q23 0 37.5 6.5t23.5 19t14.5 31.5t10.5 45l19 96q9 42 18.5 71.5t27 47.5t45.5 26t73 8q21 0 39 -0.5t29 -2.5l-18 -83q-7 1 -13 1h-11q-24 0 -38 -5t-22.5 -16.5t-13.5 -28.5t-10 -41z" />
    <glyph glyph-name="braceright.case" horiz-adv-x="326" 
d="M110 234q6 28 12 45.5t13 29t16.5 18.5t21.5 13q-22 21 -22 59q0 24 6 51.5t11 53.5l16 82q5 21 6.5 31.5t1.5 18.5q0 21 -16.5 27.5t-62.5 7.5l17 81h18q32 0 60.5 -2.5t49.5 -13t33 -31t12 -56.5q0 -21 -5.5 -52t-11.5 -58l-16 -73q-4 -19 -6.5 -32.5t-2.5 -23.5
q0 -17 11.5 -25.5t40.5 -13.5l-18 -85q-23 0 -37.5 -6.5t-23.5 -19t-14.5 -31.5t-10.5 -45l-24 -120q-9 -42 -18.5 -71.5t-27 -47.5t-45.5 -26t-73 -8q-21 0 -39.5 0.5t-29.5 2.5l19 83q7 -1 13 -1h11q24 0 38 5t22.5 16.5t13.5 28.5t10 41z" />
    <glyph glyph-name="guillemotleft.case" horiz-adv-x="456" 
d="M42 269l29 127l181 128l-29 -132l-105 -67l75 -78l-24 -117zM238 269l29 127l181 128l-29 -132l-105 -67l75 -78l-24 -117z" />
    <glyph glyph-name="uni00AD.case" horiz-adv-x="402" 
d="M57 284l23 108h285l-23 -108h-285z" />
    <glyph glyph-name="guillemotright.case" horiz-adv-x="456" 
d="M433 385l-29 -127l-181 -128l30 135l105 67l-75 78l23 114zM237 385l-29 -127l-181 -128l30 135l105 67l-75 78l23 114z" />
    <glyph glyph-name="endash.case" horiz-adv-x="627" 
d="M58 281l24 111h509l-24 -111h-509z" />
    <glyph glyph-name="emdash.case" horiz-adv-x="816" 
d="M58 281l24 111h698l-24 -111h-698z" />
    <glyph glyph-name="guilsinglleft.case" horiz-adv-x="260" 
d="M42 269l29 127l181 128l-29 -132l-105 -67l75 -78l-24 -117z" />
    <glyph glyph-name="guilsinglright.case" horiz-adv-x="260" 
d="M237 385l-29 -127l-181 -128l30 135l105 67l-75 78l23 114z" />
    <glyph glyph-name="brokenbar.case" horiz-adv-x="315" 
d="M110 750h113v-323h-113v323zM110 234h113v-323h-113v323z" />
    <glyph glyph-name="arrowleft.salt" horiz-adv-x="932" 
d="M882 286h-663l291 -286h-140l-340 340l340 340h140l-292 -287h664v-107z" />
    <glyph glyph-name="arrowup.salt" horiz-adv-x="790" 
d="M55 426l340 340l340 -340v-147l-280 281v-646h-120v646l-280 -281v147z" />
    <glyph glyph-name="arrowright.salt" horiz-adv-x="932" 
d="M562 680l340 -340l-340 -340h-140l291 286h-663v107h664l-292 287h140z" />
    <glyph glyph-name="arrowdown.salt" horiz-adv-x="790" 
d="M55 391l280 -281v646h120v-646l280 281v-147l-340 -340l-340 340v147z" />
    <glyph glyph-name="uni2196.salt" horiz-adv-x="727" 
d="M629 7l-457 456l3 -397l-113 104v481h481l104 -104l-393 1l457 -457z" />
    <glyph glyph-name="uni2197.salt" horiz-adv-x="727" 
d="M184 651h481v-481l-113 -104l2 397l-456 -456l-82 84l457 457l-393 -1z" />
    <glyph glyph-name="uni2198.salt" horiz-adv-x="727" 
d="M80 134l393 -1l-457 457l82 84l456 -456l-2 397l113 -104v-481h-481z" />
    <glyph glyph-name="uni2199.salt" horiz-adv-x="727" 
d="M711 590l-457 -457l393 1l-104 -104h-481v481l113 104l-3 -397l457 456z" />
    <glyph glyph-name="uni21A4.salt" horiz-adv-x="954" 
d="M775 0v286h-556l291 -286h-140l-340 340l340 340h140l-292 -287h557v287h107v-680h-107z" />
    <glyph glyph-name="uni21A5.salt" horiz-adv-x="790" 
d="M55 426l340 340l340 -340v-147l-280 281v-539h280v-107h-680v107h280v539l-280 -281v147z" />
    <glyph glyph-name="uni21A6.salt" horiz-adv-x="954" 
d="M584 680l340 -340l-340 -340h-140l291 286h-556v-286h-107v680h107v-287h557l-292 287h140z" />
    <glyph glyph-name="uni21A7.salt" horiz-adv-x="790" 
d="M55 391l280 -281v539h-280v107h680v-107h-280v-539l280 281v-147l-340 -340l-340 340v147z" />
    <glyph glyph-name="enspace" unicode="&#x2002;" horiz-adv-x="500" 
 />
    <glyph glyph-name="emspace" unicode="&#x2003;" horiz-adv-x="1000" 
 />
    <glyph glyph-name="threeperemspace" unicode="&#x2004;" horiz-adv-x="333" 
 />
    <glyph glyph-name="fourperemspace" unicode="&#x2005;" horiz-adv-x="250" 
 />
    <glyph glyph-name="thinspace" unicode="&#x2009;" horiz-adv-x="133" 
 />
    <glyph glyph-name="hairspace" unicode="&#x200a;" horiz-adv-x="75" 
 />
    <glyph glyph-name="idotaccent" horiz-adv-x="240" 
d="M117 0h-113l100 476h114zM236 564h-114l25 116h114z" />
    <glyph glyph-name="quotedbl" unicode="&#x22;" horiz-adv-x="396" 
d="M166 387h-75l27 213l17 80h116l-17 -80zM345 387h-75l27 213l17 80h116l-17 -80z" />
    </font>
</defs>
</svg>
