<?xml version="1.0" standalone="no"?>
<!DOCTYPE svg PUBLIC "-//W3C//DTD SVG 1.1//EN" "http://www.w3.org/Graphics/SVG/1.1/DTD/svg11.dtd" >
<svg>
<metadata>
Created by FontForge 20090622 at Tue Aug  1 13:13:00 2017
 By deploy user
&#194;&#169;2012 Optimo.
</metadata>
<defs>
<font id="DowCorporate-LightIta" horiz-adv-x="501" >
  <font-face 
    font-family="Dow Corporate Light"
    font-weight="350"
    font-style="italic"
    font-stretch="normal"
    units-per-em="1000"
    panose-1="2 11 3 3 2 2 2 9 2 4"
    ascent="802"
    descent="-198"
    x-height="476"
    cap-height="680"
    bbox="-151 -278 1302 919"
    underline-thickness="45"
    underline-position="-76"
    unicode-range="U+000D-U+FB02"
  />
<missing-glyph horiz-adv-x="644" 
d="M50 289l309 309q16 -9 26 -23l-335 -335v49zM50 191l347 347v-15q0 -17 -9.5 -31t-23.5 -27t-30 -25t-29 -25q-23 -22 -36 -54l-219 -219v49zM55 0l261 261h49l-93 -93h-23v-23l-145 -145h-49zM594 441v-49l-224 -224h-49zM50 387l148 148l39 -2q0 27 19 51t56 24h8
l-270 -270v49zM349 0l33 33h2v2l210 210v-49l-196 -196h-49zM594 343v-49l-210 -210v49zM50 93l206 206v-38h11l-217 -217v49zM246 779h49l-44 -44q-54 -14 -93 -53.5t-54 -93.5l-54 -54v49zM594 539v-49l-216 -216v7q0 16 5 26.5t14 19.5t22 18l29 21l20.5 15.5t26 23
t25 32.5t17.5 45zM148 779h49l-147 -147v49zM447 0l147 147v-49l-98 -98h-49zM540 779h49l-104 -104l-26 23zM50 485l56 56l46 -3l-102 -102v49zM594 735v-49l-70 -70q-7 15 -18 31zM153 0l96 96v-49l-47 -47h-49zM442 779h49l-62 -62q-17 9 -34 15zM594 637v-49l-52 -52
q0 11 -2 21.5l-4 21.5zM344 779h49l-38 -38q-7 1 -14 1.5t-14 0.5q-3 0 -6.5 -0.5t-6.5 -0.5h-7zM251 0l33 33h49l-33 -33h-49zM594 0h-49l49 49v-49zM99 779l-49 -49v49h49z" />
    <glyph glyph-name="fi" unicode="fi" horiz-adv-x="497" 
d="M322 427h-108l-91 -427h-59l91 427h-108l10 49h108l23 109q7 30 16 48.5t23 30.5q17 16 38.5 22t44.5 6q20 0 37.5 -3.5t28.5 -7.5l-12 -54q-11 5 -24.5 8.5t-29.5 3.5q-29 0 -43 -14t-21 -47l-22 -102h108zM368 0h-59l101 475h59zM492 582h-59l20 98h59z" />
    <glyph glyph-name="fl" unicode="fl" horiz-adv-x="502" 
d="M322 427h-108l-91 -427h-59l91 427h-108l10 49h108l23 109q7 30 16 48.5t23 30.5q17 16 38.5 22t44.5 6q20 0 37.5 -3.5t28.5 -7.5l-12 -54q-11 5 -24.5 8.5t-29.5 3.5q-29 0 -43 -14t-21 -47l-22 -102h108zM512 680l-145 -680h-59l145 680h59z" />
    <glyph glyph-name=".notdef" horiz-adv-x="644" 
d="M50 289l309 309q16 -9 26 -23l-335 -335v49zM50 191l347 347v-15q0 -17 -9.5 -31t-23.5 -27t-30 -25t-29 -25q-23 -22 -36 -54l-219 -219v49zM55 0l261 261h49l-93 -93h-23v-23l-145 -145h-49zM594 441v-49l-224 -224h-49zM50 387l148 148l39 -2q0 27 19 51t56 24h8
l-270 -270v49zM349 0l33 33h2v2l210 210v-49l-196 -196h-49zM594 343v-49l-210 -210v49zM50 93l206 206v-38h11l-217 -217v49zM246 779h49l-44 -44q-54 -14 -93 -53.5t-54 -93.5l-54 -54v49zM594 539v-49l-216 -216v7q0 16 5 26.5t14 19.5t22 18l29 21l20.5 15.5t26 23
t25 32.5t17.5 45zM148 779h49l-147 -147v49zM447 0l147 147v-49l-98 -98h-49zM540 779h49l-104 -104l-26 23zM50 485l56 56l46 -3l-102 -102v49zM594 735v-49l-70 -70q-7 15 -18 31zM153 0l96 96v-49l-47 -47h-49zM442 779h49l-62 -62q-17 9 -34 15zM594 637v-49l-52 -52
q0 11 -2 21.5l-4 21.5zM344 779h49l-38 -38q-7 1 -14 1.5t-14 0.5q-3 0 -6.5 -0.5t-6.5 -0.5h-7zM251 0l33 33h49l-33 -33h-49zM594 0h-49l49 49v-49zM99 779l-49 -49v49h49z" />
    <glyph glyph-name="NULL" horiz-adv-x="0" 
 />
    <glyph glyph-name="NULL" horiz-adv-x="0" 
 />
    <glyph glyph-name="carriagereturn" unicode="&#xd;" horiz-adv-x="839" 
d="M762 213h-625l215 -213h-75l-237 238l237 238h75l-217 -213h568v213h59v-263z" />
    <glyph glyph-name="space" unicode=" " horiz-adv-x="200" 
 />
    <glyph glyph-name="lslash" unicode="&#x142;" horiz-adv-x="221" 
d="M224 680l-54 -254l84 48l-13 -60l-84 -48l-78 -366h-59l70 327l-78 -44l12 60l79 45l62 292h59z" />
    <glyph glyph-name="Scaron" unicode="&#x160;" horiz-adv-x="583" 
d="M510 528q-23 46 -71 77t-121 31q-35 0 -64.5 -7.5t-51.5 -22t-34.5 -36.5t-12.5 -52q0 -29 9.5 -48.5t26 -33.5t40 -24t50.5 -20l95 -35q30 -11 58 -24.5t50 -33t35 -46.5t13 -66q0 -51 -19.5 -88t-53 -62t-79 -37t-96.5 -12q-53 0 -96.5 13t-76.5 37t-55.5 57t-34.5 72
l55 35q6 -30 21.5 -58.5t41 -51t62 -36t84.5 -13.5q87 0 134 36t47 99q0 29 -10.5 49t-29 34.5t-43.5 25t-54 21.5l-95 35q-26 9 -51.5 21t-46 30.5t-33.5 46t-13 69.5q0 40 16.5 73.5t46.5 57.5t72.5 37.5t95.5 13.5q48 0 86 -11t68 -28.5t51 -40t34 -46.5zM456 889h65
l-148 -136h-42l-92 136h59l62 -81z" />
    <glyph glyph-name="scaron" unicode="&#x161;" horiz-adv-x="442" 
d="M415 680l-140 -128h-42l-86 128h59l54 -77l88 77h67zM352 355q-17 36 -48 59t-82 23q-43 0 -72.5 -19.5t-29.5 -58.5q0 -17 5.5 -29t15.5 -20.5t24.5 -15t33.5 -13.5l65 -24q22 -8 42.5 -17.5t36.5 -23.5t25.5 -33.5t9.5 -47.5q0 -36 -14 -63.5t-38 -46t-56.5 -28
t-69.5 -9.5q-78 0 -128 36.5t-70 97.5l51 32q38 -116 151 -116q45 0 77.5 21.5t32.5 66.5q0 35 -22 50.5t-64 30.5l-67 25q-16 6 -34 14t-33.5 21.5t-25.5 33.5t-10 49q0 33 14 59t37 43t53 26t63 9q57 0 103 -23t72 -75z" />
    <glyph glyph-name="Yacute" unicode="&#xdd;" horiz-adv-x="568" 
d="M187 0l60 280l-161 400h67l138 -338l283 338h76l-340 -400l-60 -280h-63zM307 753l102 136h96l-142 -136h-56z" />
    <glyph glyph-name="yacute" unicode="&#xfd;" horiz-adv-x="445" 
d="M164 159l12 -83h1l18.5 33l31.5 53l187 314h63l-327 -540l-31 -51t-28 -40q-20 -24 -42 -35.5t-54 -11.5q-25 0 -39.5 6.5t-21.5 11.5l11 56q11 -9 24.5 -15t30.5 -6q29 0 47 21q7 8 15.5 20t22.5 36l43 74l-69 474h61zM420 680l-132 -128h-56l94 128h94z" />
    <glyph glyph-name="Thorn" unicode="&#xde;" horiz-adv-x="613" 
d="M24 0l144 680h63l-22 -100h176q58 0 91.5 -7t59.5 -21q31 -17 51.5 -48.5t20.5 -79.5q0 -66 -27 -116.5t-78 -78.5q-27 -14 -64 -21.5t-102 -7.5h-208l-43 -200h-62zM343 256q57 0 88 7t53 22q28 19 45.5 51.5t17.5 82.5q0 40 -19 62t-49 33q-20 7 -46 9t-52 2h-183
l-57 -269h202z" />
    <glyph glyph-name="thorn" unicode="&#xfe;" horiz-adv-x="531" 
d="M-31 -190l184 869h58l-60 -282h1q21 38 63.5 64t95.5 26q78 0 125 -50t47 -141q0 -60 -17 -115.5t-48.5 -98.5t-77.5 -68.5t-103 -25.5q-35 0 -61 10t-44 25.5t-28.5 35.5t-14.5 41l-61 -290h-59zM294 436q-46 0 -80 -24t-56.5 -61t-33.5 -80.5t-11 -83.5
q0 -67 30 -107.5t96 -40.5q44 0 78.5 23t58 58.5t35.5 79t12 84.5q0 69 -31 110.5t-98 41.5z" />
    <glyph glyph-name="Zcaron" unicode="&#x17d;" horiz-adv-x="558" 
d="M472 0h-511l9 41l537 584h-391l12 55h480l-10 -45l-532 -580h418zM478 889h65l-148 -136h-42l-92 136h59l62 -81z" />
    <glyph glyph-name="zcaron" unicode="&#x17e;" horiz-adv-x="405" 
d="M317 0h-347l8 40l339 387h-244l10 49h321l-8 -39l-340 -387h272zM412 680l-140 -128h-42l-86 128h59l54 -77l88 77h67z" />
    <glyph glyph-name="onehalf" unicode="&#xbd;" horiz-adv-x="833" 
d="M116 0l454 680h55l-454 -680h-55zM129 263l64 307q-15 -10 -36 -14t-42 -4q-7 0 -13.5 0.5t-13.5 1.5l8 43h17q39 0 65 16q17 10 27 27t16 40h45l-87 -417h-50zM513 264q-1 6 -1.5 12t-0.5 12q0 28 10 53t29 43.5t46 29t61 10.5q64 0 98.5 -33.5t34.5 -85.5
q0 -44 -25 -82.5t-62 -71t-79.5 -59t-77.5 -45.5v-3h31q14 0 29.5 0.5t29.5 0.5h113l-9 -45h-285l7 42q9 5 27.5 16.5l40 25l42.5 27.5l35 24l47.5 35.5t41.5 37.5t29 43t11 51q0 35 -21.5 56.5t-59.5 21.5q-45 0 -68.5 -28.5t-23.5 -67.5q0 -17 5 -37z" />
    <glyph glyph-name="onequarter" unicode="&#xbc;" horiz-adv-x="789" 
d="M130 263l64 307q-15 -10 -36 -14t-42 -4q-7 0 -13.5 0.5t-13.5 1.5l8 43h17q39 0 65 16q17 10 27 27t16 40h45l-87 -417h-50zM117 0l454 680h55l-454 -680h-55zM630 0h-48l23 107h-202l7 35l263 275h44l-56 -267h70l-8 -43h-70zM473 148q12 1 31 1.5t51 0.5h58l28 133
q2 11 3.5 18.5t3 13.5t3 11t3.5 13h-2l-10.5 -12.5l-13.5 -16t-14 -16t-11 -12.5l-72 -74l-27.5 -28t-30.5 -30v-2z" />
    <glyph glyph-name="onesuperior" unicode="&#xb9;" horiz-adv-x="244" 
d="M124 263l64 307q-15 -10 -36 -14t-42 -4q-7 0 -13.5 0.5t-13.5 1.5l8 43h17q39 0 65 16q17 10 27 27t16 40h45l-87 -417h-50z" />
    <glyph glyph-name="threequarters" unicode="&#xbe;" horiz-adv-x="900" 
d="M105 389q4 -51 31 -71t63 -20q39 0 68.5 21t29.5 64q0 26 -14 42.5t-36 24.5q-15 5 -30 7.5t-41 2.5h-33l9 39h46q29 0 47 3t32 10q19 9 28.5 27t9.5 39q0 28 -20 46t-58 18q-32 0 -55.5 -20t-30.5 -55l-46 14q3 19 13.5 38t27.5 33.5t41 23.5t54 9q61 0 93 -28.5
t32 -71.5t-26 -71.5t-63 -33.5l-1 -2q32 -11 51.5 -36.5t19.5 -60.5q0 -23 -9 -45.5t-27.5 -40.5t-46.5 -29t-65 -11q-67 0 -104 31t-40 87zM741 0h-48l23 107h-202l7 35l263 275h44l-56 -267h70l-8 -43h-70zM584 148q12 1 31 1.5t51 0.5h58l28 133q2 11 3.5 18.5t3 13.5
t3 11t3.5 13h-2l-10.5 -12.5l-13.5 -16t-14 -16t-11 -12.5l-72 -74l-27.5 -28t-30.5 -30v-2zM228 0l454 680h55l-454 -680h-55z" />
    <glyph glyph-name="threesuperior" unicode="&#xb3;" horiz-adv-x="375" 
d="M110 389q4 -51 31 -71t63 -20q39 0 68.5 21t29.5 64q0 26 -14 42.5t-36 24.5q-15 5 -30 7.5t-41 2.5h-33l9 39h46q29 0 47 3t32 10q19 9 28.5 27t9.5 39q0 28 -20 46t-58 18q-32 0 -55.5 -20t-30.5 -55l-46 14q3 19 13.5 38t27.5 33.5t41 23.5t54 9q61 0 93 -28.5
t32 -71.5t-26 -71.5t-63 -33.5l-1 -2q32 -11 51.5 -36.5t19.5 -60.5q0 -23 -9 -45.5t-27.5 -40.5t-46.5 -29t-65 -11q-67 0 -104 31t-40 87z" />
    <glyph glyph-name="twosuperior" unicode="&#xb2;" horiz-adv-x="395" 
d="M113 525q-1 6 -1.5 12t-0.5 12q0 28 10 53t29 43.5t46 29t61 10.5q64 0 98.5 -33.5t34.5 -85.5q0 -44 -25 -82.5t-62 -71t-79.5 -59t-77.5 -45.5v-3h31q14 0 29.5 0.5t29.5 0.5h113l-9 -45h-285l7 42q9 5 27.5 16.5l40 25l42.5 27.5l35 24l47.5 35.5t41.5 37.5t29 43
t11 51q0 35 -21.5 56.5t-59.5 21.5q-45 0 -68.5 -28.5t-23.5 -67.5q0 -17 5 -37z" />
    <glyph glyph-name="brokenbar" unicode="&#xa6;" horiz-adv-x="270" 
d="M160 357h-59v323h59v-323zM160 -158h-59v323h59v-323z" />
    <glyph glyph-name="minus" unicode="&#x2212;" horiz-adv-x="838" 
d="M754 262h-673v57h673v-57z" />
    <glyph glyph-name="multiply" unicode="&#xd7;" horiz-adv-x="690" 
d="M389 294l228 -228l-40 -40l-228 228l-228 -228l-40 40l228 228l-228 228l40 40l228 -228l228 228l40 -40z" />
    <glyph glyph-name="exclam" unicode="!" horiz-adv-x="217" 
d="M108 176h-45l29 180l69 324h64l-69 -324zM110 114l-24 -114h-76l24 114h76z" />
    <glyph glyph-name="quotedbl" unicode="&#x22;" horiz-adv-x="301" 
d="M129 408h-30l24 206l14 66h70l-14 -66zM253 408h-30l24 206l14 66h70l-14 -66z" />
    <glyph glyph-name="numbersign" unicode="#" horiz-adv-x="682" 
d="M662 417h-176l-39 -170h183l-5 -54h-194l-44 -193h-59l45 193h-128l-44 -193h-59l45 193h-151l5 54h161l39 170h-169l4 55h178l50 208h59l-50 -208h127l50 208h59l-50 -208h167zM261 247h127l39 170h-128z" />
    <glyph glyph-name="dollar" unicode="$" horiz-adv-x="574" 
d="M77 206q10 -46 41 -87t87 -59l58 271l-32 12q-25 9 -50 20t-45 29t-32.5 45t-12.5 68q0 39 16 72t45 56t70.5 36t92.5 13h11t11 -1l17 77h57l-18 -86q62 -15 101.5 -49t57.5 -72l-49 -37q-15 35 -45.5 63.5t-75.5 42.5l-53 -249l40 -14q29 -11 56 -24t48 -32t34 -46
t13 -64q0 -49 -19 -85.5t-51.5 -60.5t-76.5 -35.5t-94 -11.5q-8 0 -15 0.5t-14 0.5l-20 -94h-58l22 103q-67 18 -110 61t-60 103zM316 311l-56 -262h20q88 0 132 36t44 98q0 28 -10 47.5t-28 33.5t-42.5 24.5t-52.5 20.5zM154 513q0 -28 9 -47t25.5 -32.5t38.5 -23.5t49 -19
l50 238q-5 1 -14 1q-69 0 -113.5 -29.5t-44.5 -87.5z" />
    <glyph glyph-name="percent" unicode="%" horiz-adv-x="945" 
d="M769 424q20 0 43.5 -6.5t43 -24t32.5 -48t13 -77.5q0 -49 -12.5 -98.5t-37 -90t-60.5 -66t-82 -25.5q-68 0 -101.5 44t-33.5 118q0 49 13 98t38 88t61.5 63.5t82.5 24.5zM626 155q0 -66 25.5 -93t60.5 -27q32 0 57.5 20.5t43 52.5t27.5 72t10 79q0 54 -21 85.5t-63 31.5
q-36 0 -62.5 -21t-43.5 -53.5t-25.5 -71.5t-8.5 -75zM219 0l454 680h55l-454 -680h-55zM264 692q20 0 43.5 -6.5t43 -24t32.5 -48t13 -77.5q0 -49 -12.5 -98.5t-37 -90t-60.5 -66t-82 -25.5q-68 0 -101.5 44t-33.5 118q0 49 13 98t38 88t61.5 63.5t82.5 24.5zM121 423
q0 -66 25.5 -93t60.5 -27q32 0 57.5 20.5t43 52.5t27.5 72t10 79q0 54 -21 85.5t-63 31.5q-36 0 -62.5 -21t-43.5 -53.5t-25.5 -71.5t-8.5 -75z" />
    <glyph glyph-name="ampersand" unicode="&#x26;" horiz-adv-x="611" 
d="M488 0l-32 40l-34 44q-42 -43 -92 -69.5t-120 -26.5q-41 0 -74.5 12.5t-58.5 35t-38.5 54.5t-13.5 71q0 44 15.5 77t43.5 58.5t67.5 46.5t86.5 41q-19 38 -29.5 71.5t-10.5 75.5q0 31 10.5 60.5t31 51.5t50 35.5t68.5 13.5q35 0 60.5 -10.5t42.5 -28t25.5 -40t8.5 -46.5
q0 -64 -43.5 -112.5t-141.5 -92.5q23 -44 53.5 -91l65.5 -97q23 35 42.5 75t33.5 77l48 -36q-18 -42 -40.5 -83t-50.5 -78l48 -64t54 -65h-76zM219 42q53 0 95.5 24t76.5 62l-71 104.5t-63 107.5q-33 -14 -63.5 -30.5t-54.5 -36.5t-38 -45.5t-14 -58.5q0 -57 34.5 -92
t97.5 -35zM255 535q0 -35 10 -66t25 -64q66 29 107.5 68.5t41.5 88.5q0 41 -25.5 61t-58.5 20q-47 0 -73.5 -31t-26.5 -77z" />
    <glyph glyph-name="quotesingle" unicode="'" horiz-adv-x="180" 
d="M130 408h-30l22 206l14 66h74l-14 -66z" />
    <glyph glyph-name="parenleft" unicode="(" horiz-adv-x="244" 
d="M84 -164q-55 157 -55 300q0 146 55 281t169 265l52 -5q-110 -135 -163.5 -266.5t-53.5 -278.5q0 -135 45 -292z" />
    <glyph glyph-name="parenright" unicode=")" horiz-adv-x="243" 
d="M148 682q27 -78 41.5 -152.5t14.5 -147.5q0 -146 -55 -281t-169 -265l-51 5q110 135 163 266.5t53 278.5q0 134 -45 292z" />
    <glyph glyph-name="asterisk" unicode="*" horiz-adv-x="437" 
d="M291 528l151 18l3 -45l-150 -14l64 -141l-43 -20l-61 140l-113 -103l-30 36l116 100l-135 75l25 41l129 -78l30 147l47 -10z" />
    <glyph glyph-name="plus" unicode="+" horiz-adv-x="657" 
d="M361 0h-57v269h-265v56h265v268h57v-268h264v-56h-264v-269z" />
    <glyph glyph-name="comma" unicode="," horiz-adv-x="199" 
d="M-28 -106q35 9 46.5 30t19.5 55l5 21h-42l25 114h78l-34 -152q-11 -48 -34 -71.5t-71 -31.5z" />
    <glyph glyph-name="hyphen" unicode="-" horiz-adv-x="410" 
d="M333 235h-277l13 63h277z" />
    <glyph glyph-name="period" unicode="." horiz-adv-x="199" 
d="M104 114l-25 -114h-78l25 114h78z" />
    <glyph glyph-name="slash" unicode="/" horiz-adv-x="356" 
d="M402 679l-358 -679h-63l359 679h62z" />
    <glyph glyph-name="zero" unicode="0" horiz-adv-x="590" 
d="M359 692q32 0 68.5 -11t67 -39.5t51 -77.5t20.5 -124q0 -53 -9 -107t-26.5 -104.5t-43.5 -94t-60 -76t-76.5 -51.5t-92.5 -19q-53 0 -92 18.5t-65 52t-39 81t-13 106.5q0 80 20.5 159.5t60 143t97 103.5t132.5 40zM110 252q0 -58 12.5 -98t33.5 -64.5t48.5 -35.5
t58.5 -11q56 0 100.5 35t75.5 90.5t48 124t17 136.5q0 46 -9.5 84.5t-28 66t-47 42.5t-65.5 15q-62 0 -108 -37t-76 -94t-45 -125t-15 -129z" />
    <glyph glyph-name="one" unicode="1" horiz-adv-x="590" 
d="M259 0l111 516q-33 -20 -72.5 -27t-78.5 -7h-17t-17 1l11 52h16q41 0 70 7.5t52 21.5q30 19 48.5 48t28.5 68h55l-145 -680h-62z" />
    <glyph glyph-name="two" unicode="2" horiz-adv-x="590" 
d="M117 416q-6 27 -6 55q0 45 16 85t46 70.5t73 48t97 17.5q49 0 88 -14t66.5 -39.5t42 -60t14.5 -75.5q0 -60 -23.5 -109t-60.5 -89.5t-83 -75.5l-92 -67l-59 -39.5l-53 -32.5l-42 -24t-26 -14v-1q19 1 42 2q19 1 44 1.5t53 0.5h230l-11 -55h-456l9 52q24 13 56 33l68 43.5
l75 50t76 54.5l68 54t60 60t42.5 69t16.5 82q0 63 -39 101t-110 38q-43 0 -74.5 -14t-51.5 -37t-30 -54t-10 -65q0 -33 9 -66z" />
    <glyph glyph-name="three" unicode="3" horiz-adv-x="590" 
d="M111 513q2 30 17 61.5t43 57.5t68.5 43t94.5 17q52 0 90.5 -14t63.5 -37.5t37 -53t12 -60.5q0 -30 -10.5 -59t-31.5 -52t-52 -38.5t-71 -19.5v-1q33 -7 58 -23t42 -38t25.5 -48.5t8.5 -54.5q0 -38 -15 -74.5t-45 -65.5t-75 -47t-105 -18q-108 0 -165 51.5t-65 137.5
l60 21q3 -33 14 -61.5t32 -49.5t51 -32.5t71 -11.5q35 0 67 8.5t57 27.5t39.5 47.5t14.5 69.5q0 51 -25 80t-64 43q-25 9 -54 12.5t-63 3.5h-55l11 51h73q51 0 82 5.5t54 16.5q34 17 52.5 45t18.5 69q0 51 -37.5 83t-103.5 32q-40 0 -69.5 -12.5t-50 -32.5t-31 -45.5
t-13.5 -51.5z" />
    <glyph glyph-name="four" unicode="4" horiz-adv-x="590" 
d="M363 0h-60l40 182h-327l9 42l430 460h55l-96 -448h124l-11 -54h-125zM355 236l47 225q8 40 18.5 79t15.5 61h-1q-14 -20 -44 -57t-69 -79l-216 -229h249z" />
    <glyph glyph-name="five" unicode="5" horiz-adv-x="590" 
d="M106 177q5 -29 18 -53.5t34 -43t48.5 -29t61.5 -10.5q36 0 69.5 13.5t59.5 39.5t41.5 65.5t15.5 91.5q0 40 -12 69.5t-32.5 48.5t-47 28t-55.5 9q-27 0 -53 -8t-48.5 -23.5t-39.5 -39.5t-26 -57l-59 19l96 383h369l-13 -55h-313l-36 -140l-11 -41l-9 -32q-4 -16 -8 -29
l2 -1q26 39 71 59t93 20q39 0 74.5 -13t63 -38.5t43.5 -64.5t16 -90q0 -66 -21.5 -115.5t-56.5 -83.5t-80 -51t-92 -17q-80 0 -140.5 40.5t-80.5 123.5z" />
    <glyph glyph-name="six" unicode="6" horiz-adv-x="590" 
d="M517 503q-4 25 -15 49t-29.5 42.5t-44 30t-58.5 11.5q-54 0 -104.5 -34t-84.5 -107q-13 -26 -23.5 -58t-18.5 -67h1q29 35 74 58.5t107 23.5q52 0 90.5 -17.5t64 -46t38 -66.5t12.5 -78q0 -47 -16 -92.5t-47.5 -82t-77.5 -59t-106 -22.5q-48 0 -87 16t-67 47.5t-43.5 78
t-15.5 108.5q0 92 21 174.5t60.5 144.5t96.5 98.5t129 36.5q78 0 129.5 -43t67.5 -112zM128 294q-1 -12 -1.5 -24.5t-0.5 -23.5q0 -92 40 -147t118 -55q43 0 76.5 17t56 45t34.5 63t12 71q0 31 -9.5 59.5t-29 50.5t-49 35t-69.5 13q-59 0 -106 -30t-72 -74z" />
    <glyph glyph-name="seven" unicode="7" horiz-adv-x="590" 
d="M605 632q-60 -68 -116 -141.5t-104 -153t-86.5 -164t-63.5 -173.5h-66q41 146 117 278t173 257l36.5 45l38.5 45v1q-17 -1 -47.5 -1h-61.5h-218l-32 -153h-59l44 208h456z" />
    <glyph glyph-name="eight" unicode="8" horiz-adv-x="590" 
d="M219 372q-45 15 -72.5 49.5t-27.5 91.5q0 35 15.5 67.5t44.5 57t70 39.5t92 15q98 0 154 -43.5t56 -116.5q0 -69 -40.5 -114t-115.5 -59q63 -21 92 -63.5t29 -102.5q0 -44 -16.5 -81.5t-48 -65t-78.5 -43t-108 -15.5q-113 0 -171 50.5t-58 133.5q0 36 11.5 68.5t34.5 59
t57 45t80 27.5zM99 183q0 -63 44 -101.5t123 -38.5q86 0 136 40t50 113q0 66 -45.5 103.5t-123.5 37.5q-47 0 -82 -13t-57.5 -34.5t-33.5 -49t-11 -57.5zM181 512q0 -25 8.5 -47t26 -38t45 -25.5t65.5 -9.5q80 0 120 37.5t40 96.5q0 50 -38.5 81.5t-106.5 31.5
q-40 0 -70 -11t-50 -28.5t-30 -40t-10 -47.5z" />
    <glyph glyph-name="nine" unicode="9" horiz-adv-x="590" 
d="M97 177q4 -25 15 -49t29.5 -42.5t44 -29.5t58.5 -11q54 0 104.5 33.5t84.5 106.5q13 26 23.5 58t18.5 67h-1q-29 -35 -74 -58.5t-107 -23.5q-52 0 -90.5 17.5t-64 46t-38 66t-12.5 78.5q0 46 16 92t47.5 82.5t77.5 59t106 22.5q48 0 87 -16t67 -47.5t43.5 -78.5
t15.5 -108q0 -92 -21 -174.5t-60.5 -144.5t-96.5 -98.5t-129 -36.5q-78 0 -129.5 43t-67.5 112zM486 387q1 12 1.5 24.5t0.5 23.5q0 92 -40 147t-118 55q-43 0 -76.5 -17t-56 -45t-34.5 -63t-12 -71q0 -31 9.5 -59.5t29 -50.5t49 -35t69.5 -13q59 0 106 30t72 74z" />
    <glyph glyph-name="colon" unicode=":" horiz-adv-x="216" 
d="M111 114l-24 -114h-78l24 114h78zM188 476l-24 -114h-78l24 114h78z" />
    <glyph glyph-name="semicolon" unicode=";" horiz-adv-x="220" 
d="M189 476l-24 -114h-78l24 114h78zM-20 -106q35 9 46.5 30t19.5 55l5 21h-42l25 114h78l-34 -152q-11 -48 -34 -71.5t-71 -31.5z" />
    <glyph glyph-name="less" unicode="&#x3c;" horiz-adv-x="814" 
d="M726 -16l-677 319v66l677 317v-63l-613 -286l613 -290v-63z" />
    <glyph glyph-name="equal" unicode="=" horiz-adv-x="867" 
d="M767 175h-673v56h673v-56zM767 349h-673v57h673v-57z" />
    <glyph glyph-name="greater" unicode="&#x3e;" horiz-adv-x="813" 
d="M110 47l613 290l-613 286v63l677 -317v-66l-677 -319v63z" />
    <glyph glyph-name="question" unicode="?" horiz-adv-x="465" 
d="M294 282q-21 -16 -33 -28t-19 -23.5t-10.5 -24t-6.5 -28.5q-2 -6 -2.5 -13.5t-2.5 -15.5h-60q5 33 11 56.5t17 43t28.5 37t45.5 38.5l77 57q13 10 21 17.5l16 15.5q23 26 33 53t10 53q0 22 -8 43.5t-24 37.5t-41 26t-58 10q-37 0 -65 -13t-47 -35t-28.5 -50.5t-9.5 -59.5
q0 -35 13 -72l-62 22q-4 16 -6 31t-2 31q0 40 15.5 76t44 63t68 42.5t88.5 15.5q45 0 79 -13t57 -35t34.5 -52t11.5 -63q0 -30 -8 -58.5t-28 -56.5q-10 -14 -24.5 -29t-36.5 -32zM220 102l-22 -102h-74l22 102h74z" />
    <glyph glyph-name="at" unicode="@" horiz-adv-x="799" 
d="M493 247q-8 -5 -26 -8.5l-42 -8.5l-43 -8q-24 -4 -46.5 -10t-39.5 -16t-27.5 -25.5t-10.5 -39.5q0 -39 24.5 -55.5t60.5 -16.5q22 0 43 6t39 18.5t31 32t19 47.5zM537 63q34 0 64 22t51.5 57t34 80t12.5 91q0 47 -14 92.5t-44 81t-78 57.5t-116 22q-87 0 -154.5 -35.5
t-114 -92.5t-70.5 -127.5t-24 -140.5q0 -56 17 -108.5t51.5 -92.5t88 -64t126.5 -24q40 0 81 9t80 26t73.5 42t63.5 58l10 -50q-60 -65 -142 -98.5t-167 -33.5q-86 0 -149.5 27t-105 73t-62 106t-20.5 125q0 78 28.5 158t82.5 144t132.5 104.5t179.5 40.5q79 0 135.5 -25.5
t93 -66.5t53.5 -93.5t17 -107.5q0 -56 -16.5 -110t-45.5 -96t-69.5 -68t-88.5 -26q-29 0 -48.5 10t-19.5 37q0 8 1 13l-1 1q-17 -29 -50 -47t-83 -18q-54 0 -88.5 28.5t-34.5 82.5q0 33 12 56t34.5 39t54 25.5t70.5 16.5l96 17q18 3 24.5 9t8.5 19q2 9 3.5 17t1.5 16
q0 13 -4.5 25t-15 21t-28.5 14.5t-45 5.5q-59 0 -87.5 -27t-33.5 -68l-47 11q4 35 20.5 59t40.5 39t53.5 22t59.5 7q28 0 52.5 -5t43 -17t29 -32t10.5 -49q0 -24 -6 -48l-40 -186q-3 -18 -3 -26q0 -24 26 -24z" />
    <glyph glyph-name="A" unicode="A" horiz-adv-x="599" 
d="M20 0h-69l403 680h64l115 -680h-65l-33 205h-295zM386 515q-5 28 -8 50.5l-6 44.5h-1l-21 -41.5t-24 -42.5l-155 -266h255z" />
    <glyph glyph-name="B" unicode="B" horiz-adv-x="657" 
d="M23 0l145 680h253q54 0 86.5 -6.5t55.5 -19.5q34 -19 50.5 -52.5t16.5 -71.5q0 -31 -8.5 -60.5t-26 -53.5t-44.5 -41t-64 -22q54 -12 80.5 -50t26.5 -91q0 -27 -7.5 -54t-21.5 -52t-33.5 -45t-44.5 -33q-27 -14 -64 -21t-101 -7h-299zM155 325l-57 -269h230q55 0 87 7.5
t53 21.5q28 19 45.5 51t17.5 79q0 41 -19 65t-48 35q-19 7 -45.5 8.5t-52.5 1.5h-211zM383 379q49 0 79 7t49 20q24 17 40.5 46.5t16.5 74.5q0 26 -9 44t-25 30q-23 17 -55 20t-62 3h-198l-52 -245h216z" />
    <glyph glyph-name="C" unicode="C" horiz-adv-x="627" 
d="M572 486q-15 70 -59.5 110t-122.5 40q-68 0 -119 -34t-84.5 -86.5t-50 -117t-16.5 -124.5q0 -52 11.5 -94.5t35 -72.5t59.5 -46.5t85 -16.5q38 0 70.5 11.5t60.5 31.5t50 48t39 60l48 -36q-42 -75 -110.5 -123t-166.5 -48q-122 0 -184 73.5t-62 208.5q0 79 23 155
t66.5 135.5t107 95.5t143.5 36q89 0 149.5 -43.5t83.5 -126.5z" />
    <glyph glyph-name="D" unicode="D" horiz-adv-x="677" 
d="M23 0l145 680h151q73 0 133.5 -12t104 -41t67 -77.5t23.5 -120.5q0 -55 -11.5 -111.5t-34 -107t-56 -92.5t-78.5 -69q-29 -17 -55 -26.5t-53.5 -14.5t-58.5 -6.5t-69 -1.5h-208zM98 55h138q63 0 112 8.5t92 37.5q38 25 65 65.5t44.5 86t25.5 92t8 84.5q0 106 -75 157
q-21 14 -45.5 22t-50.5 11.5t-54.5 4.5t-57.5 1h-81z" />
    <glyph glyph-name="E" unicode="E" horiz-adv-x="582" 
d="M489 0h-466l145 680h446l-12 -55h-383l-53 -247h347l-11 -55h-347l-58 -268h404z" />
    <glyph glyph-name="F" unicode="F" horiz-adv-x="542" 
d="M23 0l145 680h433l-12 -55h-370l-53 -247h337l-12 -56h-336l-69 -322h-63z" />
    <glyph glyph-name="G" unicode="G" horiz-adv-x="662" 
d="M311 44q50 0 92 17t76 53q26 29 45 68t33 100l1 6h-243l12 56h297l-73 -344h-58l22 97l-1 1q-12 -18 -30.5 -37t-44.5 -35.5t-60.5 -27t-78.5 -10.5q-120 0 -182 73.5t-62 208.5q0 79 23 155t66.5 135.5t107 95.5t143.5 36q89 0 149.5 -43.5t83.5 -126.5l-57 -36
q-15 70 -59.5 110t-122.5 40q-68 0 -119 -34t-84.5 -86.5t-50 -117t-16.5 -124.5q0 -52 11.5 -94.5t35 -72.5t59.5 -46.5t85 -16.5z" />
    <glyph glyph-name="H" unicode="H" horiz-adv-x="693" 
d="M550 0h-63l69 322h-401l-69 -322h-63l145 680h63l-64 -301h401l64 301h62z" />
    <glyph glyph-name="I" unicode="I" horiz-adv-x="230" 
d="M231 680l-145 -680h-63l145 680h63z" />
    <glyph glyph-name="J" unicode="J" horiz-adv-x="486" 
d="M490 680l-96 -454q-10 -46 -20.5 -82.5t-27.5 -66.5q-24 -42 -65 -67t-112 -25q-88 0 -134 40.5t-46 120.5v13.5t2 20.5l65 25q-2 -13 -3.5 -24t-1.5 -23q0 -52 28.5 -86t92.5 -34q51 0 80.5 22t46.5 60q10 20 17 45t13 55l99 460h62z" />
    <glyph glyph-name="K" unicode="K" horiz-adv-x="625" 
d="M562 0h-73l-173 366l-182 -155l-45 -211h-65l144 680h66l-83 -384l451 384h92l-327 -274z" />
    <glyph glyph-name="L" unicode="L" horiz-adv-x="527" 
d="M459 0h-436l145 680h62l-133 -625h374z" />
    <glyph glyph-name="M" unicode="M" horiz-adv-x="796" 
d="M590 0l88 416l11.5 49t13.5 52.5l13 47l9 32.5h-1l-32.5 -60t-51.5 -89l-276 -448h-44l-96 440q-11 48 -16 86.5t-7 64.5h-1q-1 -12 -3.5 -31l-5.5 -41.5t-7.5 -47l-8.5 -46.5l-90 -425h-62l145 680h67l104 -486q8 -34 12.5 -60l7.5 -44h1q10 20 25 46.5l37 62.5l296 481
h79l-145 -680h-62z" />
    <glyph glyph-name="N" unicode="N" horiz-adv-x="707" 
d="M494 0l-244 511q-14 29 -24.5 55t-13.5 36h-1q-2 -18 -5.5 -39t-11.5 -58l-108 -505h-63l145 680h69l246 -511q14 -29 22.5 -49l14.5 -34h1q1 9 2.5 17.5t3.5 18.5l4.5 23t6.5 31l107 504h63l-145 -680h-69z" />
    <glyph glyph-name="O" unicode="O" horiz-adv-x="679" 
d="M401 692q56 0 101.5 -18t78 -52.5t50 -85t17.5 -114.5q0 -79 -21.5 -157t-64.5 -139.5t-108 -99.5t-153 -38q-122 0 -184 74.5t-62 207.5q0 79 23.5 155t67.5 135.5t108.5 95.5t146.5 36zM310 44q45 0 83 16t68.5 44t53.5 64.5t38 77.5t22.5 83.5t7.5 82.5q0 102 -48 163
t-143 61q-67 0 -117.5 -34t-85 -86.5t-52 -117t-17.5 -124.5q0 -52 11.5 -94.5t35 -72.5t59 -46.5t84.5 -16.5z" />
    <glyph glyph-name="P" unicode="P" horiz-adv-x="609" 
d="M363 356q57 0 88 7t53 22q28 19 45.5 51.5t17.5 82.5q0 40 -19 62t-49 33q-20 7 -46 9t-52 2h-183l-57 -269h202zM149 300l-64 -300h-62l145 680h237q58 0 91.5 -7t59.5 -21q31 -17 51.5 -48.5t20.5 -79.5q0 -66 -27 -116.5t-78 -78.5q-27 -14 -64 -21.5t-102 -7.5h-208z
" />
    <glyph glyph-name="Q" unicode="Q" horiz-adv-x="687" 
d="M401 692q56 0 101.5 -18t78 -52.5t50 -85t17.5 -114.5q0 -88 -26 -173.5t-80 -149.5l63 -81l-51 -39l-58 76q-38 -32 -86.5 -49.5t-108.5 -17.5q-122 0 -184 74.5t-62 207.5q0 79 23.5 155t67.5 135.5t108.5 95.5t146.5 36zM310 44q45 0 83 16t68.5 44t53.5 64.5t38 77.5
t22.5 83.5t7.5 82.5q0 102 -48 163t-143 61q-67 0 -117.5 -34t-85 -86.5t-52 -117t-17.5 -124.5q0 -52 11.5 -94.5t35 -72.5t59 -46.5t84.5 -16.5z" />
    <glyph glyph-name="R" unicode="R" horiz-adv-x="638" 
d="M149 300l-64 -300h-62l145 680h237q58 0 91.5 -7t59.5 -21q31 -17 51.5 -48.5t20.5 -79.5q0 -66 -27 -116.5t-78 -78.5q-18 -10 -41 -16.5t-55 -9.5l119 -303h-68l-114 300h-215zM363 356q57 0 88 7t53 22q28 19 45.5 51.5t17.5 82.5q0 40 -19 62t-49 33q-20 7 -46 9
t-52 2h-183l-57 -269h202z" />
    <glyph glyph-name="S" unicode="S" horiz-adv-x="583" 
d="M510 528q-23 46 -71 77t-121 31q-35 0 -64.5 -7.5t-51.5 -22t-34.5 -36.5t-12.5 -52q0 -29 9.5 -48.5t26 -33.5t40 -24t50.5 -20l95 -35q30 -11 58 -24.5t50 -33t35 -46.5t13 -66q0 -51 -19.5 -88t-53 -62t-79 -37t-96.5 -12q-53 0 -96.5 13t-76.5 37t-55.5 57t-34.5 72
l55 35q6 -30 21.5 -58.5t41 -51t62 -36t84.5 -13.5q87 0 134 36t47 99q0 29 -10.5 49t-29 34.5t-43.5 25t-54 21.5l-95 35q-26 9 -51.5 21t-46 30.5t-33.5 46t-13 69.5q0 40 16.5 73.5t46.5 57.5t72.5 37.5t95.5 13.5q48 0 86 -11t68 -28.5t51 -40t34 -46.5z" />
    <glyph glyph-name="T" unicode="T" horiz-adv-x="526" 
d="M98 680h500l-12 -55h-219l-133 -625h-62l133 625h-219z" />
    <glyph glyph-name="U" unicode="U" horiz-adv-x="669" 
d="M291 -13q-115 0 -171.5 52.5t-56.5 144.5q0 18 3.5 41.5t8.5 49.5l87 405h62l-85 -401q-5 -25 -9 -47.5t-4 -42.5q0 -146 172 -146q48 0 84.5 11.5t64.5 37.5q26 24 43 59.5t31 95.5l92 433h62l-90 -425q-15 -69 -37 -120t-57 -84q-34 -32 -82.5 -48t-117.5 -16z" />
    <glyph glyph-name="V" unicode="V" horiz-adv-x="579" 
d="M185 0l-90 680h65l68 -522q4 -27 6 -46t5 -39h1q11 23 21 42t24 42l297 523h69l-389 -680h-77z" />
    <glyph glyph-name="W" unicode="W" horiz-adv-x="884" 
d="M548 0l-35 406q-2 21 -4 46.5l-4 49.5t-3 44t-1 30h-1q-4 -10 -13.5 -31l-21.5 -46l-24.5 -50.5l-22.5 -44.5l-205 -404h-57l-55 680h62l34 -403q1 -18 3.5 -43t4 -49t3 -44.5t1.5 -30.5h1q4 10 13 29.5l20.5 43.5l23.5 49t23 45l202 403h59l37 -403q1 -18 3.5 -43
t4 -49.5t3 -45t1.5 -30.5h1q4 10 13 29.5l20 43l23.5 48.5l22.5 45l200 405h66l-340 -680h-58z" />
    <glyph glyph-name="X" unicode="X" horiz-adv-x="590" 
d="M462 0l-157 312l-288 -312h-79l339 365l-160 315h69l137 -275l251 275h77l-302 -322l183 -358h-70z" />
    <glyph glyph-name="Y" unicode="Y" horiz-adv-x="568" 
d="M187 0l60 280l-161 400h67l138 -338l283 338h76l-340 -400l-60 -280h-63z" />
    <glyph glyph-name="Z" unicode="Z" horiz-adv-x="558" 
d="M472 0h-511l9 41l537 584h-391l12 55h480l-10 -45l-532 -580h418z" />
    <glyph glyph-name="bracketleft" unicode="[" horiz-adv-x="270" 
d="M148 -158h-167l178 838h168l-10 -48h-109l-158 -742h109z" />
    <glyph glyph-name="backslash" unicode="\" horiz-adv-x="385" 
d="M237 0l-125 680h59l125 -680h-59z" />
    <glyph glyph-name="bracketright" unicode="]" horiz-adv-x="270" 
d="M113 680h167l-178 -838h-168l10 48h109l158 742h-109z" />
    <glyph glyph-name="asciicircum" unicode="^" horiz-adv-x="459" 
d="M448 342h-63l-72 289h-1l-200 -289h-70l256 358h54z" />
    <glyph glyph-name="underscore" unicode="_" horiz-adv-x="731" 
d="M537 -148h-525l10 56h526z" />
    <glyph glyph-name="grave" unicode="`" horiz-adv-x="469" 
d="M296 680l94 -128h-56l-132 128h94z" />
    <glyph glyph-name="a" unicode="a" horiz-adv-x="481" 
d="M341 254q-10 -6 -30 -10t-48 -9l-50 -9q-28 -5 -53.5 -12t-45 -18.5t-31.5 -29.5t-12 -45q0 -45 27.5 -64t69.5 -19q25 0 49.5 6.5t44.5 21t35.5 37.5t22.5 55zM63 342q4 40 23 67.5t46.5 44.5t61 25t68.5 8q32 0 60.5 -6t49.5 -19.5t33.5 -36t12.5 -56.5q0 -13 -2 -27
t-5 -28l-46 -216q-4 -19 -4 -30q0 -14 6.5 -21t23.5 -7q12 0 22 3t16 7l-10 -47q-7 -4 -20.5 -7t-28.5 -3q-29 0 -47 12.5t-18 38.5q0 10 3 22l-1 1q-20 -35 -58.5 -57t-95.5 -22q-62 0 -101.5 32.5t-39.5 94.5q0 38 14 65t39.5 45t61.5 29t81 19l111 19q20 4 27.5 11
t10.5 21l3.5 19.5t1.5 18.5q0 15 -5 28.5t-17 24t-32.5 17t-52.5 6.5q-67 0 -100 -31t-38 -78z" />
    <glyph glyph-name="b" unicode="b" horiz-adv-x="530" 
d="M212 680l-37 -171q-5 -19 -8.5 -38.5t-7.5 -35.5l-8 -37h1q21 38 63 63.5t95 25.5q78 0 125 -50t47 -141q0 -60 -17 -115.5t-48.5 -98.5t-77.5 -68.5t-103 -25.5q-35 0 -61 10t-44 25.5t-28.5 35.5t-14.5 41l-21 -100h-59l146 680h58zM293 436q-47 0 -81 -24t-56.5 -61
t-33.5 -80.5t-11 -83.5q0 -67 30.5 -107.5t96.5 -40.5q44 0 78.5 23t58 58.5t35.5 79t12 84.5q0 69 -31 110.5t-98 41.5z" />
    <glyph glyph-name="c" unicode="c" horiz-adv-x="481" 
d="M402 323q-5 20 -13.5 40.5t-23.5 36.5t-37.5 26t-55.5 10q-45 0 -79 -23t-57 -58t-34.5 -78.5t-11.5 -83.5q0 -70 31.5 -111.5t96.5 -41.5q32 0 57.5 10.5t44.5 27t32.5 36t22.5 37.5l46 -31q-31 -58 -81 -95t-126 -37q-92 0 -138 53t-46 144q0 57 16.5 111.5t48 97
t78 68t105.5 25.5q70 0 116 -36.5t61 -99.5z" />
    <glyph glyph-name="d" unicode="d" horiz-adv-x="531" 
d="M547 680l-145 -680h-59l18 78h-1q-21 -38 -63.5 -64t-95.5 -26q-78 0 -125 50t-47 141q0 60 17 115.5t48.5 98.5t77.5 68.5t103 25.5q35 0 61 -10t44 -25.5t28.5 -35.5t14.5 -41l65 305h59zM218 39q46 0 80.5 24t57 60.5t33.5 80.5t11 84q0 67 -30.5 107.5t-96.5 40.5
q-44 0 -78.5 -23t-58 -58.5t-35.5 -79t-12 -84.5q0 -69 31 -110.5t98 -41.5z" />
    <glyph glyph-name="e" unicode="e" 
d="M93 234q-3 -21 -3 -43q0 -30 7 -57t22.5 -48t41 -33.5t63.5 -12.5q37 0 64 11.5t47 28t33.5 35.5t22.5 35l45 -31q-13 -23 -31 -46.5t-44.5 -42t-61 -30.5t-80.5 -12q-94 0 -141.5 52t-47.5 154q0 58 18.5 111t51.5 93.5t79 64.5t102 24q46 0 79 -15t54 -40t30.5 -58.5
t9.5 -70.5q0 -16 -2 -34.5t-6 -34.5h-353zM275 437q-34 0 -62.5 -14t-50 -36t-36.5 -50t-22 -55h287q1 7 1.5 14t0.5 15q0 24 -6 46.5t-19.5 40.5t-36.5 28.5t-56 10.5z" />
    <glyph glyph-name="f" unicode="f" horiz-adv-x="308" 
d="M322 427h-108l-91 -427h-59l91 427h-108l10 49h108l23 109q7 30 16 48.5t23 30.5q17 16 38.5 22t44.5 6q20 0 37.5 -3.5t28.5 -7.5l-12 -54q-11 5 -24.5 8.5t-29.5 3.5q-29 0 -43 -14t-21 -47l-22 -102h108z" />
    <glyph glyph-name="g" unicode="g" horiz-adv-x="532" 
d="M220 46q46 0 80.5 23t56.5 58.5t33 78t11 82.5q0 67 -30.5 107.5t-96.5 40.5q-44 0 -78.5 -21.5t-57.5 -55.5t-35 -76t-12 -83q0 -69 31 -111.5t98 -42.5zM363 85q-21 -38 -64 -64t-96 -26q-78 0 -125 51t-47 142q0 59 17 113t48.5 95.5t76.5 66t100 24.5q35 0 61.5 -10
t45 -25.5t29.5 -35.5t15 -41l21 101h59l-92 -439q-13 -61 -28.5 -102.5t-40.5 -70.5q-27 -31 -67.5 -46.5t-99.5 -15.5q-50 0 -84.5 12.5t-55.5 33t-30.5 46t-9.5 51.5v10t1 10l58 18q-1 -6 -1 -11.5v-10.5q0 -109 126 -109q48 0 77.5 14.5t47.5 40t28.5 59t19.5 71.5
q2 6 3.5 14t3.5 16l4 18h-1z" />
    <glyph glyph-name="h" unicode="h" 
d="M211 680l-59 -283q9 18 25.5 34t38.5 28.5t47 20t52 7.5q64 0 98 -34.5t34 -92.5q0 -15 -3 -37t-8 -45l-59 -278h-59l54 255q7 30 10.5 53.5t3.5 42.5q0 81 -92 81q-35 0 -63.5 -15t-50.5 -39t-36 -53.5t-20 -58.5l-56 -266h-59l144 680h58z" />
    <glyph glyph-name="i" unicode="i" horiz-adv-x="197" 
d="M68 0h-59l101 476h59zM192 582h-59l20 98h59z" />
    <glyph glyph-name="j" unicode="j" horiz-adv-x="196" 
d="M169 476l-104 -485l-15 -68t-11.5 -45t-12.5 -30t-17 -22q-16 -16 -37.5 -22t-44.5 -6q-24 0 -44 6t-34 14l13 57q14 -11 30 -17t36 -6q34 0 46.5 23t23.5 77l112 524h59zM192 582h-59l21 98h59z" />
    <glyph glyph-name="k" unicode="k" horiz-adv-x="488" 
d="M213 680l-95 -444l300 240h90l-229 -177l141 -299h-68l-121 261l-129 -100l-34 -161h-59l144 680h60z" />
    <glyph glyph-name="l" unicode="l" horiz-adv-x="208" 
d="M218 680l-145 -680h-59l145 680h59z" />
    <glyph glyph-name="m" unicode="m" horiz-adv-x="774" 
d="M359 0h-59l54 255q7 32 10.5 54.5t3.5 41.5q0 38 -18.5 59.5t-60.5 21.5q-31 0 -58 -14t-48.5 -37t-36.5 -52t-21 -60l-57 -269h-59l101 476h59l-17 -79q9 17 25.5 33.5t37.5 29t45 20t48 7.5q54 0 83 -26.5t36 -72.5q10 17 27 34.5t39.5 32t49.5 23.5t56 9q57 0 89 -32
t32 -90q0 -15 -3 -39.5t-8 -47.5l-59 -278h-59l54 255q7 32 10.5 54.5t3.5 41.5q0 38 -19 59.5t-60 21.5q-29 0 -54.5 -12t-46 -32.5t-36 -47t-23.5 -55.5z" />
    <glyph glyph-name="n" unicode="n" 
d="M377 0h-59l54 255q7 30 10.5 53.5t3.5 42.5q0 81 -92 81q-35 0 -63.5 -15t-50.5 -39t-36 -53.5t-20 -58.5l-56 -266h-59l101 476h59l-17 -79q9 18 25.5 34t38.5 28.5t47 20t52 7.5q64 0 98 -34.5t34 -92.5q0 -15 -3 -37t-8 -45z" />
    <glyph glyph-name="o" unicode="o" horiz-adv-x="517" 
d="M29 185q0 56 16.5 110t48.5 97t80 69t110 26q87 0 135.5 -53t48.5 -145q0 -55 -16 -109t-48 -96.5t-80 -69t-111 -26.5q-87 0 -135.5 52.5t-48.5 144.5zM277 437q-46 0 -81 -22.5t-58.5 -57.5t-35.5 -78.5t-12 -86.5q0 -73 34.5 -113t94.5 -40q47 0 82 23t58.5 58.5
t35.5 79.5t12 86q0 72 -34.5 111.5t-95.5 39.5z" />
    <glyph glyph-name="p" unicode="p" horiz-adv-x="531" 
d="M-31 -190l141 666h59l-18 -79h1q21 38 63.5 64t95.5 26q78 0 125 -50t47 -141q0 -60 -17 -115.5t-48.5 -98.5t-77.5 -68.5t-103 -25.5q-35 0 -61 10t-44 25.5t-28.5 35.5t-14.5 41l-61 -290h-59zM294 436q-46 0 -80 -24t-56.5 -61t-33.5 -80.5t-11 -83.5q0 -67 30 -107.5
t96 -40.5q44 0 78.5 23t58 58.5t35.5 79t12 84.5q0 69 -31 110.5t-98 41.5z" />
    <glyph glyph-name="q" unicode="q" horiz-adv-x="531" 
d="M302 -190l59 268h-1q-21 -38 -63.5 -64t-95.5 -26q-78 0 -125 50t-47 141q0 60 17 115.5t48.5 98.5t77.5 68.5t103 25.5q35 0 61 -10t44 -25.5t28.5 -35.5t14.5 -41l21 101h59l-142 -666h-59zM218 39q46 0 80.5 24t57 60.5t33.5 80.5t11 84q0 67 -30.5 107.5t-96.5 40.5
q-44 0 -78.5 -23t-58 -58.5t-35.5 -79t-12 -84.5q0 -69 31 -110.5t98 -41.5z" />
    <glyph glyph-name="r" unicode="r" horiz-adv-x="324" 
d="M332 423q-9 2 -18.5 3t-17.5 1q-33 0 -61.5 -13.5t-51 -35.5t-37.5 -50.5t-21 -58.5l-57 -269h-59l101 476h59l-20 -92q10 19 26 37.5t37 33t46 23.5t52 9q8 0 17.5 -1t17.5 -3z" />
    <glyph glyph-name="s" unicode="s" horiz-adv-x="442" 
d="M352 355q-17 36 -48 59t-82 23q-43 0 -72.5 -19.5t-29.5 -58.5q0 -17 5.5 -29t15.5 -20.5t24.5 -15t33.5 -13.5l65 -24q22 -8 42.5 -17.5t36.5 -23.5t25.5 -33.5t9.5 -47.5q0 -36 -14 -63.5t-38 -46t-56.5 -28t-69.5 -9.5q-78 0 -128 36.5t-70 97.5l51 32
q38 -116 151 -116q45 0 77.5 21.5t32.5 66.5q0 35 -22 50.5t-64 30.5l-67 25q-16 6 -34 14t-33.5 21.5t-25.5 33.5t-10 49q0 33 14 59t37 43t53 26t63 9q57 0 103 -23t72 -75z" />
    <glyph glyph-name="t" unicode="t" horiz-adv-x="303" 
d="M50 476h96l40 179l61 12l-42 -191h114l-10 -49h-114l-67 -311q-6 -27 -6 -40q0 -32 34 -32q36 0 77 22l-12 -58q-18 -8 -42 -13t-47 -5q-73 0 -73 60q0 16 6 46l71 331h-96z" />
    <glyph glyph-name="u" unicode="u" horiz-adv-x="496" 
d="M105 476h59l-54 -256q-14 -62 -14 -97q0 -40 20.5 -60t67.5 -20q35 0 63.5 15t50 39t35.5 53.5t20 58.5l56 267h59l-101 -476h-59l17 78q-9 -18 -25 -34t-37.5 -28.5t-47 -20t-52.5 -7.5q-61 0 -94.5 33.5t-33.5 90.5q0 15 3 38.5t8 46.5z" />
    <glyph glyph-name="v" unicode="v" horiz-adv-x="436" 
d="M180 0h-52l-70 476h62l42 -312l7 -50t4 -29h1q4 8 17 31.5t32 54.5l181 305h63z" />
    <glyph glyph-name="w" unicode="w" horiz-adv-x="688" 
d="M438 188q3 -29 5 -58t4 -46h1l10 20.5l13.5 27.5l15 30.5t15.5 30.5l148 283h60l-253 -476h-56l-27 306q-2 30 -3 53.5t-2 33.5h-1q-4 -9 -16.5 -33.5l-27.5 -54.5l-156 -305h-53l-59 476h59l33 -286q4 -29 6.5 -58.5t4.5 -46.5h1l22 46.5t30 59.5l147 285h51z" />
    <glyph glyph-name="x" unicode="x" horiz-adv-x="445" 
d="M372 0h-67l-98 202l-186 -202h-72l235 250l-114 226h67l89 -186l172 186h69l-218 -235z" />
    <glyph glyph-name="y" unicode="y" horiz-adv-x="445" 
d="M164 159l12 -83h1l18.5 33l31.5 53l187 314h63l-327 -540l-31 -51t-28 -40q-20 -24 -42 -35.5t-54 -11.5q-25 0 -39.5 6.5t-21.5 11.5l11 56q11 -9 24.5 -15t30.5 -6q29 0 47 21q7 8 15.5 20t22.5 36l43 74l-69 474h61z" />
    <glyph glyph-name="z" unicode="z" horiz-adv-x="405" 
d="M317 0h-347l8 40l339 387h-244l10 49h321l-8 -39l-340 -387h272z" />
    <glyph glyph-name="braceleft" unicode="{" horiz-adv-x="270" 
d="M82 283q29 -14 41.5 -35t12.5 -52q0 -24 -6 -54l-34 -161q-4 -17 -6.5 -30.5t-2.5 -24.5q0 -22 14 -31.5t51 -9.5h6l-9 -43q-7 0 -13 -0.5t-12 -0.5q-56 0 -78 17t-22 55q0 19 5 43.5t12 53.5l25 111q13 53 13 85q0 23 -10.5 38t-39.5 24l10 40q25 3 40.5 10.5t25.5 22.5
t16 39t13 60l24 122q7 38 17.5 61.5t25 36.5t34.5 17.5t47 4.5h19.5t21.5 -2l-9 -43h-26q-19 0 -30.5 -4.5t-19.5 -16t-13.5 -30.5t-11.5 -48l-23 -114q-6 -32 -13 -55t-18.5 -40t-30 -28t-46.5 -18z" />
    <glyph glyph-name="bar" unicode="|" horiz-adv-x="258" 
d="M154 -158h-59v838h59v-838z" />
    <glyph glyph-name="braceright" unicode="}" horiz-adv-x="269" 
d="M183 258q-29 14 -41.5 35t-12.5 52q0 24 6 54l30 142q4 17 6.5 30.5t2.5 24.5q0 22 -14 31.5t-51 9.5h-6l9 43h8q4 0 8 0.5t9 0.5q56 0 78 -17t22 -55q0 -19 -5 -43.5t-12 -53.5l-21 -92q-13 -53 -13 -85q0 -23 10.5 -38t39.5 -24l-10 -40q-26 -3 -41 -10.5t-25 -22.5
t-16 -39t-13 -60l-28 -142q-8 -38 -18 -61.5t-24.5 -36.5t-34.5 -17.5t-47 -4.5h-19.5t-21.5 2l9 43h26q19 0 30.5 4.5t19.5 15.5t13.5 30.5t11.5 48.5l27 134q6 31 13 54.5t18.5 40.5t29.5 28t47 18z" />
    <glyph glyph-name="asciitilde" unicode="~" horiz-adv-x="540" 
d="M501 299q-25 -31 -56.5 -54t-69.5 -23q-23 0 -43.5 6.5t-54.5 23.5l-41 20q-15 7 -33.5 13t-38.5 6q-14 0 -25 -3.5t-20.5 -11t-20.5 -19.5t-25 -29l-31 47l16 23t25 27t35 22t46 9t49.5 -8.5t48.5 -19.5l47 -22q25 -11 38.5 -16t27.5 -5q17 0 31 6t26 15.5t22 20.5
t18 21z" />
    <glyph glyph-name="Adieresis" unicode="&#xc4;" horiz-adv-x="599" 
d="M20 0h-69l403 680h64l115 -680h-65l-33 205h-295zM386 515q-5 28 -8 50.5l-6 44.5h-1l-21 -41.5t-24 -42.5l-155 -266h255zM294 859h62l-19 -91h-62zM481 859h62l-19 -91h-62z" />
    <glyph glyph-name="Aring" unicode="&#xc5;" horiz-adv-x="599" 
d="M20 0h-69l403 680h64l115 -680h-65l-33 205h-295zM386 515q-5 28 -8 50.5l-6 44.5h-1l-21 -41.5t-24 -42.5l-155 -266h255zM339 819q0 34 24 57.5t58 23.5t58 -23.5t24 -57.5t-24 -57.5t-58 -23.5t-58 23.5t-24 57.5zM377 819q0 -18 13 -30.5t30 -12.5t30 12.5t13 30.5
t-13 30.5t-30 12.5t-30 -12.5t-13 -30.5z" />
    <glyph glyph-name="Ccedilla" unicode="&#xc7;" horiz-adv-x="627" 
d="M572 486q-15 70 -59.5 110t-122.5 40q-68 0 -119 -34t-84.5 -86.5t-50 -117t-16.5 -124.5q0 -52 11.5 -94.5t35 -72.5t59.5 -46.5t85 -16.5q38 0 70.5 11.5t60.5 31.5t50 48t39 60l48 -36q-21 -37 -48 -68t-61 -53.5t-74.5 -35.5t-88.5 -14l-31 -33q3 1 6.5 1h6.5
q29 0 49 -16.5t20 -46.5q0 -41 -31.5 -63.5t-76.5 -22.5q-26 0 -51 9l15 28q14 -5 31 -5q24 0 43.5 10.5t19.5 35.5q0 20 -15 28.5t-33 8.5q-15 0 -31 -7l-13 23l49 52q-104 11 -156.5 83t-52.5 197q0 79 23 155t66.5 135.5t107 95.5t143.5 36q89 0 149.5 -43.5t83.5 -126.5
z" />
    <glyph glyph-name="Eacute" unicode="&#xc9;" horiz-adv-x="582" 
d="M489 0h-466l145 680h446l-12 -55h-383l-53 -247h347l-11 -55h-347l-58 -268h404zM330 753l102 136h96l-142 -136h-56z" />
    <glyph glyph-name="Ntilde" unicode="&#xd1;" horiz-adv-x="707" 
d="M618 857q-7 -15 -15.5 -31t-19.5 -29t-25.5 -21.5t-33.5 -8.5t-38.5 8t-38.5 18q-17 8 -30.5 15t-24.5 7q-22 0 -32 -16t-15 -31l-42 9l11 24.5t18.5 30t28 25t38.5 10.5q17 0 33.5 -7t33.5 -15l32 -15.5t30 -7.5q22 0 33 14.5t16 30.5zM494 0l-244 511q-14 29 -24.5 55
t-13.5 36h-1q-2 -18 -5.5 -39t-11.5 -58l-108 -505h-63l145 680h69l246 -511q14 -29 22.5 -49l14.5 -34h1q1 9 2.5 17.5t3.5 18.5l4.5 23t6.5 31l107 504h63l-145 -680h-69z" />
    <glyph glyph-name="Odieresis" unicode="&#xd6;" horiz-adv-x="679" 
d="M401 692q56 0 101.5 -18t78 -52.5t50 -85t17.5 -114.5q0 -79 -21.5 -157t-64.5 -139.5t-108 -99.5t-153 -38q-122 0 -184 74.5t-62 207.5q0 79 23.5 155t67.5 135.5t108.5 95.5t146.5 36zM310 44q45 0 83 16t68.5 44t53.5 64.5t38 77.5t22.5 83.5t7.5 82.5q0 102 -48 163
t-143 61q-67 0 -117.5 -34t-85 -86.5t-52 -117t-17.5 -124.5q0 -52 11.5 -94.5t35 -72.5t59 -46.5t84.5 -16.5zM306 859h62l-19 -91h-62zM493 859h62l-19 -91h-62z" />
    <glyph glyph-name="Udieresis" unicode="&#xdc;" horiz-adv-x="669" 
d="M291 -13q-115 0 -171.5 52.5t-56.5 144.5q0 18 3.5 41.5t8.5 49.5l87 405h62l-85 -401q-5 -25 -9 -47.5t-4 -42.5q0 -146 172 -146q48 0 84.5 11.5t64.5 37.5q26 24 43 59.5t31 95.5l92 433h62l-90 -425q-15 -69 -37 -120t-57 -84q-34 -32 -82.5 -48t-117.5 -16zM332 859
h62l-19 -91h-62zM519 859h62l-19 -91h-62z" />
    <glyph glyph-name="aacute" unicode="&#xe1;" horiz-adv-x="481" 
d="M341 254q-10 -6 -30 -10t-48 -9l-50 -9q-28 -5 -53.5 -12t-45 -18.5t-31.5 -29.5t-12 -45q0 -45 27.5 -64t69.5 -19q25 0 49.5 6.5t44.5 21t35.5 37.5t22.5 55zM63 342q4 40 23 67.5t46.5 44.5t61 25t68.5 8q32 0 60.5 -6t49.5 -19.5t33.5 -36t12.5 -56.5q0 -13 -2 -27
t-5 -28l-46 -216q-4 -19 -4 -30q0 -14 6.5 -21t23.5 -7q12 0 22 3t16 7l-10 -47q-7 -4 -20.5 -7t-28.5 -3q-29 0 -47 12.5t-18 38.5q0 10 3 22l-1 1q-20 -35 -58.5 -57t-95.5 -22q-62 0 -101.5 32.5t-39.5 94.5q0 38 14 65t39.5 45t61.5 29t81 19l111 19q20 4 27.5 11
t10.5 21l3.5 19.5t1.5 18.5q0 15 -5 28.5t-17 24t-32.5 17t-52.5 6.5q-67 0 -100 -31t-38 -78zM423 680l-132 -128h-56l94 128h94z" />
    <glyph glyph-name="agrave" unicode="&#xe0;" horiz-adv-x="481" 
d="M341 254q-10 -6 -30 -10t-48 -9l-50 -9q-28 -5 -53.5 -12t-45 -18.5t-31.5 -29.5t-12 -45q0 -45 27.5 -64t69.5 -19q25 0 49.5 6.5t44.5 21t35.5 37.5t22.5 55zM63 342q4 40 23 67.5t46.5 44.5t61 25t68.5 8q32 0 60.5 -6t49.5 -19.5t33.5 -36t12.5 -56.5q0 -13 -2 -27
t-5 -28l-46 -216q-4 -19 -4 -30q0 -14 6.5 -21t23.5 -7q12 0 22 3t16 7l-10 -47q-7 -4 -20.5 -7t-28.5 -3q-29 0 -47 12.5t-18 38.5q0 10 3 22l-1 1q-20 -35 -58.5 -57t-95.5 -22q-62 0 -101.5 32.5t-39.5 94.5q0 38 14 65t39.5 45t61.5 29t81 19l111 19q20 4 27.5 11
t10.5 21l3.5 19.5t1.5 18.5q0 15 -5 28.5t-17 24t-32.5 17t-52.5 6.5q-67 0 -100 -31t-38 -78zM252 680l94 -128h-56l-132 128h94z" />
    <glyph glyph-name="acircumflex" unicode="&#xe2;" horiz-adv-x="481" 
d="M341 254q-10 -6 -30 -10t-48 -9l-50 -9q-28 -5 -53.5 -12t-45 -18.5t-31.5 -29.5t-12 -45q0 -45 27.5 -64t69.5 -19q25 0 49.5 6.5t44.5 21t35.5 37.5t22.5 55zM63 342q4 40 23 67.5t46.5 44.5t61 25t68.5 8q32 0 60.5 -6t49.5 -19.5t33.5 -36t12.5 -56.5q0 -13 -2 -27
t-5 -28l-46 -216q-4 -19 -4 -30q0 -14 6.5 -21t23.5 -7q12 0 22 3t16 7l-10 -47q-7 -4 -20.5 -7t-28.5 -3q-29 0 -47 12.5t-18 38.5q0 10 3 22l-1 1q-20 -35 -58.5 -57t-95.5 -22q-62 0 -101.5 32.5t-39.5 94.5q0 38 14 65t39.5 45t61.5 29t81 19l111 19q20 4 27.5 11
t10.5 21l3.5 19.5t1.5 18.5q0 15 -5 28.5t-17 24t-32.5 17t-52.5 6.5q-67 0 -100 -31t-38 -78zM159 552l140 128h42l86 -128h-59l-54 77l-88 -77h-67z" />
    <glyph glyph-name="adieresis" unicode="&#xe4;" horiz-adv-x="481" 
d="M341 254q-10 -6 -30 -10t-48 -9l-50 -9q-28 -5 -53.5 -12t-45 -18.5t-31.5 -29.5t-12 -45q0 -45 27.5 -64t69.5 -19q25 0 49.5 6.5t44.5 21t35.5 37.5t22.5 55zM63 342q4 40 23 67.5t46.5 44.5t61 25t68.5 8q32 0 60.5 -6t49.5 -19.5t33.5 -36t12.5 -56.5q0 -13 -2 -27
t-5 -28l-46 -216q-4 -19 -4 -30q0 -14 6.5 -21t23.5 -7q12 0 22 3t16 7l-10 -47q-7 -4 -20.5 -7t-28.5 -3q-29 0 -47 12.5t-18 38.5q0 10 3 22l-1 1q-20 -35 -58.5 -57t-95.5 -22q-62 0 -101.5 32.5t-39.5 94.5q0 38 14 65t39.5 45t61.5 29t81 19l111 19q20 4 27.5 11
t10.5 21l3.5 19.5t1.5 18.5q0 15 -5 28.5t-17 24t-32.5 17t-52.5 6.5q-67 0 -100 -31t-38 -78zM179 657h62l-20 -91h-62zM366 657h62l-20 -91h-62z" />
    <glyph glyph-name="atilde" unicode="&#xe3;" horiz-adv-x="481" 
d="M341 254q-10 -6 -30 -10t-48 -9l-50 -9q-28 -5 -53.5 -12t-45 -18.5t-31.5 -29.5t-12 -45q0 -45 27.5 -64t69.5 -19q25 0 49.5 6.5t44.5 21t35.5 37.5t22.5 55zM63 342q4 40 23 67.5t46.5 44.5t61 25t68.5 8q32 0 60.5 -6t49.5 -19.5t33.5 -36t12.5 -56.5q0 -13 -2 -27
t-5 -28l-46 -216q-4 -19 -4 -30q0 -14 6.5 -21t23.5 -7q12 0 22 3t16 7l-10 -47q-7 -4 -20.5 -7t-28.5 -3q-29 0 -47 12.5t-18 38.5q0 10 3 22l-1 1q-20 -35 -58.5 -57t-95.5 -22q-62 0 -101.5 32.5t-39.5 94.5q0 38 14 65t39.5 45t61.5 29t81 19l111 19q20 4 27.5 11
t10.5 21l3.5 19.5t1.5 18.5q0 15 -5 28.5t-17 24t-32.5 17t-52.5 6.5q-67 0 -100 -31t-38 -78zM449 656q-7 -15 -15.5 -31t-19.5 -29t-25.5 -21.5t-33.5 -8.5t-38.5 8t-38.5 18q-17 8 -30.5 15t-24.5 7q-22 0 -32 -16t-15 -31l-42 9l11 24.5t18.5 30t28 25t38.5 10.5
q17 0 33.5 -7t33.5 -15l32 -15.5t30 -7.5q22 0 33 14.5t16 30.5z" />
    <glyph glyph-name="aring" unicode="&#xe5;" horiz-adv-x="481" 
d="M341 254q-10 -6 -30 -10t-48 -9l-50 -9q-28 -5 -53.5 -12t-45 -18.5t-31.5 -29.5t-12 -45q0 -45 27.5 -64t69.5 -19q25 0 49.5 6.5t44.5 21t35.5 37.5t22.5 55zM63 342q4 40 23 67.5t46.5 44.5t61 25t68.5 8q32 0 60.5 -6t49.5 -19.5t33.5 -36t12.5 -56.5q0 -13 -2 -27
t-5 -28l-46 -216q-4 -19 -4 -30q0 -14 6.5 -21t23.5 -7q12 0 22 3t16 7l-10 -47q-7 -4 -20.5 -7t-28.5 -3q-29 0 -47 12.5t-18 38.5q0 10 3 22l-1 1q-20 -35 -58.5 -57t-95.5 -22q-62 0 -101.5 32.5t-39.5 94.5q0 38 14 65t39.5 45t61.5 29t81 19l111 19q20 4 27.5 11
t10.5 21l3.5 19.5t1.5 18.5q0 15 -5 28.5t-17 24t-32.5 17t-52.5 6.5q-67 0 -100 -31t-38 -78zM216 618q0 34 24 57.5t58 23.5t58 -23.5t24 -57.5t-24 -57.5t-58 -23.5t-58 23.5t-24 57.5zM254 618q0 -18 13 -30.5t30 -12.5t30 12.5t13 30.5t-13 30.5t-30 12.5t-30 -12.5
t-13 -30.5z" />
    <glyph glyph-name="ccedilla" unicode="&#xe7;" horiz-adv-x="481" 
d="M402 323q-5 20 -13.5 40.5t-23.5 36.5t-37.5 26t-55.5 10q-45 0 -79 -23t-57 -58t-34.5 -78.5t-11.5 -83.5q0 -70 31.5 -111.5t96.5 -41.5q32 0 57.5 10.5t44.5 27t32.5 36t22.5 37.5l46 -31q-30 -57 -78.5 -93.5t-120.5 -38.5l-29 -33q3 1 6.5 1h6.5q29 0 49 -16.5
t20 -46.5q0 -41 -31.5 -63.5t-76.5 -22.5q-26 0 -51 9l15 28q14 -5 31 -5q24 0 43.5 10.5t19.5 35.5q0 20 -15 28.5t-33 8.5q-15 0 -31 -7l-9 23l47 52q-77 9 -115.5 60.5t-38.5 134.5q0 57 16.5 111.5t48 97t78 68t105.5 25.5q70 0 116 -36.5t61 -99.5z" />
    <glyph glyph-name="eacute" unicode="&#xe9;" 
d="M93 234q-3 -21 -3 -43q0 -30 7 -57t22.5 -48t41 -33.5t63.5 -12.5q37 0 64 11.5t47 28t33.5 35.5t22.5 35l45 -31q-13 -23 -31 -46.5t-44.5 -42t-61 -30.5t-80.5 -12q-94 0 -141.5 52t-47.5 154q0 58 18.5 111t51.5 93.5t79 64.5t102 24q46 0 79 -15t54 -40t30.5 -58.5
t9.5 -70.5q0 -16 -2 -34.5t-6 -34.5h-353zM275 437q-34 0 -62.5 -14t-50 -36t-36.5 -50t-22 -55h287q1 7 1.5 14t0.5 15q0 24 -6 46.5t-19.5 40.5t-36.5 28.5t-56 10.5zM435 680l-132 -128h-56l94 128h94z" />
    <glyph glyph-name="egrave" unicode="&#xe8;" 
d="M93 234q-3 -21 -3 -43q0 -30 7 -57t22.5 -48t41 -33.5t63.5 -12.5q37 0 64 11.5t47 28t33.5 35.5t22.5 35l45 -31q-13 -23 -31 -46.5t-44.5 -42t-61 -30.5t-80.5 -12q-94 0 -141.5 52t-47.5 154q0 58 18.5 111t51.5 93.5t79 64.5t102 24q46 0 79 -15t54 -40t30.5 -58.5
t9.5 -70.5q0 -16 -2 -34.5t-6 -34.5h-353zM275 437q-34 0 -62.5 -14t-50 -36t-36.5 -50t-22 -55h287q1 7 1.5 14t0.5 15q0 24 -6 46.5t-19.5 40.5t-36.5 28.5t-56 10.5zM271 680l94 -128h-56l-132 128h94z" />
    <glyph glyph-name="ecircumflex" unicode="&#xea;" 
d="M93 234q-3 -21 -3 -43q0 -30 7 -57t22.5 -48t41 -33.5t63.5 -12.5q37 0 64 11.5t47 28t33.5 35.5t22.5 35l45 -31q-13 -23 -31 -46.5t-44.5 -42t-61 -30.5t-80.5 -12q-94 0 -141.5 52t-47.5 154q0 58 18.5 111t51.5 93.5t79 64.5t102 24q46 0 79 -15t54 -40t30.5 -58.5
t9.5 -70.5q0 -16 -2 -34.5t-6 -34.5h-353zM275 437q-34 0 -62.5 -14t-50 -36t-36.5 -50t-22 -55h287q1 7 1.5 14t0.5 15q0 24 -6 46.5t-19.5 40.5t-36.5 28.5t-56 10.5zM157 552l140 128h42l86 -128h-59l-54 77l-88 -77h-67z" />
    <glyph glyph-name="edieresis" unicode="&#xeb;" 
d="M93 234q-3 -21 -3 -43q0 -30 7 -57t22.5 -48t41 -33.5t63.5 -12.5q37 0 64 11.5t47 28t33.5 35.5t22.5 35l45 -31q-13 -23 -31 -46.5t-44.5 -42t-61 -30.5t-80.5 -12q-94 0 -141.5 52t-47.5 154q0 58 18.5 111t51.5 93.5t79 64.5t102 24q46 0 79 -15t54 -40t30.5 -58.5
t9.5 -70.5q0 -16 -2 -34.5t-6 -34.5h-353zM275 437q-34 0 -62.5 -14t-50 -36t-36.5 -50t-22 -55h287q1 7 1.5 14t0.5 15q0 24 -6 46.5t-19.5 40.5t-36.5 28.5t-56 10.5zM189 657h62l-20 -91h-62zM376 657h62l-20 -91h-62z" />
    <glyph glyph-name="iacute" unicode="&#xed;" horiz-adv-x="197" 
d="M68 0h-59l101 475h59zM300 680l-132 -128h-56l94 128h94z" />
    <glyph glyph-name="igrave" unicode="&#xec;" horiz-adv-x="197" 
d="M68 0h-59l101 475h59zM92 680l94 -128h-56l-132 128h94z" />
    <glyph glyph-name="icircumflex" unicode="&#xee;" horiz-adv-x="197" 
d="M68 0h-59l101 475h59zM19 552l140 128h42l86 -128h-59l-54 77l-88 -77h-67z" />
    <glyph glyph-name="idieresis" unicode="&#xef;" horiz-adv-x="197" 
d="M68 0h-59l101 475h59zM54 657h62l-20 -91h-62zM241 657h62l-20 -91h-62z" />
    <glyph glyph-name="ntilde" unicode="&#xf1;" 
d="M377 0h-59l54 255q7 30 10.5 53.5t3.5 42.5q0 81 -92 81q-35 0 -63.5 -15t-50.5 -39t-36 -53.5t-20 -58.5l-56 -266h-59l101 476h59l-17 -79q9 18 25.5 34t38.5 28.5t47 20t52 7.5q64 0 98 -34.5t34 -92.5q0 -15 -3 -37t-8 -45zM479 656q-7 -15 -15.5 -31t-19.5 -29
t-25.5 -21.5t-33.5 -8.5t-38.5 8t-38.5 18q-17 8 -30.5 15t-24.5 7q-22 0 -32 -16t-15 -31l-42 9l11 24.5t18.5 30t28 25t38.5 10.5q17 0 33.5 -7t33.5 -15l32 -15.5t30 -7.5q22 0 33 14.5t16 30.5z" />
    <glyph glyph-name="oacute" unicode="&#xf3;" horiz-adv-x="517" 
d="M29 185q0 56 16.5 110t48.5 97t80 69t110 26q87 0 135.5 -53t48.5 -145q0 -55 -16 -109t-48 -96.5t-80 -69t-111 -26.5q-87 0 -135.5 52.5t-48.5 144.5zM277 437q-46 0 -81 -22.5t-58.5 -57.5t-35.5 -78.5t-12 -86.5q0 -73 34.5 -113t94.5 -40q47 0 82 23t58.5 58.5
t35.5 79.5t12 86q0 72 -34.5 111.5t-95.5 39.5zM438 680l-132 -128h-56l94 128h94z" />
    <glyph glyph-name="ograve" unicode="&#xf2;" horiz-adv-x="517" 
d="M29 185q0 56 16.5 110t48.5 97t80 69t110 26q87 0 135.5 -53t48.5 -145q0 -55 -16 -109t-48 -96.5t-80 -69t-111 -26.5q-87 0 -135.5 52.5t-48.5 144.5zM277 437q-46 0 -81 -22.5t-58.5 -57.5t-35.5 -78.5t-12 -86.5q0 -73 34.5 -113t94.5 -40q47 0 82 23t58.5 58.5
t35.5 79.5t12 86q0 72 -34.5 111.5t-95.5 39.5zM282 680l94 -128h-56l-132 128h94z" />
    <glyph glyph-name="ocircumflex" unicode="&#xf4;" horiz-adv-x="517" 
d="M29 185q0 56 16.5 110t48.5 97t80 69t110 26q87 0 135.5 -53t48.5 -145q0 -55 -16 -109t-48 -96.5t-80 -69t-111 -26.5q-87 0 -135.5 52.5t-48.5 144.5zM277 437q-46 0 -81 -22.5t-58.5 -57.5t-35.5 -78.5t-12 -86.5q0 -73 34.5 -113t94.5 -40q47 0 82 23t58.5 58.5
t35.5 79.5t12 86q0 72 -34.5 111.5t-95.5 39.5zM177 552l140 128h42l86 -128h-59l-54 77l-88 -77h-67z" />
    <glyph glyph-name="odieresis" unicode="&#xf6;" horiz-adv-x="517" 
d="M29 185q0 56 16.5 110t48.5 97t80 69t110 26q87 0 135.5 -53t48.5 -145q0 -55 -16 -109t-48 -96.5t-80 -69t-111 -26.5q-87 0 -135.5 52.5t-48.5 144.5zM277 437q-46 0 -81 -22.5t-58.5 -57.5t-35.5 -78.5t-12 -86.5q0 -73 34.5 -113t94.5 -40q47 0 82 23t58.5 58.5
t35.5 79.5t12 86q0 72 -34.5 111.5t-95.5 39.5zM201 657h62l-20 -91h-62zM388 657h62l-20 -91h-62z" />
    <glyph glyph-name="otilde" unicode="&#xf5;" horiz-adv-x="517" 
d="M29 185q0 56 16.5 110t48.5 97t80 69t110 26q87 0 135.5 -53t48.5 -145q0 -55 -16 -109t-48 -96.5t-80 -69t-111 -26.5q-87 0 -135.5 52.5t-48.5 144.5zM277 437q-46 0 -81 -22.5t-58.5 -57.5t-35.5 -78.5t-12 -86.5q0 -73 34.5 -113t94.5 -40q47 0 82 23t58.5 58.5
t35.5 79.5t12 86q0 72 -34.5 111.5t-95.5 39.5zM482 656q-7 -15 -15.5 -31t-19.5 -29t-25.5 -21.5t-33.5 -8.5t-38.5 8t-38.5 18q-17 8 -30.5 15t-24.5 7q-22 0 -32 -16t-15 -31l-42 9l11 24.5t18.5 30t28 25t38.5 10.5q17 0 33.5 -7t33.5 -15l32 -15.5t30 -7.5
q22 0 33 14.5t16 30.5z" />
    <glyph glyph-name="uacute" unicode="&#xfa;" horiz-adv-x="496" 
d="M105 476h59l-54 -256q-14 -62 -14 -97q0 -40 20.5 -60t67.5 -20q35 0 63.5 15t50 39t35.5 53.5t20 58.5l56 267h59l-101 -476h-59l17 78q-9 -18 -25 -34t-37.5 -28.5t-47 -20t-52.5 -7.5q-61 0 -94.5 33.5t-33.5 90.5q0 15 3 38.5t8 46.5zM428 680l-132 -128h-56l94 128
h94z" />
    <glyph glyph-name="ugrave" unicode="&#xf9;" horiz-adv-x="496" 
d="M105 476h59l-54 -256q-14 -62 -14 -97q0 -40 20.5 -60t67.5 -20q35 0 63.5 15t50 39t35.5 53.5t20 58.5l56 267h59l-101 -476h-59l17 78q-9 -18 -25 -34t-37.5 -28.5t-47 -20t-52.5 -7.5q-61 0 -94.5 33.5t-33.5 90.5q0 15 3 38.5t8 46.5zM267 680l94 -128h-56l-132 128
h94z" />
    <glyph glyph-name="ucircumflex" unicode="&#xfb;" horiz-adv-x="496" 
d="M105 476h59l-54 -256q-14 -62 -14 -97q0 -40 20.5 -60t67.5 -20q35 0 63.5 15t50 39t35.5 53.5t20 58.5l56 267h59l-101 -476h-59l17 78q-9 -18 -25 -34t-37.5 -28.5t-47 -20t-52.5 -7.5q-61 0 -94.5 33.5t-33.5 90.5q0 15 3 38.5t8 46.5zM162 552l140 128h42l86 -128
h-59l-54 77l-88 -77h-67z" />
    <glyph glyph-name="udieresis" unicode="&#xfc;" horiz-adv-x="496" 
d="M105 476h59l-54 -256q-14 -62 -14 -97q0 -40 20.5 -60t67.5 -20q35 0 63.5 15t50 39t35.5 53.5t20 58.5l56 267h59l-101 -476h-59l17 78q-9 -18 -25 -34t-37.5 -28.5t-47 -20t-52.5 -7.5q-61 0 -94.5 33.5t-33.5 90.5q0 15 3 38.5t8 46.5zM197 657h62l-20 -91h-62z
M384 657h62l-20 -91h-62z" />
    <glyph glyph-name="dagger" unicode="&#x2020;" horiz-adv-x="444" 
d="M288 452l-96 -452h-61l96 452h-161l12 57h161l37 171h61l-37 -171h162l-12 -57h-162z" />
    <glyph glyph-name="degree" unicode="&#xb0;" horiz-adv-x="383" 
d="M95 542q0 31 12 58.5t32 47.5t47.5 32t58.5 12t58.5 -12t47.5 -32t32 -47.5t12 -58.5t-12 -58.5t-32 -47.5t-47.5 -32t-58.5 -12t-58.5 12t-47.5 32t-32 47.5t-12 58.5zM153 542q0 -41 25.5 -68t66.5 -27t66.5 27t25.5 68t-25.5 68t-66.5 27t-66.5 -27t-25.5 -68z" />
    <glyph glyph-name="cent" unicode="&#xa2;" horiz-adv-x="490" 
d="M406 323q-8 35 -29 66.5t-66 42.5l-83 -392q31 1 55 12t42.5 27t31.5 35t22 37l46 -31q-31 -58 -81 -95t-126 -37h-1l-21 -101h-52l22 106q-66 14 -99 64.5t-33 127.5q0 56 16 109t46 95t74 68.5t101 28.5l20 94h52l-21 -97q54 -10 89 -44.5t48 -87.5zM94 193
q0 -57 20.5 -95t63.5 -52l82 389q-41 -4 -72 -28t-52 -58.5t-31.5 -75.5t-10.5 -80z" />
    <glyph glyph-name="sterling" unicode="&#xa3;" horiz-adv-x="539" 
d="M493 517v7q0 61 -30.5 88t-76.5 27q-48 0 -76.5 -23t-45 -59t-24.5 -79.5t-14 -83.5l-4 -27h154l-12 -53h-149l-3 -19l-12.5 -72t-18.5 -68t-32 -58.5t-51 -42.5v-1q19 1 46 1.5t79 0.5h230l-11 -55h-459l10 49q31 2 54 10t40.5 27.5t30 52t23.5 82.5q4 17 7 41t7 52
h-107l12 53h103q6 32 11 67t13.5 69t21 65t33.5 55q26 31 63 48.5t86 17.5q75 0 116 -40.5t41 -101.5v-11z" />
    <glyph glyph-name="section" unicode="&#xa7;" horiz-adv-x="490" 
d="M312 163q28 -15 45.5 -40.5t17.5 -64.5q0 -36 -14 -63.5t-38 -46t-56.5 -28t-69.5 -9.5q-76 0 -127 36.5t-71 97.5l51 32q38 -116 151 -116q45 0 77.5 21.5t32.5 66.5q0 35 -25 58.5t-67 43.5l-45 22q-28 13 -50.5 26.5t-38.5 30t-24.5 38.5t-8.5 52q0 33 14.5 58.5
t37 42.5t49 27t51.5 12q-26 17 -40.5 39.5t-14.5 57.5q0 25 11 49t32.5 43t52.5 30t71 11q59 0 106 -25t73 -82l-49 -32q-17 40 -48.5 64.5t-84.5 24.5q-43 0 -72.5 -19.5t-29.5 -58.5q0 -17 6 -30.5t17.5 -24.5t28 -20.5t36.5 -19.5l28 -12l47 -25.5t38.5 -28.5t26.5 -36.5
t10 -48.5q0 -36 -14 -62.5t-34.5 -45t-44.5 -29.5t-44 -16zM264 196q51 8 86.5 38t35.5 74q0 39 -28.5 62t-69.5 40l-37 16q-60 -2 -98 -28.5t-38 -71.5q0 -20 7 -35.5t19.5 -27.5t29 -21l34.5 -18z" />
    <glyph glyph-name="bullet" unicode="&#x2022;" horiz-adv-x="377" 
d="M82 343q0 24 9 45.5t25 37.5t37.5 25t45.5 9t45.5 -9t37.5 -25t25 -37.5t9 -45.5t-9 -45.5t-25 -37.5t-37.5 -25t-45.5 -9t-45.5 9t-37.5 25t-25 37.5t-9 45.5z" />
    <glyph glyph-name="paragraph" unicode="&#xb6;" horiz-adv-x="584" 
d="M255 320q-38 0 -70.5 9.5t-56.5 29t-38 49t-14 70.5q0 94 59 145q16 15 35.5 25.5t46 17.5t62 10.5t83.5 3.5h269l-9 -44h-79l-162 -764h-51l162 764h-111l-162 -764h-51l95 448h-8z" />
    <glyph glyph-name="germandbls" unicode="&#xdf;" horiz-adv-x="472" 
d="M331 409q14 -3 30 -9.5t29 -20t21.5 -35.5t8.5 -58q0 -35 -11 -88q-13 -59 -29.5 -98t-38.5 -63t-49 -34t-61 -10q-32 0 -53 8.5t-33 22.5t-17 33.5t-5 41.5q0 31 8 66l6 26h46l-5 -25q-3 -14 -5.5 -29t-2.5 -29t3 -26.5t10 -22t19 -15t31 -5.5q26 0 44.5 11.5t32 32.5
t23.5 50.5t18 65.5q10 44 10 81q0 60 -32 80t-101 20h-51l9 48h39q48 0 76.5 8.5t49.5 25.5q20 17 31 41t11 59t-23 57.5t-71 22.5t-75 -26q-19 -18 -30.5 -48.5t-21.5 -78.5l-104 -489h-59l107 501q13 58 28 95t46 63q43 36 113 36q66 0 108 -31.5t42 -93.5t-31 -106.5
t-91 -53.5v-1z" />
    <glyph glyph-name="registered" unicode="&#xae;" horiz-adv-x="789" 
d="M322 150h-51v398h163q40 0 63 -7t40 -19q22 -16 32.5 -38.5t10.5 -49.5q0 -26 -9 -46t-24 -35t-34.5 -23.5t-39.5 -11.5l120 -168h-65l-121 167h-85v-167zM421 366q27 0 42.5 2.5t26.5 7.5q16 7 25 22t9 36q0 20 -9.5 34.5t-24.5 21.5q-12 5 -27 7t-42 2h-99v-133h99z
M749 350q0 -72 -26 -134t-72 -108t-108 -72.5t-135 -26.5q-72 0 -134 26.5t-108 72.5t-72 108t-26 134t26 134.5t72 108.5t108 72.5t134 26.5q73 0 135 -26.5t108 -72.5t72 -108.5t26 -134.5zM692 350q0 60 -21.5 113t-59.5 92.5t-90 62.5t-113 23q-60 0 -111.5 -23
t-89.5 -62.5t-59.5 -92.5t-21.5 -113q0 -59 21.5 -111.5t59.5 -91.5t89.5 -62t111.5 -23q61 0 113 23t90 62t59.5 91.5t21.5 111.5z" />
    <glyph glyph-name="copyright" unicode="&#xa9;" horiz-adv-x="789" 
d="M519 422q-14 44 -42 66t-69 22q-55 0 -89 -43t-34 -119t34.5 -117t88.5 -41q40 0 68.5 17.5t45.5 57.5l46 -29q-23 -45 -63 -72t-97 -27q-84 0 -132 56.5t-48 153.5q0 48 12.5 87.5t36 67.5t56.5 43t75 15q60 0 100 -29t60 -80zM749 350q0 -72 -26 -134t-72 -108
t-108 -72.5t-135 -26.5q-72 0 -134 26.5t-108 72.5t-72 108t-26 134t26 134.5t72 108.5t108 72.5t134 26.5q73 0 135 -26.5t108 -72.5t72 -108.5t26 -134.5zM692 350q0 60 -21.5 113t-59.5 92.5t-90 62.5t-113 23q-60 0 -111.5 -23t-89.5 -62.5t-59.5 -92.5t-21.5 -113
q0 -59 21.5 -111.5t59.5 -91.5t89.5 -62t111.5 -23q61 0 113 23t90 62t59.5 91.5t21.5 111.5z" />
    <glyph glyph-name="trademark" unicode="&#x2122;" horiz-adv-x="957" 
d="M719 242h-43l-115 330q-5 13 -9.5 30t-7.5 30q0 -6 0.5 -15.5t0.5 -19v-18.5v-15v-322h-50v438h77l110 -318l17 -53q3 10 6 22t9 31l103 318h79v-438h-50v322v44t1 32l-17 -56zM131 680h326v-47h-138v-390h-50v390h-138v47z" />
    <glyph glyph-name="acute" unicode="&#xb4;" horiz-adv-x="469" 
d="M391 680l-132 -128h-56l94 128h94z" />
    <glyph glyph-name="dieresis" unicode="&#xa8;" horiz-adv-x="469" 
d="M181 657h62l-20 -91h-62zM368 657h62l-20 -91h-62z" />
    <glyph glyph-name="notequal" unicode="&#x2260;" horiz-adv-x="800" 
d="M734 349h-297l-62 -118h359v-56h-388l-92 -175h-63l92 175h-222v56h252l62 118h-314v57h344l100 189h62l-100 -189h267v-57z" />
    <glyph glyph-name="AE" unicode="&#xc6;" horiz-adv-x="908" 
d="M-6 0h-72l562 680h456l-12 -55h-364l-52 -247h329l-12 -55h-329l-57 -268h384l-12 -55h-448l45 206h-248zM474 495q15 71 23.5 104t7.5 33h-1q-17 -26 -45.5 -63.5t-60.5 -75.5l-191 -232h216z" />
    <glyph glyph-name="Oslash" unicode="&#xd8;" horiz-adv-x="691" 
d="M409 692q63 0 112 -22.5t81 -64.5l123 111l38 -43l-132 -119q25 -58 25 -132q0 -79 -21.5 -157t-64.5 -139.5t-108 -99.5t-153 -38q-69 0 -119 24.5t-80 70.5l-116 -105l-39 43l128 116q-20 58 -20 133q0 79 23.5 155t67.5 135.5t108.5 95.5t146.5 36zM318 44q45 0 83 16
t68.5 44t53.5 64.5t38 77.5t22.5 83.5t7.5 82.5q0 26 -3 49.5t-10 44.5l-418 -378q23 -40 62 -62t96 -22zM128 274q0 -49 9 -88l416 375q-23 35 -61 55t-92 20q-67 0 -117.5 -34t-85 -86.5t-52 -117t-17.5 -124.5z" />
    <glyph glyph-name="infinity" unicode="&#x221e;" horiz-adv-x="927" 
d="M887 349q0 -32 -10 -61t-30.5 -51.5t-51 -36t-72.5 -13.5q-37 0 -72 12.5t-67 31.5t-61 42l-54 44l-56.5 -43.5t-61 -43t-65.5 -32.5t-69 -13q-42 0 -71.5 13.5t-48 35.5t-27 50.5t-8.5 58.5q0 71 41 115.5t119 44.5q31 0 60.5 -9.5t59.5 -26.5t62.5 -40.5l69.5 -51.5
q29 20 58 42.5t60.5 41.5t65 31.5t71.5 12.5q40 0 70 -12.5t49.5 -33.5t29 -49t9.5 -59zM829 345q0 53 -29.5 80.5t-77.5 27.5q-26 0 -53.5 -11t-54.5 -27t-52.5 -34.5l-47.5 -34.5l46.5 -34t53.5 -35.5t57 -28t57 -11.5q50 0 75.5 31t25.5 77zM223 237q27 0 55.5 11
t55.5 27.5t51.5 35l45.5 33.5l-48.5 34t-54 35.5t-55.5 28t-52 11.5q-49 0 -76 -30.5t-27 -76.5q0 -51 27.5 -80t77.5 -29z" />
    <glyph glyph-name="plusminus" unicode="&#xb1;" horiz-adv-x="733" 
d="M379 107h-57v216h-265v56h265v214h57v-214h264v-56h-264v-216zM643 0h-586v57h586v-57z" />
    <glyph glyph-name="lessequal" unicode="&#x2264;" horiz-adv-x="793" 
d="M706 0h-643v56h643v-56zM706 91l-643 262v66l643 266v-63l-579 -235l579 -233v-63z" />
    <glyph glyph-name="greaterequal" unicode="&#x2265;" horiz-adv-x="841" 
d="M110 56h643v-56h-643v56zM110 154l579 233l-579 235v63l643 -266v-66l-643 -262v63z" />
    <glyph glyph-name="yen" unicode="&#xa5;" horiz-adv-x="625" 
d="M94 338h158l-140 342h67l139 -333l282 333h76l-294 -342h167l-11 -53h-201l-18 -83h204l-11 -53h-204l-32 -149h-63l32 149h-188l11 53h188l18 83h-191z" />
    <glyph glyph-name="uni03BC" unicode="&#x3bc;" 
d="M-31 -190l141 666h59l-56 -265q-7 -30 -10.5 -50.5t-3.5 -37.5q0 -40 21.5 -60t68.5 -20q35 0 63.5 15t50 39t35.5 53.5t20 58.5l56 267h59l-101 -476h-59l17 78q-21 -41 -66.5 -65.5t-96.5 -24.5q-29 0 -53.5 10t-38.5 33l-47 -221h-59z" />
    <glyph glyph-name="partialdiff" unicode="&#x2202;" horiz-adv-x="494" 
d="M214 669q41 23 93 23q80 0 120 -54t40 -157q0 -37 -6.5 -89.5t-21 -108.5t-36.5 -110t-53 -93q-32 -42 -74.5 -67t-99.5 -25q-42 0 -72 13.5t-49.5 37t-29 54t-9.5 64.5q0 62 20.5 115t54 92t77 61t88.5 22q54 0 89 -27.5t46 -67.5h1q14 76 14 133q0 74 -25 114.5
t-80 40.5q-44 0 -75 -25zM374 285q-2 19 -11 38.5t-24.5 35.5t-37 25.5t-46.5 9.5q-34 0 -65.5 -18t-56 -49.5t-39 -74t-14.5 -90.5q0 -58 27 -89.5t72 -31.5q41 0 73.5 24t57 60t40.5 79t24 81z" />
    <glyph glyph-name="summation" unicode="&#x2211;" horiz-adv-x="761" 
d="M355 240l-249 388v52h530v-56h-451l240 -381l-242 -377h453v-56h-528v48z" />
    <glyph glyph-name="product" unicode="&#x220f;" horiz-adv-x="924" 
d="M890 680v-56h-107v-814h-63v814h-445v-814h-63v814h-107v56h785z" />
    <glyph glyph-name="pi" unicode="&#x3c0;" horiz-adv-x="612" 
d="M126 0h-60l93 427h-114l10 49h561l-10 -49h-114l-67 -311q-6 -27 -6 -40q0 -32 34 -32q36 0 77 22l-12 -58q-18 -8 -42 -13t-47 -5q-73 0 -73 60q0 16 6 46l71 331h-215z" />
    <glyph glyph-name="integral" unicode="&#x222b;" horiz-adv-x="344" 
d="M200 574q13 65 43 91.5t81 26.5q41 0 95 -16l-16 -52l-33.5 7.5t-38.5 3.5q-30 0 -48 -18q-16 -18 -25 -64l-130 -633q-7 -35 -18 -57t-26 -36q-17 -17 -38 -23t-47 -6q-44 0 -92 12l21 52q20 -5 37.5 -7t28.5 -2q16 0 27 3t20 11q19 16 31 76z" />
    <glyph glyph-name="ordfeminine" unicode="&#xaa;" horiz-adv-x="362" 
d="M289 536q-8 -2 -19 -4.5t-25 -4.5l-30 -6q-17 -3 -33 -7.5t-28 -11t-19 -17t-7 -26.5q0 -26 17 -37t40 -11q31 0 56.5 17.5t35.5 54.5zM117 594q3 26 15 44.5t29.5 30t39 16.5t43.5 5q42 0 71 -16.5t29 -60.5q0 -8 -1 -17t-3 -17l-28 -135q-3 -12 -3 -17q0 -15 15 -15
t29 8l-8 -38q-5 -2 -14.5 -4t-18.5 -2q-20 0 -31.5 10.5t-11.5 28.5v2q-13 -18 -37 -31t-56 -13q-40 0 -65.5 21.5t-25.5 60.5q0 25 9.5 42.5t26 29t39.5 18.5t50 12l69 12q18 4 21 17q2 5 3 10.5t1 12.5q0 17 -13 31t-52 14q-40 0 -59.5 -20t-23.5 -49z" />
    <glyph glyph-name="ordmasculine" unicode="&#xba;" horiz-adv-x="361" 
d="M92 498q0 35 10.5 69.5t31 61.5t50.5 44t70 17q55 0 86.5 -33.5t31.5 -92.5q0 -35 -10.5 -69t-30.5 -61t-50.5 -44t-70.5 -17q-55 0 -86.5 33.5t-31.5 91.5zM249 652q-28 0 -49 -13.5t-35 -35t-21 -48t-7 -52.5q0 -44 20.5 -68t56.5 -24q28 0 49.5 13.5t35.5 35.5t21 49
t7 53q0 44 -20.5 67t-57.5 23z" />
    <glyph glyph-name="Omega" unicode="&#x2126;" horiz-adv-x="809" 
d="M399 690q78 0 137 -24t99.5 -67t61 -101t20.5 -126q0 -104 -44.5 -185t-128.5 -131h179v-56h-248v61q174 101 174 310q0 57 -16.5 105t-49 83.5t-79 55t-106.5 19.5q-59 0 -105 -19.5t-78 -55t-49 -83.5t-17 -105q0 -208 174 -310v-61h-247v56h179q-173 109 -173 316
q0 68 20.5 126t60.5 101t99.5 67t136.5 24z" />
    <glyph glyph-name="ae" unicode="&#xe6;" horiz-adv-x="798" 
d="M390 234q-3 -21 -3 -43q0 -30 7 -57t22.5 -48t41 -33.5t63.5 -12.5q37 0 64 11.5t47 28t33.5 35.5t22.5 35l45 -31q-13 -23 -31 -46.5t-44.5 -42t-61 -30.5t-80.5 -12q-133 0 -172 103q-34 -52 -79 -77.5t-108 -25.5q-65 0 -105 32.5t-40 94.5q0 38 14 65t39.5 45
t61.5 29t81 19l111 19q20 4 27.5 11t10.5 21l3.5 19.5t1.5 18.5q0 15 -5 28.5t-17 24t-32.5 17t-52.5 6.5q-67 0 -100 -31t-38 -78l-54 13q4 40 23 67.5t46.5 44.5t61 25t68.5 8q52 0 92.5 -16t55.5 -57q33 33 75 53t93 20q46 0 79 -15t54 -40t30.5 -58.5t9.5 -70.5
q0 -16 -2 -34.5t-6 -34.5h-353zM341 254q-10 -6 -30 -10t-48 -9l-50 -9q-28 -5 -53.5 -12t-45 -18.5t-31.5 -29.5t-12 -45q0 -45 27.5 -64t69.5 -19q25 0 49.5 6.5t44.5 21t35.5 37.5t22.5 55zM572 437q-34 0 -62.5 -14t-50 -36t-36.5 -50t-22 -55h287q1 7 1.5 14t0.5 15
q0 24 -6 46.5t-19.5 40.5t-36.5 28.5t-56 10.5z" />
    <glyph glyph-name="oslash" unicode="&#xf8;" horiz-adv-x="516" 
d="M284 487q84 0 133 -49l71 72l39 -35l-79 -80q10 -21 15.5 -45t5.5 -53q0 -56 -16 -111.5t-47.5 -99.5t-79.5 -71t-112 -27q-79 0 -126 41l-65 -66l-35 36l68 70q-26 47 -26 116q0 57 17 111.5t49.5 97t79.5 68t108 25.5zM90 193q0 -44 12 -77l274 280q-16 19 -40.5 29.5
t-58.5 10.5q-46 0 -81 -23t-58.5 -58t-35.5 -78.5t-12 -83.5zM218 40q50 0 86 24t59.5 60.5t34.5 80.5t11 83q0 17 -2 31t-6 28l-271 -275q32 -32 88 -32z" />
    <glyph glyph-name="questiondown" unicode="&#xbf;" horiz-adv-x="459" 
d="M150 194q21 16 33 28t19 23.5t10.5 24t6.5 28.5q2 6 2.5 13.5t2.5 15.5h60q-5 -33 -11 -56.5t-17 -43t-28.5 -37t-45.5 -38.5l-77 -57q-13 -10 -21 -17.5l-16 -15.5q-23 -26 -33 -53t-10 -53q0 -23 8 -44t24 -37t41 -26t58 -10q37 0 65 13t47 35t28.5 50.5t9.5 59.5
q0 35 -13 72l62 -22q4 -16 6 -31t2 -31q0 -40 -15.5 -76t-44 -63t-68 -42.5t-88.5 -15.5q-45 0 -79 13t-57 35t-34.5 52t-11.5 63q0 30 8 58.5t28 56.5q10 14 24.5 29t36.5 32zM224 374l22 102h74l-22 -102h-74z" />
    <glyph glyph-name="exclamdown" unicode="&#xa1;" horiz-adv-x="200" 
d="M81 300h45l-29 -180l-69 -324h-64l69 324zM79 362l24 114h76l-24 -114h-76z" />
    <glyph glyph-name="logicalnot" unicode="&#xac;" horiz-adv-x="536" 
d="M468 221h-59v180h-337v53h396v-233z" />
    <glyph glyph-name="radical" unicode="&#x221a;" horiz-adv-x="523" 
d="M541 680l-182 -683h-64l-147 439h-93v40h149l96 -301l15 -45l13 -40h1q5 22 10 40.5l12 43.5l134 506h56z" />
    <glyph glyph-name="florin" unicode="&#x192;" horiz-adv-x="590" 
d="M46 -138q20 -5 38 -7t29 -2q16 0 27 3t20 11q11 9 18 27.5t13 48.5l101 479h-112l11 54h111l20 99q13 65 43 91.5t81 26.5q41 0 95 -16l-16 -52l-33.5 7.5t-38.5 3.5q-30 0 -47 -18q-17 -17 -26 -64l-16 -78h116l-11 -54h-115l-107 -502q-8 -35 -18.5 -57t-25.5 -36
q-17 -17 -38 -23t-47 -6q-45 0 -93 12z" />
    <glyph glyph-name="approxequal" unicode="&#x2248;" horiz-adv-x="584" 
d="M521 389q-25 -31 -56.5 -54t-69.5 -23q-23 0 -43.5 6.5t-54.5 23.5l-41 20q-15 7 -33.5 13t-38.5 6q-14 0 -25 -3.5t-20.5 -11t-20.5 -19.5t-25 -29l-31 46l16 23t25 27t35 22t46 9t49.5 -8.5t48.5 -19.5l47 -22q25 -11 38.5 -16t27.5 -5q17 0 31 6t26 15.5t22 20.5
t18 21zM521 202q-25 -31 -56.5 -54t-69.5 -23q-23 0 -43.5 6.5t-54.5 23.5l-41 20q-15 7 -33.5 13t-38.5 6q-14 0 -25 -3.5t-20.5 -11t-20.5 -19.5t-25 -29l-31 46l16 23t25 27t35 22t46 9t49.5 -8.5t48.5 -19.5l47 -22q25 -11 38.5 -16t27.5 -5q17 0 31 6t26 15.5t22 20.5
t18 21z" />
    <glyph glyph-name="uni0394" unicode="&#x394;" horiz-adv-x="773" 
d="M317 679h59l265 -679h-589zM131 50h432l-217 560z" />
    <glyph glyph-name="guillemotleft" unicode="&#xab;" horiz-adv-x="388" 
d="M63 349l163 137l-18 -83l-120 -93l79 -99l-16 -75l-104 140zM210 349l163 137l-18 -83l-120 -93l79 -99l-16 -75l-104 140z" />
    <glyph glyph-name="guillemotright" unicode="&#xbb;" horiz-adv-x="388" 
d="M337 273l-163 -137l18 84l120 95l-79 96l16 75l104 -140zM190 273l-163 -137l18 84l120 95l-79 96l16 75l104 -140z" />
    <glyph glyph-name="ellipsis" unicode="&#x2026;" horiz-adv-x="869" 
d="M104 114l-25 -114h-78l25 114h78zM439 114l-25 -114h-78l25 114h78zM774 114l-25 -114h-78l25 114h78z" />
    <glyph glyph-name="Agrave" unicode="&#xc0;" horiz-adv-x="599" 
d="M20 0h-69l403 680h64l115 -680h-65l-33 205h-295zM386 515q-5 28 -8 50.5l-6 44.5h-1l-21 -41.5t-24 -42.5l-155 -266h255zM389 753l-142 136h96l102 -136h-56z" />
    <glyph glyph-name="Atilde" unicode="&#xc3;" horiz-adv-x="599" 
d="M20 0h-69l403 680h64l115 -680h-65l-33 205h-295zM386 515q-5 28 -8 50.5l-6 44.5h-1l-21 -41.5t-24 -42.5l-155 -266h255zM578 857q-7 -15 -15.5 -31t-19.5 -29t-25.5 -21.5t-33.5 -8.5t-38.5 8t-38.5 18q-17 8 -30.5 15t-24.5 7q-22 0 -32 -16t-15 -31l-42 9l11 24.5
t18.5 30t28 25t38.5 10.5q17 0 33.5 -7t33.5 -15l32 -15.5t30 -7.5q22 0 33 14.5t16 30.5z" />
    <glyph glyph-name="Otilde" unicode="&#xd5;" horiz-adv-x="679" 
d="M401 692q56 0 101.5 -18t78 -52.5t50 -85t17.5 -114.5q0 -79 -21.5 -157t-64.5 -139.5t-108 -99.5t-153 -38q-122 0 -184 74.5t-62 207.5q0 79 23.5 155t67.5 135.5t108.5 95.5t146.5 36zM310 44q45 0 83 16t68.5 44t53.5 64.5t38 77.5t22.5 83.5t7.5 82.5q0 102 -48 163
t-143 61q-67 0 -117.5 -34t-85 -86.5t-52 -117t-17.5 -124.5q0 -52 11.5 -94.5t35 -72.5t59 -46.5t84.5 -16.5zM599 857q-7 -15 -15.5 -31t-19.5 -29t-25.5 -21.5t-33.5 -8.5t-38.5 8t-38.5 18q-17 8 -30.5 15t-24.5 7q-22 0 -32 -16t-15 -31l-42 9l11 24.5t18.5 30t28 25
t38.5 10.5q17 0 33.5 -7t33.5 -15l32 -15.5t30 -7.5q22 0 33 14.5t16 30.5z" />
    <glyph glyph-name="OE" unicode="&#x152;" horiz-adv-x="907" 
d="M815 0h-425l4 16q-21 -8 -44.5 -12.5t-48.5 -4.5q-121 0 -182 74t-61 205q0 79 23 153.5t66.5 132.5t107 93t144.5 35q77 0 131 -33l5 21h405l-12 -55h-342l-53 -247h306l-11 -55h-306l-58 -268h363zM309 52q27 0 51 6.5t46 17.5l111 518q-24 21 -56 33t-71 12
q-66 0 -116 -33.5t-84 -85.5t-51 -115t-17 -123q0 -51 11 -93.5t34 -73t58.5 -47t83.5 -16.5z" />
    <glyph glyph-name="oe" unicode="&#x153;" horiz-adv-x="864" 
d="M408 96q-32 -48 -80.5 -78t-116.5 -30q-92 0 -136.5 53t-44.5 144q0 57 16.5 111.5t48.5 97t78.5 68t107.5 25.5q62 0 105.5 -27.5t62.5 -79.5q33 48 82.5 77.5t112.5 29.5q46 0 79 -15t54 -40t30.5 -58.5t9.5 -70.5q0 -16 -2 -34.5t-6 -34.5h-353q-3 -21 -3 -43
q0 -30 7 -57t22.5 -48t41 -33.5t63.5 -12.5q37 0 64 11.5t47 28t33.5 35.5t22.5 35l45 -31q-13 -23 -31 -46.5t-44.5 -42t-61 -30.5t-80.5 -12q-134 0 -174 108zM215 40q50 0 86 24t58.5 60.5t33 80.5t10.5 83q0 67 -30.5 107.5t-98.5 40.5q-46 0 -80.5 -23t-57.5 -58
t-34.5 -78.5t-11.5 -83.5q0 -70 30 -111.5t95 -41.5zM638 437q-34 0 -62.5 -14t-50 -36t-36.5 -50t-22 -55h287q1 7 1.5 14t0.5 15q0 24 -6 46.5t-19.5 40.5t-36.5 28.5t-56 10.5z" />
    <glyph glyph-name="endash" unicode="&#x2013;" horiz-adv-x="640" 
d="M565 242h-508l11 56h508z" />
    <glyph glyph-name="emdash" unicode="&#x2014;" horiz-adv-x="831" 
d="M756 242h-699l11 56h699z" />
    <glyph glyph-name="quotedblleft" unicode="&#x201c;" horiz-adv-x="326" 
d="M220 655q-35 -9 -46.5 -30t-19.5 -55l-5 -21h42l-25 -114h-78l34 152q11 48 34 71.5t71 31.5zM352 655q-35 -9 -46.5 -30t-19.5 -55l-5 -21h42l-25 -114h-78l34 152q11 48 34 71.5t71 31.5z" />
    <glyph glyph-name="quotedblright" unicode="&#x201d;" horiz-adv-x="325" 
d="M224 460q35 9 46.5 30t19.5 55l5 21h-42l25 114h78l-34 -152q-11 -48 -34 -71.5t-71 -31.5zM92 460q35 9 46.5 30t19.5 55l5 21h-42l25 114h78l-34 -152q-11 -48 -34 -71.5t-71 -31.5z" />
    <glyph glyph-name="quoteleft" unicode="&#x2018;" horiz-adv-x="194" 
d="M220 655q-35 -9 -46.5 -30t-19.5 -55l-5 -21h42l-25 -114h-78l34 152q11 48 34 71.5t71 31.5z" />
    <glyph glyph-name="quoteright" unicode="&#x2019;" horiz-adv-x="193" 
d="M92 460q35 9 46.5 30t19.5 55l5 21h-42l25 114h78l-34 -152q-11 -48 -34 -71.5t-71 -31.5z" />
    <glyph glyph-name="divide" unicode="&#xf7;" horiz-adv-x="799" 
d="M727 210h-673v57h673v-57zM429 476v-100h-78v100h78zM429 101v-101h-78v101h78z" />
    <glyph glyph-name="lozenge" unicode="&#x25ca;" horiz-adv-x="518" 
d="M427 337l-157 276l-156 -276l156 -272zM296 681l201 -344l-201 -340h-51l-201 340l201 344h51z" />
    <glyph glyph-name="ydieresis" unicode="&#xff;" horiz-adv-x="445" 
d="M164 159l12 -83h1l18.5 33l31.5 53l187 314h63l-327 -540l-31 -51t-28 -40q-20 -24 -42 -35.5t-54 -11.5q-25 0 -39.5 6.5t-21.5 11.5l11 56q11 -9 24.5 -15t30.5 -6q29 0 47 21q7 8 15.5 20t22.5 36l43 74l-69 474h61zM174 657h62l-20 -91h-62zM361 657h62l-20 -91h-62z
" />
    <glyph glyph-name="Ydieresis" unicode="&#x178;" horiz-adv-x="568" 
d="M187 0l60 280l-161 400h67l138 -338l283 338h76l-340 -400l-60 -280h-63zM261 859h62l-19 -91h-62zM448 859h62l-19 -91h-62z" />
    <glyph glyph-name="fraction" unicode="&#x2044;" horiz-adv-x="418" 
d="M501 680l-496 -680h-64l497 680h63z" />
    <glyph glyph-name="Euro" unicode="&#x20ac;" horiz-adv-x="623" 
d="M112 300q3 40 12 79h-71l30 53h54q17 54 43.5 101t61.5 82t79.5 56t97.5 21q28 0 60 -8.5t60.5 -29.5t50.5 -56.5t31 -90.5l-58 -28q-10 72 -46.5 115t-102.5 43q-41 0 -74.5 -16.5t-60.5 -44.5t-47 -65t-34 -79h268l-31 -53h-251q-5 -20 -8 -39.5t-5 -39.5h225l-31 -53
h-196q1 -57 13.5 -95.5t33.5 -62.5t49 -34.5t59 -10.5q61 0 108 39.5t79 102.5l47 -32q-38 -72 -98 -118.5t-141 -46.5q-53 0 -92.5 18.5t-65.5 52t-38.5 81t-12.5 106.5h-85l31 53h56z" />
    <glyph glyph-name="guilsinglleft" unicode="&#x2039;" horiz-adv-x="241" 
d="M63 349l163 137l-18 -83l-120 -93l79 -99l-16 -75l-104 140z" />
    <glyph glyph-name="guilsinglright" unicode="&#x203a;" horiz-adv-x="241" 
d="M190 273l-163 -137l18 84l120 95l-79 96l16 75l104 -140z" />
    <glyph glyph-name="daggerdbl" unicode="&#x2021;" horiz-adv-x="481" 
d="M421 229l-12 -57h-162l-37 -172h-61l37 172h-161l12 57h161l47 222h-161l12 57h161l37 172h61l-37 -172h162l-12 -57h-162l-47 -222h162z" />
    <glyph glyph-name="periodcentered" unicode="&#xb7;" horiz-adv-x="206" 
d="M162 377l-25 -114h-78l25 114h78z" />
    <glyph glyph-name="quotesinglbase" unicode="&#x201a;" horiz-adv-x="199" 
d="M-28 -106q35 9 46.5 30t19.5 55l5 21h-42l25 114h78l-34 -152q-11 -48 -34 -71.5t-71 -31.5z" />
    <glyph glyph-name="quotedblbase" unicode="&#x201e;" horiz-adv-x="331" 
d="M104 -106q35 9 46.5 30t19.5 55l5 21h-42l25 114h78l-34 -152q-11 -48 -34 -71.5t-71 -31.5zM-28 -106q35 9 46.5 30t19.5 55l5 21h-42l25 114h78l-34 -152q-11 -48 -34 -71.5t-71 -31.5z" />
    <glyph glyph-name="perthousand" unicode="&#x2030;" horiz-adv-x="1346" 
d="M769 424q20 0 43.5 -6.5t43 -24t32.5 -48t13 -77.5q0 -49 -12.5 -98.5t-37 -90t-60.5 -66t-82 -25.5q-68 0 -101.5 44t-33.5 118q0 49 13 98t38 88t61.5 63.5t82.5 24.5zM626 155q0 -66 25.5 -93t60.5 -27q32 0 57.5 20.5t43 52.5t27.5 72t10 79q0 54 -21 85.5t-63 31.5
q-36 0 -62.5 -21t-43.5 -53.5t-25.5 -71.5t-8.5 -75zM219 0l454 680h55l-454 -680h-55zM264 692q20 0 43.5 -6.5t43 -24t32.5 -48t13 -77.5q0 -49 -12.5 -98.5t-37 -90t-60.5 -66t-82 -25.5q-68 0 -101.5 44t-33.5 118q0 49 13 98t38 88t61.5 63.5t82.5 24.5zM121 423
q0 -66 25.5 -93t60.5 -27q32 0 57.5 20.5t43 52.5t27.5 72t10 79q0 54 -21 85.5t-63 31.5q-36 0 -62.5 -21t-43.5 -53.5t-25.5 -71.5t-8.5 -75zM1170 424q20 0 43.5 -6.5t43 -24t32.5 -48t13 -77.5q0 -49 -12.5 -98.5t-37 -90t-60.5 -66t-82 -25.5q-68 0 -101.5 44
t-33.5 118q0 49 13 98t38 88t61.5 63.5t82.5 24.5zM1027 155q0 -66 25.5 -93t60.5 -27q32 0 57.5 20.5t43 52.5t27.5 72t10 79q0 54 -21 85.5t-63 31.5q-36 0 -62.5 -21t-43.5 -53.5t-25.5 -71.5t-8.5 -75z" />
    <glyph glyph-name="Acircumflex" unicode="&#xc2;" horiz-adv-x="599" 
d="M20 0h-69l403 680h64l115 -680h-65l-33 205h-295zM386 515q-5 28 -8 50.5l-6 44.5h-1l-21 -41.5t-24 -42.5l-155 -266h255zM323 753h-65l148 136h42l92 -136h-59l-62 81z" />
    <glyph glyph-name="Ecircumflex" unicode="&#xca;" horiz-adv-x="582" 
d="M489 0h-466l145 680h446l-12 -55h-383l-53 -247h347l-11 -55h-347l-58 -268h404zM325 753h-65l148 136h42l92 -136h-59l-62 81z" />
    <glyph glyph-name="Aacute" unicode="&#xc1;" horiz-adv-x="599" 
d="M20 0h-69l403 680h64l115 -680h-65l-33 205h-295zM386 515q-5 28 -8 50.5l-6 44.5h-1l-21 -41.5t-24 -42.5l-155 -266h255zM346 753l102 136h96l-142 -136h-56z" />
    <glyph glyph-name="Edieresis" unicode="&#xcb;" horiz-adv-x="582" 
d="M489 0h-466l145 680h446l-12 -55h-383l-53 -247h347l-11 -55h-347l-58 -268h404zM302 859h62l-19 -91h-62zM489 859h62l-19 -91h-62z" />
    <glyph glyph-name="Egrave" unicode="&#xc8;" horiz-adv-x="582" 
d="M489 0h-466l145 680h446l-12 -55h-383l-53 -247h347l-11 -55h-347l-58 -268h404zM402 753l-142 136h96l102 -136h-56z" />
    <glyph glyph-name="Iacute" unicode="&#xcd;" horiz-adv-x="230" 
d="M231 680l-145 -680h-63l145 680h63zM178 753l102 136h96l-142 -136h-56z" />
    <glyph glyph-name="Icircumflex" unicode="&#xce;" horiz-adv-x="230" 
d="M231 680l-145 -680h-63l145 680h63zM137 753h-65l148 136h42l92 -136h-59l-62 81z" />
    <glyph glyph-name="Idieresis" unicode="&#xcf;" horiz-adv-x="230" 
d="M231 680l-145 -680h-63l145 680h63zM110 859h62l-19 -91h-62zM297 859h62l-19 -91h-62z" />
    <glyph glyph-name="Igrave" unicode="&#xcc;" horiz-adv-x="230" 
d="M231 680l-145 -680h-63l145 680h63zM201 753l-142 136h96l102 -136h-56z" />
    <glyph glyph-name="Oacute" unicode="&#xd3;" horiz-adv-x="679" 
d="M401 692q56 0 101.5 -18t78 -52.5t50 -85t17.5 -114.5q0 -79 -21.5 -157t-64.5 -139.5t-108 -99.5t-153 -38q-122 0 -184 74.5t-62 207.5q0 79 23.5 155t67.5 135.5t108.5 95.5t146.5 36zM310 44q45 0 83 16t68.5 44t53.5 64.5t38 77.5t22.5 83.5t7.5 82.5q0 102 -48 163
t-143 61q-67 0 -117.5 -34t-85 -86.5t-52 -117t-17.5 -124.5q0 -52 11.5 -94.5t35 -72.5t59 -46.5t84.5 -16.5zM359 753l102 136h96l-142 -136h-56z" />
    <glyph glyph-name="Ocircumflex" unicode="&#xd4;" horiz-adv-x="679" 
d="M401 692q56 0 101.5 -18t78 -52.5t50 -85t17.5 -114.5q0 -79 -21.5 -157t-64.5 -139.5t-108 -99.5t-153 -38q-122 0 -184 74.5t-62 207.5q0 79 23.5 155t67.5 135.5t108.5 95.5t146.5 36zM310 44q45 0 83 16t68.5 44t53.5 64.5t38 77.5t22.5 83.5t7.5 82.5q0 102 -48 163
t-143 61q-67 0 -117.5 -34t-85 -86.5t-52 -117t-17.5 -124.5q0 -52 11.5 -94.5t35 -72.5t59 -46.5t84.5 -16.5zM345 753h-65l148 136h42l92 -136h-59l-62 81z" />
    <glyph glyph-name="Ograve" unicode="&#xd2;" horiz-adv-x="679" 
d="M401 692q56 0 101.5 -18t78 -52.5t50 -85t17.5 -114.5q0 -79 -21.5 -157t-64.5 -139.5t-108 -99.5t-153 -38q-122 0 -184 74.5t-62 207.5q0 79 23.5 155t67.5 135.5t108.5 95.5t146.5 36zM310 44q45 0 83 16t68.5 44t53.5 64.5t38 77.5t22.5 83.5t7.5 82.5q0 102 -48 163
t-143 61q-67 0 -117.5 -34t-85 -86.5t-52 -117t-17.5 -124.5q0 -52 11.5 -94.5t35 -72.5t59 -46.5t84.5 -16.5zM432 753l-142 136h96l102 -136h-56z" />
    <glyph glyph-name="Uacute" unicode="&#xda;" horiz-adv-x="669" 
d="M291 -13q-115 0 -171.5 52.5t-56.5 144.5q0 18 3.5 41.5t8.5 49.5l87 405h62l-85 -401q-5 -25 -9 -47.5t-4 -42.5q0 -146 172 -146q48 0 84.5 11.5t64.5 37.5q26 24 43 59.5t31 95.5l92 433h62l-90 -425q-15 -69 -37 -120t-57 -84q-34 -32 -82.5 -48t-117.5 -16zM361 753
l102 136h96l-142 -136h-56z" />
    <glyph glyph-name="Ucircumflex" unicode="&#xdb;" horiz-adv-x="669" 
d="M291 -13q-115 0 -171.5 52.5t-56.5 144.5q0 18 3.5 41.5t8.5 49.5l87 405h62l-85 -401q-5 -25 -9 -47.5t-4 -42.5q0 -146 172 -146q48 0 84.5 11.5t64.5 37.5q26 24 43 59.5t31 95.5l92 433h62l-90 -425q-15 -69 -37 -120t-57 -84q-34 -32 -82.5 -48t-117.5 -16zM354 753
h-65l148 136h42l92 -136h-59l-62 81z" />
    <glyph glyph-name="Ugrave" unicode="&#xd9;" horiz-adv-x="669" 
d="M291 -13q-115 0 -171.5 52.5t-56.5 144.5q0 18 3.5 41.5t8.5 49.5l87 405h62l-85 -401q-5 -25 -9 -47.5t-4 -42.5q0 -146 172 -146q48 0 84.5 11.5t64.5 37.5q26 24 43 59.5t31 95.5l92 433h62l-90 -425q-15 -69 -37 -120t-57 -84q-34 -32 -82.5 -48t-117.5 -16zM418 753
l-142 136h96l102 -136h-56z" />
    <glyph glyph-name="dotlessi" unicode="&#x131;" horiz-adv-x="197" 
d="M68 0h-59l101 476h59z" />
    <glyph glyph-name="circumflex" unicode="&#x2c6;" horiz-adv-x="469" 
d="M145 552l140 128h42l86 -128h-59l-54 77l-88 -77h-67z" />
    <glyph glyph-name="tilde" unicode="&#x2dc;" horiz-adv-x="469" 
d="M450 656q-7 -15 -15.5 -31t-19.5 -29t-25.5 -21.5t-33.5 -8.5t-38.5 8t-38.5 18q-17 8 -30.5 15t-24.5 7q-22 0 -32 -16t-15 -31l-42 9l11 24.5t18.5 30t28 25t38.5 10.5q17 0 33.5 -7t33.5 -15l32 -15.5t30 -7.5q22 0 33 14.5t16 30.5z" />
    <glyph glyph-name="macron" unicode="&#xaf;" horiz-adv-x="469" 
d="M183 657h271l-11 -53h-271z" />
    <glyph glyph-name="breve" unicode="&#x2d8;" horiz-adv-x="439" 
d="M288 582q34 0 60 17.5t40 49.5h48q-19 -54 -59 -83t-94 -29q-57 0 -88 29t-27 83h48q2 -67 72 -67z" />
    <glyph glyph-name="dotaccent" unicode="&#x2d9;" horiz-adv-x="469" 
d="M275 657h62l-20 -91h-62z" />
    <glyph glyph-name="ring" unicode="&#x2da;" horiz-adv-x="469" 
d="M209 618q0 34 24 57.5t58 23.5t58 -23.5t24 -57.5t-24 -57.5t-58 -23.5t-58 23.5t-24 57.5zM247 618q0 -18 13 -30.5t30 -12.5t30 12.5t13 30.5t-13 30.5t-30 12.5t-30 -12.5t-13 -30.5z" />
    <glyph glyph-name="cedilla" unicode="&#xb8;" horiz-adv-x="469" 
d="M173 3h41l-46 -48q3 1 6.5 1h6.5q29 0 49 -16.5t20 -46.5q0 -41 -31.5 -63.5t-76.5 -22.5q-26 0 -51 9l15 28q14 -5 31 -5q24 0 43.5 10.5t19.5 35.5q0 20 -15 28.5t-33 8.5q-15 0 -31 -7l-9 23z" />
    <glyph glyph-name="hungarumlaut" unicode="&#x2dd;" horiz-adv-x="469" 
d="M483 680l-132 -128h-56l94 128h94zM324 680l-132 -128h-56l94 128h94z" />
    <glyph glyph-name="ogonek" unicode="&#x2db;" horiz-adv-x="469" 
d="M230 -215q-11 -3 -21 -4.5t-25 -1.5q-45 0 -71.5 24.5t-26.5 66.5q0 22 10.5 41.5t26.5 37t36 31.5t38 24h57l-7 -4q-13 -8 -32 -21t-36.5 -30t-30 -36t-12.5 -39q0 -27 15.5 -39t38.5 -12q11 0 22 3z" />
    <glyph glyph-name="caron" unicode="&#x2c7;" horiz-adv-x="469" 
d="M448 680l-140 -128h-42l-86 128h59l54 -77l88 77h67z" />
    <glyph glyph-name="currency" unicode="&#xa4;" horiz-adv-x="567" 
d="M92 289q0 65 36 115l-63 63l42 42l62 -63q50 36 115 36q32 0 61.5 -9.5t52.5 -26.5l62 62l42 -42l-62 -62q17 -24 27 -53t10 -62q0 -65 -36 -115l61 -60l-42 -42l-61 61q-50 -36 -115 -36q-33 0 -62.5 9.5t-52.5 26.5l-62 -62l-42 42l62 62q-35 47 -35 114zM149 289
q0 -29 10.5 -53.5t28.5 -43.5t42.5 -29.5t53.5 -10.5t54 10.5t43 29.5t28.5 43.5t10.5 53.5t-10 54t-28 44t-43 29.5t-55 10.5q-29 0 -53.5 -10.5t-42.5 -29t-28.5 -44t-10.5 -54.5z" />
    <glyph glyph-name="arrowleft.salt" horiz-adv-x="940" 
d="M890 312h-748l317 -312h-81l-340 340l340 340h81l-317 -312h748v-56z" />
    <glyph glyph-name="arrowup.salt" horiz-adv-x="840" 
d="M80 426l340 340l340 -340v-79l-309 313v-746h-62v746l-309 -313v79z" />
    <glyph glyph-name="arrowright.salt" horiz-adv-x="940" 
d="M50 368h748l-317 312h81l340 -340l-340 -340h-81l317 312h-748v56z" />
    <glyph glyph-name="arrowdown.salt" horiz-adv-x="840" 
d="M80 323l309 -313v746h62v-746l309 313v-79l-340 -340l-340 340v79z" />
    <glyph glyph-name="uni2196.salt" horiz-adv-x="747" 
d="M675 30l-538 535l3 -441l-58 55v481h482l55 -53l-446 3l542 -540z" />
    <glyph glyph-name="uni2197.salt" horiz-adv-x="747" 
d="M183 650h482v-481l-58 -55l2 441l-537 -535l-40 40l541 540l-445 -3z" />
    <glyph glyph-name="uni2198.salt" horiz-adv-x="747" 
d="M128 83l445 -3l-541 540l40 40l537 -535l-2 441l58 -55v-481h-482z" />
    <glyph glyph-name="uni2199.salt" horiz-adv-x="747" 
d="M715 620l-542 -540l446 3l-55 -53h-482v481l58 55l-3 -441l538 535z" />
    <glyph glyph-name="uni21A4.salt" horiz-adv-x="972" 
d="M828 0v312h-686l317 -312h-81l-340 340l340 340h81l-317 -312h686v312h62v-680h-62z" />
    <glyph glyph-name="uni21A5.salt" horiz-adv-x="840" 
d="M80 426l340 340l340 -340v-79l-309 313v-691h309v-55h-680v55h309v691l-309 -313v79z" />
    <glyph glyph-name="uni21A6.salt" horiz-adv-x="972" 
d="M82 0v680h62v-312h686l-317 312h81l340 -340l-340 -340h-81l317 312h-686v-312h-62z" />
    <glyph glyph-name="uni21A7.salt" horiz-adv-x="840" 
d="M80 323l309 -313v691h-309v55h680v-55h-309v-691l309 313v-79l-340 -340l-340 340v79z" />
    <glyph glyph-name="uni21B0.salt" horiz-adv-x="972" 
d="M378 0l-340 340l340 340h81l-316 -312h747v-368h-62v312h-685l316 -312h-81z" />
    <glyph glyph-name="uni21B1.salt" horiz-adv-x="972" 
d="M513 0l316 312h-685v-312h-62v368h747l-316 312h81l340 -340l-340 -340h-81z" />
    <glyph glyph-name="uni21B2.salt" horiz-adv-x="972" 
d="M459 680l-317 -312h686v312h62v-368h-748l317 -312h-81l-340 340l340 340h81z" />
    <glyph glyph-name="uni21B3.salt" horiz-adv-x="972" 
d="M594 680l340 -340l-340 -340h-81l316 312h-747v368h62v-312h685l-316 312h81z" />
    <glyph glyph-name="uni21B4.salt" horiz-adv-x="840" 
d="M80 323l309 -313v691h-309v55h371v-746l309 313v-79l-340 -340l-340 340v79z" />
    <glyph glyph-name="carriagereturn.salt" horiz-adv-x="972" 
d="M459 680l-317 -312h686v312h62v-368h-748l317 -312h-81l-340 340l340 340h81z" />
    <glyph glyph-name="arrowleft" unicode="&#x2190;" horiz-adv-x="812" 
d="M352 476l-216 -213h626v-50h-625l215 -213h-75l-237 238l237 238h75z" />
    <glyph glyph-name="arrowup" unicode="&#x2191;" horiz-adv-x="576" 
d="M50 485l238 237l238 -237v-70l-209 208v-623h-58v625l-209 -210v70z" />
    <glyph glyph-name="arrowright" unicode="&#x2192;" horiz-adv-x="812" 
d="M535 476l237 -238l-237 -238h-75l215 213h-625v50h626l-216 213h75z" />
    <glyph glyph-name="arrowdown" unicode="&#x2193;" horiz-adv-x="576" 
d="M50 297l209 -210v625h58v-623l209 208v-70l-238 -237l-238 237v70z" />
    <glyph glyph-name="uni2196" unicode="&#x2196;" horiz-adv-x="633" 
d="M574 -10l-444 444l1 -298l-54 49l1 336h336l49 -49l-295 2l445 -445z" />
    <glyph glyph-name="uni2197" unicode="&#x2197;" horiz-adv-x="633" 
d="M219 521h336l1 -336l-54 -49l1 298l-444 -444l-39 39l445 445l-295 -2z" />
    <glyph glyph-name="uni2198" unicode="&#x2198;" horiz-adv-x="633" 
d="M170 49l295 -2l-445 445l39 39l444 -444l-1 298l54 -49l-1 -336h-336z" />
    <glyph glyph-name="uni2199" unicode="&#x2199;" horiz-adv-x="633" 
d="M613 492l-445 -445l295 2l-49 -49h-336l-1 336l54 49l-1 -298l444 444z" />
    <glyph glyph-name="uni21A4" unicode="&#x21a4;" horiz-adv-x="839" 
d="M352 476l-216 -213h567v213h59v-476h-59v213h-566l215 -213h-75l-237 238l237 238h75z" />
    <glyph glyph-name="uni21A5" unicode="&#x21a5;" horiz-adv-x="596" 
d="M60 485l238 237l238 -237v-70l-209 208v-573h209v-50h-476v50h209v575l-209 -210v70z" />
    <glyph glyph-name="uni21A6" unicode="&#x21a6;" horiz-adv-x="839" 
d="M562 476l237 -238l-237 -238h-75l215 213h-566v-213h-59v476h59v-213h567l-216 213h75z" />
    <glyph glyph-name="uni21A7" unicode="&#x21a7;" horiz-adv-x="596" 
d="M60 297l209 -210v575h-209v50h476v-50h-209v-573l209 208v-70l-238 -237l-238 237v70z" />
    <glyph glyph-name="uni21B0" unicode="&#x21b0;" horiz-adv-x="839" 
d="M762 0h-59v213h-568l217 -213h-75l-237 238l237 238h75l-215 -213h625v-263z" />
    <glyph glyph-name="uni21B1" unicode="&#x21b1;" horiz-adv-x="839" 
d="M77 263h625l-215 213h75l237 -238l-237 -238h-75l217 213h-568v-213h-59v263z" />
    <glyph glyph-name="uni21B2" unicode="&#x21b2;" horiz-adv-x="839" 
d="M762 213h-625l215 -213h-75l-237 238l237 238h75l-217 -213h568v213h59v-263z" />
    <glyph glyph-name="uni21B3" unicode="&#x21b3;" horiz-adv-x="839" 
d="M77 476h59v-213h568l-217 213h75l237 -238l-237 -238h-75l215 213h-625v263z" />
    <glyph glyph-name="uni21B4" unicode="&#x21b4;" horiz-adv-x="596" 
d="M60 297l209 -210v575h-209v50h267v-623l209 208v-70l-238 -237l-238 237v70z" />
    <glyph glyph-name="eth" unicode="&#xf0;" horiz-adv-x="517" 
d="M363 596q-16 29 -28.5 47.5t-23.5 30.5l50 27q17 -21 31 -42.5t27 -47.5l111 34l10 -40l-103 -32q17 -45 26.5 -97t9.5 -112q0 -68 -14.5 -135.5t-46 -121t-82 -86.5t-122.5 -33q-83 0 -131 51t-48 141q0 54 16.5 107t47.5 95t76 67.5t102 25.5q56 0 95 -29t53 -77
q-1 43 -10 94t-29 96l-162 -48l-10 39zM270 425q-45 0 -78.5 -21.5t-56.5 -56t-34.5 -77t-11.5 -83.5q0 -72 33 -110t92 -38q46 0 80 22t57 56.5t34.5 77t11.5 83.5q0 70 -33.5 108.5t-93.5 38.5z" />
    <glyph glyph-name="uni2B0F" unicode="&#x2b0f;" horiz-adv-x="596" 
d="M60 485l238 237l238 -237v-70l-209 208v-623h-267v50h209v575l-209 -210v70z" />
    <glyph glyph-name="uni2B11" unicode="&#x2b11;" horiz-adv-x="596" 
d="M269 0v623l-209 -208v70l238 237l238 -237v-70l-209 210v-575h209v-50h-267z" />
    <glyph glyph-name="uni2B10" unicode="&#x2b10;" horiz-adv-x="596" 
d="M536 227l-238 -237l-238 237v70l209 -208v623h267v-50h-209v-575l209 210v-70z" />
    <glyph glyph-name="uni2B0F.salt" horiz-adv-x="840" 
d="M80 426l340 340l340 -340v-79l-309 313v-746h-371v55h309v691l-309 -313v79z" />
    <glyph glyph-name="uni2B11.salt" horiz-adv-x="840" 
d="M760 347l-309 313v-691h309v-55h-371v746l-309 -313v79l340 340l340 -340v-79z" />
    <glyph glyph-name="uni2B10.salt" horiz-adv-x="840" 
d="M760 244l-340 -340l-340 340v79l309 -313v746h371v-55h-309v-691l309 313v-79z" />
    <glyph glyph-name="caron.alt" horiz-adv-x="469" 
d="M269 552l49 128h82l-83 -128h-48z" />
    <glyph glyph-name="commaaccent" unicode="&#xf6c3;" horiz-adv-x="154" 
d="M82 -243q34 9 46 27t20 57h-42l21 94h77l-24 -110q-11 -48 -34 -71.5t-71 -31.5z" />
    <glyph glyph-name="commaturn" horiz-adv-x="154" 
d="M197 764q-17 -5 -28 -11t-18 -16t-11.5 -24t-8.5 -33h42l-21 -94h-77l24 110q11 48 34 71.5t71 31.5z" />
    <glyph glyph-name="uni2219" unicode="&#x2219;" horiz-adv-x="206" 
d="M162 377l-25 -114h-78l25 114h78z" />
    <glyph glyph-name="uni2224" unicode="&#x2224;" horiz-adv-x="246" 
d="M182 377l-25 -114h-78l25 114h78z" />
    <glyph glyph-name="logicaland" unicode="&#x2227;" horiz-adv-x="206" 
d="M162 377l-25 -114h-78l25 114h78z" />
    <glyph glyph-name="dotmath" unicode="&#x22c5;" horiz-adv-x="206" 
d="M162 377l-25 -114h-78l25 114h78z" />
    <glyph glyph-name="uni00AD" unicode="&#xad;" horiz-adv-x="410" 
d="M333 235h-277l13 63h277z" />
    <glyph glyph-name="zero.tlfslash" horiz-adv-x="590" 
d="M359 692q32 0 68.5 -11t67 -39.5t51 -77.5t20.5 -124q0 -53 -9 -107t-26.5 -104.5t-43.5 -94t-60 -76t-76.5 -51.5t-92.5 -19q-53 0 -92 18.5t-65 52t-39 81t-13 106.5q0 80 20.5 159.5t60 143t97 103.5t132.5 40zM462 584q-19 25 -46 39t-62 14q-62 0 -108 -37t-76 -94
t-45 -125t-15 -129q0 -32 3.5 -57.5t10.5 -46.5zM149 98q21 -29 50.5 -42t63.5 -13q56 0 100.5 35t75.5 90.5t48 124t17 136.5q0 29 -4 55.5t-12 49.5z" />
    <glyph glyph-name="zero.plfslash" horiz-adv-x="604" 
d="M366 692q32 0 68.5 -11t67 -39.5t51 -77.5t20.5 -124q0 -53 -9 -107t-26.5 -104.5t-43.5 -94t-60 -76t-76.5 -51.5t-92.5 -19q-53 0 -92 18.5t-65 52t-39 81t-13 106.5q0 80 20.5 159.5t60 143t97 103.5t132.5 40zM469 584q-19 25 -46 39t-62 14q-62 0 -108 -37t-76 -94
t-45 -125t-15 -129q0 -32 3.5 -57.5t10.5 -46.5zM156 98q21 -29 50.5 -42t63.5 -13q56 0 100.5 35t75.5 90.5t48 124t17 136.5q0 29 -4 55.5t-12 49.5z" />
    <glyph glyph-name="zero.plf" horiz-adv-x="604" 
d="M366 692q32 0 68.5 -11t67 -39.5t51 -77.5t20.5 -124q0 -53 -9 -107t-26.5 -104.5t-43.5 -94t-60 -76t-76.5 -51.5t-92.5 -19q-53 0 -92 18.5t-65 52t-39 81t-13 106.5q0 80 20.5 159.5t60 143t97 103.5t132.5 40zM117 252q0 -58 12.5 -98t33.5 -64.5t48.5 -35.5
t58.5 -11q56 0 100.5 35t75.5 90.5t48 124t17 136.5q0 46 -9.5 84.5t-28 66t-47 42.5t-65.5 15q-62 0 -108 -37t-76 -94t-45 -125t-15 -129z" />
    <glyph glyph-name="one.plf" horiz-adv-x="340" 
d="M134 0l111 516q-33 -20 -72.5 -27t-78.5 -7h-17t-17 1l11 52h16q41 0 70 7.5t52 21.5q30 19 48.5 48t28.5 68h55l-145 -680h-62z" />
    <glyph glyph-name="two.plf" horiz-adv-x="548" 
d="M96 416q-6 27 -6 55q0 45 16 85t46 70.5t73 48t97 17.5q49 0 88 -14t66.5 -39.5t42 -60t14.5 -75.5q0 -60 -23.5 -109t-60.5 -89.5t-83 -75.5l-92 -67l-59 -39.5l-53 -32.5l-42 -24t-26 -14v-1q19 1 42 2q19 1 44 1.5t53 0.5h230l-11 -55h-456l9 52q24 13 56 33l68 43.5
l75 50t76 54.5l68 54t60 60t42.5 69t16.5 82q0 63 -39 101t-110 38q-43 0 -74.5 -14t-51.5 -37t-30 -54t-10 -65q0 -33 9 -66z" />
    <glyph glyph-name="three.plf" horiz-adv-x="558" 
d="M95 513q2 30 17 61.5t43 57.5t68.5 43t94.5 17q52 0 90.5 -14t63.5 -37.5t37 -53t12 -60.5q0 -30 -10.5 -59t-31.5 -52t-52 -38.5t-71 -19.5v-1q33 -7 58 -23t42 -38t25.5 -48.5t8.5 -54.5q0 -38 -15 -74.5t-45 -65.5t-75 -47t-105 -18q-108 0 -165 51.5t-65 137.5l60 21
q3 -33 14 -61.5t32 -49.5t51 -32.5t71 -11.5q35 0 67 8.5t57 27.5t39.5 47.5t14.5 69.5q0 51 -25 80t-64 43q-25 9 -54 12.5t-63 3.5h-55l11 51h73q51 0 82 5.5t54 16.5q34 17 52.5 45t18.5 69q0 51 -37.5 83t-103.5 32q-40 0 -69.5 -12.5t-50 -32.5t-31 -45.5t-13.5 -51.5z
" />
    <glyph glyph-name="four.plf" horiz-adv-x="551" 
d="M344 0h-60l40 182h-327l9 42l430 460h55l-96 -448h124l-11 -54h-125zM336 236l47 225q8 40 18.5 79t15.5 61h-1q-14 -20 -44 -57t-69 -79l-216 -229h249z" />
    <glyph glyph-name="five.plf" horiz-adv-x="547" 
d="M85 177q5 -29 18 -53.5t34 -43t48.5 -29t61.5 -10.5q36 0 69.5 13.5t59.5 39.5t41.5 65.5t15.5 91.5q0 40 -12 69.5t-32.5 48.5t-47 28t-55.5 9q-27 0 -53 -8t-48.5 -23.5t-39.5 -39.5t-26 -57l-59 19l96 383h369l-13 -55h-313l-36 -140l-11 -41l-9 -32q-4 -16 -8 -29
l2 -1q26 39 71 59t93 20q39 0 74.5 -13t63 -38.5t43.5 -64.5t16 -90q0 -66 -21.5 -115.5t-56.5 -83.5t-80 -51t-92 -17q-80 0 -140.5 40.5t-80.5 123.5z" />
    <glyph glyph-name="six.plf" horiz-adv-x="572" 
d="M508 503q-4 25 -15 49t-29.5 42.5t-44 30t-58.5 11.5q-54 0 -104.5 -34t-84.5 -107q-13 -26 -23.5 -58t-18.5 -67h1q29 35 74 58.5t107 23.5q52 0 90.5 -17.5t64 -46t38 -66.5t12.5 -78q0 -47 -16 -92.5t-47.5 -82t-77.5 -59t-106 -22.5q-48 0 -87 16t-67 47.5t-43.5 78
t-15.5 108.5q0 92 21 174.5t60.5 144.5t96.5 98.5t129 36.5q78 0 129.5 -43t67.5 -112zM119 294q-1 -12 -1.5 -24.5t-0.5 -23.5q0 -92 40 -147t118 -55q43 0 76.5 17t56 45t34.5 63t12 71q0 31 -9.5 59.5t-29 50.5t-49 35t-69.5 13q-59 0 -106 -30t-72 -74z" />
    <glyph glyph-name="seven.plf" horiz-adv-x="499" 
d="M560 632q-60 -68 -116 -141.5t-104 -153t-86.5 -164t-63.5 -173.5h-66q41 146 117 278t173 257l36.5 45l38.5 45v1q-17 -1 -47.5 -1h-61.5h-218l-32 -153h-59l44 208h456z" />
    <glyph glyph-name="eight.plf" horiz-adv-x="581" 
d="M215 372q-45 15 -72.5 49.5t-27.5 91.5q0 35 15.5 67.5t44.5 57t70 39.5t92 15q98 0 154 -43.5t56 -116.5q0 -69 -40.5 -114t-115.5 -59q63 -21 92 -63.5t29 -102.5q0 -44 -16.5 -81.5t-48 -65t-78.5 -43t-108 -15.5q-113 0 -171 50.5t-58 133.5q0 36 11.5 68.5t34.5 59
t57 45t80 27.5zM95 183q0 -63 44 -101.5t123 -38.5q86 0 136 40t50 113q0 66 -45.5 103.5t-123.5 37.5q-47 0 -82 -13t-57.5 -34.5t-33.5 -49t-11 -57.5zM177 512q0 -25 8.5 -47t26 -38t45 -25.5t65.5 -9.5q80 0 120 37.5t40 96.5q0 50 -38.5 81.5t-106.5 31.5
q-40 0 -70 -11t-50 -28.5t-30 -40t-10 -47.5z" />
    <glyph glyph-name="nine.plf" horiz-adv-x="570" 
d="M87 177q4 -25 15 -49t29.5 -42.5t44 -29.5t58.5 -11q54 0 104.5 33.5t84.5 106.5q13 26 23.5 58t18.5 67h-1q-29 -35 -74 -58.5t-107 -23.5q-52 0 -90.5 17.5t-64 46t-38 66t-12.5 78.5q0 46 16 92t47.5 82.5t77.5 59t106 22.5q48 0 87 -16t67 -47.5t43.5 -78.5
t15.5 -108q0 -92 -21 -174.5t-60.5 -144.5t-96.5 -98.5t-129 -36.5q-78 0 -129.5 43t-67.5 112zM476 387q1 12 1.5 24.5t0.5 23.5q0 92 -40 147t-118 55q-43 0 -76.5 -17t-56 -45t-34.5 -63t-12 -71q0 -31 9.5 -59.5t29 -50.5t49 -35t69.5 -13q59 0 106 30t72 74z" />
    <glyph glyph-name="at.case" horiz-adv-x="800" 
d="M519 367q-8 -5 -26 -8.5l-42 -8.5l-43 -8q-24 -4 -46.5 -10t-39.5 -16t-27.5 -25.5t-10.5 -39.5q0 -39 24.5 -55.5t60.5 -16.5q22 0 43 6t39 18.5t31 32t19 47.5zM563 183q34 0 64 22t51.5 57t34 80t12.5 91q0 47 -14 92.5t-44 81t-78 57.5t-116 22q-87 0 -154.5 -35.5
t-114 -92.5t-70.5 -127.5t-24 -140.5q0 -56 17 -108.5t51.5 -92.5t88 -64t126.5 -24q40 0 81 9t80 26t73.5 42t63.5 58l10 -50q-60 -65 -142 -98.5t-167 -33.5q-86 0 -149.5 27t-105 73t-62 106t-20.5 125q0 78 28.5 158t82.5 144t132.5 104.5t179.5 40.5q79 0 135.5 -25.5
t93 -66.5t53.5 -93.5t17 -107.5q0 -56 -16.5 -110t-45.5 -96t-69.5 -68t-88.5 -26q-29 0 -48.5 10t-19.5 37q0 8 1 13l-1 1q-17 -29 -50 -47t-83 -18q-54 0 -88.5 28.5t-34.5 82.5q0 33 12 56t34.5 39t54 25.5t70.5 16.5l96 17q18 3 24.5 9t8.5 19q2 9 3.5 17t1.5 16
q0 13 -4.5 25t-15 21t-28.5 14.5t-45 5.5q-59 0 -87.5 -27t-33.5 -68l-47 11q4 35 20.5 59t40.5 39t53.5 22t59.5 7q28 0 52.5 -5t43 -17t29 -32t10.5 -49q0 -24 -6 -48l-40 -186q-3 -18 -3 -26q0 -24 26 -24z" />
    <glyph glyph-name="bar.case" horiz-adv-x="258" 
d="M171 -78h-59v838h59v-838z" />
    <glyph glyph-name="plus.case" horiz-adv-x="657" 
d="M369 40h-57v269h-265v56h265v268h57v-268h264v-56h-264v-269z" />
    <glyph glyph-name="minus.case" horiz-adv-x="831" 
d="M760 312h-673v57h673v-57z" />
    <glyph glyph-name="plusminus.case" horiz-adv-x="734" 
d="M388 157h-57v216h-265v56h265v214h57v-214h264v-56h-264v-216zM652 50h-586v57h586v-57z" />
    <glyph glyph-name="multiply.case" horiz-adv-x="692" 
d="M395 324l228 -228l-40 -40l-228 228l-228 -228l-40 40l228 228l-228 228l40 40l228 -228l228 228l40 -40z" />
    <glyph glyph-name="divide.case" horiz-adv-x="798" 
d="M747 310h-673v57h673v-57zM449 576v-100h-78v100h78zM449 201v-101h-78v101h78z" />
    <glyph glyph-name="equal.case" horiz-adv-x="864" 
d="M775 215h-673v56h673v-56zM775 389h-673v57h673v-57z" />
    <glyph glyph-name="notequal.case" horiz-adv-x="793" 
d="M736 389h-297l-62 -118h359v-56h-388l-92 -175h-63l92 175h-222v56h252l62 118h-314v57h344l100 189h62l-100 -189h267v-57z" />
    <glyph glyph-name="approxequal.case" horiz-adv-x="584" 
d="M529 429q-25 -31 -56.5 -54t-69.5 -23q-23 0 -43.5 6.5t-54.5 23.5l-41 20q-15 7 -33.5 13t-38.5 6q-14 0 -25 -3.5t-20.5 -11t-20.5 -19.5t-25 -29l-31 46l16 23t25 27t35 22t46 9t49.5 -8.5t48.5 -19.5l47 -22q25 -11 38.5 -16t27.5 -5q17 0 31 6t26 15.5t22 20.5
t18 21zM529 242q-25 -31 -56.5 -54t-69.5 -23q-23 0 -43.5 6.5t-54.5 23.5l-41 20q-15 7 -33.5 13t-38.5 6q-14 0 -25 -3.5t-20.5 -11t-20.5 -19.5t-25 -29l-31 46l16 23t25 27t35 22t46 9t49.5 -8.5t48.5 -19.5l47 -22q25 -11 38.5 -16t27.5 -5q17 0 31 6t26 15.5t22 20.5
t18 21z" />
    <glyph glyph-name="logicalnot.case" horiz-adv-x="536" 
d="M468 221h-59v180h-337v53h396v-233z" />
    <glyph glyph-name="parenleft.case" horiz-adv-x="244" 
d="M101 -84q-55 157 -55 300q0 146 55 281t169 265l52 -5q-110 -135 -163.5 -266.5t-53.5 -278.5q0 -135 45 -292z" />
    <glyph glyph-name="parenright.case" horiz-adv-x="243" 
d="M165 762q27 -78 41.5 -152.5t14.5 -147.5q0 -146 -55 -281t-169 -265l-51 5q110 135 163 266.5t53 278.5q0 134 -45 292z" />
    <glyph glyph-name="hyphen.case" horiz-adv-x="409" 
d="M340 275h-277l13 63h277z" />
    <glyph glyph-name="bracketleft.case" horiz-adv-x="270" 
d="M165 -78h-167l178 838h168l-10 -48h-109l-158 -742h109z" />
    <glyph glyph-name="bracketright.case" horiz-adv-x="270" 
d="M130 760h167l-178 -838h-168l10 48h109l158 742h-109z" />
    <glyph glyph-name="braceleft.case" horiz-adv-x="270" 
d="M99 363q29 -14 41.5 -35t12.5 -52q0 -24 -6 -54l-34 -161q-4 -17 -6.5 -30.5t-2.5 -24.5q0 -22 14 -31.5t51 -9.5h6l-9 -43q-7 0 -13 -0.5t-12 -0.5q-56 0 -78 17t-22 55q0 19 5 43.5t12 53.5l25 111q13 53 13 85q0 23 -10.5 38t-39.5 24l10 40q25 3 40.5 10.5t25.5 22.5
t16 39t13 60l24 122q7 38 17.5 61.5t25 36.5t34.5 17.5t47 4.5h19.5t21.5 -2l-9 -43h-26q-19 0 -30.5 -4.5t-19.5 -16t-13.5 -30.5t-11.5 -48l-23 -114q-6 -32 -13 -55t-18.5 -40t-30 -28t-46.5 -18z" />
    <glyph glyph-name="braceright.case" horiz-adv-x="269" 
d="M200 338q-29 14 -41.5 35t-12.5 52q0 24 6 54l30 142q4 17 6.5 30.5t2.5 24.5q0 22 -14 31.5t-51 9.5h-6l9 43h8q4 0 8 0.5t9 0.5q56 0 78 -17t22 -55q0 -19 -5 -43.5t-12 -53.5l-21 -92q-13 -53 -13 -85q0 -23 10.5 -38t39.5 -24l-10 -40q-26 -3 -41 -10.5t-25 -22.5
t-16 -39t-13 -60l-28 -142q-8 -38 -18 -61.5t-24.5 -36.5t-34.5 -17.5t-47 -4.5h-19.5t-21.5 2l9 43h26q19 0 30.5 4.5t19.5 15.5t13.5 30.5t11.5 48.5l27 134q6 31 13 54.5t18.5 40.5t29.5 28t47 18z" />
    <glyph glyph-name="guillemotleft.case" horiz-adv-x="383" 
d="M63 379l163 137l-18 -83l-120 -93l79 -99l-16 -75l-104 140zM210 379l163 137l-18 -83l-120 -93l79 -99l-16 -75l-104 140z" />
    <glyph glyph-name="uni00AD.case" horiz-adv-x="410" 
d="M341 275h-277l13 63h277z" />
    <glyph glyph-name="guillemotright.case" horiz-adv-x="381" 
d="M343 303l-163 -137l18 84l120 95l-79 96l16 75l104 -140zM196 303l-163 -137l18 84l120 95l-79 96l16 75l104 -140z" />
    <glyph glyph-name="endash.case" horiz-adv-x="639" 
d="M573 282h-508l11 56h508z" />
    <glyph glyph-name="emdash.case" horiz-adv-x="830" 
d="M764 282h-699l11 56h699z" />
    <glyph glyph-name="guilsinglleft.case" horiz-adv-x="236" 
d="M63 379l163 137l-18 -83l-120 -93l79 -99l-16 -75l-104 140z" />
    <glyph glyph-name="guilsinglright.case" horiz-adv-x="234" 
d="M196 303l-163 -137l18 84l120 95l-79 96l16 75l104 -140z" />
    <glyph glyph-name="Amacron" unicode="&#x100;" horiz-adv-x="599" 
d="M20 0h-69l403 680h64l115 -680h-65l-33 205h-295zM386 515q-5 28 -8 50.5l-6 44.5h-1l-21 -41.5t-24 -42.5l-155 -266h255zM283 831h271l-11 -53h-271z" />
    <glyph glyph-name="amacron" unicode="&#x101;" horiz-adv-x="481" 
d="M341 254q-10 -6 -30 -10t-48 -9l-50 -9q-28 -5 -53.5 -12t-45 -18.5t-31.5 -29.5t-12 -45q0 -45 27.5 -64t69.5 -19q25 0 49.5 6.5t44.5 21t35.5 37.5t22.5 55zM63 342q4 40 23 67.5t46.5 44.5t61 25t68.5 8q32 0 60.5 -6t49.5 -19.5t33.5 -36t12.5 -56.5q0 -13 -2 -27
t-5 -28l-46 -216q-4 -19 -4 -30q0 -14 6.5 -21t23.5 -7q12 0 22 3t16 7l-10 -47q-7 -4 -20.5 -7t-28.5 -3q-29 0 -47 12.5t-18 38.5q0 10 3 22l-1 1q-20 -35 -58.5 -57t-95.5 -22q-62 0 -101.5 32.5t-39.5 94.5q0 38 14 65t39.5 45t61.5 29t81 19l111 19q20 4 27.5 11
t10.5 21l3.5 19.5t1.5 18.5q0 15 -5 28.5t-17 24t-32.5 17t-52.5 6.5q-67 0 -100 -31t-38 -78zM158 632h271l-11 -53h-271z" />
    <glyph glyph-name="Abreve" unicode="&#x102;" horiz-adv-x="599" 
d="M20 0h-69l403 680h64l115 -680h-65l-33 205h-295zM386 515q-5 28 -8 50.5l-6 44.5h-1l-21 -41.5t-24 -42.5l-155 -266h255zM413 783q34 0 60 17.5t40 49.5h48q-19 -54 -59 -83t-94 -29q-57 0 -88 29t-27 83h48q2 -67 72 -67z" />
    <glyph glyph-name="abreve" unicode="&#x103;" horiz-adv-x="481" 
d="M341 254q-10 -6 -30 -10t-48 -9l-50 -9q-28 -5 -53.5 -12t-45 -18.5t-31.5 -29.5t-12 -45q0 -45 27.5 -64t69.5 -19q25 0 49.5 6.5t44.5 21t35.5 37.5t22.5 55zM63 342q4 40 23 67.5t46.5 44.5t61 25t68.5 8q32 0 60.5 -6t49.5 -19.5t33.5 -36t12.5 -56.5q0 -13 -2 -27
t-5 -28l-46 -216q-4 -19 -4 -30q0 -14 6.5 -21t23.5 -7q12 0 22 3t16 7l-10 -47q-7 -4 -20.5 -7t-28.5 -3q-29 0 -47 12.5t-18 38.5q0 10 3 22l-1 1q-20 -35 -58.5 -57t-95.5 -22q-62 0 -101.5 32.5t-39.5 94.5q0 38 14 65t39.5 45t61.5 29t81 19l111 19q20 4 27.5 11
t10.5 21l3.5 19.5t1.5 18.5q0 15 -5 28.5t-17 24t-32.5 17t-52.5 6.5q-67 0 -100 -31t-38 -78zM290 582q34 0 60 17.5t40 49.5h48q-19 -54 -59 -83t-94 -29q-57 0 -88 29t-27 83h48q2 -67 72 -67z" />
    <glyph glyph-name="Aogonek" unicode="&#x104;" horiz-adv-x="599" 
d="M508 -215q-11 -3 -21 -4.5t-25 -1.5q-45 0 -71.5 24.5t-26.5 66.5q0 21 9.5 40t24.5 35.5t33.5 30t36.5 24.5l-33 205h-295l-120 -205h-69l403 680h64l115 -680h-8q-13 -8 -32 -21t-36.5 -30t-30 -36t-12.5 -39q0 -27 15.5 -39t38.5 -12q11 0 22 3zM386 515
q-5 28 -8 50.5l-6 44.5h-1l-21 -41.5t-24 -42.5l-155 -266h255z" />
    <glyph glyph-name="aogonek" unicode="&#x105;" horiz-adv-x="481" 
d="M395 -215q-11 -3 -21 -4.5t-25 -1.5q-45 0 -71.5 24.5t-26.5 66.5q0 19 8.5 37.5t22 34t31 29t34.5 24.5q-20 5 -31 16.5t-11 32.5q0 10 3 22l-1 1q-20 -35 -58.5 -57t-95.5 -22q-62 0 -101.5 32.5t-39.5 94.5q0 38 14 65t39.5 45t61.5 29t81 19l111 19q20 4 27.5 11
t10.5 21l3.5 19.5t1.5 18.5q0 15 -5 28.5t-17 24t-32.5 17t-52.5 6.5q-67 0 -100 -31t-38 -78l-54 13q4 40 23 67.5t46.5 44.5t61 25t68.5 8q32 0 60.5 -6t49.5 -19.5t33.5 -36t12.5 -56.5q0 -13 -2 -27t-5 -28l-46 -216q-4 -19 -4 -30q0 -14 6.5 -21t23.5 -7q12 0 22 3
t16 7l-10 -47q-3 -3 -8 -3q-14 -9 -32.5 -22t-36 -29.5t-29.5 -35.5t-12 -39q0 -27 15.5 -39t38.5 -12q11 0 22 3zM341 254q-10 -6 -30 -10t-48 -9l-50 -9q-28 -5 -53.5 -12t-45 -18.5t-31.5 -29.5t-12 -45q0 -45 27.5 -64t69.5 -19q25 0 49.5 6.5t44.5 21t35.5 37.5
t22.5 55z" />
    <glyph glyph-name="Cacute" unicode="&#x106;" horiz-adv-x="627" 
d="M358 753l102 136h96l-142 -136h-56zM572 486q-15 70 -59.5 110t-122.5 40q-68 0 -119 -34t-84.5 -86.5t-50 -117t-16.5 -124.5q0 -52 11.5 -94.5t35 -72.5t59.5 -46.5t85 -16.5q38 0 70.5 11.5t60.5 31.5t50 48t39 60l48 -36q-42 -75 -110.5 -123t-166.5 -48
q-122 0 -184 73.5t-62 208.5q0 79 23 155t66.5 135.5t107 95.5t143.5 36q89 0 149.5 -43.5t83.5 -126.5z" />
    <glyph glyph-name="cacute" unicode="&#x107;" horiz-adv-x="481" 
d="M402 323q-5 20 -13.5 40.5t-23.5 36.5t-37.5 26t-55.5 10q-45 0 -79 -23t-57 -58t-34.5 -78.5t-11.5 -83.5q0 -70 31.5 -111.5t96.5 -41.5q32 0 57.5 10.5t44.5 27t32.5 36t22.5 37.5l46 -31q-31 -58 -81 -95t-126 -37q-92 0 -138 53t-46 144q0 57 16.5 111.5t48 97
t78 68t105.5 25.5q70 0 116 -36.5t61 -99.5zM439 680l-132 -128h-56l94 128h94z" />
    <glyph glyph-name="Ccircumflex" unicode="&#x108;" horiz-adv-x="627" 
d="M343 753h-65l148 136h42l92 -136h-59l-62 81zM572 486q-15 70 -59.5 110t-122.5 40q-68 0 -119 -34t-84.5 -86.5t-50 -117t-16.5 -124.5q0 -52 11.5 -94.5t35 -72.5t59.5 -46.5t85 -16.5q38 0 70.5 11.5t60.5 31.5t50 48t39 60l48 -36q-42 -75 -110.5 -123t-166.5 -48
q-122 0 -184 73.5t-62 208.5q0 79 23 155t66.5 135.5t107 95.5t143.5 36q89 0 149.5 -43.5t83.5 -126.5z" />
    <glyph glyph-name="ccircumflex" unicode="&#x109;" horiz-adv-x="481" 
d="M402 323q-5 20 -13.5 40.5t-23.5 36.5t-37.5 26t-55.5 10q-45 0 -79 -23t-57 -58t-34.5 -78.5t-11.5 -83.5q0 -70 31.5 -111.5t96.5 -41.5q32 0 57.5 10.5t44.5 27t32.5 36t22.5 37.5l46 -31q-31 -58 -81 -95t-126 -37q-92 0 -138 53t-46 144q0 57 16.5 111.5t48 97
t78 68t105.5 25.5q70 0 116 -36.5t61 -99.5zM177 552l140 128h42l86 -128h-59l-54 77l-88 -77h-67z" />
    <glyph glyph-name="Cdotaccent" unicode="&#x10a;" horiz-adv-x="627" 
d="M572 486q-15 70 -59.5 110t-122.5 40q-68 0 -119 -34t-84.5 -86.5t-50 -117t-16.5 -124.5q0 -52 11.5 -94.5t35 -72.5t59.5 -46.5t85 -16.5q38 0 70.5 11.5t60.5 31.5t50 48t39 60l48 -36q-42 -75 -110.5 -123t-166.5 -48q-122 0 -184 73.5t-62 208.5q0 79 23 155
t66.5 135.5t107 95.5t143.5 36q89 0 149.5 -43.5t83.5 -126.5zM406 859h62l-20 -91h-62z" />
    <glyph glyph-name="cdotaccent" unicode="&#x10b;" horiz-adv-x="481" 
d="M402 323q-5 20 -13.5 40.5t-23.5 36.5t-37.5 26t-55.5 10q-45 0 -79 -23t-57 -58t-34.5 -78.5t-11.5 -83.5q0 -70 31.5 -111.5t96.5 -41.5q32 0 57.5 10.5t44.5 27t32.5 36t22.5 37.5l46 -31q-31 -58 -81 -95t-126 -37q-92 0 -138 53t-46 144q0 57 16.5 111.5t48 97
t78 68t105.5 25.5q70 0 116 -36.5t61 -99.5zM284 657h62l-20 -91h-62z" />
    <glyph glyph-name="Ccaron" unicode="&#x10c;" horiz-adv-x="627" 
d="M531 889h65l-148 -136h-42l-92 136h59l62 -81zM572 486q-15 70 -59.5 110t-122.5 40q-68 0 -119 -34t-84.5 -86.5t-50 -117t-16.5 -124.5q0 -52 11.5 -94.5t35 -72.5t59.5 -46.5t85 -16.5q38 0 70.5 11.5t60.5 31.5t50 48t39 60l48 -36q-42 -75 -110.5 -123t-166.5 -48
q-122 0 -184 73.5t-62 208.5q0 79 23 155t66.5 135.5t107 95.5t143.5 36q89 0 149.5 -43.5t83.5 -126.5z" />
    <glyph glyph-name="ccaron" unicode="&#x10d;" horiz-adv-x="481" 
d="M402 323q-5 20 -13.5 40.5t-23.5 36.5t-37.5 26t-55.5 10q-45 0 -79 -23t-57 -58t-34.5 -78.5t-11.5 -83.5q0 -70 31.5 -111.5t96.5 -41.5q32 0 57.5 10.5t44.5 27t32.5 36t22.5 37.5l46 -31q-31 -58 -81 -95t-126 -37q-92 0 -138 53t-46 144q0 57 16.5 111.5t48 97
t78 68t105.5 25.5q70 0 116 -36.5t61 -99.5zM482 680l-140 -128h-42l-86 128h59l54 -77l88 77h67z" />
    <glyph glyph-name="Dcaron" unicode="&#x10e;" horiz-adv-x="677" 
d="M497 889h65l-148 -136h-42l-92 136h59l62 -81zM23 0l145 680h151q73 0 133.5 -12t104 -41t67 -77.5t23.5 -120.5q0 -55 -11.5 -111.5t-34 -107t-56 -92.5t-78.5 -69q-29 -17 -55 -26.5t-53.5 -14.5t-58.5 -6.5t-69 -1.5h-208zM98 55h138q63 0 112 8.5t92 37.5
q38 25 65 65.5t44.5 86t25.5 92t8 84.5q0 106 -75 157q-21 14 -45.5 22t-50.5 11.5t-54.5 4.5t-57.5 1h-81z" />
    <glyph glyph-name="dcaron" unicode="&#x10f;" horiz-adv-x="539" 
d="M547 680l-145 -680h-59l18 78h-1q-21 -38 -63.5 -64t-95.5 -26q-78 0 -125 50t-47 141q0 60 17 115.5t48.5 98.5t77.5 68.5t103 25.5q35 0 61 -10t44 -25.5t28.5 -35.5t14.5 -41l65 305h59zM218 39q46 0 80.5 24t57 60.5t33.5 80.5t11 84q0 67 -30.5 107.5t-96.5 40.5
q-44 0 -78.5 -23t-58 -58.5t-35.5 -79t-12 -84.5q0 -69 31 -110.5t98 -41.5zM568 552l49 128h82l-83 -128h-48z" />
    <glyph glyph-name="Dcroat" unicode="&#x110;" horiz-adv-x="688" 
d="M14 393h104l61 287h151q73 0 133.5 -12t104 -41t67 -77.5t23.5 -120.5q0 -55 -11.5 -111.5t-34 -107t-56 -92.5t-78.5 -69q-29 -17 -55 -26.5t-53.5 -14.5t-58.5 -6.5t-69 -1.5h-208l72 337h-103zM181 393h202l-12 -56h-202l-60 -282h138q63 0 112 8.5t92 37.5
q38 25 65 65.5t44.5 86t25.5 92t8 84.5q0 106 -75 157q-21 14 -45.5 22t-50.5 11.5t-54.5 4.5t-57.5 1h-81z" />
    <glyph glyph-name="dcroat" unicode="&#x111;" horiz-adv-x="531" 
d="M218 39q46 0 80.5 24t57 60.5t33.5 80.5t11 84q0 67 -30.5 107.5t-96.5 40.5q-44 0 -78.5 -23t-58 -58.5t-35.5 -79t-12 -84.5q0 -69 31 -110.5t98 -41.5zM547 680l-15 -72h79l-12 -56h-79l-118 -552h-59l18 78h-1q-21 -38 -63.5 -64t-95.5 -26q-78 0 -125 50t-47 141
q0 60 17 115.5t48.5 98.5t77.5 68.5t103 25.5q35 0 61 -10t44 -25.5t28.5 -35.5t14.5 -41l38 177h-149l12 56h149l15 72h59z" />
    <glyph glyph-name="Emacron" unicode="&#x112;" horiz-adv-x="582" 
d="M489 0h-466l145 680h446l-12 -55h-383l-53 -247h347l-11 -55h-347l-58 -268h404zM271 831h271l-11 -53h-271z" />
    <glyph glyph-name="emacron" unicode="&#x113;" 
d="M93 234q-3 -21 -3 -43q0 -30 7 -57t22.5 -48t41 -33.5t63.5 -12.5q37 0 64 11.5t47 28t33.5 35.5t22.5 35l45 -31q-13 -23 -31 -46.5t-44.5 -42t-61 -30.5t-80.5 -12q-94 0 -141.5 52t-47.5 154q0 58 18.5 111t51.5 93.5t79 64.5t102 24q46 0 79 -15t54 -40t30.5 -58.5
t9.5 -70.5q0 -16 -2 -34.5t-6 -34.5h-353zM275 437q-34 0 -62.5 -14t-50 -36t-36.5 -50t-22 -55h287q1 7 1.5 14t0.5 15q0 24 -6 46.5t-19.5 40.5t-36.5 28.5t-56 10.5zM179 632h271l-11 -53h-271z" />
    <glyph glyph-name="Ebreve" unicode="&#x114;" horiz-adv-x="582" 
d="M489 0h-466l145 680h446l-12 -55h-383l-53 -247h347l-11 -55h-347l-58 -268h404zM412 783q34 0 60 17.5t40 49.5h48q-19 -54 -59 -83t-94 -29q-57 0 -88 29t-27 83h48q2 -67 72 -67z" />
    <glyph glyph-name="ebreve" unicode="&#x115;" 
d="M93 234q-3 -21 -3 -43q0 -30 7 -57t22.5 -48t41 -33.5t63.5 -12.5q37 0 64 11.5t47 28t33.5 35.5t22.5 35l45 -31q-13 -23 -31 -46.5t-44.5 -42t-61 -30.5t-80.5 -12q-94 0 -141.5 52t-47.5 154q0 58 18.5 111t51.5 93.5t79 64.5t102 24q46 0 79 -15t54 -40t30.5 -58.5
t9.5 -70.5q0 -16 -2 -34.5t-6 -34.5h-353zM275 437q-34 0 -62.5 -14t-50 -36t-36.5 -50t-22 -55h287q1 7 1.5 14t0.5 15q0 24 -6 46.5t-19.5 40.5t-36.5 28.5t-56 10.5zM315 582q34 0 60 17.5t40 49.5h48q-19 -54 -59 -83t-94 -29q-57 0 -88 29t-27 83h48q2 -67 72 -67z" />
    <glyph glyph-name="Edotaccent" unicode="&#x116;" horiz-adv-x="582" 
d="M489 0h-466l145 680h446l-12 -55h-383l-53 -247h347l-11 -55h-347l-58 -268h404zM397 859h62l-20 -91h-62z" />
    <glyph glyph-name="edotaccent" unicode="&#x117;" 
d="M93 234q-3 -21 -3 -43q0 -30 7 -57t22.5 -48t41 -33.5t63.5 -12.5q37 0 64 11.5t47 28t33.5 35.5t22.5 35l45 -31q-13 -23 -31 -46.5t-44.5 -42t-61 -30.5t-80.5 -12q-94 0 -141.5 52t-47.5 154q0 58 18.5 111t51.5 93.5t79 64.5t102 24q46 0 79 -15t54 -40t30.5 -58.5
t9.5 -70.5q0 -16 -2 -34.5t-6 -34.5h-353zM275 437q-34 0 -62.5 -14t-50 -36t-36.5 -50t-22 -55h287q1 7 1.5 14t0.5 15q0 24 -6 46.5t-19.5 40.5t-36.5 28.5t-56 10.5zM286 657h62l-20 -91h-62z" />
    <glyph glyph-name="Eogonek" unicode="&#x118;" horiz-adv-x="582" 
d="M466 -215q-11 -3 -21 -4.5t-25 -1.5q-45 0 -71.5 24.5t-26.5 66.5q0 21 9.5 40t24.5 35.5t33.5 30.5t36.5 24h-403l145 680h446l-12 -55h-383l-53 -247h347l-11 -55h-347l-58 -268h404l-12 -55h-6q-13 -8 -32 -21t-36.5 -30t-30 -36t-12.5 -39q0 -27 15.5 -39t38.5 -12
q11 0 22 3z" />
    <glyph glyph-name="eogonek" unicode="&#x119;" 
d="M247 -215q-11 -3 -21 -4.5t-25 -1.5q-45 0 -71.5 24.5t-26.5 66.5q0 18 7.5 35.5t20 32.5t28 28t31.5 23q-160 18 -160 205q0 58 18.5 111t51.5 93.5t79 64.5t102 24q46 0 79 -15t54 -40t30.5 -58.5t9.5 -70.5q0 -16 -2 -34.5t-6 -34.5h-353q-3 -21 -3 -43q0 -30 7 -57
t22.5 -48t41 -33.5t63.5 -12.5q37 0 64 11.5t47 28t33.5 35.5t22.5 35l45 -31q-12 -21 -28.5 -42.5t-39 -39.5t-52.5 -31t-69 -17q-14 -9 -30.5 -22t-30.5 -28t-23.5 -31.5t-9.5 -33.5q0 -27 15.5 -39t38.5 -12q11 0 22 3zM275 437q-34 0 -62.5 -14t-50 -36t-36.5 -50
t-22 -55h287q1 7 1.5 14t0.5 15q0 24 -6 46.5t-19.5 40.5t-36.5 28.5t-56 10.5z" />
    <glyph glyph-name="Ecaron" unicode="&#x11a;" horiz-adv-x="582" 
d="M315 753h-65l148 136h42l92 -136h-59l-62 81zM489 0h-466l145 680h446l-12 -55h-383l-53 -247h347l-11 -55h-347l-58 -268h404z" />
    <glyph glyph-name="ecaron" unicode="&#x11b;" 
d="M93 234q-3 -21 -3 -43q0 -30 7 -57t22.5 -48t41 -33.5t63.5 -12.5q37 0 64 11.5t47 28t33.5 35.5t22.5 35l45 -31q-13 -23 -31 -46.5t-44.5 -42t-61 -30.5t-80.5 -12q-94 0 -141.5 52t-47.5 154q0 58 18.5 111t51.5 93.5t79 64.5t102 24q46 0 79 -15t54 -40t30.5 -58.5
t9.5 -70.5q0 -16 -2 -34.5t-6 -34.5h-353zM275 437q-34 0 -62.5 -14t-50 -36t-36.5 -50t-22 -55h287q1 7 1.5 14t0.5 15q0 24 -6 46.5t-19.5 40.5t-36.5 28.5t-56 10.5zM466 680l-140 -128h-42l-86 128h59l54 -77l88 77h67z" />
    <glyph glyph-name="Gcircumflex" unicode="&#x11c;" horiz-adv-x="662" 
d="M344 753h-65l148 136h42l92 -136h-59l-62 81zM311 44q50 0 92 17t76 53q26 29 45 68t33 100l1 6h-243l12 56h297l-73 -344h-58l22 97l-1 1q-12 -18 -30.5 -37t-44.5 -35.5t-60.5 -27t-78.5 -10.5q-120 0 -182 73.5t-62 208.5q0 79 23 155t66.5 135.5t107 95.5t143.5 36
q89 0 149.5 -43.5t83.5 -126.5l-57 -36q-15 70 -59.5 110t-122.5 40q-68 0 -119 -34t-84.5 -86.5t-50 -117t-16.5 -124.5q0 -52 11.5 -94.5t35 -72.5t59.5 -46.5t85 -16.5z" />
    <glyph glyph-name="gcircumflex" unicode="&#x11d;" horiz-adv-x="532" 
d="M220 46q46 0 80.5 23t56.5 58.5t33 78t11 82.5q0 67 -30.5 107.5t-96.5 40.5q-44 0 -78.5 -21.5t-57.5 -55.5t-35 -76t-12 -83q0 -69 31 -111.5t98 -42.5zM363 85q-21 -38 -64 -64t-96 -26q-78 0 -125 51t-47 142q0 59 17 113t48.5 95.5t76.5 66t100 24.5q35 0 61.5 -10
t45 -25.5t29.5 -35.5t15 -41l21 101h59l-92 -439q-13 -61 -28.5 -102.5t-40.5 -70.5q-27 -31 -67.5 -46.5t-99.5 -15.5q-50 0 -84.5 12.5t-55.5 33t-30.5 46t-9.5 51.5v10t1 10l58 18q-1 -6 -1 -11.5v-10.5q0 -109 126 -109q48 0 77.5 14.5t47.5 40t28.5 59t19.5 71.5
q2 6 3.5 14t3.5 16l4 18h-1zM177 552l140 128h42l86 -128h-59l-54 77l-88 -77h-67z" />
    <glyph glyph-name="Gbreve" unicode="&#x11e;" horiz-adv-x="662" 
d="M311 44q50 0 92 17t76 53q26 29 45 68t33 100l1 6h-243l12 56h297l-73 -344h-58l22 97l-1 1q-12 -18 -30.5 -37t-44.5 -35.5t-60.5 -27t-78.5 -10.5q-120 0 -182 73.5t-62 208.5q0 79 23 155t66.5 135.5t107 95.5t143.5 36q89 0 149.5 -43.5t83.5 -126.5l-57 -36
q-15 70 -59.5 110t-122.5 40q-68 0 -119 -34t-84.5 -86.5t-50 -117t-16.5 -124.5q0 -52 11.5 -94.5t35 -72.5t59.5 -46.5t85 -16.5zM426 783q34 0 60 17.5t40 49.5h48q-19 -54 -59 -83t-94 -29q-57 0 -88 29t-27 83h48q2 -67 72 -67z" />
    <glyph glyph-name="gbreve" unicode="&#x11f;" horiz-adv-x="532" 
d="M220 46q46 0 80.5 23t56.5 58.5t33 78t11 82.5q0 67 -30.5 107.5t-96.5 40.5q-44 0 -78.5 -21.5t-57.5 -55.5t-35 -76t-12 -83q0 -69 31 -111.5t98 -42.5zM363 85q-21 -38 -64 -64t-96 -26q-78 0 -125 51t-47 142q0 59 17 113t48.5 95.5t76.5 66t100 24.5q35 0 61.5 -10
t45 -25.5t29.5 -35.5t15 -41l21 101h59l-92 -439q-13 -61 -28.5 -102.5t-40.5 -70.5q-27 -31 -67.5 -46.5t-99.5 -15.5q-50 0 -84.5 12.5t-55.5 33t-30.5 46t-9.5 51.5v10t1 10l58 18q-1 -6 -1 -11.5v-10.5q0 -109 126 -109q48 0 77.5 14.5t47.5 40t28.5 59t19.5 71.5
q2 6 3.5 14t3.5 16l4 18h-1zM313 582q34 0 60 17.5t40 49.5h48q-19 -54 -59 -83t-94 -29q-57 0 -88 29t-27 83h48q2 -67 72 -67z" />
    <glyph glyph-name="Gdotaccent" unicode="&#x120;" horiz-adv-x="662" 
d="M311 44q50 0 92 17t76 53q26 29 45 68t33 100l1 6h-243l12 56h297l-73 -344h-58l22 97l-1 1q-12 -18 -30.5 -37t-44.5 -35.5t-60.5 -27t-78.5 -10.5q-120 0 -182 73.5t-62 208.5q0 79 23 155t66.5 135.5t107 95.5t143.5 36q89 0 149.5 -43.5t83.5 -126.5l-57 -36
q-15 70 -59.5 110t-122.5 40q-68 0 -119 -34t-84.5 -86.5t-50 -117t-16.5 -124.5q0 -52 11.5 -94.5t35 -72.5t59.5 -46.5t85 -16.5zM405 859h62l-20 -91h-62z" />
    <glyph glyph-name="gdotaccent" unicode="&#x121;" horiz-adv-x="532" 
d="M220 46q46 0 80.5 23t56.5 58.5t33 78t11 82.5q0 67 -30.5 107.5t-96.5 40.5q-44 0 -78.5 -21.5t-57.5 -55.5t-35 -76t-12 -83q0 -69 31 -111.5t98 -42.5zM363 85q-21 -38 -64 -64t-96 -26q-78 0 -125 51t-47 142q0 59 17 113t48.5 95.5t76.5 66t100 24.5q35 0 61.5 -10
t45 -25.5t29.5 -35.5t15 -41l21 101h59l-92 -439q-13 -61 -28.5 -102.5t-40.5 -70.5q-27 -31 -67.5 -46.5t-99.5 -15.5q-50 0 -84.5 12.5t-55.5 33t-30.5 46t-9.5 51.5v10t1 10l58 18q-1 -6 -1 -11.5v-10.5q0 -109 126 -109q48 0 77.5 14.5t47.5 40t28.5 59t19.5 71.5
q2 6 3.5 14t3.5 16l4 18h-1zM283 657h62l-20 -91h-62z" />
    <glyph glyph-name="Gcommaaccent" unicode="&#x122;" horiz-adv-x="662" 
d="M311 44q50 0 92 17t76 53q26 29 45 68t33 100l1 6h-243l12 56h297l-73 -344h-58l22 97l-1 1q-12 -18 -30.5 -37t-44.5 -35.5t-60.5 -27t-78.5 -10.5q-120 0 -182 73.5t-62 208.5q0 79 23 155t66.5 135.5t107 95.5t143.5 36q89 0 149.5 -43.5t83.5 -126.5l-57 -36
q-15 70 -59.5 110t-122.5 40q-68 0 -119 -34t-84.5 -86.5t-50 -117t-16.5 -124.5q0 -52 11.5 -94.5t35 -72.5t59.5 -46.5t85 -16.5zM199 -243q34 9 46 27t20 57h-42l21 94h77l-24 -110q-11 -48 -34 -71.5t-71 -31.5z" />
    <glyph glyph-name="gcommaaccent" unicode="&#x123;" horiz-adv-x="532" 
d="M220 46q46 0 80.5 23t56.5 58.5t33 78t11 82.5q0 67 -30.5 107.5t-96.5 40.5q-44 0 -78.5 -21.5t-57.5 -55.5t-35 -76t-12 -83q0 -69 31 -111.5t98 -42.5zM363 85q-21 -38 -64 -64t-96 -26q-78 0 -125 51t-47 142q0 59 17 113t48.5 95.5t76.5 66t100 24.5q35 0 61.5 -10
t45 -25.5t29.5 -35.5t15 -41l21 101h59l-92 -439q-13 -61 -28.5 -102.5t-40.5 -70.5q-27 -31 -67.5 -46.5t-99.5 -15.5q-50 0 -84.5 12.5t-55.5 33t-30.5 46t-9.5 51.5v10t1 10l58 18q-1 -6 -1 -11.5v-10.5q0 -109 126 -109q48 0 77.5 14.5t47.5 40t28.5 59t19.5 71.5
q2 6 3.5 14t3.5 16l4 18h-1zM377 764q-17 -5 -28 -11t-18 -16t-11.5 -24t-8.5 -33h42l-21 -94h-77l24 110q11 48 34 71.5t71 31.5z" />
    <glyph glyph-name="Hcircumflex" unicode="&#x124;" horiz-adv-x="693" 
d="M353 753h-65l148 136h42l92 -136h-59l-62 81zM550 0h-63l69 322h-401l-69 -322h-63l145 680h63l-64 -301h401l64 301h62z" />
    <glyph glyph-name="hcircumflex" unicode="&#x125;" 
d="M264 753h-65l148 136h42l92 -136h-59l-62 81zM211 680l-59 -283q9 18 25.5 34t38.5 28.5t47 20t52 7.5q64 0 98 -34.5t34 -92.5q0 -15 -3 -37t-8 -45l-59 -278h-59l54 255q7 30 10.5 53.5t3.5 42.5q0 81 -92 81q-35 0 -63.5 -15t-50.5 -39t-36 -53.5t-20 -58.5l-56 -266
h-59l144 680h58z" />
    <glyph glyph-name="Hbar" unicode="&#x126;" horiz-adv-x="693" 
d="M550 0h-63l69 322h-401l-69 -322h-63l145 680h63l-34 -158h401l34 158h62zM568 379l19 90h-401l-19 -90h401z" />
    <glyph glyph-name="hbar" unicode="&#x127;" 
d="M211 680l-16 -75h165l-11 -53h-165l-32 -154q9 18 25.5 34t38.5 28.5t47 20t52 7.5q64 0 98 -34.5t34 -92.5q0 -15 -3 -37t-8 -45l-59 -279h-59l54 256q7 30 10.5 53.5t3.5 42.5q0 81 -92 81q-35 0 -63.5 -15t-50.5 -39t-36 -53.5t-20 -58.5l-56 -267h-59l117 552h-80
l11 53h80l16 75h58z" />
    <glyph glyph-name="Itilde" unicode="&#x128;" horiz-adv-x="230" 
d="M231 680l-145 -680h-63l145 680h63zM388 858q-7 -15 -15.5 -31t-19.5 -29t-25.5 -21.5t-33.5 -8.5t-38.5 8t-38.5 18q-17 8 -30.5 15t-24.5 7q-22 0 -32 -16t-15 -31l-42 9l11 24.5t18.5 30t28 25t38.5 10.5q17 0 33.5 -7t33.5 -15l32 -15.5t30 -7.5q22 0 33 14.5
t16 30.5z" />
    <glyph glyph-name="itilde" unicode="&#x129;" horiz-adv-x="197" 
d="M68 0h-59l101 476h59zM326 656q-7 -15 -15.5 -31t-19.5 -29t-25.5 -21.5t-33.5 -8.5t-38.5 8t-38.5 18q-17 8 -30.5 15t-24.5 7q-22 0 -32 -16t-15 -31l-42 9l11 24.5t18.5 30t28 25t38.5 10.5q17 0 33.5 -7t33.5 -15l32 -15.5t30 -7.5q22 0 33 14.5t16 30.5z" />
    <glyph glyph-name="imacron" unicode="&#x12b;" horiz-adv-x="197" 
d="M68 0h-59l101 476h59zM38 632h271l-11 -53h-271z" />
    <glyph glyph-name="Ibreve" unicode="&#x12c;" horiz-adv-x="230" 
d="M231 680l-145 -680h-63l145 680h63zM231 783q34 0 60 17.5t40 49.5h48q-19 -54 -59 -83t-94 -29q-57 0 -88 29t-27 83h48q2 -67 72 -67z" />
    <glyph glyph-name="Iogonek" unicode="&#x12e;" horiz-adv-x="230" 
d="M63 -215q-11 -3 -21 -4.5t-25 -1.5q-45 0 -71.5 24.5t-26.5 66.5q0 21 9.5 40t24.5 35.5t33.5 30.5t36.5 24l145 680h63l-145 -680h-6q-13 -8 -32 -21t-36.5 -30t-30 -36t-12.5 -39q0 -27 15.5 -39t38.5 -12q11 0 22 3z" />
    <glyph glyph-name="iogonek" unicode="&#x12f;" horiz-adv-x="197" 
d="M49 -215q-11 -3 -21 -4.5t-25 -1.5q-45 0 -71.5 24.5t-26.5 66.5q0 21 9.5 40t24.5 35.5t33.5 30.5t36.5 24l101 476h59l-101 -476h-2q-13 -8 -32 -21t-36.5 -30t-30 -36t-12.5 -39q0 -27 15.5 -39t38.5 -12q11 0 22 3zM192 582h-59l20 98h59z" />
    <glyph glyph-name="Idotaccent" unicode="&#x130;" horiz-adv-x="230" 
d="M231 680l-145 -680h-63l145 680h63zM206 859h62l-20 -91h-62z" />
    <glyph glyph-name="IJ" unicode="&#x132;" horiz-adv-x="700" 
d="M231 680l-145 -680h-63l145 680h63zM705 680l-96 -454q-10 -46 -20.5 -82.5t-27.5 -66.5q-24 -42 -65 -67t-112 -25q-88 0 -134 40.5t-46 120.5v13.5t2 20.5l65 25q-2 -13 -3.5 -24t-1.5 -23q0 -52 28.5 -86t92.5 -34q51 0 80.5 22t46.5 60q10 20 17 45t13 55l99 460h62z
" />
    <glyph glyph-name="ij" unicode="&#x133;" horiz-adv-x="413" 
d="M68 0h-59l101 476h59zM192 582h-59l20 98h59zM386 476l-104 -485l-15 -68t-11.5 -45t-12.5 -30t-17 -22q-16 -16 -37.5 -22t-44.5 -6q-24 0 -44 6t-34 14l13 57q14 -11 30 -17t36 -6q34 0 46.5 23t23.5 77l112 524h59zM409 582h-59l21 98h59z" />
    <glyph glyph-name="Jcircumflex" unicode="&#x134;" horiz-adv-x="486" 
d="M392 753h-65l148 136h42l92 -136h-59l-62 81zM490 680l-96 -454q-10 -46 -20.5 -82.5t-27.5 -66.5q-24 -42 -65 -67t-112 -25q-88 0 -134 40.5t-46 120.5v13.5t2 20.5l65 25q-2 -13 -3.5 -24t-1.5 -23q0 -52 28.5 -86t92.5 -34q51 0 80.5 22t46.5 60q10 20 17 45t13 55
l99 460h62z" />
    <glyph glyph-name="jcircumflex" unicode="&#x135;" horiz-adv-x="196" 
d="M169 476l-104 -485l-15 -68t-11.5 -45t-12.5 -30t-17 -22q-16 -16 -37.5 -22t-44.5 -6q-24 0 -44 6t-34 14l13 57q14 -11 30 -17t36 -6q34 0 46.5 23t23.5 77l112 524h59zM12 552l140 128h42l86 -128h-59l-54 77l-88 -77h-67z" />
    <glyph glyph-name="Kcommaaccent" unicode="&#x136;" horiz-adv-x="625" 
d="M562 0h-73l-173 366l-182 -155l-45 -211h-65l144 680h66l-83 -384l451 384h92l-327 -274zM203 -243q34 9 46 27t20 57h-42l21 94h77l-24 -110q-11 -48 -34 -71.5t-71 -31.5z" />
    <glyph glyph-name="kcommaaccent" unicode="&#x137;" horiz-adv-x="488" 
d="M213 680l-95 -444l300 240h90l-229 -177l141 -299h-68l-121 261l-129 -100l-34 -161h-59l144 680h60zM126 -243q34 9 46 27t20 57h-42l21 94h77l-24 -110q-11 -48 -34 -71.5t-71 -31.5z" />
    <glyph glyph-name="kgreenlandic" unicode="&#x138;" horiz-adv-x="486" 
d="M117 236l200 161l44.5 34t37.5 25t36.5 15t40.5 5h7l-12 -56h-6q-17 0 -33.5 -7.5t-33 -19t-33 -25l-32.5 -26.5l-55 -43l141 -299h-68l-121 261l-129 -100l-34 -161h-59l101 475h59z" />
    <glyph glyph-name="Lacute" unicode="&#x139;" horiz-adv-x="527" 
d="M178 753l102 136h96l-142 -136h-56zM459 0h-436l145 680h62l-133 -625h374z" />
    <glyph glyph-name="lacute" unicode="&#x13a;" horiz-adv-x="208" 
d="M171 753l102 136h96l-142 -136h-56zM218 680l-145 -680h-59l145 680h59z" />
    <glyph glyph-name="Lcommaaccent" unicode="&#x13b;" horiz-adv-x="527" 
d="M459 0h-436l145 680h62l-133 -625h374zM176 -243q34 9 46 27t20 57h-42l21 94h77l-24 -110q-11 -48 -34 -71.5t-71 -31.5z" />
    <glyph glyph-name="lcommaaccent" unicode="&#x13c;" horiz-adv-x="208" 
d="M218 680l-145 -680h-59l145 680h59zM-54 -243q34 9 46 27t20 57h-42l21 94h77l-24 -110q-11 -48 -34 -71.5t-71 -31.5z" />
    <glyph glyph-name="Lcaron" unicode="&#x13d;" horiz-adv-x="527" 
d="M459 0h-436l145 680h62l-133 -625h374zM327 553l49 128h82l-83 -128h-48z" />
    <glyph glyph-name="lcaron" unicode="&#x13e;" horiz-adv-x="215" 
d="M218 680l-145 -680h-59l145 680h59zM242 552l49 128h82l-83 -128h-48z" />
    <glyph glyph-name="Ldot" unicode="&#x13f;" horiz-adv-x="527" 
d="M459 0h-436l145 680h62l-133 -625h374zM367 476l-25 -114h-78l25 114h78z" />
    <glyph glyph-name="ldot" unicode="&#x140;" horiz-adv-x="266" 
d="M218 680l-145 -680h-59l145 680h59zM330 476l-25 -114h-78l25 114h78z" />
    <glyph glyph-name="Nacute" unicode="&#x143;" horiz-adv-x="707" 
d="M374 753l102 136h96l-142 -136h-56zM494 0l-244 511q-14 29 -24.5 55t-13.5 36h-1q-2 -18 -5.5 -39t-11.5 -58l-108 -505h-63l145 680h69l246 -511q14 -29 22.5 -49l14.5 -34h1q1 9 2.5 17.5t3.5 18.5l4.5 23t6.5 31l107 504h63l-145 -680h-69z" />
    <glyph glyph-name="nacute" unicode="&#x144;" 
d="M377 0h-59l54 255q7 30 10.5 53.5t3.5 42.5q0 81 -92 81q-35 0 -63.5 -15t-50.5 -39t-36 -53.5t-20 -58.5l-56 -266h-59l101 476h59l-17 -79q9 18 25.5 34t38.5 28.5t47 20t52 7.5q64 0 98 -34.5t34 -92.5q0 -15 -3 -37t-8 -45zM426 680l-132 -128h-56l94 128h94z" />
    <glyph glyph-name="Ncommaaccent" unicode="&#x145;" horiz-adv-x="707" 
d="M494 0l-244 511q-14 29 -24.5 55t-13.5 36h-1q-2 -18 -5.5 -39t-11.5 -58l-108 -505h-63l145 680h69l246 -511q14 -29 22.5 -49l14.5 -34h1q1 9 2.5 17.5t3.5 18.5l4.5 23t6.5 31l107 504h63l-145 -680h-69zM212 -243q34 9 46 27t20 57h-42l21 94h77l-24 -110
q-11 -48 -34 -71.5t-71 -31.5z" />
    <glyph glyph-name="ncommaaccent" unicode="&#x146;" 
d="M377 0h-59l54 255q7 30 10.5 53.5t3.5 42.5q0 81 -92 81q-35 0 -63.5 -15t-50.5 -39t-36 -53.5t-20 -58.5l-56 -266h-59l101 476h59l-17 -79q9 18 25.5 34t38.5 28.5t47 20t52 7.5q64 0 98 -34.5t34 -92.5q0 -15 -3 -37t-8 -45zM113 -243q34 9 46 27t20 57h-42l21 94h77
l-24 -110q-11 -48 -34 -71.5t-71 -31.5z" />
    <glyph glyph-name="Ncaron" unicode="&#x147;" horiz-adv-x="707" 
d="M535 889h65l-148 -136h-42l-92 136h59l62 -81zM494 0l-244 511q-14 29 -24.5 55t-13.5 36h-1q-2 -18 -5.5 -39t-11.5 -58l-108 -505h-63l145 680h69l246 -511q14 -29 22.5 -49l14.5 -34h1q1 9 2.5 17.5t3.5 18.5l4.5 23t6.5 31l107 504h63l-145 -680h-69z" />
    <glyph glyph-name="ncaron" unicode="&#x148;" 
d="M377 0h-59l54 255q7 30 10.5 53.5t3.5 42.5q0 81 -92 81q-35 0 -63.5 -15t-50.5 -39t-36 -53.5t-20 -58.5l-56 -266h-59l101 476h59l-17 -79q9 18 25.5 34t38.5 28.5t47 20t52 7.5q64 0 98 -34.5t34 -92.5q0 -15 -3 -37t-8 -45zM446 680l-140 -128h-42l-86 128h59l54 -77
l88 77h67z" />
    <glyph glyph-name="napostrophe" unicode="&#x149;" 
d="M377 0h-59l54 255q7 30 10.5 53.5t3.5 42.5q0 81 -92 81q-35 0 -63.5 -15t-50.5 -39t-36 -53.5t-20 -58.5l-56 -266h-59l101 476h59l-17 -79q9 18 25.5 34t38.5 28.5t47 20t52 7.5q64 0 98 -34.5t34 -92.5q0 -15 -3 -37t-8 -45zM86 596q34 9 46 27t20 57h-42l21 94h77
l-24 -110q-11 -48 -34 -71.5t-71 -31.5z" />
    <glyph glyph-name="Eng" unicode="&#x14a;" horiz-adv-x="707" 
d="M230 -15v-10q0 -52 28.5 -86t92.5 -34q51 0 80.5 22t46.5 60q12 25 22 63l-250 511q-14 29 -24.5 55t-13.5 36h-1q-2 -18 -5.5 -39t-11.5 -58l-108 -505h-63l145 680h69l247 -505q14 -29 22.5 -49l14.5 -34h1q1 9 2.5 17.5t3.5 18.5l4.5 23t6.5 31l106 498h63l-135 -637
q-10 -46 -20.5 -82.5t-27.5 -66.5q-24 -42 -65 -67t-112 -25q-87 0 -133 40.5t-47 119.5z" />
    <glyph glyph-name="eng" unicode="&#x14b;" 
d="M375 -9l-15 -68t-11.5 -45t-12.5 -30t-17 -22q-16 -16 -37.5 -22t-44.5 -6q-24 0 -44 6t-34 14l13 57q14 -11 30 -17t36 -6q34 0 46.5 23t23.5 77l64 304q7 30 10.5 53.5t3.5 42.5q0 81 -92 81q-35 0 -63.5 -15t-50.5 -39t-36 -53.5t-20 -58.5l-56 -267h-59l101 476h59
l-17 -78q9 18 25.5 34t38.5 28.5t47 20t52 7.5q64 0 98 -34.5t34 -92.5q0 -15 -3 -37t-8 -45z" />
    <glyph glyph-name="Omacron" unicode="&#x14c;" horiz-adv-x="679" 
d="M401 692q56 0 101.5 -18t78 -52.5t50 -85t17.5 -114.5q0 -79 -21.5 -157t-64.5 -139.5t-108 -99.5t-153 -38q-122 0 -184 74.5t-62 207.5q0 79 23.5 155t67.5 135.5t108.5 95.5t146.5 36zM310 44q45 0 83 16t68.5 44t53.5 64.5t38 77.5t22.5 83.5t7.5 82.5q0 102 -48 163
t-143 61q-67 0 -117.5 -34t-85 -86.5t-52 -117t-17.5 -124.5q0 -52 11.5 -94.5t35 -72.5t59 -46.5t84.5 -16.5zM304 831h271l-11 -53h-271z" />
    <glyph glyph-name="omacron" unicode="&#x14d;" horiz-adv-x="517" 
d="M29 185q0 56 16.5 110t48.5 97t80 69t110 26q87 0 135.5 -53t48.5 -145q0 -55 -16 -109t-48 -96.5t-80 -69t-111 -26.5q-87 0 -135.5 52.5t-48.5 144.5zM277 437q-46 0 -81 -22.5t-58.5 -57.5t-35.5 -78.5t-12 -86.5q0 -73 34.5 -113t94.5 -40q47 0 82 23t58.5 58.5
t35.5 79.5t12 86q0 72 -34.5 111.5t-95.5 39.5zM180 632h271l-11 -53h-271z" />
    <glyph glyph-name="Obreve" unicode="&#x14e;" horiz-adv-x="679" 
d="M401 692q56 0 101.5 -18t78 -52.5t50 -85t17.5 -114.5q0 -79 -21.5 -157t-64.5 -139.5t-108 -99.5t-153 -38q-122 0 -184 74.5t-62 207.5q0 79 23.5 155t67.5 135.5t108.5 95.5t146.5 36zM310 44q45 0 83 16t68.5 44t53.5 64.5t38 77.5t22.5 83.5t7.5 82.5q0 102 -48 163
t-143 61q-67 0 -117.5 -34t-85 -86.5t-52 -117t-17.5 -124.5q0 -52 11.5 -94.5t35 -72.5t59 -46.5t84.5 -16.5zM428 783q34 0 60 17.5t40 49.5h48q-19 -54 -59 -83t-94 -29q-57 0 -88 29t-27 83h48q2 -67 72 -67z" />
    <glyph glyph-name="obreve" unicode="&#x14f;" horiz-adv-x="517" 
d="M29 185q0 56 16.5 110t48.5 97t80 69t110 26q87 0 135.5 -53t48.5 -145q0 -55 -16 -109t-48 -96.5t-80 -69t-111 -26.5q-87 0 -135.5 52.5t-48.5 144.5zM277 437q-46 0 -81 -22.5t-58.5 -57.5t-35.5 -78.5t-12 -86.5q0 -73 34.5 -113t94.5 -40q47 0 82 23t58.5 58.5
t35.5 79.5t12 86q0 72 -34.5 111.5t-95.5 39.5zM312 582q34 0 60 17.5t40 49.5h48q-19 -54 -59 -83t-94 -29q-57 0 -88 29t-27 83h48q2 -67 72 -67z" />
    <glyph glyph-name="Ohungarumlaut" unicode="&#x150;" horiz-adv-x="679" 
d="M401 692q56 0 101.5 -18t78 -52.5t50 -85t17.5 -114.5q0 -79 -21.5 -157t-64.5 -139.5t-108 -99.5t-153 -38q-122 0 -184 74.5t-62 207.5q0 79 23.5 155t67.5 135.5t108.5 95.5t146.5 36zM310 44q45 0 83 16t68.5 44t53.5 64.5t38 77.5t22.5 83.5t7.5 82.5q0 102 -48 163
t-143 61q-67 0 -117.5 -34t-85 -86.5t-52 -117t-17.5 -124.5q0 -52 11.5 -94.5t35 -72.5t59 -46.5t84.5 -16.5zM634 884l-132 -128h-56l94 128h94zM475 884l-132 -128h-56l94 128h94z" />
    <glyph glyph-name="ohungarumlaut" unicode="&#x151;" horiz-adv-x="517" 
d="M29 185q0 56 16.5 110t48.5 97t80 69t110 26q87 0 135.5 -53t48.5 -145q0 -55 -16 -109t-48 -96.5t-80 -69t-111 -26.5q-87 0 -135.5 52.5t-48.5 144.5zM277 437q-46 0 -81 -22.5t-58.5 -57.5t-35.5 -78.5t-12 -86.5q0 -73 34.5 -113t94.5 -40q47 0 82 23t58.5 58.5
t35.5 79.5t12 86q0 72 -34.5 111.5t-95.5 39.5zM517 680l-132 -128h-56l94 128h94zM358 680l-132 -128h-56l94 128h94z" />
    <glyph glyph-name="Racute" unicode="&#x154;" horiz-adv-x="638" 
d="M338 753l102 136h96l-142 -136h-56zM149 300l-64 -300h-62l145 680h237q58 0 91.5 -7t59.5 -21q31 -17 51.5 -48.5t20.5 -79.5q0 -66 -27 -116.5t-78 -78.5q-18 -10 -41 -16.5t-55 -9.5l119 -303h-68l-114 300h-215zM363 356q57 0 88 7t53 22q28 19 45.5 51.5t17.5 82.5
q0 40 -19 62t-49 33q-20 7 -46 9t-52 2h-183l-57 -269h202z" />
    <glyph glyph-name="racute" unicode="&#x155;" horiz-adv-x="324" 
d="M332 423q-9 2 -18.5 3t-17.5 1q-33 0 -61.5 -13.5t-51 -35.5t-37.5 -50.5t-21 -58.5l-57 -269h-59l101 476h59l-20 -92q10 19 26 37.5t37 33t46 23.5t52 9q8 0 17.5 -1t17.5 -3zM310 680l-132 -128h-56l94 128h94z" />
    <glyph glyph-name="Rcommaaccent" unicode="&#x156;" horiz-adv-x="638" 
d="M149 300l-64 -300h-62l145 680h237q58 0 91.5 -7t59.5 -21q31 -17 51.5 -48.5t20.5 -79.5q0 -66 -27 -116.5t-78 -78.5q-18 -10 -41 -16.5t-55 -9.5l119 -303h-68l-114 300h-215zM363 356q57 0 88 7t53 22q28 19 45.5 51.5t17.5 82.5q0 40 -19 62t-49 33q-20 7 -46 9
t-52 2h-183l-57 -269h202zM189 -243q34 9 46 27t20 57h-42l21 94h77l-24 -110q-11 -48 -34 -71.5t-71 -31.5z" />
    <glyph glyph-name="rcommaaccent" unicode="&#x157;" horiz-adv-x="324" 
d="M332 423q-9 2 -18.5 3t-17.5 1q-33 0 -61.5 -13.5t-51 -35.5t-37.5 -50.5t-21 -58.5l-57 -269h-59l101 476h59l-20 -92q10 19 26 37.5t37 33t46 23.5t52 9q8 0 17.5 -1t17.5 -3zM-59 -243q34 9 46 27t20 57h-42l21 94h77l-24 -110q-11 -48 -34 -71.5t-71 -31.5z" />
    <glyph glyph-name="Rcaron" unicode="&#x158;" horiz-adv-x="638" 
d="M480 889h65l-148 -136h-42l-92 136h59l62 -81zM149 300l-64 -300h-62l145 680h237q58 0 91.5 -7t59.5 -21q31 -17 51.5 -48.5t20.5 -79.5q0 -66 -27 -116.5t-78 -78.5q-18 -10 -41 -16.5t-55 -9.5l119 -303h-68l-114 300h-215zM363 356q57 0 88 7t53 22q28 19 45.5 51.5
t17.5 82.5q0 40 -19 62t-49 33q-20 7 -46 9t-52 2h-183l-57 -269h202z" />
    <glyph glyph-name="rcaron" unicode="&#x159;" horiz-adv-x="324" 
d="M332 423q-9 2 -18.5 3t-17.5 1q-33 0 -61.5 -13.5t-51 -35.5t-37.5 -50.5t-21 -58.5l-57 -269h-59l101 476h59l-20 -92q10 19 26 37.5t37 33t46 23.5t52 9q8 0 17.5 -1t17.5 -3zM390 680l-140 -128h-42l-86 128h59l54 -77l88 77h67z" />
    <glyph glyph-name="Sacute" unicode="&#x15a;" horiz-adv-x="583" 
d="M306 753l102 136h96l-142 -136h-56zM510 528q-23 46 -71 77t-121 31q-35 0 -64.5 -7.5t-51.5 -22t-34.5 -36.5t-12.5 -52q0 -29 9.5 -48.5t26 -33.5t40 -24t50.5 -20l95 -35q30 -11 58 -24.5t50 -33t35 -46.5t13 -66q0 -51 -19.5 -88t-53 -62t-79 -37t-96.5 -12
q-53 0 -96.5 13t-76.5 37t-55.5 57t-34.5 72l55 35q6 -30 21.5 -58.5t41 -51t62 -36t84.5 -13.5q87 0 134 36t47 99q0 29 -10.5 49t-29 34.5t-43.5 25t-54 21.5l-95 35q-26 9 -51.5 21t-46 30.5t-33.5 46t-13 69.5q0 40 16.5 73.5t46.5 57.5t72.5 37.5t95.5 13.5
q48 0 86 -11t68 -28.5t51 -40t34 -46.5z" />
    <glyph glyph-name="sacute" unicode="&#x15b;" horiz-adv-x="442" 
d="M352 355q-17 36 -48 59t-82 23q-43 0 -72.5 -19.5t-29.5 -58.5q0 -17 5.5 -29t15.5 -20.5t24.5 -15t33.5 -13.5l65 -24q22 -8 42.5 -17.5t36.5 -23.5t25.5 -33.5t9.5 -47.5q0 -36 -14 -63.5t-38 -46t-56.5 -28t-69.5 -9.5q-78 0 -128 36.5t-70 97.5l51 32
q38 -116 151 -116q45 0 77.5 21.5t32.5 66.5q0 35 -22 50.5t-64 30.5l-67 25q-16 6 -34 14t-33.5 21.5t-25.5 33.5t-10 49q0 33 14 59t37 43t53 26t63 9q57 0 103 -23t72 -75zM397 680l-132 -128h-56l94 128h94z" />
    <glyph glyph-name="Scircumflex" unicode="&#x15c;" horiz-adv-x="583" 
d="M288 753h-65l148 136h42l92 -136h-59l-62 81zM510 528q-23 46 -71 77t-121 31q-35 0 -64.5 -7.5t-51.5 -22t-34.5 -36.5t-12.5 -52q0 -29 9.5 -48.5t26 -33.5t40 -24t50.5 -20l95 -35q30 -11 58 -24.5t50 -33t35 -46.5t13 -66q0 -51 -19.5 -88t-53 -62t-79 -37t-96.5 -12
q-53 0 -96.5 13t-76.5 37t-55.5 57t-34.5 72l55 35q6 -30 21.5 -58.5t41 -51t62 -36t84.5 -13.5q87 0 134 36t47 99q0 29 -10.5 49t-29 34.5t-43.5 25t-54 21.5l-95 35q-26 9 -51.5 21t-46 30.5t-33.5 46t-13 69.5q0 40 16.5 73.5t46.5 57.5t72.5 37.5t95.5 13.5
q48 0 86 -11t68 -28.5t51 -40t34 -46.5z" />
    <glyph glyph-name="scircumflex" unicode="&#x15d;" horiz-adv-x="442" 
d="M352 355q-17 36 -48 59t-82 23q-43 0 -72.5 -19.5t-29.5 -58.5q0 -17 5.5 -29t15.5 -20.5t24.5 -15t33.5 -13.5l65 -24q22 -8 42.5 -17.5t36.5 -23.5t25.5 -33.5t9.5 -47.5q0 -36 -14 -63.5t-38 -46t-56.5 -28t-69.5 -9.5q-78 0 -128 36.5t-70 97.5l51 32
q38 -116 151 -116q45 0 77.5 21.5t32.5 66.5q0 35 -22 50.5t-64 30.5l-67 25q-16 6 -34 14t-33.5 21.5t-25.5 33.5t-10 49q0 33 14 59t37 43t53 26t63 9q57 0 103 -23t72 -75zM138 552l140 128h42l86 -128h-59l-54 77l-88 -77h-67z" />
    <glyph glyph-name="Scedilla" unicode="&#x15e;" horiz-adv-x="583" 
d="M256 -11q-95 7 -154 55.5t-81 122.5l55 35q6 -30 21.5 -58.5t41 -51t62 -36t84.5 -13.5q87 0 134 36t47 99q0 29 -10.5 49t-29 34.5t-43.5 25t-54 21.5l-95 35q-26 9 -51.5 21t-46 30.5t-33.5 46t-13 69.5q0 40 16.5 73.5t46.5 57.5t72.5 37.5t95.5 13.5q48 0 86 -11
t68 -28.5t51 -40t34 -46.5l-50 -38q-23 46 -71 77t-121 31q-35 0 -64.5 -7.5t-51.5 -22t-34.5 -36.5t-12.5 -52q0 -29 9.5 -48.5t26 -33.5t40 -24t50.5 -20l95 -35q30 -11 58 -24.5t50 -33t35 -46.5t13 -66q0 -49 -18.5 -85.5t-50 -61.5t-75 -38t-92.5 -14l-32 -33
q3 1 6.5 1h6.5q29 0 49 -16.5t20 -46.5q0 -41 -31.5 -63.5t-76.5 -22.5q-26 0 -51 9l15 28q14 -5 31 -5q24 0 43.5 10.5t19.5 35.5q0 20 -15 28.5t-33 8.5q-15 0 -31 -7l-9 23z" />
    <glyph glyph-name="scedilla" unicode="&#x15f;" horiz-adv-x="442" 
d="M176 -11q-68 6 -112 41t-62 92l51 32q38 -116 151 -116q45 0 77.5 21.5t32.5 66.5q0 35 -22 50.5t-64 30.5l-67 25q-16 6 -34 14t-33.5 21.5t-25.5 33.5t-10 49q0 33 14 59t37 43t53 26t63 9q57 0 103 -23t72 -75l-48 -34q-17 36 -48 59t-82 23q-43 0 -72.5 -19.5
t-29.5 -58.5q0 -17 5.5 -29t15.5 -20.5t24.5 -15t33.5 -13.5l65 -24q22 -8 42.5 -17.5t36.5 -23.5t25.5 -33.5t9.5 -47.5q0 -35 -13 -61.5t-35 -45t-51.5 -28.5t-62.5 -12l-32 -33q3 1 6.5 1h6.5q29 0 49 -16.5t20 -46.5q0 -41 -31.5 -63.5t-76.5 -22.5q-26 0 -51 9l15 28
q14 -5 31 -5q24 0 43.5 10.5t19.5 35.5q0 20 -15 28.5t-33 8.5q-15 0 -31 -7l-9 23z" />
    <glyph glyph-name="uni0162" unicode="&#x162;" horiz-adv-x="526" 
d="M181 0h-9l133 625h-219l12 55h500l-12 -55h-219l-133 -625h-12l-43 -45q3 1 6.5 1h6.5q29 0 49 -16.5t20 -46.5q0 -41 -31.5 -63.5t-76.5 -22.5q-26 0 -51 9l15 28q14 -5 31 -5q24 0 43.5 10.5t19.5 35.5q0 20 -15 28.5t-33 8.5q-15 0 -31 -7l-9 23z" />
    <glyph glyph-name="uni0163" unicode="&#x163;" horiz-adv-x="303" 
d="M95 -5q-36 12 -36 55q0 16 6 46l71 331h-96l10 49h96l40 179l61 12l-42 -191h114l-10 -49h-114l-67 -311q-6 -27 -6 -40q0 -32 34 -32q36 0 77 22l-12 -58q-18 -8 -42 -13t-47 -5h-1l-33 -35q3 1 6.5 1h6.5q29 0 49 -16.5t20 -46.5q0 -41 -31.5 -63.5t-76.5 -22.5
q-26 0 -51 9l15 28q14 -5 31 -5q24 0 43.5 10.5t19.5 35.5q0 20 -15 28.5t-33 8.5q-15 0 -31 -7l-9 23z" />
    <glyph glyph-name="Tcaron" unicode="&#x164;" horiz-adv-x="526" 
d="M469 889h65l-148 -136h-42l-92 136h59l62 -81zM98 680h500l-12 -55h-219l-133 -625h-62l133 625h-219z" />
    <glyph glyph-name="tcaron" unicode="&#x165;" horiz-adv-x="303" 
d="M50 476h96l40 179l61 12l-42 -191h114l-10 -49h-114l-67 -311q-6 -27 -6 -40q0 -32 34 -32q36 0 77 22l-12 -58q-18 -8 -42 -13t-47 -5q-73 0 -73 60q0 16 6 46l71 331h-96zM302 552l49 128h82l-83 -128h-48z" />
    <glyph glyph-name="Tbar" unicode="&#x166;" horiz-adv-x="526" 
d="M98 680h500l-12 -55h-219l-37 -173h133l-11 -53h-133l-85 -399h-62l85 399h-136l11 53h136l37 173h-219z" />
    <glyph glyph-name="tbar" unicode="&#x167;" horiz-adv-x="315" 
d="M58 476h96l40 179l61 12l-42 -191h114l-10 -49h-114l-26 -119h119l-11 -53h-119l-30 -139q-6 -27 -6 -40q0 -32 34 -32q36 0 77 22l-12 -58q-18 -8 -42 -13t-47 -5q-73 0 -73 60q0 16 6 46l34 159h-103l11 53h103l26 119h-96z" />
    <glyph glyph-name="Utilde" unicode="&#x168;" horiz-adv-x="669" 
d="M291 -13q-115 0 -171.5 52.5t-56.5 144.5q0 18 3.5 41.5t8.5 49.5l87 405h62l-85 -401q-5 -25 -9 -47.5t-4 -42.5q0 -146 172 -146q48 0 84.5 11.5t64.5 37.5q26 24 43 59.5t31 95.5l92 433h62l-90 -425q-15 -69 -37 -120t-57 -84q-34 -32 -82.5 -48t-117.5 -16zM602 858
q-7 -15 -15.5 -31t-19.5 -29t-25.5 -21.5t-33.5 -8.5t-38.5 8t-38.5 18q-17 8 -30.5 15t-24.5 7q-22 0 -32 -16t-15 -31l-42 9l11 24.5t18.5 30t28 25t38.5 10.5q17 0 33.5 -7t33.5 -15l32 -15.5t30 -7.5q22 0 33 14.5t16 30.5z" />
    <glyph glyph-name="utilde" unicode="&#x169;" horiz-adv-x="496" 
d="M105 476h59l-54 -256q-14 -62 -14 -97q0 -40 20.5 -60t67.5 -20q35 0 63.5 15t50 39t35.5 53.5t20 58.5l56 267h59l-101 -476h-59l17 78q-9 -18 -25 -34t-37.5 -28.5t-47 -20t-52.5 -7.5q-61 0 -94.5 33.5t-33.5 90.5q0 15 3 38.5t8 46.5zM473 656q-7 -15 -15.5 -31
t-19.5 -29t-25.5 -21.5t-33.5 -8.5t-38.5 8t-38.5 18q-17 8 -30.5 15t-24.5 7q-22 0 -32 -16t-15 -31l-42 9l11 24.5t18.5 30t28 25t38.5 10.5q17 0 33.5 -7t33.5 -15l32 -15.5t30 -7.5q22 0 33 14.5t16 30.5z" />
    <glyph glyph-name="Umacron" unicode="&#x16a;" horiz-adv-x="669" 
d="M291 -13q-115 0 -171.5 52.5t-56.5 144.5q0 18 3.5 41.5t8.5 49.5l87 405h62l-85 -401q-5 -25 -9 -47.5t-4 -42.5q0 -146 172 -146q48 0 84.5 11.5t64.5 37.5q26 24 43 59.5t31 95.5l92 433h62l-90 -425q-15 -69 -37 -120t-57 -84q-34 -32 -82.5 -48t-117.5 -16zM310 831
h271l-11 -53h-271z" />
    <glyph glyph-name="umacron" unicode="&#x16b;" horiz-adv-x="496" 
d="M105 476h59l-54 -256q-14 -62 -14 -97q0 -40 20.5 -60t67.5 -20q35 0 63.5 15t50 39t35.5 53.5t20 58.5l56 267h59l-101 -476h-59l17 78q-9 -18 -25 -34t-37.5 -28.5t-47 -20t-52.5 -7.5q-61 0 -94.5 33.5t-33.5 90.5q0 15 3 38.5t8 46.5zM184 632h271l-11 -53h-271z" />
    <glyph glyph-name="Ubreve" unicode="&#x16c;" horiz-adv-x="669" 
d="M291 -13q-115 0 -171.5 52.5t-56.5 144.5q0 18 3.5 41.5t8.5 49.5l87 405h62l-85 -401q-5 -25 -9 -47.5t-4 -42.5q0 -146 172 -146q48 0 84.5 11.5t64.5 37.5q26 24 43 59.5t31 95.5l92 433h62l-90 -425q-15 -69 -37 -120t-57 -84q-34 -32 -82.5 -48t-117.5 -16zM442 783
q34 0 60 17.5t40 49.5h48q-19 -54 -59 -83t-94 -29q-57 0 -88 29t-27 83h48q2 -67 72 -67z" />
    <glyph glyph-name="ubreve" unicode="&#x16d;" horiz-adv-x="496" 
d="M105 476h59l-54 -256q-14 -62 -14 -97q0 -40 20.5 -60t67.5 -20q35 0 63.5 15t50 39t35.5 53.5t20 58.5l56 267h59l-101 -476h-59l17 78q-9 -18 -25 -34t-37.5 -28.5t-47 -20t-52.5 -7.5q-61 0 -94.5 33.5t-33.5 90.5q0 15 3 38.5t8 46.5zM320 582q34 0 60 17.5t40 49.5
h48q-19 -54 -59 -83t-94 -29q-57 0 -88 29t-27 83h48q2 -67 72 -67z" />
    <glyph glyph-name="Uring" unicode="&#x16e;" horiz-adv-x="669" 
d="M291 -13q-115 0 -171.5 52.5t-56.5 144.5q0 18 3.5 41.5t8.5 49.5l87 405h62l-85 -401q-5 -25 -9 -47.5t-4 -42.5q0 -146 172 -146q48 0 84.5 11.5t64.5 37.5q26 24 43 59.5t31 95.5l92 433h62l-90 -425q-15 -69 -37 -120t-57 -84q-34 -32 -82.5 -48t-117.5 -16zM367 819
q0 34 24 57.5t58 23.5t58 -23.5t24 -57.5t-24 -57.5t-58 -23.5t-58 23.5t-24 57.5zM405 819q0 -18 13 -30.5t30 -12.5t30 12.5t13 30.5t-13 30.5t-30 12.5t-30 -12.5t-13 -30.5z" />
    <glyph glyph-name="uring" unicode="&#x16f;" horiz-adv-x="496" 
d="M105 476h59l-54 -256q-14 -62 -14 -97q0 -40 20.5 -60t67.5 -20q35 0 63.5 15t50 39t35.5 53.5t20 58.5l56 267h59l-101 -476h-59l17 78q-9 -18 -25 -34t-37.5 -28.5t-47 -20t-52.5 -7.5q-61 0 -94.5 33.5t-33.5 90.5q0 15 3 38.5t8 46.5zM222 618q0 34 24 57.5t58 23.5
t58 -23.5t24 -57.5t-24 -57.5t-58 -23.5t-58 23.5t-24 57.5zM260 618q0 -18 13 -30.5t30 -12.5t30 12.5t13 30.5t-13 30.5t-30 12.5t-30 -12.5t-13 -30.5z" />
    <glyph glyph-name="Uhungarumlaut" unicode="&#x170;" horiz-adv-x="669" 
d="M291 -13q-115 0 -171.5 52.5t-56.5 144.5q0 18 3.5 41.5t8.5 49.5l87 405h62l-85 -401q-5 -25 -9 -47.5t-4 -42.5q0 -146 172 -146q48 0 84.5 11.5t64.5 37.5q26 24 43 59.5t31 95.5l92 433h62l-90 -425q-15 -69 -37 -120t-57 -84q-34 -32 -82.5 -48t-117.5 -16zM632 882
l-132 -128h-56l94 128h94zM473 882l-132 -128h-56l94 128h94z" />
    <glyph glyph-name="uhungarumlaut" unicode="&#x171;" horiz-adv-x="496" 
d="M105 476h59l-54 -256q-14 -62 -14 -97q0 -40 20.5 -60t67.5 -20q35 0 63.5 15t50 39t35.5 53.5t20 58.5l56 267h59l-101 -476h-59l17 78q-9 -18 -25 -34t-37.5 -28.5t-47 -20t-52.5 -7.5q-61 0 -94.5 33.5t-33.5 90.5q0 15 3 38.5t8 46.5zM512 680l-132 -128h-56l94 128
h94zM353 680l-132 -128h-56l94 128h94z" />
    <glyph glyph-name="Uogonek" unicode="&#x172;" horiz-adv-x="669" 
d="M314 -215q-11 -3 -21 -4.5t-25 -1.5q-45 0 -71.5 24.5t-26.5 66.5q0 18 7.5 34.5t19.5 31.5t27 28t31 24q-97 9 -144.5 60t-47.5 136q0 18 3.5 41.5t8.5 49.5l87 405h62l-85 -401q-5 -25 -9 -47.5t-4 -42.5q0 -146 172 -146q48 0 84.5 11.5t64.5 37.5q26 24 43 59.5
t31 95.5l92 433h62l-90 -425q-15 -69 -37 -120t-57 -84q-32 -30 -75.5 -46t-105.5 -18q-14 -9 -29.5 -21.5t-29 -27.5t-22.5 -31t-9 -33q0 -27 15.5 -39t38.5 -12q11 0 22 3z" />
    <glyph glyph-name="uogonek" unicode="&#x173;" horiz-adv-x="496" 
d="M348 -215q-11 -3 -21 -4.5t-25 -1.5q-45 0 -71.5 24.5t-26.5 66.5q0 21 9.5 40t24.5 35.5t33.5 30.5t36.5 24l17 78q-9 -18 -25 -34t-37.5 -28.5t-47 -20t-52.5 -7.5q-61 0 -94.5 33.5t-33.5 90.5q0 15 3 38.5t8 46.5l59 279h59l-54 -256q-14 -62 -14 -97q0 -40 20.5 -60
t67.5 -20q35 0 63.5 15t50 39t35.5 53.5t20 58.5l56 267h59l-101 -476h-2q-13 -8 -32 -21t-36.5 -30t-30 -36t-12.5 -39q0 -27 15.5 -39t38.5 -12q11 0 22 3z" />
    <glyph glyph-name="Wcircumflex" unicode="&#x174;" horiz-adv-x="884" 
d="M460 753h-65l148 136h42l92 -136h-59l-62 81zM548 0l-35 406q-2 21 -4 46.5l-4 49.5t-3 44t-1 30h-1q-4 -10 -13.5 -31l-21.5 -46l-24.5 -50.5l-22.5 -44.5l-205 -404h-57l-55 680h62l34 -403q1 -18 3.5 -43t4 -49t3 -44.5t1.5 -30.5h1q4 10 13 29.5l20.5 43.5l23.5 49
t23 45l202 403h59l37 -403q1 -18 3.5 -43t4 -49.5t3 -45t1.5 -30.5h1q4 10 13 29.5l20 43l23.5 48.5l22.5 45l200 405h66l-340 -680h-58z" />
    <glyph glyph-name="wcircumflex" unicode="&#x175;" horiz-adv-x="688" 
d="M438 188q3 -29 5 -58t4 -46h1l10 20.5l13.5 27.5l15 30.5t15.5 30.5l148 283h60l-253 -476h-56l-27 306q-2 30 -3 53.5t-2 33.5h-1q-4 -9 -16.5 -33.5l-27.5 -54.5l-156 -305h-53l-59 476h59l33 -286q4 -29 6.5 -58.5t4.5 -46.5h1l22 46.5t30 59.5l147 285h51zM264 552
l140 128h42l86 -128h-59l-54 77l-88 -77h-67z" />
    <glyph glyph-name="Ycircumflex" unicode="&#x176;" horiz-adv-x="568" 
d="M300 753h-65l148 136h42l92 -136h-59l-62 81zM187 0l60 280l-161 400h67l138 -338l283 338h76l-340 -400l-60 -280h-63z" />
    <glyph glyph-name="ycircumflex" unicode="&#x177;" horiz-adv-x="445" 
d="M164 159l12 -83h1l18.5 33l31.5 53l187 314h63l-327 -540l-31 -51t-28 -40q-20 -24 -42 -35.5t-54 -11.5q-25 0 -39.5 6.5t-21.5 11.5l11 56q11 -9 24.5 -15t30.5 -6q29 0 47 21q7 8 15.5 20t22.5 36l43 74l-69 474h61zM139 552l140 128h42l86 -128h-59l-54 77l-88 -77
h-67z" />
    <glyph glyph-name="Zacute" unicode="&#x179;" horiz-adv-x="558" 
d="M314 753l102 136h96l-142 -136h-56zM472 0h-511l9 41l537 584h-391l12 55h480l-10 -45l-532 -580h418z" />
    <glyph glyph-name="zacute" unicode="&#x17a;" horiz-adv-x="405" 
d="M317 0h-347l8 40l339 387h-244l10 49h321l-8 -39l-340 -387h272zM376 680l-132 -128h-56l94 128h94z" />
    <glyph glyph-name="Zdotaccent" unicode="&#x17b;" horiz-adv-x="558" 
d="M472 0h-511l9 41l537 584h-391l12 55h480l-10 -45l-532 -580h418zM364 859h62l-20 -91h-62z" />
    <glyph glyph-name="zdotaccent" unicode="&#x17c;" horiz-adv-x="405" 
d="M317 0h-347l8 40l339 387h-244l10 49h321l-8 -39l-340 -387h272zM247 657h62l-20 -91h-62z" />
    <glyph glyph-name="uni0218" unicode="&#x218;" horiz-adv-x="583" 
d="M510 528q-23 46 -71 77t-121 31q-35 0 -64.5 -7.5t-51.5 -22t-34.5 -36.5t-12.5 -52q0 -29 9.5 -48.5t26 -33.5t40 -24t50.5 -20l95 -35q30 -11 58 -24.5t50 -33t35 -46.5t13 -66q0 -51 -19.5 -88t-53 -62t-79 -37t-96.5 -12q-53 0 -96.5 13t-76.5 37t-55.5 57t-34.5 72
l55 35q6 -30 21.5 -58.5t41 -51t62 -36t84.5 -13.5q87 0 134 36t47 99q0 29 -10.5 49t-29 34.5t-43.5 25t-54 21.5l-95 35q-26 9 -51.5 21t-46 30.5t-33.5 46t-13 69.5q0 40 16.5 73.5t46.5 57.5t72.5 37.5t95.5 13.5q48 0 86 -11t68 -28.5t51 -40t34 -46.5zM193 -243
q34 9 46 27t20 57h-42l21 94h77l-24 -110q-11 -48 -34 -71.5t-71 -31.5z" />
    <glyph glyph-name="uni0219" unicode="&#x219;" horiz-adv-x="442" 
d="M352 355q-17 36 -48 59t-82 23q-43 0 -72.5 -19.5t-29.5 -58.5q0 -17 5.5 -29t15.5 -20.5t24.5 -15t33.5 -13.5l65 -24q22 -8 42.5 -17.5t36.5 -23.5t25.5 -33.5t9.5 -47.5q0 -36 -14 -63.5t-38 -46t-56.5 -28t-69.5 -9.5q-78 0 -128 36.5t-70 97.5l51 32
q38 -116 151 -116q45 0 77.5 21.5t32.5 66.5q0 35 -22 50.5t-64 30.5l-67 25q-16 6 -34 14t-33.5 21.5t-25.5 33.5t-10 49q0 33 14 59t37 43t53 26t63 9q57 0 103 -23t72 -75zM98 -243q34 9 46 27t20 57h-42l21 94h77l-24 -110q-11 -48 -34 -71.5t-71 -31.5z" />
    <glyph glyph-name="uni021A" unicode="&#x21a;" horiz-adv-x="526" 
d="M98 680h500l-12 -55h-219l-133 -625h-62l133 625h-219zM106 -243q34 9 46 27t20 57h-42l21 94h77l-24 -110q-11 -48 -34 -71.5t-71 -31.5z" />
    <glyph glyph-name="uni021B" unicode="&#x21b;" horiz-adv-x="303" 
d="M50 476h96l40 179l61 12l-42 -191h114l-10 -49h-114l-67 -311q-6 -27 -6 -40q0 -32 34 -32q36 0 77 22l-12 -58q-18 -8 -42 -13t-47 -5q-73 0 -73 60q0 16 6 46l71 331h-96zM3 -243q34 9 46 27t20 57h-42l21 94h77l-24 -110q-11 -48 -34 -71.5t-71 -31.5z" />
    <glyph glyph-name="wgrave" unicode="&#x1e81;" horiz-adv-x="688" 
d="M438 188q3 -29 5 -58t4 -46h1l10 20.5l13.5 27.5l15 30.5t15.5 30.5l148 283h60l-253 -476h-56l-27 306q-2 30 -3 53.5t-2 33.5h-1q-4 -9 -16.5 -33.5l-27.5 -54.5l-156 -305h-53l-59 476h59l33 -286q4 -29 6.5 -58.5t4.5 -46.5h1l22 46.5t30 59.5l147 285h51zM329 680
l94 -128h-56l-132 128h94z" />
    <glyph glyph-name="wacute" unicode="&#x1e83;" horiz-adv-x="688" 
d="M438 188q3 -29 5 -58t4 -46h1l10 20.5l13.5 27.5l15 30.5t15.5 30.5l148 283h60l-253 -476h-56l-27 306q-2 30 -3 53.5t-2 33.5h-1q-4 -9 -16.5 -33.5l-27.5 -54.5l-156 -305h-53l-59 476h59l33 -286q4 -29 6.5 -58.5t4.5 -46.5h1l22 46.5t30 59.5l147 285h51zM538 680
l-132 -128h-56l94 128h94z" />
    <glyph glyph-name="oslashacute" unicode="&#x1ff;" horiz-adv-x="516" 
d="M284 487q84 0 133 -49l71 72l39 -35l-79 -80q10 -21 15.5 -45t5.5 -53q0 -56 -16 -111.5t-47.5 -99.5t-79.5 -71t-112 -27q-79 0 -126 41l-65 -66l-35 36l68 70q-26 47 -26 116q0 57 17 111.5t49.5 97t79.5 68t108 25.5zM90 193q0 -44 12 -77l274 280q-16 19 -40.5 29.5
t-58.5 10.5q-46 0 -81 -23t-58.5 -58t-35.5 -78.5t-12 -83.5zM218 40q50 0 86 24t59.5 60.5t34.5 80.5t11 83q0 17 -2 31t-6 28l-271 -275q32 -32 88 -32zM438 680l-132 -128h-56l94 128h94z" />
    <glyph glyph-name="wdieresis" unicode="&#x1e85;" horiz-adv-x="688" 
d="M438 188q3 -29 5 -58t4 -46h1l10 20.5l13.5 27.5l15 30.5t15.5 30.5l148 283h60l-253 -476h-56l-27 306q-2 30 -3 53.5t-2 33.5h-1q-4 -9 -16.5 -33.5l-27.5 -54.5l-156 -305h-53l-59 476h59l33 -286q4 -29 6.5 -58.5t4.5 -46.5h1l22 46.5t30 59.5l147 285h51zM302 657
h62l-20 -91h-62zM489 657h62l-20 -91h-62z" />
    <glyph glyph-name="ygrave" unicode="&#x1ef3;" horiz-adv-x="445" 
d="M164 159l12 -83h1l18.5 33l31.5 53l187 314h63l-327 -540l-31 -51t-28 -40q-20 -24 -42 -35.5t-54 -11.5q-25 0 -39.5 6.5t-21.5 11.5l11 56q11 -9 24.5 -15t30.5 -6q29 0 47 21q7 8 15.5 20t22.5 36l43 74l-69 474h61zM213 680l94 -128h-56l-132 128h94z" />
    <glyph glyph-name="aringacute" unicode="&#x1fb;" horiz-adv-x="481" 
d="M231 583q0 23 16.5 39t39.5 16t39 -16t16 -39t-16 -39t-39 -16t-39.5 16t-16.5 39zM257 583q0 -13 8.5 -21t20.5 -8t20.5 8t8.5 21q0 12 -8.5 20.5t-20.5 8.5t-20.5 -8.5t-8.5 -20.5zM232 659l86 80h96l-126 -80h-56zM341 254q-10 -6 -30 -10t-48 -9l-50 -9
q-28 -5 -53.5 -12t-45 -18.5t-31.5 -29.5t-12 -45q0 -45 27.5 -64t69.5 -19q25 0 49.5 6.5t44.5 21t35.5 37.5t22.5 55zM63 342q4 40 23 67.5t46.5 44.5t61 25t68.5 8q32 0 60.5 -6t49.5 -19.5t33.5 -36t12.5 -56.5q0 -13 -2 -27t-5 -28l-46 -216q-4 -19 -4 -30
q0 -14 6.5 -21t23.5 -7q12 0 22 3t16 7l-10 -47q-7 -4 -20.5 -7t-28.5 -3q-29 0 -47 12.5t-18 38.5q0 10 3 22l-1 1q-20 -35 -58.5 -57t-95.5 -22q-62 0 -101.5 32.5t-39.5 94.5q0 38 14 65t39.5 45t61.5 29t81 19l111 19q20 4 27.5 11t10.5 21l3.5 19.5t1.5 18.5
q0 15 -5 28.5t-17 24t-32.5 17t-52.5 6.5q-67 0 -100 -31t-38 -78z" />
    <glyph glyph-name="aeacute" unicode="&#x1fd;" horiz-adv-x="798" 
d="M390 234q-3 -21 -3 -43q0 -30 7 -57t22.5 -48t41 -33.5t63.5 -12.5q37 0 64 11.5t47 28t33.5 35.5t22.5 35l45 -31q-13 -23 -31 -46.5t-44.5 -42t-61 -30.5t-80.5 -12q-133 0 -172 103q-34 -52 -79 -77.5t-108 -25.5q-65 0 -105 32.5t-40 94.5q0 38 14 65t39.5 45
t61.5 29t81 19l111 19q20 4 27.5 11t10.5 21l3.5 19.5t1.5 18.5q0 15 -5 28.5t-17 24t-32.5 17t-52.5 6.5q-67 0 -100 -31t-38 -78l-54 13q4 40 23 67.5t46.5 44.5t61 25t68.5 8q52 0 92.5 -16t55.5 -57q33 33 75 53t93 20q46 0 79 -15t54 -40t30.5 -58.5t9.5 -70.5
q0 -16 -2 -34.5t-6 -34.5h-353zM341 254q-10 -6 -30 -10t-48 -9l-50 -9q-28 -5 -53.5 -12t-45 -18.5t-31.5 -29.5t-12 -45q0 -45 27.5 -64t69.5 -19q25 0 49.5 6.5t44.5 21t35.5 37.5t22.5 55zM572 437q-34 0 -62.5 -14t-50 -36t-36.5 -50t-22 -55h287q1 7 1.5 14t0.5 15
q0 24 -6 46.5t-19.5 40.5t-36.5 28.5t-56 10.5zM584 680l-132 -128h-56l94 128h94z" />
    <glyph glyph-name="Wgrave" unicode="&#x1e80;" horiz-adv-x="884" 
d="M497 753l-142 136h96l102 -136h-56zM548 0l-35 406q-2 21 -4 46.5l-4 49.5t-3 44t-1 30h-1q-4 -10 -13.5 -31l-21.5 -46l-24.5 -50.5l-22.5 -44.5l-205 -404h-57l-55 680h62l34 -403q1 -18 3.5 -43t4 -49t3 -44.5t1.5 -30.5h1q4 10 13 29.5l20.5 43.5l23.5 49t23 45
l202 403h59l37 -403q1 -18 3.5 -43t4 -49.5t3 -45t1.5 -30.5h1q4 10 13 29.5l20 43l23.5 48.5l22.5 45l200 405h66l-340 -680h-58z" />
    <glyph glyph-name="Wacute" unicode="&#x1e82;" horiz-adv-x="884" 
d="M484 753l102 136h96l-142 -136h-56zM548 0l-35 406q-2 21 -4 46.5l-4 49.5t-3 44t-1 30h-1q-4 -10 -13.5 -31l-21.5 -46l-24.5 -50.5l-22.5 -44.5l-205 -404h-57l-55 680h62l34 -403q1 -18 3.5 -43t4 -49t3 -44.5t1.5 -30.5h1q4 10 13 29.5l20.5 43.5l23.5 49t23 45
l202 403h59l37 -403q1 -18 3.5 -43t4 -49.5t3 -45t1.5 -30.5h1q4 10 13 29.5l20 43l23.5 48.5l22.5 45l200 405h66l-340 -680h-58z" />
    <glyph glyph-name="Wdieresis" unicode="&#x1e84;" horiz-adv-x="884" 
d="M548 0l-35 406q-2 21 -4 46.5l-4 49.5t-3 44t-1 30h-1q-4 -10 -13.5 -31l-21.5 -46l-24.5 -50.5l-22.5 -44.5l-205 -404h-57l-55 680h62l34 -403q1 -18 3.5 -43t4 -49t3 -44.5t1.5 -30.5h1q4 10 13 29.5l20.5 43.5l23.5 49t23 45l202 403h59l37 -403q1 -18 3.5 -43
t4 -49.5t3 -45t1.5 -30.5h1q4 10 13 29.5l20 43l23.5 48.5l22.5 45l200 405h66l-340 -680h-58zM436 859h62l-20 -91h-62zM623 859h62l-20 -91h-62z" />
    <glyph glyph-name="Ygrave" unicode="&#x1ef2;" horiz-adv-x="568" 
d="M357 753l-142 136h96l102 -136h-56zM187 0l60 280l-161 400h67l138 -338l283 338h76l-340 -400l-60 -280h-63z" />
    <glyph glyph-name="Aringacute" unicode="&#x1fa;" horiz-adv-x="599" 
d="M347 763q0 23 16.5 39t39.5 16t39 -16t16 -39t-16 -39t-39 -16t-39.5 16t-16.5 39zM373 763q0 -13 8.5 -21t20.5 -8t20.5 8t8.5 21q0 12 -8.5 20.5t-20.5 8.5t-20.5 -8.5t-8.5 -20.5zM340 839l86 80h96l-126 -80h-56zM20 0h-69l403 680h64l115 -680h-65l-33 205h-295z
M386 515q-5 28 -8 50.5l-6 44.5h-1l-21 -41.5t-24 -42.5l-155 -266h255z" />
    <glyph glyph-name="AEacute" unicode="&#x1fc;" horiz-adv-x="908" 
d="M526 753l102 136h96l-142 -136h-56zM-6 0h-72l562 680h456l-12 -55h-364l-52 -247h329l-12 -55h-329l-57 -268h384l-12 -55h-448l45 206h-248zM474 495q15 71 23.5 104t7.5 33h-1q-17 -26 -45.5 -63.5t-60.5 -75.5l-191 -232h216z" />
    <glyph glyph-name="Oslashacute" unicode="&#x1fe;" horiz-adv-x="691" 
d="M409 692q63 0 112 -22.5t81 -64.5l123 111l38 -43l-132 -119q25 -58 25 -132q0 -79 -21.5 -157t-64.5 -139.5t-108 -99.5t-153 -38q-69 0 -119 24.5t-80 70.5l-116 -105l-39 43l128 116q-20 58 -20 133q0 79 23.5 155t67.5 135.5t108.5 95.5t146.5 36zM318 44q45 0 83 16
t68.5 44t53.5 64.5t38 77.5t22.5 83.5t7.5 82.5q0 26 -3 49.5t-10 44.5l-418 -378q23 -40 62 -62t96 -22zM128 274q0 -49 9 -88l416 375q-23 35 -61 55t-92 20q-67 0 -117.5 -34t-85 -86.5t-52 -117t-17.5 -124.5zM365 753l102 136h96l-142 -136h-56z" />
    <glyph glyph-name="Imacron" unicode="&#x12a;" horiz-adv-x="230" 
d="M231 680l-145 -680h-63l145 680h63zM97 831h271l-11 -53h-271z" />
    <glyph glyph-name="ibreve" unicode="&#x12d;" horiz-adv-x="197" 
d="M68 0h-59l101 476h59zM172 582q34 0 60 17.5t40 49.5h48q-19 -54 -59 -83t-94 -29q-57 0 -88 29t-27 83h48q2 -67 72 -67z" />
    <glyph glyph-name="Lslash" unicode="&#x141;" horiz-adv-x="535" 
d="M467 0h-436l55 258l-102 -58l14 62l101 57l77 361h62l-68 -320l223 127l-14 -62l-222 -127l-52 -243h374z" />
    <glyph glyph-name="brokenbar.case" horiz-adv-x="270" 
d="M177 437h-59v323h59v-323zM177 -78h-59v323h59v-323z" />
    <glyph glyph-name="uni03A9" unicode="&#x3a9;" horiz-adv-x="784" 
d="M390 690q78 0 137 -24t99.5 -67t61 -101t20.5 -126q0 -104 -44.5 -185t-128.5 -131h179v-56h-248v61q174 101 174 310q0 57 -16.5 105t-49 83.5t-79 55t-106.5 19.5q-59 0 -105 -19.5t-78 -55t-49 -83.5t-17 -105q0 -208 174 -310v-61h-247v56h179q-173 109 -173 316
q0 68 20.5 126t60.5 101t99.5 67t136.5 24z" />
    <glyph glyph-name="uni00A0" unicode="&#xa0;" horiz-adv-x="200" 
 />
    <glyph glyph-name="Delta" unicode="&#x2206;" horiz-adv-x="661" 
d="M258 679h59l265 -679h-589zM72 50h432l-217 560z" />
    <glyph glyph-name="mu" unicode="&#xb5;" horiz-adv-x="491" 
d="M-28 -190l141 666h59l-56 -265q-7 -30 -10.5 -50.5t-3.5 -37.5q0 -40 21.5 -60t68.5 -20q35 0 63.5 15t50 39t35.5 53.5t20 58.5l56 267h59l-101 -476h-59l17 78q-21 -41 -66.5 -65.5t-96.5 -24.5q-29 0 -53.5 10t-38.5 33l-47 -221h-59z" />
    <glyph glyph-name="uniF8FF" unicode="&#xf8ff;" horiz-adv-x="823" 
d="M40 361q0 77 29 144.5t79.5 118t118 80t144.5 29.5t144.5 -29.5t118 -80t80 -118t29.5 -144.5t-29.5 -144.5t-80 -118t-118 -79.5t-144.5 -29t-144.5 29t-118 79.5t-79.5 118t-29 144.5z" />
    <glyph glyph-name="enspace" unicode="&#x2002;" horiz-adv-x="500" 
 />
    <glyph glyph-name="emspace" unicode="&#x2003;" horiz-adv-x="1000" 
 />
    <glyph glyph-name="threeperemspace" unicode="&#x2004;" horiz-adv-x="333" 
 />
    <glyph glyph-name="fourperemspace" unicode="&#x2005;" horiz-adv-x="250" 
 />
    <glyph glyph-name="thinspace" unicode="&#x2009;" horiz-adv-x="133" 
 />
    <glyph glyph-name="hairspace" unicode="&#x200a;" horiz-adv-x="75" 
 />
    <glyph glyph-name="idotaccent" horiz-adv-x="197" 
d="M68 0h-59l101 476h59zM192 582h-59l20 98h59z" />
    <glyph glyph-name="Eth" unicode="&#xd0;" horiz-adv-x="688" 
d="M14 393h104l61 287h151q73 0 133.5 -12t104 -41t67 -77.5t23.5 -120.5q0 -55 -11.5 -111.5t-34 -107t-56 -92.5t-78.5 -69q-29 -17 -55 -26.5t-53.5 -14.5t-58.5 -6.5t-69 -1.5h-208l72 337h-103zM181 393h202l-12 -56h-202l-60 -282h138q63 0 112 8.5t92 37.5
q38 25 65 65.5t44.5 86t25.5 92t8 84.5q0 106 -75 157q-21 14 -45.5 22t-50.5 11.5t-54.5 4.5t-57.5 1h-81z" />
    </font>
</defs>
</svg>
