<?xml version="1.0" standalone="no"?>
<!DOCTYPE svg PUBLIC "-//W3C//DTD SVG 1.1//EN" "http://www.w3.org/Graphics/SVG/1.1/DTD/svg11.dtd" >
<svg>
<metadata>
Created by FontForge 20090622 at Tue Aug  1 13:19:23 2017
 By deploy user
&#194;&#169;2012 Optimo.
</metadata>
<defs>
<font id="DowCorporate-ThinIta" horiz-adv-x="476" >
  <font-face 
    font-family="Dow Corporate Thin"
    font-weight="300"
    font-style="italic"
    font-stretch="normal"
    units-per-em="1000"
    panose-1="2 11 4 3 2 2 2 9 2 4"
    ascent="802"
    descent="-198"
    x-height="476"
    cap-height="680"
    bbox="-156 -283 1273 919"
    underline-thickness="45"
    underline-position="-76"
    unicode-range="U+000D-U+FB02"
  />
<missing-glyph horiz-adv-x="644" 
d="M50 289l309 309q16 -9 26 -23l-335 -335v49zM50 191l347 347v-15q0 -17 -9.5 -31t-23.5 -27t-30 -25t-29 -25q-23 -22 -36 -54l-219 -219v49zM55 0l261 261h49l-93 -93h-23v-23l-145 -145h-49zM594 441v-49l-224 -224h-49zM50 387l148 148l39 -2q0 27 19 51t56 24h8
l-270 -270v49zM349 0l33 33h2v2l210 210v-49l-196 -196h-49zM594 343v-49l-210 -210v49zM50 93l206 206v-38h11l-217 -217v49zM246 779h49l-44 -44q-54 -14 -93 -53.5t-54 -93.5l-54 -54v49zM594 539v-49l-216 -216v7q0 16 5 26.5t14 19.5t22 18l29 21l20.5 15.5t26 23
t25 32.5t17.5 45zM148 779h49l-147 -147v49zM447 0l147 147v-49l-98 -98h-49zM540 779h49l-104 -104l-26 23zM50 485l56 56l46 -3l-102 -102v49zM594 735v-49l-70 -70q-7 15 -18 31zM153 0l96 96v-49l-47 -47h-49zM442 779h49l-62 -62q-17 9 -34 15zM594 637v-49l-52 -52
q0 11 -2 21.5l-4 21.5zM344 779h49l-38 -38q-7 1 -14 1.5t-14 0.5q-3 0 -6.5 -0.5t-6.5 -0.5h-7zM251 0l33 33h49l-33 -33h-49zM594 0h-49l49 49v-49zM99 779l-49 -49v49h49z" />
    <glyph glyph-name="fi" unicode="fi" 
d="M341 0h-37l101 476h37zM463 575h-37l23 105h37zM309 444h-110l-47.5 -221.5l-47.5 -222.5h-37l95 444h-110l6 32h110l24 113q7 31 16 47.5t21 27.5q17 15 37.5 21.5t42.5 6.5q40 0 74 -14l-8 -32q-14 5 -32.5 9t-35.5 4t-30 -3.5t-24 -13.5q-9 -8 -15.5 -23t-13.5 -49
l-19 -94h110z" />
    <glyph glyph-name="fl" unicode="fl" horiz-adv-x="485" 
d="M486 680l-145 -680h-37l145 680h37zM309 444h-110l-47.5 -221.5l-47.5 -222.5h-37l95 444h-110l6 32h110l24 113q7 31 16 47.5t21 27.5q17 15 37.5 21.5t42.5 6.5q40 0 74 -14l-8 -32q-14 5 -32.5 9t-35.5 4t-30 -3.5t-24 -13.5q-9 -8 -15.5 -23t-13.5 -49l-19 -94h110z
" />
    <glyph glyph-name=".notdef" horiz-adv-x="644" 
d="M50 289l309 309q16 -9 26 -23l-335 -335v49zM50 191l347 347v-15q0 -17 -9.5 -31t-23.5 -27t-30 -25t-29 -25q-23 -22 -36 -54l-219 -219v49zM55 0l261 261h49l-93 -93h-23v-23l-145 -145h-49zM594 441v-49l-224 -224h-49zM50 387l148 148l39 -2q0 27 19 51t56 24h8
l-270 -270v49zM349 0l33 33h2v2l210 210v-49l-196 -196h-49zM594 343v-49l-210 -210v49zM50 93l206 206v-38h11l-217 -217v49zM246 779h49l-44 -44q-54 -14 -93 -53.5t-54 -93.5l-54 -54v49zM594 539v-49l-216 -216v7q0 16 5 26.5t14 19.5t22 18l29 21l20.5 15.5t26 23
t25 32.5t17.5 45zM148 779h49l-147 -147v49zM447 0l147 147v-49l-98 -98h-49zM540 779h49l-104 -104l-26 23zM50 485l56 56l46 -3l-102 -102v49zM594 735v-49l-70 -70q-7 15 -18 31zM153 0l96 96v-49l-47 -47h-49zM442 779h49l-62 -62q-17 9 -34 15zM594 637v-49l-52 -52
q0 11 -2 21.5l-4 21.5zM344 779h49l-38 -38q-7 1 -14 1.5t-14 0.5q-3 0 -6.5 -0.5t-6.5 -0.5h-7zM251 0l33 33h49l-33 -33h-49zM594 0h-49l49 49v-49zM99 779l-49 -49v49h49z" />
    <glyph glyph-name="NULL" horiz-adv-x="0" 
 />
    <glyph glyph-name="NULL" horiz-adv-x="0" 
 />
    <glyph glyph-name="carriagereturn" unicode="&#xd;" horiz-adv-x="842" 
d="M762 221h-657l221 -221h-49l-237 238l237 238h49l-222 -220h621v220h37v-255z" />
    <glyph glyph-name="space" unicode=" " horiz-adv-x="200" 
 />
    <glyph glyph-name="numbersign" unicode="#" horiz-adv-x="683" 
d="M660 429h-178l-44 -187h188l-3 -34h-193l-50 -208h-38l50 208h-148l-50 -208h-38l50 208h-163l3 34h168l45 187h-180l2 35h186l52 216h38l-52 -216h148l52 216h38l-52 -216h171zM252 242h148l45 187h-149z" />
    <glyph glyph-name="dollar" unicode="$" horiz-adv-x="574" 
d="M520 525q-20 44 -57 73t-86 41l-59 -275l43 -16q28 -10 56 -22.5t50.5 -31t36 -45t13.5 -63.5q0 -38 -14 -72t-42.5 -60t-71.5 -41t-102 -15q-25 0 -47 3l-21 -98h-37l22 104q-66 16 -111.5 57.5t-68.5 104.5l32 25q43 -122 156 -152l64 298l-35 13q-22 8 -47.5 19
t-47 29t-35.5 45t-14 66q0 38 15 69t43.5 53.5t68.5 35t91 12.5q8 0 16.5 -0.5t16.5 -1.5l17 78h37l-17 -85q62 -14 103 -46.5t61 -74.5zM310 328l-63 -293q10 -2 20 -2h21q91 0 140 38.5t49 110.5q0 30 -11.5 51.5t-31.5 37.5t-47 27.5t-57 22.5zM137 519q0 -32 10 -53.5
t28 -36.5t43 -26.5t54 -21.5l11 -5l58 269q-7 1 -13.5 1.5t-13.5 0.5q-36 0 -68 -7.5t-56.5 -23t-38.5 -39.5t-14 -58z" />
    <glyph glyph-name="percent" unicode="%" horiz-adv-x="920" 
d="M259 690q19 0 41 -6.5t41 -24t31 -47t12 -74.5q0 -49 -12 -98.5t-35.5 -89t-58 -64.5t-79.5 -25q-66 0 -96.5 43t-30.5 115q0 48 12.5 96.5t36.5 87.5t58.5 63t79.5 24zM107 423q0 -35 7.5 -59.5t20.5 -39.5t30.5 -22t37.5 -7q34 0 61 21t45.5 54.5t29 75.5t10.5 83
q0 57 -23.5 92t-70.5 35q-38 0 -66 -22.5t-46 -56.5t-27 -75.5t-9 -78.5zM747 416q19 0 41 -6.5t41 -24t31 -47t12 -74.5q0 -49 -12 -98.5t-35.5 -89t-58 -64.5t-79.5 -25q-66 0 -96.5 43t-30.5 115q0 48 12.5 96.5t36.5 87.5t58.5 63t79.5 24zM595 149q0 -35 7.5 -59.5
t20.5 -39.5t30.5 -22t37.5 -7q34 0 61 21t45.5 54.5t29 75.5t10.5 83q0 57 -23.5 92t-70.5 35q-38 0 -66 -22.5t-46 -56.5t-27 -75.5t-9 -78.5zM716 680l-455 -680h-41l455 680h41z" />
    <glyph glyph-name="ampersand" unicode="&#x26;" horiz-adv-x="605" 
d="M503 0q-17 20 -36.5 46l-37.5 51q-17 -18 -38 -37.5t-48 -35.5t-61.5 -26.5t-77.5 -10.5q-41 0 -74 12t-57 34.5t-37 54t-13 69.5q0 43 16.5 76t46 59.5t70.5 49t91 45.5q-21 45 -34 81t-13 80q0 31 11 59t31.5 49.5t50 34t67.5 12.5q33 0 57.5 -9.5t41.5 -26t25.5 -38
t8.5 -45.5q0 -64 -46 -114.5t-151 -98.5q27 -52 60.5 -107t76.5 -113q30 44 51 83.5t36 76.5l28 -20q-18 -42 -40 -82t-54 -83l46.5 -63l50.5 -63h-48zM214 21q34 0 63 9t53 23.5t43.5 32.5t34.5 36q-39 54 -76 114t-70 123l-73 -35t-64.5 -40.5t-46 -51t-17.5 -66.5
q0 -65 40.5 -105t112.5 -40zM238 549q0 -48 15.5 -85t28.5 -64q78 34 126 77.5t48 104.5q0 43 -27 66.5t-72 23.5q-27 0 -49 -9.5t-37.5 -26t-24 -39t-8.5 -48.5z" />
    <glyph glyph-name="quotesingle" unicode="'" horiz-adv-x="167" 
d="M120 408h-21l28 172l21 100h37l-21 -100z" />
    <glyph glyph-name="parenleft" unicode="(" horiz-adv-x="239" 
d="M80 -170q-48 138 -48 291q0 158 62 299.5t175 267.5l36 -5q-53 -59 -96.5 -125t-74.5 -138t-48 -148.5t-17 -156.5q0 -69 12 -141t34 -138z" />
    <glyph glyph-name="parenright" unicode=")" horiz-adv-x="238" 
d="M147 688q24 -69 36.5 -141t12.5 -150q0 -158 -61 -299.5t-174 -267.5l-38 5q53 58 96.5 124.5t74.5 138.5t48 148.5t17 156.5q0 69 -11.5 141t-33.5 138z" />
    <glyph glyph-name="asterisk" unicode="*" horiz-adv-x="375" 
d="M258 557l121 18l3 -38l-121 -9l55 -110l-36 -14l-47 111l-87 -84l-25 28l92 78l-107 59l19 32l104 -65l21 121l37 -8z" />
    <glyph glyph-name="plus" unicode="+" horiz-adv-x="657" 
d="M347 593v-282h277v-33h-277v-278h-33v278h-276v33h276v282h33z" />
    <glyph glyph-name="comma" unicode="," horiz-adv-x="181" 
d="M80 115l-28 -132l-11.5 -51.5t-14 -43t-21.5 -30t-32 -13.5l7 32q15 5 23.5 29.5t16.5 63.5l6 30h-19l25 115h48z" />
    <glyph glyph-name="hyphen" unicode="-" horiz-adv-x="405" 
d="M64 285h277l-7 -36h-277z" />
    <glyph glyph-name="period" unicode="." horiz-adv-x="180" 
d="M80 114l-25 -114h-48l25 114h48z" />
    <glyph glyph-name="slash" unicode="/" horiz-adv-x="343" 
d="M384 680l-358 -680h-41l359 680h40z" />
    <glyph glyph-name="zero" unicode="0" horiz-adv-x="590" 
d="M360 692q31 0 66.5 -11t65.5 -39t50 -76t20 -123q0 -80 -20 -161.5t-58.5 -146.5t-95.5 -106t-131 -41q-52 0 -90.5 18.5t-63.5 52t-37.5 80.5t-12.5 105q0 81 20.5 161t59.5 143.5t96 103.5t131 40zM91 250q0 -63 14 -106.5t37 -70.5t54 -39t66 -12q61 0 109 37t82 96
t52 132t18 145q0 50 -10.5 91.5t-31.5 71t-52.5 46t-72.5 16.5q-67 0 -116.5 -39t-82.5 -99t-49.5 -132t-16.5 -137z" />
    <glyph glyph-name="one" unicode="1" horiz-adv-x="590" 
d="M306 0h-38l122 567q-19 -28 -57 -47t-105 -19h-15.5t-12.5 1l7 33h15q41 0 70 7.5t52 21.5q30 19 48 48t28 68h32z" />
    <glyph glyph-name="two" unicode="2" horiz-adv-x="590" 
d="M124 426q-3 13 -4 25.5t-1 24.5q0 44 16 83.5t45 69t70.5 46.5t92.5 17q48 0 86.5 -13.5t65 -38t41 -58.5t14.5 -75q0 -59 -23.5 -108t-61 -90t-83.5 -76.5l-92 -68.5l-61.5 -41.5l-59 -38l-49 -31l-31.5 -19.5l1 -2q29 0 59 1q26 0 56 0.5t57 0.5h214l-6 -34h-451l6 29
l58 35.5l72 47l78 54l77 55.5l72 56.5t64.5 64t46.5 74t18 86.5q0 72 -45.5 113.5t-123.5 41.5q-47 0 -81.5 -15t-57.5 -40.5t-34.5 -59t-11.5 -70.5q0 -30 7 -62z" />
    <glyph glyph-name="three" unicode="3" horiz-adv-x="590" 
d="M120 525q3 32 19.5 62t44 53.5t66.5 37.5t87 14t84.5 -13.5t61 -36t36.5 -51.5t12 -60q0 -66 -43.5 -114t-131.5 -59l-1 -1q31 -7 57.5 -21t45.5 -35t30 -48.5t11 -61.5q0 -39 -14.5 -75.5t-44 -65t-73.5 -45.5t-103 -17q-102 0 -160 46.5t-64 130.5l38 19
q3 -44 18 -74.5t40 -50t57.5 -28t69.5 -8.5q39 0 74.5 9.5t62.5 30t43 52t16 76.5q0 32 -10.5 55.5t-29.5 41.5q-20 19 -43.5 30.5t-50 16.5t-54 6.5t-54.5 1.5h-25l7 33h65q54 0 87.5 6t57.5 18q38 20 59 51t21 77q0 28 -11 51.5t-31 41t-49 27t-65 9.5q-35 0 -66 -10.5
t-55 -29.5t-39 -47t-18 -62z" />
    <glyph glyph-name="four" unicode="4" horiz-adv-x="590" 
d="M334 0h-37l39 185h-311l6 30l412 465h37l-98 -459h149l-8 -36h-149zM344 221l56 262q8 41 18 80.5t16 60.5h-1q-29 -39 -114 -135l-141 -160l-30.5 -34.5l-31.5 -35.5l-35 -38v-1h54q23 0 47.5 0.5t43.5 0.5h118z" />
    <glyph glyph-name="five" unicode="5" horiz-adv-x="590" 
d="M185 680h354l-9 -36h-318l-71 -274l1 -2q26 40 72.5 63t104.5 23q38 0 73 -12t62 -37t43 -63t16 -90q0 -66 -21.5 -115.5t-56.5 -82.5t-79 -49.5t-90 -16.5q-38 0 -72.5 9.5t-62 28.5t-48 48t-30.5 69l36 20q7 -36 24.5 -62.5t41.5 -44.5t52.5 -27t58.5 -9
q39 0 76.5 14.5t66.5 43t47 71.5t18 99q0 45 -14 77.5t-37 53.5t-53 31t-61 10q-29 0 -58 -8.5t-54 -25t-44.5 -40.5t-29.5 -56l-34 13z" />
    <glyph glyph-name="six" unicode="6" horiz-adv-x="590" 
d="M530 521q-14 67 -56.5 101.5t-101.5 34.5q-48 0 -89.5 -23t-74.5 -64t-56.5 -98t-35.5 -124h1q34 47 87 71.5t111 24.5q52 0 90.5 -17t64 -45t38.5 -65t13 -76q0 -46 -15.5 -91t-46 -81t-75.5 -58.5t-105 -22.5q-47 0 -85 15.5t-66 46.5t-43 77.5t-15 107.5q0 93 22 176
t62 145.5t97 99t126 36.5q74 0 122.5 -40.5t65.5 -103.5zM110 294q-2 -13 -2 -25v-23q0 -110 47.5 -167t128.5 -57q47 0 84 18.5t62 48.5t38 68t13 77q0 45 -14.5 78t-38.5 55t-55.5 32.5t-65.5 10.5q-28 0 -56.5 -7.5t-54.5 -22t-48.5 -36t-37.5 -50.5z" />
    <glyph glyph-name="seven" unicode="7" horiz-adv-x="590" 
d="M614 651q-65 -72 -124 -148.5t-109 -157.5t-90 -167.5t-67 -177.5h-41q23 85 64 172.5t92 170.5t109 159.5t116 141.5h-376l-34 -160h-37l42 196h461z" />
    <glyph glyph-name="eight" unicode="8" horiz-adv-x="590" 
d="M227 373q-21 7 -40 19t-33.5 30t-23 41.5t-8.5 54.5q0 34 15.5 65.5t45 55.5t70.5 38.5t92 14.5q45 0 83 -11.5t65.5 -32.5t43 -50t15.5 -64t-12 -64.5t-33.5 -51.5t-51.5 -36.5t-66 -18.5l-1 -1q57 -21 92.5 -61.5t35.5 -109.5q0 -44 -17 -81t-48.5 -64t-77.5 -42.5
t-103 -15.5q-53 0 -96.5 12t-74 35.5t-47 58t-16.5 79.5q0 41 14.5 75t40 59.5t60.5 42t76 22.5v1zM77 178q0 -71 49 -113t140 -42q47 0 86 11t66.5 32.5t42.5 53t15 71.5q0 73 -52.5 115.5t-140.5 42.5q-53 0 -92 -14.5t-64.5 -38t-37.5 -54.5t-12 -64zM163 518
q0 -28 9.5 -52.5t30 -43t51.5 -29t74 -10.5q46 0 80 11t57 31t34.5 47.5t11.5 59.5q0 57 -44.5 92t-122.5 35q-45 0 -79 -11.5t-56.5 -31t-34 -45t-11.5 -53.5z" />
    <glyph glyph-name="nine" unicode="9" horiz-adv-x="590" 
d="M84 159q14 -67 56.5 -101.5t101.5 -34.5q48 0 89.5 23t74.5 64t56.5 97.5t35.5 124.5h-1q-34 -47 -87 -71.5t-111 -24.5q-52 0 -90.5 17t-64 45t-38.5 65t-13 76q0 46 15.5 91t46 81t75.5 58.5t105 22.5q46 0 84.5 -15.5t66.5 -46.5t43 -77.5t15 -107.5q0 -93 -22 -176
t-62 -145.5t-97 -99t-126 -36.5q-74 0 -122.5 40.5t-65.5 103.5zM504 386q2 13 2 25v23q0 110 -47.5 167t-128.5 57q-47 0 -84 -18.5t-62 -48.5t-38 -68t-13 -77q0 -45 14.5 -78t38.5 -55t55.5 -32.5t65.5 -10.5q28 0 56.5 7.5t54.5 22t48.5 36t37.5 50.5z" />
    <glyph glyph-name="colon" unicode=":" horiz-adv-x="198" 
d="M88 114l-25 -114h-48l25 114h48zM164 476l-25 -114h-48l25 114h48z" />
    <glyph glyph-name="semicolon" unicode=";" horiz-adv-x="207" 
d="M95 114l-17 -80q-6 -30 -11.5 -52.5t-12.5 -41t-16 -35t-23 -35.5q-5 -7 -11 -14.5t-14 -15.5l-21 17q30 34 45 63t24 67l3 13h-19l25 114h48zM171 476l-25 -114h-48l25 114h48z" />
    <glyph glyph-name="less" unicode="&#x3c;" horiz-adv-x="840" 
d="M751 -16l-704 333v38l704 331v-40l-656 -310l656 -312v-40z" />
    <glyph glyph-name="equal" unicode="=" horiz-adv-x="894" 
d="M106 220h673v-33h-673v33zM106 394h673v-33h-673v33z" />
    <glyph glyph-name="greater" unicode="&#x3e;" horiz-adv-x="837" 
d="M109 24l656 312l-656 310v40l704 -331v-38l-704 -333v40z" />
    <glyph glyph-name="question" unicode="?" horiz-adv-x="457" 
d="M286 293q-23 -18 -37 -32t-22 -28t-12 -28.5t-8 -33.5l-2 -11h-40q5 28 12 49.5t18 40t27 35t40 34.5l80 59q48 35 69.5 75t21.5 78q0 55 -36.5 90.5t-108.5 35.5q-41 0 -72 -13.5t-52 -37t-32 -53.5t-11 -63q0 -15 1.5 -30t6.5 -29l-41 14q-5 28 -5 51q0 40 15 75.5
t42.5 62.5t66.5 42.5t87 15.5q43 0 76 -12t55.5 -33.5t34.5 -50.5t12 -62q0 -46 -23.5 -90t-71.5 -81zM195 84l-18 -84h-42l18 84h42z" />
    <glyph glyph-name="at" unicode="@" horiz-adv-x="808" 
d="M549 66q36 0 68 23t55.5 61t37 86.5t13.5 99.5q0 49 -15 95.5t-47 83t-82.5 58.5t-122.5 22q-92 0 -162.5 -36.5t-118.5 -95t-73 -132t-25 -146.5q0 -60 17.5 -114.5t54 -96t93 -66.5t133.5 -25q81 0 160.5 33t138.5 96l9 -33q-60 -64 -142 -97t-167 -33q-87 0 -150 27.5
t-104 74t-61 106t-20 124.5q0 79 28 159t82 143.5t132.5 103.5t180.5 40q78 0 134 -25t92.5 -65.5t53.5 -92.5t17 -106q0 -46 -13.5 -98.5t-41 -97t-68 -74t-94.5 -29.5q-58 0 -58 47q0 5 0.5 12t2.5 13h-1q-17 -32 -53 -54.5t-83 -22.5q-57 0 -86.5 29t-29.5 77q0 23 6 40
t16 31q20 25 52.5 37.5t75.5 19.5l107 17q19 4 27 8.5t11 19.5q5 20 5 41q0 14 -4.5 26.5t-15.5 21.5t-31 14t-50 5q-58 0 -89 -28t-37 -71l-29 19q4 27 19.5 47.5t37.5 34t49 20.5t55 7q24 0 46.5 -4t40.5 -14.5t29 -27.5t11 -42q0 -13 -1.5 -25t-7.5 -41l-33 -155
q-7 -29 -7 -45q0 -14 7.5 -22t24.5 -8zM519 266q-8 -4 -27 -8t-35 -6l-58 -10q-25 -4 -48.5 -9.5t-42 -16t-29.5 -27.5t-11 -44q0 -41 23 -61t65 -20q51 0 92 32.5t57 106.5z" />
    <glyph glyph-name="A" unicode="A" horiz-adv-x="587" 
d="M475 0l-34 214h-315l-122 -214h-45l399 680h45l111 -680h-39zM392 514q-2 14 -5 31.5t-5.5 35.5t-4.5 34.5t-3 28.5l-27 -50l-23.5 -42l-20.5 -37l-155 -265h286z" />
    <glyph glyph-name="B" unicode="B" horiz-adv-x="667" 
d="M32 0l144 680h254q54 0 86 -6.5t55 -19.5q32 -17 47 -48.5t15 -68.5q0 -35 -10 -66.5t-29.5 -56t-48 -40t-65.5 -19.5v-2q59 -13 87.5 -52t28.5 -93q0 -51 -25.5 -101t-78.5 -79q-12 -7 -24.5 -12t-30 -8.5t-42 -5.5t-60.5 -2h-303zM142 336l-64 -300h290q31 0 54 4.5
t41 12.5q26 12 43.5 29t28.5 38t16 44.5t5 46.5q0 48 -21.5 74.5t-56.5 38.5q-22 8 -49.5 10t-56.5 2h-230zM389 370q56 0 87 8t52 22q29 20 47.5 50.5t18.5 82.5q0 32 -11.5 53t-32.5 34t-50 18t-63 5h-228l-60 -273h240z" />
    <glyph glyph-name="C" unicode="C" horiz-adv-x="637" 
d="M582 161q-42 -76 -111.5 -124.5t-167.5 -48.5q-117 0 -179 73.5t-62 206.5q0 80 23 156t67.5 135.5t108 96t144.5 36.5q87 0 146.5 -43.5t82.5 -127.5l-35 -23q-18 75 -68.5 117t-131.5 42q-72 0 -128 -35.5t-93.5 -91t-57 -122t-19.5 -129.5q0 -119 52 -187.5t159 -68.5
q41 0 77 12t66 34t54 51t42 64z" />
    <glyph glyph-name="D" unicode="D" horiz-adv-x="684" 
d="M31 0l145 680h142q64 0 117 -8t95 -27q56 -26 87 -76.5t31 -133.5q0 -57 -11.5 -114.5t-34 -109.5t-56.5 -94t-78 -68q-51 -29 -107.5 -39t-129.5 -10h-200zM79 37h157q66 0 118.5 8t99.5 39q41 27 70 69.5t47.5 91t27 97.5t8.5 90q0 73 -27.5 116t-75.5 66
q-33 16 -76 22.5t-94 6.5h-125z" />
    <glyph glyph-name="E" unicode="E" horiz-adv-x="572" 
d="M477 0h-446l145 680h426l-8 -37h-387l-58 -273h351l-8 -37h-351l-63 -296h407z" />
    <glyph glyph-name="F" unicode="F" horiz-adv-x="521" 
d="M31 0l145 680h405l-8 -37h-366l-58 -273h330l-8 -37h-330l-71 -333h-39z" />
    <glyph glyph-name="G" unicode="G" horiz-adv-x="672" 
d="M303 -12q-117 0 -179 73.5t-62 206.5q0 80 23 156t67 135.5t107.5 96t144.5 36.5q87 0 147.5 -44t83.5 -128l-37 -22q-18 75 -68 117t-131 42q-72 0 -128 -35.5t-93.5 -91t-57 -122t-19.5 -129.5q0 -119 52.5 -187.5t161.5 -68.5q40 0 77.5 11.5t68.5 32.5t55 51.5
t38 69.5q5 14 9.5 30.5t10.5 45.5l7 34h-233l7 37h271l-71 -335h-39l25 113h-1q-14 -22 -33 -44.5t-47 -40.5t-66.5 -29t-90.5 -11z" />
    <glyph glyph-name="H" unicode="H" horiz-adv-x="675" 
d="M523 0h-39l71 333h-414l-71 -333h-39l145 680h39l-66 -309h414l66 309h39z" />
    <glyph glyph-name="I" unicode="I" horiz-adv-x="222" 
d="M215 680l-145 -680h-39l145 680h39z" />
    <glyph glyph-name="J" unicode="J" horiz-adv-x="480" 
d="M478 680l-97 -456q-11 -49 -21 -85.5t-26 -65.5q-23 -39 -62 -63.5t-107 -24.5q-88 0 -132 43.5t-44 115.5v11t1 12l40 16q-2 -8 -2 -16v-16q0 -28 8 -52.5t24.5 -42.5t42.5 -28.5t62 -10.5q57 0 89.5 24t52.5 66q11 23 17.5 48.5l14.5 57.5l100 467h39z" />
    <glyph glyph-name="K" unicode="K" horiz-adv-x="611" 
d="M544 0h-47l-186 384l-192 -162l-49 -222h-39l145 680h39l-87 -404l488 404h58l-332 -273z" />
    <glyph glyph-name="L" unicode="L" horiz-adv-x="525" 
d="M458 0h-427l145 680h39l-137 -643h388z" />
    <glyph glyph-name="M" unicode="M" horiz-adv-x="769" 
d="M227 680l94 -538l10.5 -59.5t6.5 -44.5h1l23 44.5t33 59.5l310 538h57l-145 -680h-39l95 444q4 22 11 52l13.5 59t13 53.5l9.5 35.5h-1q-5 -10 -14.5 -27.5l-21.5 -39.5l-26 -46.5l-28 -49.5l-276 -481h-43l-84 473q-9 49 -16 95t-9 72h-1l-5.5 -33.5l-8 -47l-9.5 -52.5
l-9 -49l-97 -458h-39l144 680h51z" />
    <glyph glyph-name="N" unicode="N" horiz-adv-x="681" 
d="M492 0l-252 537q-8 14 -14.5 29.5l-11.5 28.5q-6 15 -12 28h-1q-2 -16 -6 -34l-7 -36.5t-9 -42.5l-109 -510h-39l146 680h37l241 -513l20 -43t16 -34q8 -17 14 -31h1q4 21 8 46l9.5 48l11.5 56l100 471h39l-144 -680h-38z" />
    <glyph glyph-name="O" unicode="O" horiz-adv-x="684" 
d="M406 692q54 0 98.5 -17.5t76.5 -51t49.5 -83.5t17.5 -115q0 -80 -21.5 -158t-64.5 -140t-108 -100.5t-151 -38.5q-117 0 -179 73.5t-62 206.5q0 80 23 156t67.5 135.5t108.5 96t145 36.5zM312 23q74 0 129.5 37.5t92.5 95t55.5 126.5t18.5 132q0 113 -53 178t-156 65
q-72 0 -128 -35.5t-93.5 -91t-57 -122t-19.5 -129.5q0 -119 52 -187.5t159 -68.5z" />
    <glyph glyph-name="P" unicode="P" horiz-adv-x="616" 
d="M136 308l-65 -308h-39l144 680h235q50 0 82.5 -5t56.5 -16q39 -18 60.5 -50t21.5 -79q0 -22 -5 -51t-18.5 -58t-38 -54.5t-62.5 -40.5q-23 -8 -52.5 -13t-67.5 -5h-252zM389 345q26 0 45 1.5t33 4.5t25 7.5t21 10.5q42 25 60.5 67.5t18.5 88.5q0 43 -19.5 67.5
t-51.5 36.5q-23 8 -50.5 11t-57.5 3h-205l-65 -298h246z" />
    <glyph glyph-name="Q" unicode="Q" horiz-adv-x="692" 
d="M406 692q54 0 98.5 -17.5t76.5 -51t49.5 -83.5t17.5 -115q0 -92 -28 -180t-85 -152l67 -97l-33 -22l-62 91q-40 -36 -90.5 -56.5t-113.5 -20.5q-117 0 -179 73.5t-62 206.5q0 80 23 156t67.5 135.5t108.5 96t145 36.5zM312 23q74 0 129.5 37.5t92.5 95t55.5 126.5
t18.5 132q0 113 -53 178t-156 65q-72 0 -128 -35.5t-93.5 -91t-57 -122t-19.5 -129.5q0 -119 52 -187.5t159 -68.5z" />
    <glyph glyph-name="R" unicode="R" horiz-adv-x="643" 
d="M377 308h-241l-65 -308h-39l144 680h235q50 0 82.5 -5t56.5 -16q39 -18 60.5 -50t21.5 -79q0 -22 -5 -51t-18.5 -58t-38 -54.5t-62.5 -40.5q-37 -14 -92 -17l125 -309h-43zM388 344q26 0 45 1.5t33.5 4.5t25.5 7.5t21 10.5q42 25 60.5 68t18.5 89q0 43 -19.5 67.5
t-51.5 36.5q-23 8 -47 11t-62 3h-204l-65 -299h245z" />
    <glyph glyph-name="S" unicode="S" horiz-adv-x="589" 
d="M534 530q-27 60 -82.5 93.5t-129.5 33.5q-37 0 -70 -7.5t-58 -24t-39.5 -41.5t-14.5 -60q0 -32 10.5 -54.5t29 -38t44 -27t55.5 -22.5l91 -34q29 -11 58 -23.5t51.5 -31.5t36.5 -46t14 -65q0 -39 -14 -74t-43 -62t-73.5 -42.5t-105.5 -15.5q-106 0 -173 47t-98 129l33 26
q28 -80 87 -123.5t151 -43.5q93 0 144.5 40t51.5 114q0 31 -12 53t-32.5 38t-48 28t-58.5 24l-92 33q-23 8 -49 19.5t-47.5 30t-36 46t-14.5 68.5q0 39 15.5 71t44 55.5t70 36t93.5 12.5q46 0 85 -11t69 -29.5t52 -42.5t35 -51z" />
    <glyph glyph-name="T" unicode="T" horiz-adv-x="526" 
d="M98 680h500l-8 -37h-230l-137 -643h-40l137 643h-230z" />
    <glyph glyph-name="U" unicode="U" horiz-adv-x="674" 
d="M290 -13q-48 0 -88.5 11.5t-69.5 35t-45.5 59.5t-16.5 86q0 38 11 87l89 414h40l-87 -401q-5 -26 -8.5 -50t-3.5 -46q0 -161 188 -161q56 0 95 13t68 40q15 14 26.5 30.5t21 37.5t17 48t15.5 62l91 427h39l-90 -426q-16 -76 -38 -125.5t-57 -82.5q-33 -30 -80.5 -44.5
t-116.5 -14.5z" />
    <glyph glyph-name="V" unicode="V" horiz-adv-x="560" 
d="M624 680l-388 -680h-42l-93 680h40l66 -487q2 -21 5.5 -46l6.5 -48q4 -26 6 -53h1l26 51q11 23 25.5 49l28.5 51l277 483h41z" />
    <glyph glyph-name="W" unicode="W" horiz-adv-x="883" 
d="M938 680l-337 -680h-39l-35 400q-3 29 -5.5 63.5t-4.5 66.5l-3.5 57.5t-1.5 37.5h-1q-5 -10 -18 -38l-29 -61.5l-32 -66l-25 -51.5l-204 -408h-41l-54 680h41l35 -461q1 -20 3.5 -43.5t4 -46t2.5 -42t1 -30.5h1q4 11 12.5 29.5l19 40.5l22 46l22.5 46l232 461h37l39 -461
l4 -48t3.5 -47.5t3 -40.5t1.5 -26h1q4 10 12.5 29l19 41.5l22 46.5l22.5 45l228 461h41z" />
    <glyph glyph-name="X" unicode="X" horiz-adv-x="566" 
d="M458 0l-162 330l-302 -330h-49l335 361l-157 319h43l143 -292l265 292h48l-297 -323l176 -357h-43z" />
    <glyph glyph-name="Y" unicode="Y" horiz-adv-x="548" 
d="M232 0h-39l62 291l-166 389h42l150 -351l296 351h45l-329 -389z" />
    <glyph glyph-name="Z" unicode="Z" horiz-adv-x="560" 
d="M472 0h-510l6 28l578 615h-425l8 37h481l-6 -28l-578 -615h453z" />
    <glyph glyph-name="bracketleft" unicode="[" horiz-adv-x="275" 
d="M152 -158h-164l177 838h165l-7 -34h-128l-164 -770h128z" />
    <glyph glyph-name="backslash" unicode="\" horiz-adv-x="442" 
d="M146 680l215 -680h-41l-214 680h40z" />
    <glyph glyph-name="bracketright" unicode="]" horiz-adv-x="274" 
d="M113 680h164l-177 -838h-165l7 34h128l164 770h-128z" />
    <glyph glyph-name="asciicircum" unicode="^" horiz-adv-x="460" 
d="M433 321h-39l-75 321l-215 -321h-46l249 359h37z" />
    <glyph glyph-name="underscore" unicode="_" horiz-adv-x="742" 
d="M29 -87h525l-5 -28h-525z" />
    <glyph glyph-name="grave" unicode="`" horiz-adv-x="370" 
d="M281 544l-129 136h63l105 -136h-39z" />
    <glyph glyph-name="a" unicode="a" 
d="M413 -3q-15 -4 -32 -4q-32 0 -49 16t-17 43q0 14 4 26h-1q-26 -41 -67.5 -65.5t-98.5 -24.5q-68 0 -102 36t-34 88q0 54 27 87q24 30 61.5 44t90.5 23l129 22q22 4 32 10t14 24q2 11 4 25t2 25q0 18 -5.5 33t-19 26.5t-37.5 18t-60 6.5q-71 0 -108.5 -33.5t-44.5 -84.5
l-30 19q5 33 22.5 57.5t43.5 41t58 24.5t65 8q26 0 53 -5t48.5 -17t35 -32.5t13.5 -51.5q0 -15 -2 -31.5t-9 -50.5l-42 -199l-4 -21t-2 -20q0 -17 9.5 -27t34.5 -10q14 0 23 3zM358 269q-4 -3 -12.5 -5.5t-19 -5t-22 -4.5t-21.5 -3l-71 -12q-30 -5 -58.5 -11.5t-50.5 -19.5
t-35.5 -34t-13.5 -55q0 -50 27.5 -74.5t78.5 -24.5q30 0 58.5 10t52.5 30.5t42.5 52.5t27.5 77z" />
    <glyph glyph-name="b" unicode="b" horiz-adv-x="532" 
d="M297 455q-51 0 -88.5 -26t-62.5 -65.5t-37.5 -87t-12.5 -89.5q0 -76 34.5 -121.5t108.5 -45.5q48 0 85 24.5t62.5 63t38.5 84.5t13 90q0 37 -8.5 68.5t-25.5 55t-44 36.5t-63 13zM198 680l-62 -289h1q9 16 24.5 33.5t37 31.5t48 23t57.5 9q76 0 124.5 -49t48.5 -144
q0 -60 -16.5 -115.5t-47.5 -98t-75.5 -68t-100.5 -25.5q-42 0 -70.5 12t-46.5 30.5t-27.5 40.5t-13.5 43h-1l-25 -114h-37l145 680h37z" />
    <glyph glyph-name="c" unicode="c" horiz-adv-x="487" 
d="M419 115q-29 -56 -79 -91.5t-124 -35.5q-85 0 -132 53.5t-47 143.5q0 55 15 109.5t46 97.5t77 69.5t108 26.5q68 0 113 -38t59 -103l-35 -18q-10 60 -48 93.5t-95 33.5q-51 0 -89 -24.5t-63 -62.5t-37.5 -85.5t-12.5 -92.5q0 -80 39 -125.5t105 -45.5q60 0 103 33t68 84z
" />
    <glyph glyph-name="d" unicode="d" horiz-adv-x="533" 
d="M217 21q51 0 88.5 26t62.5 65.5t37.5 86.5t12.5 89q0 76 -35 121.5t-108 45.5q-48 0 -85 -24.5t-62.5 -63t-38.5 -85t-13 -89.5q0 -37 8.5 -68.5t25.5 -54.5t44 -36t63 -13zM542 680l-146 -680h-37l19 84h-1q-9 -17 -24.5 -34t-37 -30.5t-48 -22.5t-57.5 -9
q-76 0 -124.5 49t-48.5 145q0 60 16 115.5t47 97.5t75.5 67.5t100.5 25.5q39 0 67.5 -11.5t47.5 -29t30 -39t15 -42.5h1l68 314h37z" />
    <glyph glyph-name="e" unicode="e" horiz-adv-x="501" 
d="M78 247q-2 -13 -3 -26t-1 -27q0 -33 7.5 -64.5t25 -55.5t46 -39t71.5 -15q37 0 65 10.5t49 26.5t35.5 35.5t24.5 38.5l29 -20q-8 -16 -19.5 -31t-25.5 -29q-28 -27 -68.5 -45t-94.5 -18q-88 0 -135 52.5t-47 152.5q0 58 17.5 111t49.5 94t77.5 65.5t102.5 24.5
q44 0 75 -14.5t51 -39t29.5 -57t9.5 -68.5q0 -14 -1.5 -30.5t-4.5 -31.5h-365zM278 456q-40 0 -72.5 -16t-56.5 -41.5t-40 -57.5t-24 -63h323q3 21 3 39q0 27 -6.5 52t-22.5 44.5t-41.5 31t-62.5 11.5z" />
    <glyph glyph-name="f" unicode="f" horiz-adv-x="294" 
d="M309 444h-110l-47.5 -221.5l-47.5 -222.5h-37l95 444h-110l6 32h110l24 113q7 31 16 47.5t21 27.5q17 15 37.5 21.5t42.5 6.5q40 0 74 -14l-8 -32q-14 5 -32.5 9t-35.5 4t-30 -3.5t-24 -13.5q-9 -8 -15.5 -23t-13.5 -49l-19 -94h110z" />
    <glyph glyph-name="g" unicode="g" horiz-adv-x="532" 
d="M217 21q51 0 88.5 26t62.5 65.5t37.5 86.5t12.5 89q0 76 -35 121.5t-108 45.5q-48 0 -85 -24.5t-62.5 -63t-38.5 -85t-13 -89.5q0 -37 8.5 -68.5t25.5 -54.5t44 -36t63 -13zM400 19q-11 -52 -25 -92.5t-38.5 -68t-63 -42t-96.5 -14.5q-48 0 -81.5 12t-54.5 31.5t-30 45.5
t-9 53v7l36 13v-6q0 -57 31.5 -90.5t110.5 -33.5q49 0 81 13.5t51.5 37.5t30.5 57.5t20 73.5l15 68h-1q-9 -17 -24.5 -34t-37 -30.5t-48 -22.5t-57.5 -9q-76 0 -124.5 49t-48.5 145q0 60 16 115.5t47 97.5t75.5 67.5t100.5 25.5q39 0 67.5 -11.5t47.5 -29t30 -39t15 -42.5h1
l23 110h37z" />
    <glyph glyph-name="h" unicode="h" horiz-adv-x="503" 
d="M198 680l-62 -289h1q8 16 24 33t38 31t50.5 23.5t61.5 9.5q63 0 96.5 -32t33.5 -92q0 -23 -3.5 -46t-8.5 -46l-57 -272h-37l55 262l9.5 49.5t4.5 47.5q0 20 -4.5 38t-16.5 31t-31.5 20.5t-49.5 7.5q-41 0 -73.5 -16.5t-56 -42t-39 -57.5t-21.5 -63l-59 -277h-37l145 680
h37z" />
    <glyph glyph-name="i" unicode="i" horiz-adv-x="191" 
d="M54 0h-37l101 476h37zM176 575h-37l23 105h37z" />
    <glyph glyph-name="j" unicode="j" horiz-adv-x="189" 
d="M-147 -149q27 -15 63 -15q23 0 37.5 7.5t24.5 21.5q11 16 17 39.5t13 55.5l109 516h37l-105 -494q-8 -40 -15 -69t-17 -51q-14 -31 -37.5 -45.5t-67.5 -14.5q-18 0 -36 3.5t-32 10.5zM176 575h-37l22 105h37z" />
    <glyph glyph-name="k" unicode="k" horiz-adv-x="472" 
d="M198 680l-98 -460l328 256h56l-226 -175l141 -301h-44l-127 277l-139 -107l-36 -170h-37l145 680h37z" />
    <glyph glyph-name="l" unicode="l" horiz-adv-x="204" 
d="M205 680l-145 -680h-37l145 680h37z" />
    <glyph glyph-name="m" unicode="m" horiz-adv-x="803" 
d="M364 0h-37l55 262l9.5 49.5t4.5 47.5q0 20 -4 38t-15.5 31t-30.5 20.5t-49 7.5q-39 0 -70 -16.5t-54.5 -42t-38.5 -57.5t-21 -63l-59 -277h-37l101 476h37l-20 -87l1 -1q8 16 23.5 33.5t37 32.5t49 24.5t60.5 9.5q58 0 91 -28t35 -81q9 16 25 35t38.5 35.5t52 27.5
t66.5 11q63 0 95 -32t32 -92q0 -23 -3.5 -46t-8.5 -46l-57 -272h-37l55 262l9.5 49.5t4.5 47.5q0 20 -4 38t-15.5 31t-30.5 20.5t-49 7.5q-38 0 -68.5 -16t-54 -41t-38.5 -56t-21 -61z" />
    <glyph glyph-name="n" unicode="n" horiz-adv-x="504" 
d="M373 0h-37l55 262l9.5 49.5t4.5 47.5q0 20 -4.5 38t-16.5 31t-31.5 20.5t-49.5 7.5q-41 0 -73.5 -16.5t-56 -42t-39 -57.5t-21.5 -63l-59 -277h-37l101 476h37l-20 -87l1 -1q8 16 23.5 33.5t38 32.5t51 24.5t63.5 9.5q63 0 96.5 -32t33.5 -92q0 -23 -3.5 -46t-8.5 -46z
" />
    <glyph glyph-name="o" unicode="o" horiz-adv-x="517" 
d="M36 185q0 55 15.5 109.5t46.5 97.5t77 69.5t108 26.5q42 0 75 -14t56 -40t35.5 -62.5t12.5 -81.5q0 -55 -15.5 -109t-46 -97t-77 -69.5t-108.5 -26.5q-85 0 -132 53.5t-47 143.5zM277 456q-51 0 -89 -24.5t-63.5 -62.5t-38 -85.5t-12.5 -92.5q0 -80 39 -125.5t105 -45.5
q51 0 90 25t64.5 64t38.5 86t13 92q0 79 -39.5 124t-107.5 45z" />
    <glyph glyph-name="p" unicode="p" horiz-adv-x="532" 
d="M297 455q-51 0 -88.5 -26t-62.5 -65.5t-37.5 -87t-12.5 -89.5q0 -76 34.5 -121.5t108.5 -45.5q48 0 85 25t62.5 63t38.5 84.5t13 90.5q0 37 -8.5 68.5t-25.5 54.5t-44 36t-63 13zM-24 -190l21 98.5l23 108l23.5 111l22.5 106.5l52 242h37l-19 -85h1q9 16 24.5 33.5
t37 31.5t48 23t57.5 9q38 0 69.5 -12.5t54.5 -36.5t36 -60t13 -83q0 -60 -16.5 -115.5t-47.5 -98.5t-75.5 -68.5t-100.5 -25.5q-42 0 -70.5 12t-46.5 30.5t-27.5 40.5t-13.5 43h-1l-65 -304h-37z" />
    <glyph glyph-name="q" unicode="q" horiz-adv-x="533" 
d="M217 21q51 0 88.5 26t62.5 65.5t37.5 86.5t12.5 89q0 76 -35 121.5t-108 45.5q-48 0 -85 -24.5t-62.5 -63t-38.5 -85t-13 -89.5q0 -37 8.5 -68.5t25.5 -54.5t44 -36t63 -13zM320 -190l58 274h-1q-9 -17 -24.5 -34t-37 -30.5t-48 -22.5t-57.5 -9q-76 0 -124.5 49
t-48.5 145q0 60 16 115.5t47 97.5t75.5 67.5t100.5 25.5q39 0 67.5 -11.5t47.5 -29t30 -39t15 -42.5h1l23 110h37l-140 -666h-37z" />
    <glyph glyph-name="r" unicode="r" horiz-adv-x="312" 
d="M325 451q-15 4 -33 4q-33 0 -62.5 -15t-53 -39t-39.5 -54.5t-23 -61.5l-60 -285h-37l101 476h37l-23 -95h1q8 21 24.5 40t38 34t47 24t52.5 9q10 0 19 -1t18 -4z" />
    <glyph glyph-name="s" unicode="s" horiz-adv-x="438" 
d="M365 369q-24 41 -60.5 64t-86.5 23t-84 -23.5t-34 -69.5q0 -39 23 -58t68 -35l61 -23l41.5 -16.5t37 -21.5t26.5 -32.5t10 -47.5q0 -29 -10.5 -54.5t-31 -44.5t-51.5 -30.5t-71 -11.5q-38 0 -69 10t-55 26.5t-41.5 38.5t-29.5 46l28 25q23 -50 65 -82t104 -32
q60 0 92 29.5t32 75.5q0 21 -7.5 35t-20.5 24.5t-31.5 18l-39.5 15.5l-63 24q-17 6 -35 14t-33 21t-25 32t-10 48q0 58 41.5 94.5t112.5 36.5q64 0 107.5 -27t67.5 -67z" />
    <glyph glyph-name="t" unicode="t" horiz-adv-x="290" 
d="M215 6q-12 -6 -36 -12t-48 -6q-29 0 -49.5 13t-20.5 48q0 12 2 25t6 31l72 339h-96l6 32h97l38 183l38 8l-40 -191h118l-6 -32h-119l-72 -342q-6 -29 -6 -44q0 -17 9 -27t33 -10q21 0 43.5 7t36.5 14z" />
    <glyph glyph-name="u" unicode="u" horiz-adv-x="496" 
d="M112 476h37l-55 -262l-9.5 -49.5t-4.5 -47.5q0 -20 4 -38t15 -31t30 -20.5t49 -7.5q39 0 71 16.5t55 42t38.5 57.5t21.5 63l59 277h37l-101 -476h-37l20 87l-1 1q-8 -16 -23 -33.5t-37 -32.5t-50 -24.5t-62 -9.5q-63 0 -94.5 32t-31.5 92q0 23 3.5 46t8.5 46z" />
    <glyph glyph-name="v" unicode="v" horiz-adv-x="428" 
d="M166 0h-30l-72 476h38l49 -325q2 -14 4.5 -29.5t4 -29.5t2.5 -24.5t1 -14.5h1l7.5 14.5l13 24l16.5 29.5l18 31l193 324h40z" />
    <glyph glyph-name="w" unicode="w" horiz-adv-x="649" 
d="M404 174q3 -29 4 -61.5t2 -49.5h1l23.5 48.5t34.5 66.5l158 298h38l-256 -476h-23l-27 319q-4 43 -4 64.5t-1 31.5h-1q-4 -11 -16.5 -38.5l-27.5 -58.5l-159 -318h-29l-56 476h37l35 -303q2 -14 3.5 -31t2.5 -33.5t2 -30.5t1 -22h1q9 18 24 51.5l29 63.5l152 305h28z" />
    <glyph glyph-name="x" unicode="x" horiz-adv-x="425" 
d="M212 271l182 205h44l-213 -233l122 -243h-41l-106 218l-199 -218h-42l226 246l-113 230h40z" />
    <glyph glyph-name="y" unicode="y" horiz-adv-x="431" 
d="M-62 -151q8 -5 19.5 -8.5t24.5 -3.5q29 0 47.5 18.5t40.5 53.5l65 102l-70 465h39l44 -296q3 -20 5.5 -39.5t5 -37t4 -30.5t1.5 -19h1q3 7 10.5 20l16.5 28.5l19.5 33l19.5 32.5l183 308h42l-326 -536l-31 -50t-28 -40q-20 -25 -41 -36.5t-49 -11.5q-18 0 -30.5 3.5
t-20.5 7.5z" />
    <glyph glyph-name="z" unicode="z" horiz-adv-x="408" 
d="M321 0h-348l6 28l365 414h-269l7 34h319l-5 -28l-368 -414h300z" />
    <glyph glyph-name="braceleft" unicode="{" horiz-adv-x="283" 
d="M41 305q26 6 42.5 16.5t27 28t17.5 42t14 59.5l16 75q8 39 17.5 70t25 52t41 32.5t66.5 11.5q5 0 11.5 -0.5t11.5 -0.5q6 -1 11 -1l-8 -32q-7 1 -13 1.5t-12 0.5q-31 0 -50.5 -10t-31 -27t-18 -40.5t-12.5 -50.5l-13 -63q-10 -50 -19 -82t-20 -51.5t-27.5 -30
t-41.5 -17.5v-1q25 -11 35.5 -30t10.5 -45q0 -22 -5 -51.5t-14 -70.5l-19 -84q-5 -20 -7 -37.5t-2 -30.5q0 -35 21 -51t71 -19l-7 -30q-27 1 -49.5 6t-39 15.5t-25.5 28.5t-9 45q0 23 5 50.5t13 61.5l16 71q6 28 10 49.5t4 38.5q0 26 -11 43t-40 27z" />
    <glyph glyph-name="bar" unicode="|" horiz-adv-x="246" 
d="M136 -158h-37v838h37v-838z" />
    <glyph glyph-name="braceright" unicode="}" horiz-adv-x="283" 
d="M237 232q-26 -6 -42.5 -16.5t-27 -28t-17.5 -42.5t-14 -59l-18 -82q-8 -39 -17.5 -70t-25 -52t-41 -32.5t-66.5 -11.5h-12t-11 1q-6 0 -11 1l8 32q7 -1 13 -1.5t12 -0.5q31 0 50.5 10t31 27t18 40.5t12.5 50.5l15 70q10 50 19 82t20 51.5t27.5 30t41.5 17.5v1
q-25 11 -35.5 30t-10.5 45q0 22 5 51.5t14 70.5l17 77q5 20 7 37.5t2 30.5q0 35 -21 51t-71 19l7 30q27 -2 49.5 -6.5t39 -15t25.5 -28.5t9 -45q0 -23 -5 -50.5t-13 -61.5l-14 -64q-6 -28 -10 -49.5t-4 -38.5q0 -26 11 -43t40 -27z" />
    <glyph glyph-name="asciitilde" unicode="~" horiz-adv-x="563" 
d="M514 306q-24 -29 -54.5 -45.5t-68.5 -16.5q-31 0 -60.5 11.5t-61.5 27.5q-22 11 -47 21.5t-52 10.5q-26 0 -47 -15t-46 -47l-25 25q6 10 17.5 23t27 24t34.5 19t41 8q26 0 53 -9t68 -29q22 -11 36.5 -17.5t25.5 -10.5t19.5 -5.5t17.5 -1.5q31 0 55.5 17.5t41.5 37.5z" />
    <glyph glyph-name="uni00A0" unicode="&#xa0;" horiz-adv-x="200" 
 />
    <glyph glyph-name="exclamdown" unicode="&#xa1;" horiz-adv-x="191" 
d="M86 300h27l-28 -161l-73 -343h-39l73 343zM88 362l24 114h51l-24 -114h-51z" />
    <glyph glyph-name="cent" unicode="&#xa2;" horiz-adv-x="490" 
d="M421 115q-29 -56 -79 -91.5t-124 -35.5h-9l-21 -101h-37l22 106q-64 13 -99 63.5t-35 128.5q0 55 15 108.5t44.5 96t74.5 69t105 28.5l20 93h37l-20 -94q56 -8 92.5 -45t49.5 -94l-35 -18q-8 51 -38 83.5t-76 40.5l-92 -433h5q60 0 103 33t68 84zM77 191q0 -67 27.5 -110
t75.5 -56l91 430q-50 -2 -86.5 -27t-60.5 -63t-35.5 -84t-11.5 -90z" />
    <glyph glyph-name="sterling" unicode="&#xa3;" horiz-adv-x="537" 
d="M203 325l-14 -87q-14 -85 -38 -135.5t-70 -68.5l1 -2q20 0 57 1t106 1h193l-7 -34h-449l8 29q33 4 57 13t42.5 29t32 53.5t24.5 86.5q4 19 9.5 52t9.5 62h-110l7 34h108l6 43q4 30 9 61.5t13.5 61t20 56t29.5 47.5q26 30 62.5 47.5t84.5 17.5q74 0 115 -41t40 -107
l-34 -13q0 35 -9.5 59.5t-26.5 40.5t-40 23t-49 7q-53 0 -85.5 -24t-51 -62t-27 -84.5t-14.5 -92.5l-5 -40h160l-8 -34h-157z" />
    <glyph glyph-name="currency" unicode="&#xa4;" horiz-adv-x="568" 
d="M94 296q0 33 11 63.5t31 58.5l-66 65l27 26l65 -65q57 42 122 42q64 0 120 -42l65 65l28 -27l-64 -64q20 -28 31 -59t11 -63q0 -34 -10.5 -64.5t-30.5 -57.5l63 -63l-28 -27l-63 63q-28 -20 -58.5 -30.5t-63.5 -10.5q-32 0 -63 11t-58 31l-65 -65l-28 27l66 66
q-42 55 -42 120zM129 296q0 -33 12 -61.5t32.5 -50t49 -33.5t61.5 -12q34 0 62.5 12t49.5 33.5t32.5 50t11.5 61.5t-11.5 62t-32.5 50t-49.5 33.5t-62.5 12.5q-33 0 -61.5 -12t-49 -33.5t-32.5 -50.5t-12 -62z" />
    <glyph glyph-name="yen" unicode="&#xa5;" horiz-adv-x="605" 
d="M296 190h216l-7 -34h-216l-33 -156h-39l33 156h-199l6 34h201l21 101l-1 1h-198l7 34h178l-151 354h42l149 -351l297 351h44l-300 -354h195l-6 -34h-217l-1 -1z" />
    <glyph glyph-name="brokenbar" unicode="&#xa6;" horiz-adv-x="258" 
d="M142 357h-37v323h37v-323zM142 -158h-37v323h37v-323z" />
    <glyph glyph-name="section" unicode="&#xa7;" horiz-adv-x="490" 
d="M294 161q32 -17 53.5 -43.5t21.5 -64.5q0 -29 -10.5 -54.5t-30.5 -44.5t-51 -30.5t-71 -11.5q-39 0 -70.5 10t-55.5 26.5t-41.5 38.5t-29.5 46l29 25q23 -50 65 -82t104 -32q60 0 92 29.5t32 75.5q0 21 -9.5 37.5t-25.5 30.5t-37.5 26t-46.5 24l-33 16q-28 13 -51 26.5
t-39.5 30t-25.5 37t-9 48.5q0 36 15.5 61.5t39.5 42.5t54 25t59 10q-23 12 -43.5 37t-20.5 63q0 28 11 51.5t31.5 40.5t49 26.5t63.5 9.5q65 0 110 -30t68 -72l-27 -25q-24 44 -62 69.5t-90 25.5q-50 0 -84 -24t-34 -70q0 -39 28.5 -62t71.5 -43l34 -16q24 -11 44.5 -22.5
t35.5 -26.5t24 -34.5t9 -46.5q0 -36 -13.5 -62.5t-34.5 -45.5t-47.5 -30t-51.5 -16zM261 181q30 4 56 15t45.5 28t30.5 39t11 47q0 22 -8 38t-22.5 29t-34 23.5t-42.5 21.5l-41 20q-35 -1 -65.5 -8.5t-52.5 -22t-34.5 -35t-12.5 -47.5q0 -24 9 -42t24 -31.5t33.5 -24
t38.5 -19.5z" />
    <glyph glyph-name="dieresis" unicode="&#xa8;" horiz-adv-x="470" 
d="M192 656h41l-19 -91h-41zM376 656h41l-19 -91h-41z" />
    <glyph glyph-name="copyright" unicode="&#xa9;" horiz-adv-x="804" 
d="M538 447q-32 85 -122 85q-66 0 -105 -47.5t-39 -134.5t40 -133.5t104 -46.5q88 0 122 74l29 -20q-22 -42 -59.5 -64t-91.5 -22q-41 0 -74.5 15t-57 43t-36.5 66.5t-13 86.5q0 49 13 88.5t36.5 67.5t57 43.5t74.5 15.5q57 0 94 -25.5t57 -70.5zM758 350
q0 -72 -26.5 -134.5t-72.5 -108t-108.5 -72t-134.5 -26.5t-134.5 26.5t-108.5 72t-72.5 108t-26.5 134.5t26.5 134.5t72.5 108.5t108.5 72.5t134.5 26.5t134.5 -26.5t108.5 -72.5t72.5 -108.5t26.5 -134.5zM721 350q0 64 -23 120.5t-64 98.5t-96.5 66.5t-121.5 24.5
t-121.5 -24.5t-96.5 -66.5t-64 -98.5t-23 -120.5q0 -65 23 -121t64 -98t96.5 -66t121.5 -24t121.5 24t96.5 66t64 98t23 121z" />
    <glyph glyph-name="ordfeminine" unicode="&#xaa;" horiz-adv-x="361" 
d="M317 382q-24 0 -35 12t-9 33q-4 -7 -12 -15t-20 -15.5t-27.5 -12.5t-35.5 -5q-43 0 -65.5 23t-22.5 57q0 18 5 31.5t13 24.5q14 19 38 27.5t58 14.5l78 14q9 2 16 5.5t9 13.5q3 13 3 27q0 20 -14 33.5t-56 13.5t-63 -20.5t-26 -50.5l-26 17q8 39 40.5 60.5t79.5 21.5
q15 0 32 -3t30.5 -11t22.5 -21.5t9 -33.5q0 -10 -1.5 -20.5t-5.5 -29.5l-23 -112q-2 -7 -4 -18t-2 -16q0 -18 22 -18q3 0 8 1t12 4l-4 -29q-11 -3 -24 -3zM299 549q-10 -4 -30 -7l-54 -9q-17 -3 -34 -7.5t-30 -12t-21 -19.5t-8 -31q0 -29 16 -42.5t45 -13.5q35 0 65 24.5
t41 75.5z" />
    <glyph glyph-name="guillemotleft" unicode="&#xab;" horiz-adv-x="379" 
d="M58 317l166 145l-13 -58l-126 -107l74 -136l-12 -56l-96 177zM191 317l166 145l-13 -58l-126 -107l74 -136l-12 -56l-96 177z" />
    <glyph glyph-name="logicalnot" unicode="&#xac;" horiz-adv-x="551" 
d="M477 221h-37v199h-359v34h396v-233z" />
    <glyph glyph-name="uni00AD" unicode="&#xad;" horiz-adv-x="405" 
d="M64 285h277l-7 -36h-277z" />
    <glyph glyph-name="registered" unicode="&#xae;" horiz-adv-x="804" 
d="M306 148h-33v408h165q25 0 49.5 -3t47.5 -17q22 -14 35.5 -36.5t13.5 -54.5q0 -29 -10.5 -49.5t-28 -34t-41 -20.5t-49.5 -8l133 -185h-41l-133 185h-108v-185zM306 363h119q30 0 48 3t31 8q21 11 34 27t13 42t-13 43.5t-34 28.5q-13 5 -31 8t-48 3h-119v-163zM758 350
q0 -72 -26.5 -134.5t-72.5 -108t-108.5 -72t-134.5 -26.5t-134.5 26.5t-108.5 72t-72.5 108t-26.5 134.5t26.5 134.5t72.5 108.5t108.5 72.5t134.5 26.5t134.5 -26.5t108.5 -72.5t72.5 -108.5t26.5 -134.5zM721 350q0 64 -23 120.5t-64 98.5t-96.5 66.5t-121.5 24.5
t-121.5 -24.5t-96.5 -66.5t-64 -98.5t-23 -120.5q0 -65 23 -121t64 -98t96.5 -66t121.5 -24t121.5 24t96.5 66t64 98t23 121z" />
    <glyph glyph-name="macron" unicode="&#xaf;" horiz-adv-x="450" 
d="M89 641h271l-7 -32h-271z" />
    <glyph glyph-name="degree" unicode="&#xb0;" horiz-adv-x="373" 
d="M103 553q0 29 11 54.5t29.5 44t44 29.5t54.5 11t54.5 -11t44 -29.5t29.5 -44t11 -54.5t-11 -54.5t-29.5 -44.5t-44 -30t-54.5 -11t-54.5 11t-44 30t-29.5 44.5t-11 54.5zM136 553q0 -45 30.5 -75.5t75.5 -30.5q22 0 41 8.5t33.5 22.5t23 33.5t8.5 41.5t-8.5 41t-23 33.5
t-33.5 23t-41 8.5t-41.5 -8.5t-33.5 -23t-22.5 -33.5t-8.5 -41z" />
    <glyph glyph-name="plusminus" unicode="&#xb1;" horiz-adv-x="737" 
d="M370 107h-34v227h-277v33h277v226h34v-226h275v-33h-275v-227zM645 0h-586v33h586v-33z" />
    <glyph glyph-name="twosuperior" unicode="&#xb2;" horiz-adv-x="402" 
d="M122 522q-2 8 -3 16.5t-1 16.5q0 28 10 53t28.5 43.5t45 29.5t60.5 11q60 0 95 -33t35 -84q0 -34 -14.5 -64t-37.5 -57t-52 -49.5t-57 -41.5l-29.5 -18.5l-30 -18l-26.5 -16t-19 -11.5l1 -3h222l-7 -33h-282l6 30q15 8 35 20.5l42.5 27l46 31l46.5 33.5l42 33.5t38 38
t27.5 44t10.5 51.5q0 40 -25.5 64t-68.5 24q-27 0 -47 -8.5t-33 -23t-19.5 -33.5t-6.5 -40q0 -14 1.5 -25t6.5 -25z" />
    <glyph glyph-name="threesuperior" unicode="&#xb3;" horiz-adv-x="385" 
d="M115 581q0 21 10 40.5t28 35.5t43 25.5t55 9.5q32 0 55.5 -9t39 -23.5t23 -33t7.5 -37.5q0 -44 -28.5 -70t-67.5 -32q29 -10 52 -36t23 -66q0 -28 -10.5 -51.5t-30 -40.5t-46.5 -26.5t-60 -9.5q-35 0 -60 9.5t-41.5 25t-25.5 37t-12 45.5l35 15q2 -41 26.5 -70.5
t77.5 -29.5q22 0 42 5.5t35 17.5t24 30t9 43q0 29 -17 50t-49 30q-11 4 -29.5 5.5t-41.5 1.5h-24l7 30h43q32 0 52 3t34 10q44 20 44 73q0 32 -23.5 52t-64.5 20q-40 0 -69 -24.5t-31 -70.5z" />
    <glyph glyph-name="acute" unicode="&#xb4;" horiz-adv-x="420" 
d="M181 544l105 136h63l-129 -136h-39z" />
    <glyph glyph-name="mu" unicode="&#xb5;" horiz-adv-x="495" 
d="M-20 -191l142 667h37l-57 -266q-9 -44 -11.5 -79t6 -59t30 -37t59.5 -13q37 0 66.5 12t52.5 31q29 25 46 58t25 65l61 288h37l-101 -476h-37l18 86h-1q-23 -41 -67 -69.5t-110 -28.5q-42 0 -71.5 17t-35.5 49l-52 -245h-37z" />
    <glyph glyph-name="paragraph" unicode="&#xb6;" horiz-adv-x="584" 
d="M337 -153l169 800h-123l-170 -800h-35l100 478h-24q-37 0 -69 9.5t-56 29t-37.5 48.5t-13.5 69q0 48 15 83.5t43 60.5q16 14 35.5 24.5t45.5 17.5t60.5 10.5t82.5 3.5l274 -1l-7 -33h-85l-170 -800h-35z" />
    <glyph glyph-name="periodcentered" unicode="&#xb7;" horiz-adv-x="188" 
d="M138 377l-25 -114h-48l25 114h48z" />
    <glyph glyph-name="cedilla" unicode="&#xb8;" horiz-adv-x="450" 
d="M149 -47q6 2 11 2h11q32 0 55.5 -18t23.5 -52q0 -20 -8 -34.5t-21 -23.5t-30 -13.5t-35 -4.5q-14 0 -27.5 2t-24.5 7l8 26q21 -8 45 -8t43 10.5t19 37.5q0 26 -19 36t-42 10q-12 0 -21.5 -2t-17.5 -6l-14 18l60 65h33z" />
    <glyph glyph-name="onesuperior" unicode="&#xb9;" horiz-adv-x="243" 
d="M130 264l68 324q-35 -26 -91 -26h-9t-9 1l6 31h11q45 0 73.5 20t42.5 66h32l-88 -416h-36z" />
    <glyph glyph-name="ordmasculine" unicode="&#xba;" horiz-adv-x="363" 
d="M256 690q51 0 82.5 -30.5t31.5 -86.5q0 -35 -10 -69t-29.5 -62t-49.5 -45t-69 -17q-57 0 -85.5 33.5t-28.5 87.5q0 36 10.5 70t30.5 60.5t49.5 42.5t67.5 16zM215 407q32 0 55 15.5t38 39.5t22.5 52.5t7.5 54.5q0 44 -20.5 69.5t-65.5 25.5q-30 0 -53 -15t-38 -38
t-23 -51t-8 -54q0 -47 21 -73t64 -26z" />
    <glyph glyph-name="guillemotright" unicode="&#xbb;" horiz-adv-x="377" 
d="M319 247l-165 -142l13 58l126 107l-74 136l12 56l95 -180zM186 247l-165 -142l13 58l126 107l-74 136l12 56l95 -180z" />
    <glyph glyph-name="onequarter" unicode="&#xbc;" horiz-adv-x="771" 
d="M606 0h-36l23 110h-199l5 25l260 279h36l-59 -271h73l-5 -33h-74zM600 143l23 112q9 39 13.5 62t12.5 44l-2 1q-10 -16 -30.5 -40.5t-37.5 -40.5l-130 -138h151zM132 264l68 324q-35 -26 -91 -26h-9t-9 1l6 31h11q45 0 73.5 20t42.5 66h32l-88 -416h-36zM618 680
l-455 -680h-41l455 680h41z" />
    <glyph glyph-name="onehalf" unicode="&#xbd;" horiz-adv-x="826" 
d="M512 259q-2 8 -3 16.5t-1 16.5q0 28 10 53t28.5 43.5t45 29.5t60.5 11q60 0 95 -33t35 -84q0 -34 -14.5 -64t-37.5 -57t-52 -49.5t-57 -41.5l-29.5 -18.5l-30 -18l-26.5 -16t-19 -11.5l1 -3h222l-7 -33h-282l6 30q15 8 35 20.5l42.5 27l46 31l46.5 33.5l42 33.5t38 38
t27.5 44t10.5 51.5q0 40 -25.5 64t-68.5 24q-27 0 -47 -8.5t-33 -23t-19.5 -33.5t-6.5 -40q0 -14 1.5 -25t6.5 -25zM131 264l68 324q-35 -26 -91 -26h-9t-9 1l6 31h11q45 0 73.5 20t42.5 66h32l-88 -416h-36zM617 680l-455 -680h-41l455 680h41z" />
    <glyph glyph-name="threequarters" unicode="&#xbe;" horiz-adv-x="880" 
d="M109 581q0 21 10 40.5t28 35.5t43 25.5t55 9.5q32 0 55.5 -9t39 -23.5t23 -33t7.5 -37.5q0 -44 -28.5 -70t-67.5 -32q29 -10 52 -36t23 -66q0 -28 -10.5 -51.5t-30 -40.5t-46.5 -26.5t-60 -9.5q-35 0 -60 9.5t-41.5 25t-25.5 37t-12 45.5l35 15q2 -41 26.5 -70.5
t77.5 -29.5q22 0 42 5.5t35 17.5t24 30t9 43q0 29 -17 50t-49 30q-11 4 -29.5 5.5t-41.5 1.5h-24l7 30h43q32 0 52 3t34 10q44 20 44 73q0 32 -23.5 52t-64.5 20q-40 0 -69 -24.5t-31 -70.5zM715 0h-36l23 110h-199l5 25l260 279h36l-59 -271h73l-5 -33h-74zM709 143l23 112
q9 39 13.5 62t12.5 44l-2 1q-10 -16 -30.5 -40.5t-37.5 -40.5l-130 -138h151zM727 680l-455 -680h-41l455 680h41z" />
    <glyph glyph-name="questiondown" unicode="&#xbf;" horiz-adv-x="452" 
d="M149 183q23 18 37 32t22 28t12 28.5t8 33.5l2 11h40q-5 -28 -12 -49.5t-18 -40t-27 -35t-40 -34.5l-80 -59q-48 -35 -69.5 -75t-21.5 -78q0 -55 36.5 -90.5t108.5 -35.5q41 0 72 13.5t52 37t32 53.5t11 63q0 15 -1.5 30t-6.5 29l41 -14q5 -28 5 -51q0 -40 -15 -75.5
t-42.5 -62.5t-66.5 -42.5t-87 -15.5q-43 0 -76 12t-55.5 33.5t-34.5 50.5t-12 62q0 46 23.5 90t71.5 81zM240 392l18 84h42l-18 -84h-42z" />
    <glyph glyph-name="Agrave" unicode="&#xc0;" horiz-adv-x="587" 
d="M475 0l-34 214h-315l-122 -214h-45l399 680h45l111 -680h-39zM392 514q-2 14 -5 31.5t-5.5 35.5t-4.5 34.5t-3 28.5l-27 -50l-23.5 -42l-20.5 -37l-155 -265h286zM383 753l-129 136h63l105 -136h-39z" />
    <glyph glyph-name="Aacute" unicode="&#xc1;" horiz-adv-x="587" 
d="M475 0l-34 214h-315l-122 -214h-45l399 680h45l111 -680h-39zM392 514q-2 14 -5 31.5t-5.5 35.5t-4.5 34.5t-3 28.5l-27 -50l-23.5 -42l-20.5 -37l-155 -265h286zM347 753l105 136h63l-129 -136h-39z" />
    <glyph glyph-name="Acircumflex" unicode="&#xc2;" horiz-adv-x="587" 
d="M475 0l-34 214h-315l-122 -214h-45l399 680h45l111 -680h-39zM392 514q-2 14 -5 31.5t-5.5 35.5t-4.5 34.5t-3 28.5l-27 -50l-23.5 -42l-20.5 -37l-155 -265h286zM288 753h-42l144 136h48l86 -136h-38l-76 105z" />
    <glyph glyph-name="Atilde" unicode="&#xc3;" horiz-adv-x="587" 
d="M475 0l-34 214h-315l-122 -214h-45l399 680h45l111 -680h-39zM392 514q-2 14 -5 31.5t-5.5 35.5t-4.5 34.5t-3 28.5l-27 -50l-23.5 -42l-20.5 -37l-155 -265h286zM560 847q-8 -26 -27 -46.5t-54 -20.5q-20 0 -39.5 7.5t-37.5 16.5q-23 11 -38 17.5t-28 6.5
q-23 0 -35.5 -18.5t-17.5 -36.5l-30 11q3 11 9 24t16.5 24.5t25.5 19t35 7.5q18 0 35.5 -7.5t40.5 -18.5q17 -8 34 -15t31 -7q25 0 35 15t17 32z" />
    <glyph glyph-name="Adieresis" unicode="&#xc4;" horiz-adv-x="587" 
d="M304 871h41l-19 -91h-41zM488 871h41l-19 -91h-41zM475 0l-34 214h-315l-122 -214h-45l399 680h45l111 -680h-39zM392 514q-2 14 -5 31.5t-5.5 35.5t-4.5 34.5t-3 28.5l-27 -50l-23.5 -42l-20.5 -37l-155 -265h286z" />
    <glyph glyph-name="Aring" unicode="&#xc5;" horiz-adv-x="587" 
d="M320 826q0 35 24 58t58 23t58 -23t24 -58t-24 -58t-58 -23t-58 23t-24 58zM347 826q0 -23 15.5 -38.5t38.5 -15.5t38.5 15.5t15.5 38.5t-15.5 38.5t-38.5 15.5t-38.5 -15.5t-15.5 -38.5zM475 0l-34 214h-315l-122 -214h-45l399 680h45l111 -680h-39zM392 514
q-2 14 -5 31.5t-5.5 35.5t-4.5 34.5t-3 28.5l-27 -50l-23.5 -42l-20.5 -37l-155 -265h286z" />
    <glyph glyph-name="AE" unicode="&#xc6;" horiz-adv-x="879" 
d="M361 0l43 213h-258l-167 -213h-49l544 680h436l-8 -37h-366l-59 -273h331l-8 -37h-330l-64 -296h387l-8 -37h-424zM412 250l57 270l11 53l9 42q4 21 9 38h-1l-44.5 -55.5l-55.5 -71.5l-222 -276h237z" />
    <glyph glyph-name="Ccedilla" unicode="&#xc7;" horiz-adv-x="637" 
d="M582 161q-42 -76 -110.5 -124t-166.5 -49l-33 -35q6 2 11 2h11q32 0 55.5 -18t23.5 -52q0 -20 -8 -34.5t-21 -23.5t-30 -13.5t-35 -4.5q-14 0 -27.5 2t-24.5 7l8 26q21 -8 45 -8t43 10.5t19 37.5q0 26 -19 36t-42 10q-12 0 -21.5 -2t-17.5 -6l-14 18l44 50
q-102 9 -156 81.5t-54 196.5q0 80 23 156t67.5 135.5t108 96t144.5 36.5q87 0 146.5 -43.5t82.5 -127.5l-35 -23q-18 75 -68.5 117t-131.5 42q-72 0 -128 -35.5t-93.5 -91t-57 -122t-19.5 -129.5q0 -119 52 -187.5t159 -68.5q41 0 77 12t66 34t54 51t42 64z" />
    <glyph glyph-name="Egrave" unicode="&#xc8;" horiz-adv-x="572" 
d="M477 0h-446l145 680h426l-8 -37h-387l-58 -273h351l-8 -37h-351l-63 -296h407zM410 753l-129 136h63l105 -136h-39z" />
    <glyph glyph-name="Eacute" unicode="&#xc9;" horiz-adv-x="572" 
d="M477 0h-446l145 680h426l-8 -37h-387l-58 -273h351l-8 -37h-351l-63 -296h407zM338 753l105 136h63l-129 -136h-39z" />
    <glyph glyph-name="Ecircumflex" unicode="&#xca;" horiz-adv-x="572" 
d="M477 0h-446l145 680h426l-8 -37h-387l-58 -273h351l-8 -37h-351l-63 -296h407zM303 753h-42l144 136h48l86 -136h-38l-76 105z" />
    <glyph glyph-name="Edieresis" unicode="&#xcb;" horiz-adv-x="572" 
d="M477 0h-446l145 680h426l-8 -37h-387l-58 -273h351l-8 -37h-351l-63 -296h407zM305 871h41l-19 -91h-41zM489 871h41l-19 -91h-41z" />
    <glyph glyph-name="Igrave" unicode="&#xcc;" horiz-adv-x="222" 
d="M215 680l-145 -680h-39l145 680h39zM197 753l-129 135h63l105 -135h-39z" />
    <glyph glyph-name="Iacute" unicode="&#xcd;" horiz-adv-x="222" 
d="M215 680l-145 -680h-39l145 680h39zM191 753l105 136h63l-129 -136h-39z" />
    <glyph glyph-name="Icircumflex" unicode="&#xce;" horiz-adv-x="222" 
d="M215 680l-145 -680h-39l145 680h39zM111 753h-42l144 136h48l86 -136h-38l-76 105z" />
    <glyph glyph-name="Idieresis" unicode="&#xcf;" horiz-adv-x="222" 
d="M215 680l-145 -680h-39l145 680h39zM120 871h41l-19 -91h-41zM304 871h41l-19 -91h-41z" />
    <glyph glyph-name="Eth" unicode="&#xd0;" horiz-adv-x="692" 
d="M39 0l72 341h-104l8 36h104l65 303h142q64 0 117 -8t95 -27q56 -26 87 -76.5t31 -133.5q0 -57 -11.5 -114.5t-34 -109.5t-56.5 -94t-78 -68q-51 -29 -107.5 -39t-129.5 -10h-200zM160 377h223l-7 -36h-224l-65 -304h157q66 0 118.5 8t99.5 39q41 27 70 69.5t47.5 91
t27 97.5t8.5 90q0 73 -27.5 116t-75.5 66q-33 16 -76 22.5t-94 6.5h-125z" />
    <glyph glyph-name="Ntilde" unicode="&#xd1;" horiz-adv-x="681" 
d="M598 847q-8 -26 -27 -46.5t-54 -20.5q-20 0 -39.5 7.5t-37.5 16.5q-23 11 -38 17.5t-28 6.5q-23 0 -35.5 -18.5t-17.5 -36.5l-30 11q3 11 9 24t16.5 24.5t25.5 19t35 7.5q18 0 35.5 -7.5t40.5 -18.5q17 -8 34 -15t31 -7q25 0 35 15t17 32zM492 0l-252 537
q-8 14 -14.5 29.5l-11.5 28.5q-6 15 -12 28h-1q-2 -16 -6 -34l-7 -36.5t-9 -42.5l-109 -510h-39l146 680h37l241 -513l20 -43t16 -34q8 -17 14 -31h1q4 21 8 46l9.5 48l11.5 56l100 471h39l-144 -680h-38z" />
    <glyph glyph-name="Ograve" unicode="&#xd2;" horiz-adv-x="684" 
d="M406 692q54 0 98.5 -17.5t76.5 -51t49.5 -83.5t17.5 -115q0 -80 -21.5 -158t-64.5 -140t-108 -100.5t-151 -38.5q-117 0 -179 73.5t-62 206.5q0 80 23 156t67.5 135.5t108.5 96t145 36.5zM312 23q74 0 129.5 37.5t92.5 95t55.5 126.5t18.5 132q0 113 -53 178t-156 65
q-72 0 -128 -35.5t-93.5 -91t-57 -122t-19.5 -129.5q0 -119 52 -187.5t159 -68.5zM426 753l-129 136h63l105 -136h-39z" />
    <glyph glyph-name="Oacute" unicode="&#xd3;" horiz-adv-x="684" 
d="M406 692q54 0 98.5 -17.5t76.5 -51t49.5 -83.5t17.5 -115q0 -80 -21.5 -158t-64.5 -140t-108 -100.5t-151 -38.5q-117 0 -179 73.5t-62 206.5q0 80 23 156t67.5 135.5t108.5 96t145 36.5zM312 23q74 0 129.5 37.5t92.5 95t55.5 126.5t18.5 132q0 113 -53 178t-156 65
q-72 0 -128 -35.5t-93.5 -91t-57 -122t-19.5 -129.5q0 -119 52 -187.5t159 -68.5zM387 753l105 136h63l-129 -136h-39z" />
    <glyph glyph-name="Ocircumflex" unicode="&#xd4;" horiz-adv-x="684" 
d="M406 692q54 0 98.5 -17.5t76.5 -51t49.5 -83.5t17.5 -115q0 -80 -21.5 -158t-64.5 -140t-108 -100.5t-151 -38.5q-117 0 -179 73.5t-62 206.5q0 80 23 156t67.5 135.5t108.5 96t145 36.5zM312 23q74 0 129.5 37.5t92.5 95t55.5 126.5t18.5 132q0 113 -53 178t-156 65
q-72 0 -128 -35.5t-93.5 -91t-57 -122t-19.5 -129.5q0 -119 52 -187.5t159 -68.5zM337 753h-42l144 136h48l86 -136h-38l-76 105z" />
    <glyph glyph-name="Otilde" unicode="&#xd5;" horiz-adv-x="684" 
d="M406 692q54 0 98.5 -17.5t76.5 -51t49.5 -83.5t17.5 -115q0 -80 -21.5 -158t-64.5 -140t-108 -100.5t-151 -38.5q-117 0 -179 73.5t-62 206.5q0 80 23 156t67.5 135.5t108.5 96t145 36.5zM312 23q74 0 129.5 37.5t92.5 95t55.5 126.5t18.5 132q0 113 -53 178t-156 65
q-72 0 -128 -35.5t-93.5 -91t-57 -122t-19.5 -129.5q0 -119 52 -187.5t159 -68.5zM597 847q-8 -26 -27 -46.5t-54 -20.5q-20 0 -39.5 7.5t-37.5 16.5q-23 11 -38 17.5t-28 6.5q-23 0 -35.5 -18.5t-17.5 -36.5l-30 11q3 11 9 24t16.5 24.5t25.5 19t35 7.5q18 0 35.5 -7.5
t40.5 -18.5q17 -8 34 -15t31 -7q25 0 35 15t17 32z" />
    <glyph glyph-name="Odieresis" unicode="&#xd6;" horiz-adv-x="684" 
d="M406 692q54 0 98.5 -17.5t76.5 -51t49.5 -83.5t17.5 -115q0 -80 -21.5 -158t-64.5 -140t-108 -100.5t-151 -38.5q-117 0 -179 73.5t-62 206.5q0 80 23 156t67.5 135.5t108.5 96t145 36.5zM312 23q74 0 129.5 37.5t92.5 95t55.5 126.5t18.5 132q0 113 -53 178t-156 65
q-72 0 -128 -35.5t-93.5 -91t-57 -122t-19.5 -129.5q0 -119 52 -187.5t159 -68.5zM340 871h41l-19 -91h-41zM524 871h41l-19 -91h-41z" />
    <glyph glyph-name="multiply" unicode="&#xd7;" horiz-adv-x="673" 
d="M597 533l-237 -237l237 -238l-19 -19l-237 238l-237 -237l-18 19l236 236l-236 236l19 19l236 -236l237 237z" />
    <glyph glyph-name="Oslash" unicode="&#xd8;" horiz-adv-x="697" 
d="M408 692q69 0 121.5 -28t83.5 -83l130 118l26 -24l-140 -127q10 -26 15.5 -57t5.5 -66q0 -80 -21.5 -158t-64.5 -140t-108 -100.5t-151 -38.5q-66 0 -114.5 24t-79.5 70l-119 -108l-24 25l126 114q-30 63 -30 155q0 80 23 156t67.5 135.5t108.5 96t145 36.5zM103 279
q0 -79 23 -137l456 411q-25 50 -70 77t-111 27q-72 0 -128 -35.5t-93.5 -91t-57 -122t-19.5 -129.5zM314 23q74 0 129.5 37.5t92.5 95t55.5 126.5t18.5 132q0 59 -15 104l-453 -408q26 -42 69 -64.5t103 -22.5z" />
    <glyph glyph-name="Ugrave" unicode="&#xd9;" horiz-adv-x="674" 
d="M290 -13q-48 0 -88.5 11.5t-69.5 35t-45.5 59.5t-16.5 86q0 38 11 87l89 414h40l-87 -401q-5 -26 -8.5 -50t-3.5 -46q0 -161 188 -161q56 0 95 13t68 40q15 14 26.5 30.5t21 37.5t17 48t15.5 62l91 427h39l-90 -426q-16 -76 -38 -125.5t-57 -82.5q-33 -30 -80.5 -44.5
t-116.5 -14.5zM444 753l-129 136h63l105 -136h-39z" />
    <glyph glyph-name="Uacute" unicode="&#xda;" horiz-adv-x="674" 
d="M290 -13q-48 0 -88.5 11.5t-69.5 35t-45.5 59.5t-16.5 86q0 38 11 87l89 414h40l-87 -401q-5 -26 -8.5 -50t-3.5 -46q0 -161 188 -161q56 0 95 13t68 40q15 14 26.5 30.5t21 37.5t17 48t15.5 62l91 427h39l-90 -426q-16 -76 -38 -125.5t-57 -82.5q-33 -30 -80.5 -44.5
t-116.5 -14.5zM371 753l105 136h63l-129 -136h-39z" />
    <glyph glyph-name="Ucircumflex" unicode="&#xdb;" horiz-adv-x="674" 
d="M290 -13q-48 0 -88.5 11.5t-69.5 35t-45.5 59.5t-16.5 86q0 38 11 87l89 414h40l-87 -401q-5 -26 -8.5 -50t-3.5 -46q0 -161 188 -161q56 0 95 13t68 40q15 14 26.5 30.5t21 37.5t17 48t15.5 62l91 427h39l-90 -426q-16 -76 -38 -125.5t-57 -82.5q-33 -30 -80.5 -44.5
t-116.5 -14.5zM332 753h-42l144 136h48l86 -136h-38l-76 105z" />
    <glyph glyph-name="Udieresis" unicode="&#xdc;" horiz-adv-x="674" 
d="M290 -13q-48 0 -88.5 11.5t-69.5 35t-45.5 59.5t-16.5 86q0 38 11 87l89 414h40l-87 -401q-5 -26 -8.5 -50t-3.5 -46q0 -161 188 -161q56 0 95 13t68 40q15 14 26.5 30.5t21 37.5t17 48t15.5 62l91 427h39l-90 -426q-16 -76 -38 -125.5t-57 -82.5q-33 -30 -80.5 -44.5
t-116.5 -14.5zM340 871h41l-19 -91h-41zM524 871h41l-19 -91h-41z" />
    <glyph glyph-name="Yacute" unicode="&#xdd;" horiz-adv-x="548" 
d="M232 0h-39l62 291l-166 389h42l150 -351l296 351h45l-329 -389zM318 753l105 136h63l-129 -136h-39z" />
    <glyph glyph-name="Thorn" unicode="&#xde;" horiz-adv-x="620" 
d="M32 0l144 680h39l-23 -102h197q50 0 82.5 -5t56.5 -16q39 -18 60.5 -50t21.5 -79q0 -22 -5 -51t-18.5 -58t-38 -54.5t-62.5 -40.5q-23 -8 -52.5 -13t-67.5 -5h-252l-43 -206h-39zM367 243q26 0 45 1.5t33 4.5t25 7.5t21 10.5q42 25 60.5 67.5t18.5 88.5q0 43 -19.5 67.5
t-51.5 36.5q-23 8 -50.5 11t-57.5 3h-205l-65 -298h246z" />
    <glyph glyph-name="germandbls" unicode="&#xdf;" horiz-adv-x="479" 
d="M327 403q15 -3 31 -10.5t29.5 -21.5t22.5 -37t9 -57q0 -17 -2.5 -39t-8.5 -48q-12 -56 -28.5 -93.5t-38 -60.5t-48 -33t-58.5 -10q-31 0 -52 7.5t-33.5 21t-18 31.5t-5.5 39q0 17 2.5 35.5t10.5 50.5h33q-5 -19 -8.5 -37t-3.5 -38q0 -34 15.5 -56.5t61.5 -22.5
q29 0 50 10.5t36 31.5t26 51.5t20 70.5q12 49 12 86q0 35 -9 56.5t-27.5 33.5t-47.5 16.5t-68 4.5h-43l7 32h40q41 0 69 7t51 21q29 18 44.5 47.5t15.5 71.5q0 45 -27.5 72t-81.5 27q-42 0 -69 -16.5t-45 -51.5q-10 -20 -18 -48t-16 -64l-102 -483h-36l105 504q10 46 21 76
t26 50q25 35 60 50t76 15q30 0 56.5 -7.5t46 -23.5t31 -40.5t11.5 -57.5q0 -38 -12 -66.5t-30.5 -48t-40 -31t-40.5 -15.5z" />
    <glyph glyph-name="agrave" unicode="&#xe0;" 
d="M413 -3q-15 -4 -32 -4q-32 0 -49 16t-17 43q0 14 4 26h-1q-26 -41 -67.5 -65.5t-98.5 -24.5q-68 0 -102 36t-34 88q0 54 27 87q24 30 61.5 44t90.5 23l129 22q22 4 32 10t14 24q2 11 4 25t2 25q0 18 -5.5 33t-19 26.5t-37.5 18t-60 6.5q-71 0 -108.5 -33.5t-44.5 -84.5
l-30 19q5 33 22.5 57.5t43.5 41t58 24.5t65 8q26 0 53 -5t48.5 -17t35 -32.5t13.5 -51.5q0 -15 -2 -31.5t-9 -50.5l-42 -199l-4 -21t-2 -20q0 -17 9.5 -27t34.5 -10q14 0 23 3zM358 269q-4 -3 -12.5 -5.5t-19 -5t-22 -4.5t-21.5 -3l-71 -12q-30 -5 -58.5 -11.5t-50.5 -19.5
t-35.5 -34t-13.5 -55q0 -50 27.5 -74.5t78.5 -24.5q30 0 58.5 10t52.5 30.5t42.5 52.5t27.5 77zM292 544l-129 136h63l105 -136h-39z" />
    <glyph glyph-name="aacute" unicode="&#xe1;" 
d="M413 -3q-15 -4 -32 -4q-32 0 -49 16t-17 43q0 14 4 26h-1q-26 -41 -67.5 -65.5t-98.5 -24.5q-68 0 -102 36t-34 88q0 54 27 87q24 30 61.5 44t90.5 23l129 22q22 4 32 10t14 24q2 11 4 25t2 25q0 18 -5.5 33t-19 26.5t-37.5 18t-60 6.5q-71 0 -108.5 -33.5t-44.5 -84.5
l-30 19q5 33 22.5 57.5t43.5 41t58 24.5t65 8q26 0 53 -5t48.5 -17t35 -32.5t13.5 -51.5q0 -15 -2 -31.5t-9 -50.5l-42 -199l-4 -21t-2 -20q0 -17 9.5 -27t34.5 -10q14 0 23 3zM358 269q-4 -3 -12.5 -5.5t-19 -5t-22 -4.5t-21.5 -3l-71 -12q-30 -5 -58.5 -11.5t-50.5 -19.5
t-35.5 -34t-13.5 -55q0 -50 27.5 -74.5t78.5 -24.5q30 0 58.5 10t52.5 30.5t42.5 52.5t27.5 77zM244 544l105 136h63l-129 -136h-39z" />
    <glyph glyph-name="acircumflex" unicode="&#xe2;" 
d="M413 -3q-15 -4 -32 -4q-32 0 -49 16t-17 43q0 14 4 26h-1q-26 -41 -67.5 -65.5t-98.5 -24.5q-68 0 -102 36t-34 88q0 54 27 87q24 30 61.5 44t90.5 23l129 22q22 4 32 10t14 24q2 11 4 25t2 25q0 18 -5.5 33t-19 26.5t-37.5 18t-60 6.5q-71 0 -108.5 -33.5t-44.5 -84.5
l-30 19q5 33 22.5 57.5t43.5 41t58 24.5t65 8q26 0 53 -5t48.5 -17t35 -32.5t13.5 -51.5q0 -15 -2 -31.5t-9 -50.5l-42 -199l-4 -21t-2 -20q0 -17 9.5 -27t34.5 -10q14 0 23 3zM358 269q-4 -3 -12.5 -5.5t-19 -5t-22 -4.5t-21.5 -3l-71 -12q-30 -5 -58.5 -11.5t-50.5 -19.5
t-35.5 -34t-13.5 -55q0 -50 27.5 -74.5t78.5 -24.5q30 0 58.5 10t52.5 30.5t42.5 52.5t27.5 77zM185 544h-42l144 136h48l86 -136h-38l-76 105z" />
    <glyph glyph-name="atilde" unicode="&#xe3;" 
d="M413 -3q-15 -4 -32 -4q-32 0 -49 16t-17 43q0 14 4 26h-1q-26 -41 -67.5 -65.5t-98.5 -24.5q-68 0 -102 36t-34 88q0 54 27 87q24 30 61.5 44t90.5 23l129 22q22 4 32 10t14 24q2 11 4 25t2 25q0 18 -5.5 33t-19 26.5t-37.5 18t-60 6.5q-71 0 -108.5 -33.5t-44.5 -84.5
l-30 19q5 33 22.5 57.5t43.5 41t58 24.5t65 8q26 0 53 -5t48.5 -17t35 -32.5t13.5 -51.5q0 -15 -2 -31.5t-9 -50.5l-42 -199l-4 -21t-2 -20q0 -17 9.5 -27t34.5 -10q14 0 23 3zM358 269q-4 -3 -12.5 -5.5t-19 -5t-22 -4.5t-21.5 -3l-71 -12q-30 -5 -58.5 -11.5t-50.5 -19.5
t-35.5 -34t-13.5 -55q0 -50 27.5 -74.5t78.5 -24.5q30 0 58.5 10t52.5 30.5t42.5 52.5t27.5 77zM438 639q-8 -26 -27 -46.5t-54 -20.5q-20 0 -39.5 7.5t-37.5 16.5q-23 11 -38 17.5t-28 6.5q-23 0 -35.5 -18.5t-17.5 -36.5l-30 11q3 11 9 24t16.5 24.5t25.5 19t35 7.5
q18 0 35.5 -7.5t40.5 -18.5q17 -8 34 -15t31 -7q25 0 35 15t17 32z" />
    <glyph glyph-name="adieresis" unicode="&#xe4;" 
d="M191 656h41l-19 -91h-41zM375 656h41l-19 -91h-41zM413 -3q-15 -4 -32 -4q-32 0 -49 16t-17 43q0 14 4 26h-1q-26 -41 -67.5 -65.5t-98.5 -24.5q-68 0 -102 36t-34 88q0 54 27 87q24 30 61.5 44t90.5 23l129 22q22 4 32 10t14 24q2 11 4 25t2 25q0 18 -5.5 33t-19 26.5
t-37.5 18t-60 6.5q-71 0 -108.5 -33.5t-44.5 -84.5l-30 19q5 33 22.5 57.5t43.5 41t58 24.5t65 8q26 0 53 -5t48.5 -17t35 -32.5t13.5 -51.5q0 -15 -2 -31.5t-9 -50.5l-42 -199l-4 -21t-2 -20q0 -17 9.5 -27t34.5 -10q14 0 23 3zM358 269q-4 -3 -12.5 -5.5t-19 -5t-22 -4.5
t-21.5 -3l-71 -12q-30 -5 -58.5 -11.5t-50.5 -19.5t-35.5 -34t-13.5 -55q0 -50 27.5 -74.5t78.5 -24.5q30 0 58.5 10t52.5 30.5t42.5 52.5t27.5 77z" />
    <glyph glyph-name="aring" unicode="&#xe5;" 
d="M413 -3q-15 -4 -32 -4q-32 0 -49 16t-17 43q0 14 4 26h-1q-26 -41 -67.5 -65.5t-98.5 -24.5q-68 0 -102 36t-34 88q0 54 27 87q24 30 61.5 44t90.5 23l129 22q22 4 32 10t14 24q2 11 4 25t2 25q0 18 -5.5 33t-19 26.5t-37.5 18t-60 6.5q-71 0 -108.5 -33.5t-44.5 -84.5
l-30 19q5 33 22.5 57.5t43.5 41t58 24.5t65 8q26 0 53 -5t48.5 -17t35 -32.5t13.5 -51.5q0 -15 -2 -31.5t-9 -50.5l-42 -199l-4 -21t-2 -20q0 -17 9.5 -27t34.5 -10q14 0 23 3zM358 269q-4 -3 -12.5 -5.5t-19 -5t-22 -4.5t-21.5 -3l-71 -12q-30 -5 -58.5 -11.5t-50.5 -19.5
t-35.5 -34t-13.5 -55q0 -50 27.5 -74.5t78.5 -24.5q30 0 58.5 10t52.5 30.5t42.5 52.5t27.5 77zM204 617q0 35 24 58t58 23t58 -23t24 -58t-24 -58t-58 -23t-58 23t-24 58zM231 617q0 -23 15.5 -38.5t38.5 -15.5t38.5 15.5t15.5 38.5t-15.5 38.5t-38.5 15.5t-38.5 -15.5
t-15.5 -38.5z" />
    <glyph glyph-name="ae" unicode="&#xe6;" horiz-adv-x="809" 
d="M386 246q-4 -23 -4 -52q0 -33 7.5 -64.5t25 -55.5t46 -39t71.5 -15q37 0 65 10.5t49 26.5t35.5 35.5t24.5 38.5l29 -20q-8 -16 -19.5 -31t-25.5 -29q-28 -27 -68.5 -45t-94.5 -18q-145 0 -175 134q-8 -22 -24.5 -46t-41.5 -43.5t-58 -32t-75 -12.5q-68 0 -102.5 36
t-34.5 88q0 54 27 87q24 30 61.5 44t90.5 23l129 22q22 4 32 10t14 24q2 11 4 25t2 25q0 18 -5.5 33t-19 26.5t-37.5 18t-60 6.5q-71 0 -108 -33.5t-45 -84.5l-30 19q5 33 22 57.5t42.5 41t58 24.5t68.5 8q23 0 47.5 -4.5t45.5 -15t36 -28.5t18 -45q32 43 78.5 68t104.5 25
q44 0 75 -14.5t51 -39t29.5 -57t9.5 -68.5q0 -14 -1.5 -31t-4.5 -32h-365zM358 269q-4 -3 -12.5 -5.5t-19 -5t-22 -4.5t-21.5 -3l-71 -12q-30 -5 -58.5 -11.5t-50.5 -19.5t-35.5 -34t-13.5 -55q0 -50 27.5 -74.5t78.5 -24.5q30 0 58.5 10t52.5 30.5t42.5 52.5t27.5 77z
M586 456q-40 0 -72.5 -16t-56.5 -41.5t-40 -57.5t-24 -63h323q3 21 3 39q0 27 -6.5 52t-22.5 44.5t-41.5 31t-62.5 11.5z" />
    <glyph glyph-name="ccedilla" unicode="&#xe7;" horiz-adv-x="487" 
d="M419 115q-29 -55 -77 -90t-120 -37l-34 -35q6 2 11 2h11q32 0 55.5 -18t23.5 -52q0 -20 -8 -34.5t-21 -23.5t-30 -13.5t-35 -4.5q-14 0 -27.5 2t-24.5 7l8 26q21 -8 45 -8t43 10.5t19 37.5q0 26 -19 36t-42 10q-12 0 -21.5 -2t-17.5 -6l-14 18l46 50q-73 8 -113 60
t-40 135q0 55 15 109.5t46 97.5t77 69.5t108 26.5q68 0 113 -38t59 -103l-35 -18q-10 60 -48 93.5t-95 33.5q-51 0 -89 -24.5t-63 -62.5t-37.5 -85.5t-12.5 -92.5q0 -80 39 -125.5t105 -45.5q60 0 103 33t68 84z" />
    <glyph glyph-name="egrave" unicode="&#xe8;" horiz-adv-x="501" 
d="M78 246q-4 -23 -4 -52q0 -33 7.5 -64.5t25 -55.5t46 -39t71.5 -15q37 0 65 10.5t49 26.5t35.5 35.5t24.5 38.5l29 -20q-8 -16 -19.5 -31t-25.5 -29q-28 -27 -68.5 -45t-94.5 -18q-88 0 -135 52.5t-47 152.5q0 58 17.5 111t49.5 94t77.5 65.5t102.5 24.5q44 0 75 -14.5
t51 -39t29.5 -57t9.5 -68.5q0 -14 -1.5 -31t-4.5 -32h-365zM278 456q-40 0 -72.5 -16t-56.5 -41.5t-40 -57.5t-24 -63h323q3 21 3 39q0 27 -6.5 52t-22.5 44.5t-41.5 31t-62.5 11.5zM301 544l-129 136h63l105 -136h-39z" />
    <glyph glyph-name="eacute" unicode="&#xe9;" horiz-adv-x="501" 
d="M78 246q-4 -23 -4 -52q0 -33 7.5 -64.5t25 -55.5t46 -39t71.5 -15q37 0 65 10.5t49 26.5t35.5 35.5t24.5 38.5l29 -20q-8 -16 -19.5 -31t-25.5 -29q-28 -27 -68.5 -45t-94.5 -18q-88 0 -135 52.5t-47 152.5q0 58 17.5 111t49.5 94t77.5 65.5t102.5 24.5q44 0 75 -14.5
t51 -39t29.5 -57t9.5 -68.5q0 -14 -1.5 -31t-4.5 -32h-365zM278 456q-40 0 -72.5 -16t-56.5 -41.5t-40 -57.5t-24 -63h323q3 21 3 39q0 27 -6.5 52t-22.5 44.5t-41.5 31t-62.5 11.5zM254 544l105 136h63l-129 -136h-39z" />
    <glyph glyph-name="ecircumflex" unicode="&#xea;" horiz-adv-x="501" 
d="M78 246q-4 -23 -4 -52q0 -33 7.5 -64.5t25 -55.5t46 -39t71.5 -15q37 0 65 10.5t49 26.5t35.5 35.5t24.5 38.5l29 -20q-8 -16 -19.5 -31t-25.5 -29q-28 -27 -68.5 -45t-94.5 -18q-88 0 -135 52.5t-47 152.5q0 58 17.5 111t49.5 94t77.5 65.5t102.5 24.5q44 0 75 -14.5
t51 -39t29.5 -57t9.5 -68.5q0 -14 -1.5 -31t-4.5 -32h-365zM278 456q-40 0 -72.5 -16t-56.5 -41.5t-40 -57.5t-24 -63h323q3 21 3 39q0 27 -6.5 52t-22.5 44.5t-41.5 31t-62.5 11.5zM194 544h-42l144 136h48l86 -136h-38l-76 105z" />
    <glyph glyph-name="edieresis" unicode="&#xeb;" horiz-adv-x="501" 
d="M78 246q-4 -23 -4 -52q0 -33 7.5 -64.5t25 -55.5t46 -39t71.5 -15q37 0 65 10.5t49 26.5t35.5 35.5t24.5 38.5l29 -20q-8 -16 -19.5 -31t-25.5 -29q-28 -27 -68.5 -45t-94.5 -18q-88 0 -135 52.5t-47 152.5q0 58 17.5 111t49.5 94t77.5 65.5t102.5 24.5q44 0 75 -14.5
t51 -39t29.5 -57t9.5 -68.5q0 -14 -1.5 -31t-4.5 -32h-365zM278 456q-40 0 -72.5 -16t-56.5 -41.5t-40 -57.5t-24 -63h323q3 21 3 39q0 27 -6.5 52t-22.5 44.5t-41.5 31t-62.5 11.5zM204 656h41l-19 -91h-41zM388 656h41l-19 -91h-41z" />
    <glyph glyph-name="igrave" unicode="&#xec;" horiz-adv-x="191" 
d="M54 0h-37l101 476h37zM131 544l-129 136h63l105 -136h-39z" />
    <glyph glyph-name="iacute" unicode="&#xed;" horiz-adv-x="191" 
d="M54 0h-37l101 476h37zM125 544l105 136h63l-129 -136h-39z" />
    <glyph glyph-name="icircumflex" unicode="&#xee;" horiz-adv-x="191" 
d="M54 0h-37l101 476h37zM49 544h-42l144 136h48l86 -136h-38l-76 105z" />
    <glyph glyph-name="idieresis" unicode="&#xef;" horiz-adv-x="191" 
d="M54 0h-37l101 476h37zM63 656h41l-19 -91h-41zM247 656h41l-19 -91h-41z" />
    <glyph glyph-name="eth" unicode="&#xf0;" horiz-adv-x="531" 
d="M398 689q15 -24 32 -57l115 36l6 -28l-111 -33q14 -35 27.5 -91t13.5 -136q0 -72 -14 -142t-46 -125.5t-83 -90t-124 -34.5q-83 0 -130.5 52t-47.5 143q0 57 16.5 111.5t48 97.5t77 69.5t103.5 26.5q43 0 74.5 -14t52 -37t30.5 -53t10 -61h3q0 28 -2.5 64.5t-7.5 74
t-13.5 73t-21.5 62.5l-172 -50l-6 26l168 50q-10 19 -18.5 33.5t-16.5 26.5zM278 456q-51 0 -89.5 -24.5t-64 -62.5t-38 -85.5t-12.5 -93.5q0 -81 39 -125.5t107 -44.5q52 0 90 25t63.5 64t38 86.5t12.5 92.5q0 80 -38.5 124t-107.5 44z" />
    <glyph glyph-name="ntilde" unicode="&#xf1;" horiz-adv-x="504" 
d="M373 0h-37l55 262l9.5 49.5t4.5 47.5q0 20 -4.5 38t-16.5 31t-31.5 20.5t-49.5 7.5q-41 0 -73.5 -16.5t-56 -42t-39 -57.5t-21.5 -63l-59 -277h-37l101 476h37l-20 -87l1 -1q8 16 23.5 33.5t38 32.5t51 24.5t63.5 9.5q63 0 96.5 -32t33.5 -92q0 -23 -3.5 -46t-8.5 -46z
M476 639q-8 -26 -27 -46.5t-54 -20.5q-20 0 -39.5 7.5t-37.5 16.5q-23 11 -38 17.5t-28 6.5q-23 0 -35.5 -18.5t-17.5 -36.5l-30 11q3 11 9 24t16.5 24.5t25.5 19t35 7.5q18 0 35.5 -7.5t40.5 -18.5q17 -8 34 -15t31 -7q25 0 35 15t17 32z" />
    <glyph glyph-name="ograve" unicode="&#xf2;" horiz-adv-x="517" 
d="M36 185q0 55 15.5 109.5t46.5 97.5t77 69.5t108 26.5q42 0 75 -14t56 -40t35.5 -62.5t12.5 -81.5q0 -55 -15.5 -109t-46 -97t-77 -69.5t-108.5 -26.5q-85 0 -132 53.5t-47 143.5zM277 456q-51 0 -89 -24.5t-63.5 -62.5t-38 -85.5t-12.5 -92.5q0 -80 39 -125.5t105 -45.5
q51 0 90 25t64.5 64t38.5 86t13 92q0 79 -39.5 124t-107.5 45zM304 544l-129 136h63l105 -136h-39z" />
    <glyph glyph-name="oacute" unicode="&#xf3;" horiz-adv-x="517" 
d="M36 185q0 55 15.5 109.5t46.5 97.5t77 69.5t108 26.5q42 0 75 -14t56 -40t35.5 -62.5t12.5 -81.5q0 -55 -15.5 -109t-46 -97t-77 -69.5t-108.5 -26.5q-85 0 -132 53.5t-47 143.5zM277 456q-51 0 -89 -24.5t-63.5 -62.5t-38 -85.5t-12.5 -92.5q0 -80 39 -125.5t105 -45.5
q51 0 90 25t64.5 64t38.5 86t13 92q0 79 -39.5 124t-107.5 45zM274 544l105 136h63l-129 -136h-39z" />
    <glyph glyph-name="ocircumflex" unicode="&#xf4;" horiz-adv-x="517" 
d="M36 185q0 55 15.5 109.5t46.5 97.5t77 69.5t108 26.5q42 0 75 -14t56 -40t35.5 -62.5t12.5 -81.5q0 -55 -15.5 -109t-46 -97t-77 -69.5t-108.5 -26.5q-85 0 -132 53.5t-47 143.5zM277 456q-51 0 -89 -24.5t-63.5 -62.5t-38 -85.5t-12.5 -92.5q0 -80 39 -125.5t105 -45.5
q51 0 90 25t64.5 64t38.5 86t13 92q0 79 -39.5 124t-107.5 45zM210 544h-42l144 136h48l86 -136h-38l-76 105z" />
    <glyph glyph-name="otilde" unicode="&#xf5;" horiz-adv-x="517" 
d="M36 185q0 55 15.5 109.5t46.5 97.5t77 69.5t108 26.5q42 0 75 -14t56 -40t35.5 -62.5t12.5 -81.5q0 -55 -15.5 -109t-46 -97t-77 -69.5t-108.5 -26.5q-85 0 -132 53.5t-47 143.5zM277 456q-51 0 -89 -24.5t-63.5 -62.5t-38 -85.5t-12.5 -92.5q0 -80 39 -125.5t105 -45.5
q51 0 90 25t64.5 64t38.5 86t13 92q0 79 -39.5 124t-107.5 45zM479 639q-8 -26 -27 -46.5t-54 -20.5q-20 0 -39.5 7.5t-37.5 16.5q-23 11 -38 17.5t-28 6.5q-23 0 -35.5 -18.5t-17.5 -36.5l-30 11q3 11 9 24t16.5 24.5t25.5 19t35 7.5q18 0 35.5 -7.5t40.5 -18.5
q17 -8 34 -15t31 -7q25 0 35 15t17 32z" />
    <glyph glyph-name="odieresis" unicode="&#xf6;" horiz-adv-x="517" 
d="M36 185q0 55 15.5 109.5t46.5 97.5t77 69.5t108 26.5q42 0 75 -14t56 -40t35.5 -62.5t12.5 -81.5q0 -55 -15.5 -109t-46 -97t-77 -69.5t-108.5 -26.5q-85 0 -132 53.5t-47 143.5zM277 456q-51 0 -89 -24.5t-63.5 -62.5t-38 -85.5t-12.5 -92.5q0 -80 39 -125.5t105 -45.5
q51 0 90 25t64.5 64t38.5 86t13 92q0 79 -39.5 124t-107.5 45zM215 656h41l-19 -91h-41zM399 656h41l-19 -91h-41z" />
    <glyph glyph-name="divide" unicode="&#xf7;" horiz-adv-x="836" 
d="M73 255h672v-28h-672v28zM433 114v-114h-48v114h48zM433 476v-114h-48v114h48z" />
    <glyph glyph-name="oslash" unicode="&#xf8;" horiz-adv-x="517" 
d="M437 400q25 -48 25 -110q0 -55 -15.5 -109t-46 -97t-77 -69.5t-108.5 -26.5q-84 0 -131 53l-73 -74l-23 21l77 78q-29 49 -29 119q0 55 15.5 109.5t46.5 97.5t77 69.5t108 26.5q45 0 79 -16t57 -45l72 73l24 -21zM277 456q-51 0 -89 -24.5t-63.5 -62.5t-38 -85.5
t-12.5 -92.5q0 -56 20 -96l299 305q-40 56 -116 56zM424 287q0 48 -15 84l-298 -302q38 -49 107 -49q51 0 90 25t64.5 64t38.5 86t13 92z" />
    <glyph glyph-name="ugrave" unicode="&#xf9;" horiz-adv-x="496" 
d="M112 476h37l-55 -262l-9.5 -49.5t-4.5 -47.5q0 -20 4 -38t15 -31t30 -20.5t49 -7.5q39 0 71 16.5t55 42t38.5 57.5t21.5 63l59 277h37l-101 -476h-37l20 87l-1 1q-8 -16 -23 -33.5t-37 -32.5t-50 -24.5t-62 -9.5q-63 0 -94.5 32t-31.5 92q0 23 3.5 46t8.5 46zM314 544
l-129 136h63l105 -136h-39z" />
    <glyph glyph-name="uacute" unicode="&#xfa;" horiz-adv-x="496" 
d="M112 476h37l-55 -262l-9.5 -49.5t-4.5 -47.5q0 -20 4 -38t15 -31t30 -20.5t49 -7.5q39 0 71 16.5t55 42t38.5 57.5t21.5 63l59 277h37l-101 -476h-37l20 87l-1 1q-8 -16 -23 -33.5t-37 -32.5t-50 -24.5t-62 -9.5q-63 0 -94.5 32t-31.5 92q0 23 3.5 46t8.5 46zM247 544
l105 136h63l-129 -136h-39z" />
    <glyph glyph-name="ucircumflex" unicode="&#xfb;" horiz-adv-x="496" 
d="M112 476h37l-55 -262l-9.5 -49.5t-4.5 -47.5q0 -20 4 -38t15 -31t30 -20.5t49 -7.5q39 0 71 16.5t55 42t38.5 57.5t21.5 63l59 277h37l-101 -476h-37l20 87l-1 1q-8 -16 -23 -33.5t-37 -32.5t-50 -24.5t-62 -9.5q-63 0 -94.5 32t-31.5 92q0 23 3.5 46t8.5 46zM203 544
h-42l144 136h48l86 -136h-38l-76 105z" />
    <glyph glyph-name="udieresis" unicode="&#xfc;" horiz-adv-x="496" 
d="M112 476h37l-55 -262l-9.5 -49.5t-4.5 -47.5q0 -20 4 -38t15 -31t30 -20.5t49 -7.5q39 0 71 16.5t55 42t38.5 57.5t21.5 63l59 277h37l-101 -476h-37l20 87l-1 1q-8 -16 -23 -33.5t-37 -32.5t-50 -24.5t-62 -9.5q-63 0 -94.5 32t-31.5 92q0 23 3.5 46t8.5 46zM209 656h41
l-19 -91h-41zM393 656h41l-19 -91h-41z" />
    <glyph glyph-name="yacute" unicode="&#xfd;" horiz-adv-x="431" 
d="M-62 -151q8 -5 19.5 -8.5t24.5 -3.5q29 0 47.5 18.5t40.5 53.5l65 102l-70 465h39l44 -296q3 -20 5.5 -39.5t5 -37t4 -30.5t1.5 -19h1q3 7 10.5 20l16.5 28.5l19.5 33l19.5 32.5l183 308h42l-326 -536l-31 -50t-28 -40q-20 -25 -41 -36.5t-49 -11.5q-18 0 -30.5 3.5
t-20.5 7.5zM230 544l105 136h63l-129 -136h-39z" />
    <glyph glyph-name="thorn" unicode="&#xfe;" horiz-adv-x="532" 
d="M297 454q-51 0 -88.5 -26t-62.5 -65.5t-37.5 -86.5t-12.5 -89q0 -76 34.5 -121.5t108.5 -45.5q48 0 85 24.5t62.5 63t38.5 84.5t13 90q0 37 -8.5 68.5t-25.5 54.5t-44 36t-63 13zM-24 -190l23 107.5l28 131l30.5 143.5l30.5 144l73 344h37l-62 -289h1q9 16 24.5 33.5
t37 31t48 22.5t57.5 9q38 0 69.5 -12.5t54.5 -36.5t36 -60t13 -83q0 -60 -16.5 -115.5t-47.5 -98t-75.5 -68t-100.5 -25.5q-42 0 -70.5 12t-46.5 30.5t-27.5 40.5t-13.5 43h-1l-65 -304h-37z" />
    <glyph glyph-name="ydieresis" unicode="&#xff;" horiz-adv-x="431" 
d="M-62 -151q8 -5 19.5 -8.5t24.5 -3.5q29 0 47.5 18.5t40.5 53.5l65 102l-70 465h39l44 -296q3 -20 5.5 -39.5t5 -37t4 -30.5t1.5 -19h1q3 7 10.5 20l16.5 28.5l19.5 33l19.5 32.5l183 308h42l-326 -536l-31 -50t-28 -40q-20 -25 -41 -36.5t-49 -11.5q-18 0 -30.5 3.5
t-20.5 7.5zM182 656h41l-19 -91h-41zM366 656h41l-19 -91h-41z" />
    <glyph glyph-name="Amacron" unicode="&#x100;" horiz-adv-x="587" 
d="M475 0l-34 214h-315l-122 -214h-45l399 680h45l111 -680h-39zM392 514q-2 14 -5 31.5t-5.5 35.5t-4.5 34.5t-3 28.5l-27 -50l-23.5 -42l-20.5 -37l-155 -265h286zM273 808h271l-7 -32h-271z" />
    <glyph glyph-name="amacron" unicode="&#x101;" 
d="M413 -3q-15 -4 -32 -4q-32 0 -49 16t-17 43q0 14 4 26h-1q-26 -41 -67.5 -65.5t-98.5 -24.5q-68 0 -102 36t-34 88q0 54 27 87q24 30 61.5 44t90.5 23l129 22q22 4 32 10t14 24q2 11 4 25t2 25q0 18 -5.5 33t-19 26.5t-37.5 18t-60 6.5q-71 0 -108.5 -33.5t-44.5 -84.5
l-30 19q5 33 22.5 57.5t43.5 41t58 24.5t65 8q26 0 53 -5t48.5 -17t35 -32.5t13.5 -51.5q0 -15 -2 -31.5t-9 -50.5l-42 -199l-4 -21t-2 -20q0 -17 9.5 -27t34.5 -10q14 0 23 3zM358 269q-4 -3 -12.5 -5.5t-19 -5t-22 -4.5t-21.5 -3l-71 -12q-30 -5 -58.5 -11.5t-50.5 -19.5
t-35.5 -34t-13.5 -55q0 -50 27.5 -74.5t78.5 -24.5q30 0 58.5 10t52.5 30.5t42.5 52.5t27.5 77zM151 602h271l-7 -32h-271z" />
    <glyph glyph-name="Abreve" unicode="&#x102;" horiz-adv-x="587" 
d="M475 0l-34 214h-315l-122 -214h-45l399 680h45l111 -680h-39zM392 514q-2 14 -5 31.5t-5.5 35.5t-4.5 34.5t-3 28.5l-27 -50l-23.5 -42l-20.5 -37l-155 -265h286zM399 777q35 0 63.5 18.5t45.5 51.5h36q-20 -50 -57.5 -76t-91.5 -26q-53 0 -82 26.5t-29 75.5h35
q2 -33 22 -51.5t58 -18.5z" />
    <glyph glyph-name="abreve" unicode="&#x103;" 
d="M413 -3q-15 -4 -32 -4q-32 0 -49 16t-17 43q0 14 4 26h-1q-26 -41 -67.5 -65.5t-98.5 -24.5q-68 0 -102 36t-34 88q0 54 27 87q24 30 61.5 44t90.5 23l129 22q22 4 32 10t14 24q2 11 4 25t2 25q0 18 -5.5 33t-19 26.5t-37.5 18t-60 6.5q-71 0 -108.5 -33.5t-44.5 -84.5
l-30 19q5 33 22.5 57.5t43.5 41t58 24.5t65 8q26 0 53 -5t48.5 -17t35 -32.5t13.5 -51.5q0 -15 -2 -31.5t-9 -50.5l-42 -199l-4 -21t-2 -20q0 -17 9.5 -27t34.5 -10q14 0 23 3zM358 269q-4 -3 -12.5 -5.5t-19 -5t-22 -4.5t-21.5 -3l-71 -12q-30 -5 -58.5 -11.5t-50.5 -19.5
t-35.5 -34t-13.5 -55q0 -50 27.5 -74.5t78.5 -24.5q30 0 58.5 10t52.5 30.5t42.5 52.5t27.5 77zM279 568q35 0 63.5 18.5t45.5 51.5h36q-20 -50 -57.5 -76t-91.5 -26q-53 0 -82 26.5t-29 75.5h35q2 -33 22 -51.5t58 -18.5z" />
    <glyph glyph-name="Aogonek" unicode="&#x104;" horiz-adv-x="587" 
d="M500 -216q-11 -2 -19 -3t-20 -1q-44 0 -69.5 23.5t-25.5 63.5q0 21 10 40t26 36t35.5 31.5t37.5 25.5l-34 214h-315l-122 -214h-45l399 680h45l111 -680h-4q-15 -10 -33.5 -24.5t-34.5 -32t-27 -36t-11 -37.5q0 -31 18 -45t44 -14q5 0 9.5 0.5t9.5 1.5zM392 514
q-2 14 -5 31.5t-5.5 35.5t-4.5 34.5t-3 28.5l-27 -50l-23.5 -42l-20.5 -37l-155 -265h286z" />
    <glyph glyph-name="aogonek" unicode="&#x105;" 
d="M413 -3q-6 -2 -11 -2q-16 -11 -33.5 -25.5t-32 -31t-24 -34t-9.5 -34.5q0 -31 18 -45t44 -14q5 0 9.5 0.5t9.5 1.5l15 -29q-11 -2 -19 -3t-20 -1q-44 0 -69.5 23.5t-25.5 63.5q0 20 9.5 38.5t24.5 35t32.5 30t33.5 23.5q-50 9 -50 58q0 14 4 26h-1q-26 -41 -67.5 -65.5
t-98.5 -24.5q-68 0 -102 36t-34 88q0 54 27 87q24 30 61.5 44t90.5 23l129 22q22 4 32 10t14 24q2 11 4 25t2 25q0 18 -5.5 33t-19 26.5t-37.5 18t-60 6.5q-71 0 -108.5 -33.5t-44.5 -84.5l-30 19q5 33 22.5 57.5t43.5 41t58 24.5t65 8q26 0 53 -5t48.5 -17t35 -32.5
t13.5 -51.5q0 -15 -2 -31.5t-9 -50.5l-42 -199l-4 -21t-2 -20q0 -17 9.5 -27t34.5 -10q14 0 23 3l-4 -23zM358 269q-4 -3 -12.5 -5.5t-19 -5t-22 -4.5t-21.5 -3l-71 -12q-30 -5 -58.5 -11.5t-50.5 -19.5t-35.5 -34t-13.5 -55q0 -50 27.5 -74.5t78.5 -24.5q30 0 58.5 10
t52.5 30.5t42.5 52.5t27.5 77z" />
    <glyph glyph-name="Cacute" unicode="&#x106;" horiz-adv-x="637" 
d="M582 161q-42 -76 -111.5 -124.5t-167.5 -48.5q-117 0 -179 73.5t-62 206.5q0 80 23 156t67.5 135.5t108 96t144.5 36.5q87 0 146.5 -43.5t82.5 -127.5l-35 -23q-18 75 -68.5 117t-131.5 42q-72 0 -128 -35.5t-93.5 -91t-57 -122t-19.5 -129.5q0 -119 52 -187.5t159 -68.5
q41 0 77 12t66 34t54 51t42 64zM387 753l105 136h63l-129 -136h-39z" />
    <glyph glyph-name="cacute" unicode="&#x107;" horiz-adv-x="487" 
d="M419 115q-29 -56 -79 -91.5t-124 -35.5q-85 0 -132 53.5t-47 143.5q0 55 15 109.5t46 97.5t77 69.5t108 26.5q68 0 113 -38t59 -103l-35 -18q-10 60 -48 93.5t-95 33.5q-51 0 -89 -24.5t-63 -62.5t-37.5 -85.5t-12.5 -92.5q0 -80 39 -125.5t105 -45.5q60 0 103 33t68 84z
M275 544l105 136h63l-129 -136h-39z" />
    <glyph glyph-name="Ccircumflex" unicode="&#x108;" horiz-adv-x="637" 
d="M582 161q-42 -76 -111.5 -124.5t-167.5 -48.5q-117 0 -179 73.5t-62 206.5q0 80 23 156t67.5 135.5t108 96t144.5 36.5q87 0 146.5 -43.5t82.5 -127.5l-35 -23q-18 75 -68.5 117t-131.5 42q-72 0 -128 -35.5t-93.5 -91t-57 -122t-19.5 -129.5q0 -119 52 -187.5t159 -68.5
q41 0 77 12t66 34t54 51t42 64zM337 753h-42l144 136h48l86 -136h-38l-76 105z" />
    <glyph glyph-name="ccircumflex" unicode="&#x109;" horiz-adv-x="487" 
d="M419 115q-29 -56 -79 -91.5t-124 -35.5q-85 0 -132 53.5t-47 143.5q0 55 15 109.5t46 97.5t77 69.5t108 26.5q68 0 113 -38t59 -103l-35 -18q-10 60 -48 93.5t-95 33.5q-51 0 -89 -24.5t-63 -62.5t-37.5 -85.5t-12.5 -92.5q0 -80 39 -125.5t105 -45.5q60 0 103 33t68 84z
M210 544h-42l144 136h48l86 -136h-38l-76 105z" />
    <glyph glyph-name="Cdotaccent" unicode="&#x10a;" horiz-adv-x="637" 
d="M582 161q-42 -76 -111.5 -124.5t-167.5 -48.5q-117 0 -179 73.5t-62 206.5q0 80 23 156t67.5 135.5t108 96t144.5 36.5q87 0 146.5 -43.5t82.5 -127.5l-35 -23q-18 75 -68.5 117t-131.5 42q-72 0 -128 -35.5t-93.5 -91t-57 -122t-19.5 -129.5q0 -119 52 -187.5t159 -68.5
q41 0 77 12t66 34t54 51t42 64zM422 871h41l-19 -91h-41z" />
    <glyph glyph-name="cdotaccent" unicode="&#x10b;" horiz-adv-x="487" 
d="M419 115q-29 -56 -79 -91.5t-124 -35.5q-85 0 -132 53.5t-47 143.5q0 55 15 109.5t46 97.5t77 69.5t108 26.5q68 0 113 -38t59 -103l-35 -18q-10 60 -48 93.5t-95 33.5q-51 0 -89 -24.5t-63 -62.5t-37.5 -85.5t-12.5 -92.5q0 -80 39 -125.5t105 -45.5q60 0 103 33t68 84z
M297 656h41l-19 -91h-41z" />
    <glyph glyph-name="Ccaron" unicode="&#x10c;" horiz-adv-x="637" 
d="M582 161q-42 -76 -111.5 -124.5t-167.5 -48.5q-117 0 -179 73.5t-62 206.5q0 80 23 156t67.5 135.5t108 96t144.5 36.5q87 0 146.5 -43.5t82.5 -127.5l-35 -23q-18 75 -68.5 117t-131.5 42q-72 0 -128 -35.5t-93.5 -91t-57 -122t-19.5 -129.5q0 -119 52 -187.5t159 -68.5
q41 0 77 12t66 34t54 51t42 64zM562 889h42l-144 -136h-50l-86 136h38l77 -106z" />
    <glyph glyph-name="ccaron" unicode="&#x10d;" horiz-adv-x="487" 
d="M419 115q-29 -56 -79 -91.5t-124 -35.5q-85 0 -132 53.5t-47 143.5q0 55 15 109.5t46 97.5t77 69.5t108 26.5q68 0 113 -38t59 -103l-35 -18q-10 60 -48 93.5t-95 33.5q-51 0 -89 -24.5t-63 -62.5t-37.5 -85.5t-12.5 -92.5q0 -80 39 -125.5t105 -45.5q60 0 103 33t68 84z
M430 680h42l-144 -136h-50l-86 136h38l77 -106z" />
    <glyph glyph-name="Dcaron" unicode="&#x10e;" horiz-adv-x="684" 
d="M31 0l145 680h142q64 0 117 -8t95 -27q56 -26 87 -76.5t31 -133.5q0 -57 -11.5 -114.5t-34 -109.5t-56.5 -94t-78 -68q-51 -29 -107.5 -39t-129.5 -10h-200zM79 37h157q66 0 118.5 8t99.5 39q41 27 70 69.5t47.5 91t27 97.5t8.5 90q0 73 -27.5 116t-75.5 66
q-33 16 -76 22.5t-94 6.5h-125zM540 889h42l-144 -136h-50l-86 136h38l77 -106z" />
    <glyph glyph-name="dcaron" unicode="&#x10f;" horiz-adv-x="537" 
d="M217 21q51 0 88.5 26t62.5 65.5t37.5 86.5t12.5 89q0 76 -35 121.5t-108 45.5q-48 0 -85 -24.5t-62.5 -63t-38.5 -85t-13 -89.5q0 -37 8.5 -68.5t25.5 -54.5t44 -36t63 -13zM542 680l-146 -680h-37l19 84h-1q-9 -17 -24.5 -34t-37 -30.5t-48 -22.5t-57.5 -9
q-76 0 -124.5 49t-48.5 145q0 60 16 115.5t47 97.5t75.5 67.5t100.5 25.5q39 0 67.5 -11.5t47.5 -29t30 -39t15 -42.5h1l68 314h37zM559 553l59 127h54l-81 -127h-32z" />
    <glyph glyph-name="Dcroat" unicode="&#x110;" horiz-adv-x="692" 
d="M39 0l72 341h-104l8 36h104l65 303h142q64 0 117 -8t95 -27q56 -26 87 -76.5t31 -133.5q0 -57 -11.5 -114.5t-34 -109.5t-56.5 -94t-78 -68q-51 -29 -107.5 -39t-129.5 -10h-200zM160 377h223l-7 -36h-224l-65 -304h157q66 0 118.5 8t99.5 39q41 27 70 69.5t47.5 91
t27 97.5t8.5 90q0 73 -27.5 116t-75.5 66q-33 16 -76 22.5t-94 6.5h-125z" />
    <glyph glyph-name="dcroat" unicode="&#x111;" horiz-adv-x="533" 
d="M320 588h165l20 92h37l-20 -92h75l-7 -36h-75l-119 -552h-37l19 84h-1q-9 -17 -24.5 -34t-37 -30.5t-48 -22.5t-57.5 -9q-76 0 -124.5 49t-48.5 145q0 60 16 115.5t47 97.5t75.5 67.5t100.5 25.5q39 0 67.5 -11.5t47.5 -29t30 -39t15 -42.5h1l40 186h-164zM217 21
q51 0 88.5 26t62.5 65.5t37.5 86.5t12.5 89q0 76 -35 121.5t-108 45.5q-48 0 -85 -24.5t-62.5 -63t-38.5 -85t-13 -89.5q0 -37 8.5 -68.5t25.5 -54.5t44 -36t63 -13z" />
    <glyph glyph-name="Emacron" unicode="&#x112;" horiz-adv-x="572" 
d="M477 0h-446l145 680h426l-8 -37h-387l-58 -273h351l-8 -37h-351l-63 -296h407zM272 808h271l-7 -32h-271z" />
    <glyph glyph-name="emacron" unicode="&#x113;" horiz-adv-x="501" 
d="M78 247q-2 -13 -3 -26t-1 -27q0 -33 7.5 -64.5t25 -55.5t46 -39t71.5 -15q37 0 65 10.5t49 26.5t35.5 35.5t24.5 38.5l29 -20q-8 -16 -19.5 -31t-25.5 -29q-28 -27 -68.5 -45t-94.5 -18q-88 0 -135 52.5t-47 152.5q0 58 17.5 111t49.5 94t77.5 65.5t102.5 24.5
q44 0 75 -14.5t51 -39t29.5 -57t9.5 -68.5q0 -14 -1.5 -30.5t-4.5 -31.5h-365zM278 456q-40 0 -72.5 -16t-56.5 -41.5t-40 -57.5t-24 -63h323q3 21 3 39q0 27 -6.5 52t-22.5 44.5t-41.5 31t-62.5 11.5zM172 602h271l-7 -32h-271z" />
    <glyph glyph-name="Ebreve" unicode="&#x114;" horiz-adv-x="572" 
d="M477 0h-446l145 680h426l-8 -37h-387l-58 -273h351l-8 -37h-351l-63 -296h407zM403 777q35 0 63.5 18.5t45.5 51.5h36q-20 -50 -57.5 -76t-91.5 -26q-53 0 -82 26.5t-29 75.5h35q2 -33 22 -51.5t58 -18.5z" />
    <glyph glyph-name="ebreve" unicode="&#x115;" horiz-adv-x="501" 
d="M78 247q-2 -13 -3 -26t-1 -27q0 -33 7.5 -64.5t25 -55.5t46 -39t71.5 -15q37 0 65 10.5t49 26.5t35.5 35.5t24.5 38.5l29 -20q-8 -16 -19.5 -31t-25.5 -29q-28 -27 -68.5 -45t-94.5 -18q-88 0 -135 52.5t-47 152.5q0 58 17.5 111t49.5 94t77.5 65.5t102.5 24.5
q44 0 75 -14.5t51 -39t29.5 -57t9.5 -68.5q0 -14 -1.5 -30.5t-4.5 -31.5h-365zM278 456q-40 0 -72.5 -16t-56.5 -41.5t-40 -57.5t-24 -63h323q3 21 3 39q0 27 -6.5 52t-22.5 44.5t-41.5 31t-62.5 11.5zM298 568q35 0 63.5 18.5t45.5 51.5h36q-20 -50 -57.5 -76t-91.5 -26
q-53 0 -82 26.5t-29 75.5h35q2 -33 22 -51.5t58 -18.5z" />
    <glyph glyph-name="Edotaccent" unicode="&#x116;" horiz-adv-x="572" 
d="M477 0h-446l145 680h426l-8 -37h-387l-58 -273h351l-8 -37h-351l-63 -296h407zM408 871h41l-19 -91h-41z" />
    <glyph glyph-name="edotaccent" unicode="&#x117;" horiz-adv-x="501" 
d="M78 247q-2 -13 -3 -26t-1 -27q0 -33 7.5 -64.5t25 -55.5t46 -39t71.5 -15q37 0 65 10.5t49 26.5t35.5 35.5t24.5 38.5l29 -20q-8 -16 -19.5 -31t-25.5 -29q-28 -27 -68.5 -45t-94.5 -18q-88 0 -135 52.5t-47 152.5q0 58 17.5 111t49.5 94t77.5 65.5t102.5 24.5
q44 0 75 -14.5t51 -39t29.5 -57t9.5 -68.5q0 -14 -1.5 -30.5t-4.5 -31.5h-365zM278 456q-40 0 -72.5 -16t-56.5 -41.5t-40 -57.5t-24 -63h323q3 21 3 39q0 27 -6.5 52t-22.5 44.5t-41.5 31t-62.5 11.5zM297 656h41l-19 -91h-41z" />
    <glyph glyph-name="Eogonek" unicode="&#x118;" horiz-adv-x="572" 
d="M462 -216q-11 -2 -19 -3t-20 -1q-44 0 -69.5 23.5t-25.5 63.5q0 21 10.5 40t26 36.5t35 31.5t37.5 25h-406l145 680h426l-8 -37h-387l-58 -273h351l-8 -37h-351l-63 -296h407l-8 -37h-5q-15 -10 -33.5 -24.5t-34.5 -32t-27 -36t-11 -37.5q0 -31 18 -45t44 -14
q5 0 9.5 0.5t9.5 1.5z" />
    <glyph glyph-name="eogonek" unicode="&#x119;" horiz-adv-x="501" 
d="M238 -216q-11 -2 -19 -3t-20 -1q-44 0 -69.5 23.5t-25.5 63.5q0 18 8 35.5t21 33t29.5 29t32.5 24.5q-77 8 -117.5 59t-40.5 145q0 58 17.5 111t49.5 94t77.5 65.5t102.5 24.5q44 0 75 -14.5t51 -39t29.5 -57t9.5 -68.5q0 -14 -1.5 -30.5t-4.5 -31.5h-365q-2 -13 -3 -26
t-1 -27q0 -33 7.5 -64.5t25 -55.5t46 -39t71.5 -15q37 0 65 10.5t49 26.5t35.5 35.5t24.5 38.5l29 -20q-8 -16 -19.5 -31t-25.5 -29q-26 -26 -63.5 -43.5t-87.5 -19.5q-15 -11 -30.5 -24.5t-28.5 -29t-21.5 -32t-8.5 -32.5q0 -31 18 -45t44 -14q5 0 9.5 0.5t9.5 1.5z
M278 456q-40 0 -72.5 -16t-56.5 -41.5t-40 -57.5t-24 -63h323q3 21 3 39q0 27 -6.5 52t-22.5 44.5t-41.5 31t-62.5 11.5z" />
    <glyph glyph-name="Ecaron" unicode="&#x11a;" horiz-adv-x="572" 
d="M477 0h-446l145 680h426l-8 -37h-387l-58 -273h351l-8 -37h-351l-63 -296h407zM522 889h42l-144 -136h-50l-86 136h38l77 -106z" />
    <glyph glyph-name="ecaron" unicode="&#x11b;" horiz-adv-x="501" 
d="M78 247q-2 -13 -3 -26t-1 -27q0 -33 7.5 -64.5t25 -55.5t46 -39t71.5 -15q37 0 65 10.5t49 26.5t35.5 35.5t24.5 38.5l29 -20q-8 -16 -19.5 -31t-25.5 -29q-28 -27 -68.5 -45t-94.5 -18q-88 0 -135 52.5t-47 152.5q0 58 17.5 111t49.5 94t77.5 65.5t102.5 24.5
q44 0 75 -14.5t51 -39t29.5 -57t9.5 -68.5q0 -14 -1.5 -30.5t-4.5 -31.5h-365zM278 456q-40 0 -72.5 -16t-56.5 -41.5t-40 -57.5t-24 -63h323q3 21 3 39q0 27 -6.5 52t-22.5 44.5t-41.5 31t-62.5 11.5zM423 680h42l-144 -136h-50l-86 136h38l77 -106z" />
    <glyph glyph-name="Gcircumflex" unicode="&#x11c;" horiz-adv-x="672" 
d="M303 -12q-117 0 -179 73.5t-62 206.5q0 80 23 156t67 135.5t107.5 96t144.5 36.5q87 0 147.5 -44t83.5 -128l-37 -22q-18 75 -68 117t-131 42q-72 0 -128 -35.5t-93.5 -91t-57 -122t-19.5 -129.5q0 -119 52.5 -187.5t161.5 -68.5q40 0 77.5 11.5t68.5 32.5t55 51.5
t38 69.5q5 14 9.5 30.5t10.5 45.5l7 34h-233l7 37h271l-71 -335h-39l25 113h-1q-14 -22 -33 -44.5t-47 -40.5t-66.5 -29t-90.5 -11zM331 753h-42l144 136h48l86 -136h-38l-76 105z" />
    <glyph glyph-name="gcircumflex" unicode="&#x11d;" horiz-adv-x="532" 
d="M217 21q51 0 88.5 26t62.5 65.5t37.5 86.5t12.5 89q0 76 -35 121.5t-108 45.5q-48 0 -85 -24.5t-62.5 -63t-38.5 -85t-13 -89.5q0 -37 8.5 -68.5t25.5 -54.5t44 -36t63 -13zM400 19q-11 -52 -25 -92.5t-38.5 -68t-63 -42t-96.5 -14.5q-48 0 -81.5 12t-54.5 31.5t-30 45.5
t-9 53v7l36 13v-6q0 -57 31.5 -90.5t110.5 -33.5q49 0 81 13.5t51.5 37.5t30.5 57.5t20 73.5l15 68h-1q-9 -17 -24.5 -34t-37 -30.5t-48 -22.5t-57.5 -9q-76 0 -124.5 49t-48.5 145q0 60 16 115.5t47 97.5t75.5 67.5t100.5 25.5q39 0 67.5 -11.5t47.5 -29t30 -39t15 -42.5h1
l23 110h37zM211 544h-42l144 136h48l86 -136h-38l-76 105z" />
    <glyph glyph-name="Gbreve" unicode="&#x11e;" horiz-adv-x="672" 
d="M303 -12q-117 0 -179 73.5t-62 206.5q0 80 23 156t67 135.5t107.5 96t144.5 36.5q87 0 147.5 -44t83.5 -128l-37 -22q-18 75 -68 117t-131 42q-72 0 -128 -35.5t-93.5 -91t-57 -122t-19.5 -129.5q0 -119 52.5 -187.5t161.5 -68.5q40 0 77.5 11.5t68.5 32.5t55 51.5
t38 69.5q5 14 9.5 30.5t10.5 45.5l7 34h-233l7 37h271l-71 -335h-39l25 113h-1q-14 -22 -33 -44.5t-47 -40.5t-66.5 -29t-90.5 -11zM424 777q35 0 63.5 18.5t45.5 51.5h36q-20 -50 -57.5 -76t-91.5 -26q-53 0 -82 26.5t-29 75.5h35q2 -33 22 -51.5t58 -18.5z" />
    <glyph glyph-name="gbreve" unicode="&#x11f;" horiz-adv-x="532" 
d="M217 21q51 0 88.5 26t62.5 65.5t37.5 86.5t12.5 89q0 76 -35 121.5t-108 45.5q-48 0 -85 -24.5t-62.5 -63t-38.5 -85t-13 -89.5q0 -37 8.5 -68.5t25.5 -54.5t44 -36t63 -13zM400 19q-11 -52 -25 -92.5t-38.5 -68t-63 -42t-96.5 -14.5q-48 0 -81.5 12t-54.5 31.5t-30 45.5
t-9 53v7l36 13v-6q0 -57 31.5 -90.5t110.5 -33.5q49 0 81 13.5t51.5 37.5t30.5 57.5t20 73.5l15 68h-1q-9 -17 -24.5 -34t-37 -30.5t-48 -22.5t-57.5 -9q-76 0 -124.5 49t-48.5 145q0 60 16 115.5t47 97.5t75.5 67.5t100.5 25.5q39 0 67.5 -11.5t47.5 -29t30 -39t15 -42.5h1
l23 110h37zM301 568q35 0 63.5 18.5t45.5 51.5h36q-20 -50 -57.5 -76t-91.5 -26q-53 0 -82 26.5t-29 75.5h35q2 -33 22 -51.5t58 -18.5z" />
    <glyph glyph-name="Gdotaccent" unicode="&#x120;" horiz-adv-x="672" 
d="M303 -12q-117 0 -179 73.5t-62 206.5q0 80 23 156t67 135.5t107.5 96t144.5 36.5q87 0 147.5 -44t83.5 -128l-37 -22q-18 75 -68 117t-131 42q-72 0 -128 -35.5t-93.5 -91t-57 -122t-19.5 -129.5q0 -119 52.5 -187.5t161.5 -68.5q40 0 77.5 11.5t68.5 32.5t55 51.5
t38 69.5q5 14 9.5 30.5t10.5 45.5l7 34h-233l7 37h271l-71 -335h-39l25 113h-1q-14 -22 -33 -44.5t-47 -40.5t-66.5 -29t-90.5 -11zM421 871h41l-19 -91h-41z" />
    <glyph glyph-name="gdotaccent" unicode="&#x121;" horiz-adv-x="532" 
d="M217 21q51 0 88.5 26t62.5 65.5t37.5 86.5t12.5 89q0 76 -35 121.5t-108 45.5q-48 0 -85 -24.5t-62.5 -63t-38.5 -85t-13 -89.5q0 -37 8.5 -68.5t25.5 -54.5t44 -36t63 -13zM400 19q-11 -52 -25 -92.5t-38.5 -68t-63 -42t-96.5 -14.5q-48 0 -81.5 12t-54.5 31.5t-30 45.5
t-9 53v7l36 13v-6q0 -57 31.5 -90.5t110.5 -33.5q49 0 81 13.5t51.5 37.5t30.5 57.5t20 73.5l15 68h-1q-9 -17 -24.5 -34t-37 -30.5t-48 -22.5t-57.5 -9q-76 0 -124.5 49t-48.5 145q0 60 16 115.5t47 97.5t75.5 67.5t100.5 25.5q39 0 67.5 -11.5t47.5 -29t30 -39t15 -42.5h1
l23 110h37zM299 656h41l-19 -91h-41z" />
    <glyph glyph-name="Gcommaaccent" unicode="&#x122;" horiz-adv-x="672" 
d="M303 -12q-117 0 -179 73.5t-62 206.5q0 80 23 156t67 135.5t107.5 96t144.5 36.5q87 0 147.5 -44t83.5 -128l-37 -22q-18 75 -68 117t-131 42q-72 0 -128 -35.5t-93.5 -91t-57 -122t-19.5 -129.5q0 -119 52.5 -187.5t161.5 -68.5q40 0 77.5 11.5t68.5 32.5t55 51.5
t38 69.5q5 14 9.5 30.5t10.5 45.5l7 34h-233l7 37h271l-71 -335h-39l25 113h-1q-14 -22 -33 -44.5t-47 -40.5t-66.5 -29t-90.5 -11zM323 -70l-19 -86l-11.5 -48.5t-14 -39t-20.5 -27t-30 -12.5l7 32q15 5 23.5 30t14.5 57h-19l21 94h48z" />
    <glyph glyph-name="gcommaaccent" unicode="&#x123;" horiz-adv-x="532" 
d="M217 21q51 0 88.5 26t62.5 65.5t37.5 86.5t12.5 89q0 76 -35 121.5t-108 45.5q-48 0 -85 -24.5t-62.5 -63t-38.5 -85t-13 -89.5q0 -37 8.5 -68.5t25.5 -54.5t44 -36t63 -13zM400 19q-11 -52 -25 -92.5t-38.5 -68t-63 -42t-96.5 -14.5q-48 0 -81.5 12t-54.5 31.5t-30 45.5
t-9 53v7l36 13v-6q0 -57 31.5 -90.5t110.5 -33.5q49 0 81 13.5t51.5 37.5t30.5 57.5t20 73.5l15 68h-1q-9 -17 -24.5 -34t-37 -30.5t-48 -22.5t-57.5 -9q-76 0 -124.5 49t-48.5 145q0 60 16 115.5t47 97.5t75.5 67.5t100.5 25.5q39 0 67.5 -11.5t47.5 -29t30 -39t15 -42.5h1
l23 110h37zM270 586l19 86l11.5 48.5t13.5 39t20.5 27t30.5 12.5l-7 -32q-15 -5 -23.5 -30t-14.5 -57h19l-21 -94h-48z" />
    <glyph glyph-name="Hcircumflex" unicode="&#x124;" horiz-adv-x="675" 
d="M523 0h-39l71 333h-414l-71 -333h-39l145 680h39l-66 -309h414l66 309h39zM337 753h-42l144 136h48l86 -136h-38l-76 105z" />
    <glyph glyph-name="hcircumflex" unicode="&#x125;" horiz-adv-x="503" 
d="M198 680l-62 -289h1q8 16 24 33t38 31t50.5 23.5t61.5 9.5q63 0 96.5 -32t33.5 -92q0 -23 -3.5 -46t-8.5 -46l-57 -272h-37l55 262l9.5 49.5t4.5 47.5q0 20 -4.5 38t-16.5 31t-31.5 20.5t-49.5 7.5q-41 0 -73.5 -16.5t-56 -42t-39 -57.5t-21.5 -63l-59 -277h-37l145 680
h37zM239 753h-42l144 136h48l86 -136h-38l-76 105z" />
    <glyph glyph-name="Hbar" unicode="&#x126;" horiz-adv-x="675" 
d="M523 0h-39l71 333h-414l-71 -333h-39l145 680h39l-38 -179h414l38 179h39zM563 371l21 98h-414l-21 -98h414z" />
    <glyph glyph-name="hbar" unicode="&#x127;" horiz-adv-x="503" 
d="M59 585h82l20 95h37l-20 -95h152l-7 -32h-152l-35 -162h1q8 16 24 33t38 31t50.5 23.5t61.5 9.5q63 0 96.5 -32t33.5 -92q0 -23 -3.5 -46t-8.5 -46l-57 -272h-37l55 262l9.5 49.5t4.5 47.5q0 20 -4.5 38t-16.5 31t-31.5 20.5t-49.5 7.5q-41 0 -73.5 -16.5t-56 -42
t-39 -57.5t-21.5 -63l-59 -277h-37l118 553h-82z" />
    <glyph glyph-name="Itilde" unicode="&#x128;" horiz-adv-x="222" 
d="M215 680l-145 -680h-39l145 680h39zM378 847q-8 -26 -27 -46.5t-54 -20.5q-20 0 -39.5 7.5t-37.5 16.5q-23 11 -38 17.5t-28 6.5q-23 0 -35.5 -18.5t-17.5 -36.5l-30 11q3 11 9 24t16.5 24.5t25.5 19t35 7.5q18 0 35.5 -7.5t40.5 -18.5q17 -8 34 -15t31 -7q25 0 35 15
t17 32z" />
    <glyph glyph-name="itilde" unicode="&#x129;" horiz-adv-x="191" 
d="M54 0h-37l101 476h37zM319 639q-8 -26 -27 -46.5t-54 -20.5q-20 0 -39.5 7.5t-37.5 16.5q-23 11 -38 17.5t-28 6.5q-23 0 -35.5 -18.5t-17.5 -36.5l-30 11q3 11 9 24t16.5 24.5t25.5 19t35 7.5q18 0 35.5 -7.5t40.5 -18.5q17 -8 34 -15t31 -7q25 0 35 15t17 32z" />
    <glyph glyph-name="Imacron" unicode="&#x12a;" horiz-adv-x="222" 
d="M215 680l-145 -680h-39l145 680h39zM88 808h271l-7 -32h-271z" />
    <glyph glyph-name="imacron" unicode="&#x12b;" horiz-adv-x="191" 
d="M54 0h-37l101 476h37zM28 602h271l-7 -32h-271z" />
    <glyph glyph-name="Ibreve" unicode="&#x12c;" horiz-adv-x="222" 
d="M215 680l-145 -680h-39l145 680h39zM215 777q35 0 63.5 18.5t45.5 51.5h36q-20 -50 -57.5 -76t-91.5 -26q-53 0 -82 26.5t-29 75.5h35q2 -33 22 -51.5t58 -18.5z" />
    <glyph glyph-name="ibreve" unicode="&#x12d;" horiz-adv-x="191" 
d="M54 0h-37l101 476h37zM153 568q35 0 63.5 18.5t45.5 51.5h36q-20 -50 -57.5 -76t-91.5 -26q-53 0 -82 26.5t-29 75.5h35q2 -33 22 -51.5t58 -18.5z" />
    <glyph glyph-name="Iogonek" unicode="&#x12e;" horiz-adv-x="222" 
d="M56 -216q-11 -2 -19 -3t-20 -1q-44 0 -69.5 23.5t-25.5 63.5q0 21 10.5 40t26 36.5t35 31.5t37.5 25l145 680h39l-145 -680h-4q-15 -10 -33.5 -24.5t-34.5 -32t-27 -36t-11 -37.5q0 -31 18 -45t44 -14q5 0 9.5 0.5t9.5 1.5z" />
    <glyph glyph-name="iogonek" unicode="&#x12f;" horiz-adv-x="191" 
d="M42 -216q-11 -2 -19 -3t-20 -1q-44 0 -69.5 23.5t-25.5 63.5q0 21 10.5 40t26 36.5t35 31.5t37.5 25l101 476h37l-101 -476h-2q-15 -10 -33.5 -24.5t-34.5 -32t-27 -36t-11 -37.5q0 -31 18 -45t44 -14q5 0 9.5 0.5t9.5 1.5zM176 575h-37l23 105h37z" />
    <glyph glyph-name="Idotaccent" unicode="&#x130;" horiz-adv-x="222" 
d="M215 680l-145 -680h-39l145 680h39zM217 871h41l-19 -91h-41z" />
    <glyph glyph-name="dotlessi" unicode="&#x131;" horiz-adv-x="191" 
d="M54 0h-37l101 476h37z" />
    <glyph glyph-name="IJ" unicode="&#x132;" horiz-adv-x="688" 
d="M215 680l-145 -680h-39l145 680h39zM686 680l-97 -456q-11 -49 -21 -85.5t-26 -65.5q-23 -39 -62 -63.5t-107 -24.5q-88 0 -132 43.5t-44 115.5v11t1 12l40 16q-2 -8 -2 -16v-16q0 -28 8 -52.5t24.5 -42.5t42.5 -28.5t62 -10.5q57 0 89.5 24t52.5 66q11 23 17.5 48.5
l14.5 57.5l100 467h39z" />
    <glyph glyph-name="ij" unicode="&#x133;" horiz-adv-x="394" 
d="M54 0h-37l101 476h37zM176 575h-37l23 105h37zM58 -149q27 -15 63 -15q23 0 37.5 7.5t24.5 21.5q11 16 17 39.5t13 55.5l109 516h37l-105 -494q-8 -40 -15 -69t-17 -51q-14 -31 -37.5 -45.5t-67.5 -14.5q-18 0 -36 3.5t-32 10.5zM381 575h-37l22 105h37z" />
    <glyph glyph-name="Jcircumflex" unicode="&#x134;" horiz-adv-x="480" 
d="M478 680l-97 -456q-11 -49 -21 -85.5t-26 -65.5q-23 -39 -62 -63.5t-107 -24.5q-88 0 -132 43.5t-44 115.5v11t1 12l40 16q-2 -8 -2 -16v-16q0 -28 8 -52.5t24.5 -42.5t42.5 -28.5t62 -10.5q57 0 89.5 24t52.5 66q11 23 17.5 48.5l14.5 57.5l100 467h39zM375 753h-42
l144 136h48l86 -136h-38l-76 105z" />
    <glyph glyph-name="jcircumflex" unicode="&#x135;" horiz-adv-x="189" 
d="M-147 -149q27 -15 63 -15q23 0 37.5 7.5t24.5 21.5q11 16 17 39.5t13 55.5l109 516h37l-105 -494q-8 -40 -15 -69t-17 -51q-14 -31 -37.5 -45.5t-67.5 -14.5q-18 0 -36 3.5t-32 10.5zM50 544h-42l144 136h48l86 -136h-38l-76 105z" />
    <glyph glyph-name="Kcommaaccent" unicode="&#x136;" horiz-adv-x="611" 
d="M544 0h-47l-186 384l-192 -162l-49 -222h-39l145 680h39l-87 -404l488 404h58l-332 -273zM284 -70l-19 -86l-11.5 -48.5t-14 -39t-20.5 -27t-30 -12.5l7 32q15 5 23.5 30t14.5 57h-19l21 94h48z" />
    <glyph glyph-name="kcommaaccent" unicode="&#x137;" horiz-adv-x="472" 
d="M198 680l-98 -460l328 256h56l-226 -175l141 -301h-44l-127 277l-139 -107l-36 -170h-37l145 680h37zM224 -70l-19 -86l-11.5 -48.5t-14 -39t-20.5 -27t-30 -12.5l7 32q15 5 23.5 30t14.5 57h-19l21 94h48z" />
    <glyph glyph-name="kgreenlandic" unicode="&#x138;" horiz-adv-x="478" 
d="M259 301l141 -301h-44l-127 277l-139 -107l-36 -170h-37l101 475h37l-54 -255l232 180q40 31 74.5 53t74.5 22h2l-7 -34h-3q-26 0 -54.5 -18.5t-72.5 -52.5z" />
    <glyph glyph-name="Lacute" unicode="&#x139;" horiz-adv-x="525" 
d="M458 0h-427l145 680h39l-137 -643h388zM191 753l105 136h63l-129 -136h-39z" />
    <glyph glyph-name="lacute" unicode="&#x13a;" horiz-adv-x="204" 
d="M205 680l-145 -680h-37l145 680h37zM183 753l105 136h63l-129 -136h-39z" />
    <glyph glyph-name="Lcommaaccent" unicode="&#x13b;" horiz-adv-x="525" 
d="M458 0h-427l145 680h39l-137 -643h388zM267 -70l-19 -86l-11.5 -48.5t-14 -39t-20.5 -27t-30 -12.5l7 32q15 5 23.5 30t14.5 57h-19l21 94h48z" />
    <glyph glyph-name="lcommaaccent" unicode="&#x13c;" horiz-adv-x="204" 
d="M205 680l-145 -680h-37l145 680h37zM51 -70l-19 -86l-11.5 -48.5t-14 -39t-20.5 -27t-30 -12.5l7 32q15 5 23.5 30t14.5 57h-19l21 94h48z" />
    <glyph glyph-name="Lcaron" unicode="&#x13d;" horiz-adv-x="525" 
d="M458 0h-427l145 680h39l-137 -643h388zM276 553l59 127h54l-81 -127h-32z" />
    <glyph glyph-name="lcaron" unicode="&#x13e;" horiz-adv-x="207" 
d="M205 680l-145 -680h-37l145 680h37zM243 553l59 127h54l-81 -127h-32z" />
    <glyph glyph-name="Ldot" unicode="&#x13f;" horiz-adv-x="525" 
d="M458 0h-427l145 680h39l-137 -643h388zM331 476l-25 -114h-48l25 114h48z" />
    <glyph glyph-name="ldot" unicode="&#x140;" horiz-adv-x="214" 
d="M205 680l-145 -680h-37l145 680h37zM275 476l-25 -114h-48l25 114h48z" />
    <glyph glyph-name="Lslash" unicode="&#x141;" horiz-adv-x="533" 
d="M466 0h-427l59 278l-118 -67l10 43l117 67l77 359h39l-71 -334l233 133l-10 -44l-232 -132l-57 -266h388z" />
    <glyph glyph-name="lslash" unicode="&#x142;" horiz-adv-x="228" 
d="M152 370l-79 -370h-37l74 346l-92 -53l9 43l92 52l62 292h37l-57 -268l95 55l-9 -42z" />
    <glyph glyph-name="Nacute" unicode="&#x143;" horiz-adv-x="681" 
d="M492 0l-252 537q-8 14 -14.5 29.5l-11.5 28.5q-6 15 -12 28h-1q-2 -16 -6 -34l-7 -36.5t-9 -42.5l-109 -510h-39l146 680h37l241 -513l20 -43t16 -34q8 -17 14 -31h1q4 21 8 46l9.5 48l11.5 56l100 471h39l-144 -680h-38zM382 753l105 136h63l-129 -136h-39z" />
    <glyph glyph-name="nacute" unicode="&#x144;" horiz-adv-x="504" 
d="M373 0h-37l55 262l9.5 49.5t4.5 47.5q0 20 -4.5 38t-16.5 31t-31.5 20.5t-49.5 7.5q-41 0 -73.5 -16.5t-56 -42t-39 -57.5t-21.5 -63l-59 -277h-37l101 476h37l-20 -87l1 -1q8 16 23.5 33.5t38 32.5t51 24.5t63.5 9.5q63 0 96.5 -32t33.5 -92q0 -23 -3.5 -46t-8.5 -46z
M250 544l105 136h63l-129 -136h-39z" />
    <glyph glyph-name="Ncommaaccent" unicode="&#x145;" horiz-adv-x="681" 
d="M492 0l-252 537q-8 14 -14.5 29.5l-11.5 28.5q-6 15 -12 28h-1q-2 -16 -6 -34l-7 -36.5t-9 -42.5l-109 -510h-39l146 680h37l241 -513l20 -43t16 -34q8 -17 14 -31h1q4 21 8 46l9.5 48l11.5 56l100 471h39l-144 -680h-38zM300 -70l-19 -86l-11.5 -48.5t-14 -39t-20.5 -27
t-30 -12.5l7 32q15 5 23.5 30t14.5 57h-19l21 94h48z" />
    <glyph glyph-name="ncommaaccent" unicode="&#x146;" horiz-adv-x="504" 
d="M373 0h-37l55 262l9.5 49.5t4.5 47.5q0 20 -4.5 38t-16.5 31t-31.5 20.5t-49.5 7.5q-41 0 -73.5 -16.5t-56 -42t-39 -57.5t-21.5 -63l-59 -277h-37l101 476h37l-20 -87l1 -1q8 16 23.5 33.5t38 32.5t51 24.5t63.5 9.5q63 0 96.5 -32t33.5 -92q0 -23 -3.5 -46t-8.5 -46z
M219 -70l-19 -86l-11.5 -48.5t-14 -39t-20.5 -27t-30 -12.5l7 32q15 5 23.5 30t14.5 57h-19l21 94h48z" />
    <glyph glyph-name="Ncaron" unicode="&#x147;" horiz-adv-x="681" 
d="M492 0l-252 537q-8 14 -14.5 29.5l-11.5 28.5q-6 15 -12 28h-1q-2 -16 -6 -34l-7 -36.5t-9 -42.5l-109 -510h-39l146 680h37l241 -513l20 -43t16 -34q8 -17 14 -31h1q4 21 8 46l9.5 48l11.5 56l100 471h39l-144 -680h-38zM565 889h42l-144 -136h-50l-86 136h38l77 -106z
" />
    <glyph glyph-name="ncaron" unicode="&#x148;" horiz-adv-x="504" 
d="M373 0h-37l55 262l9.5 49.5t4.5 47.5q0 20 -4.5 38t-16.5 31t-31.5 20.5t-49.5 7.5q-41 0 -73.5 -16.5t-56 -42t-39 -57.5t-21.5 -63l-59 -277h-37l101 476h37l-20 -87l1 -1q8 16 23.5 33.5t38 32.5t51 24.5t63.5 9.5q63 0 96.5 -32t33.5 -92q0 -23 -3.5 -46t-8.5 -46z
M434 680h42l-144 -136h-50l-86 136h38l77 -106z" />
    <glyph glyph-name="napostrophe" unicode="&#x149;" horiz-adv-x="504" 
d="M373 0h-37l55 262l9.5 49.5t4.5 47.5q0 20 -4.5 38t-16.5 31t-31.5 20.5t-49.5 7.5q-41 0 -73.5 -16.5t-56 -42t-39 -57.5t-21.5 -63l-59 -277h-37l101 476h37l-20 -87l1 -1q8 16 23.5 33.5t38 32.5t51 24.5t63.5 9.5q63 0 96.5 -32t33.5 -92q0 -23 -3.5 -46t-8.5 -46z
M211 774l-19 -86l-11.5 -48.5t-14 -39t-20.5 -27t-30 -12.5l7 32q15 5 23.5 30t14.5 57h-19l21 94h48z" />
    <glyph glyph-name="Eng" unicode="&#x14a;" horiz-adv-x="681" 
d="M186 -21v-11q0 -28 8 -52.5t24.5 -42.5t42.5 -28.5t62 -10.5q57 0 89.5 24t52.5 66q8 18 14 37t11 42l-250 534q-8 14 -14.5 29.5l-11.5 28.5q-6 15 -12 28h-1q-2 -16 -6 -34l-7 -36.5t-9 -42.5l-109 -510h-39l146 680h37l241 -513l20 -43t16 -34q8 -17 14 -31h1
q4 21 8 46l9.5 48l11.5 56l100 471h39l-135 -639q-11 -49 -21 -85.5t-26 -65.5q-23 -39 -62 -63.5t-107 -24.5q-88 0 -132 43.5t-44 115.5v5z" />
    <glyph glyph-name="eng" unicode="&#x14b;" horiz-adv-x="504" 
d="M369 -18q-8 -40 -15 -69t-17 -51q-14 -31 -37.5 -45.5t-67.5 -14.5q-18 0 -36 3.5t-32 10.5l9 35q27 -15 63 -15q23 0 37.5 7.5t24.5 21.5q11 16 17 39.5t13 55.5l63 302l9.5 49.5t4.5 47.5q0 20 -4.5 38t-16.5 31t-31.5 20.5t-49.5 7.5q-41 0 -73.5 -16.5t-56 -42
t-39 -57.5t-21.5 -63l-59 -277h-37l101 476h37l-20 -87l1 -1q8 16 23.5 33.5t38 32.5t51 24.5t63.5 9.5q63 0 96.5 -32t33.5 -92q0 -23 -3.5 -46t-8.5 -46z" />
    <glyph glyph-name="Omacron" unicode="&#x14c;" horiz-adv-x="684" 
d="M406 692q54 0 98.5 -17.5t76.5 -51t49.5 -83.5t17.5 -115q0 -80 -21.5 -158t-64.5 -140t-108 -100.5t-151 -38.5q-117 0 -179 73.5t-62 206.5q0 80 23 156t67.5 135.5t108.5 96t145 36.5zM312 23q74 0 129.5 37.5t92.5 95t55.5 126.5t18.5 132q0 113 -53 178t-156 65
q-72 0 -128 -35.5t-93.5 -91t-57 -122t-19.5 -129.5q0 -119 52 -187.5t159 -68.5zM295 808h271l-7 -32h-271z" />
    <glyph glyph-name="omacron" unicode="&#x14d;" horiz-adv-x="517" 
d="M36 185q0 55 15.5 109.5t46.5 97.5t77 69.5t108 26.5q42 0 75 -14t56 -40t35.5 -62.5t12.5 -81.5q0 -55 -15.5 -109t-46 -97t-77 -69.5t-108.5 -26.5q-85 0 -132 53.5t-47 143.5zM277 456q-51 0 -89 -24.5t-63.5 -62.5t-38 -85.5t-12.5 -92.5q0 -80 39 -125.5t105 -45.5
q51 0 90 25t64.5 64t38.5 86t13 92q0 79 -39.5 124t-107.5 45zM172 602h271l-7 -32h-271z" />
    <glyph glyph-name="Obreve" unicode="&#x14e;" horiz-adv-x="684" 
d="M406 692q54 0 98.5 -17.5t76.5 -51t49.5 -83.5t17.5 -115q0 -80 -21.5 -158t-64.5 -140t-108 -100.5t-151 -38.5q-117 0 -179 73.5t-62 206.5q0 80 23 156t67.5 135.5t108.5 96t145 36.5zM312 23q74 0 129.5 37.5t92.5 95t55.5 126.5t18.5 132q0 113 -53 178t-156 65
q-72 0 -128 -35.5t-93.5 -91t-57 -122t-19.5 -129.5q0 -119 52 -187.5t159 -68.5zM422 777q35 0 63.5 18.5t45.5 51.5h36q-20 -50 -57.5 -76t-91.5 -26q-53 0 -82 26.5t-29 75.5h35q2 -33 22 -51.5t58 -18.5z" />
    <glyph glyph-name="obreve" unicode="&#x14f;" horiz-adv-x="517" 
d="M36 185q0 55 15.5 109.5t46.5 97.5t77 69.5t108 26.5q42 0 75 -14t56 -40t35.5 -62.5t12.5 -81.5q0 -55 -15.5 -109t-46 -97t-77 -69.5t-108.5 -26.5q-85 0 -132 53.5t-47 143.5zM277 456q-51 0 -89 -24.5t-63.5 -62.5t-38 -85.5t-12.5 -92.5q0 -80 39 -125.5t105 -45.5
q51 0 90 25t64.5 64t38.5 86t13 92q0 79 -39.5 124t-107.5 45zM301 568q35 0 63.5 18.5t45.5 51.5h36q-20 -50 -57.5 -76t-91.5 -26q-53 0 -82 26.5t-29 75.5h35q2 -33 22 -51.5t58 -18.5z" />
    <glyph glyph-name="Ohungarumlaut" unicode="&#x150;" horiz-adv-x="684" 
d="M406 692q54 0 98.5 -17.5t76.5 -51t49.5 -83.5t17.5 -115q0 -80 -21.5 -158t-64.5 -140t-108 -100.5t-151 -38.5q-117 0 -179 73.5t-62 206.5q0 80 23 156t67.5 135.5t108.5 96t145 36.5zM312 23q74 0 129.5 37.5t92.5 95t55.5 126.5t18.5 132q0 113 -53 178t-156 65
q-72 0 -128 -35.5t-93.5 -91t-57 -122t-19.5 -129.5q0 -119 52 -187.5t159 -68.5zM459 753l105 136h63l-129 -136h-39zM314 753l105 136h63l-129 -136h-39z" />
    <glyph glyph-name="ohungarumlaut" unicode="&#x151;" horiz-adv-x="517" 
d="M36 185q0 55 15.5 109.5t46.5 97.5t77 69.5t108 26.5q42 0 75 -14t56 -40t35.5 -62.5t12.5 -81.5q0 -55 -15.5 -109t-46 -97t-77 -69.5t-108.5 -26.5q-85 0 -132 53.5t-47 143.5zM277 456q-51 0 -89 -24.5t-63.5 -62.5t-38 -85.5t-12.5 -92.5q0 -80 39 -125.5t105 -45.5
q51 0 90 25t64.5 64t38.5 86t13 92q0 79 -39.5 124t-107.5 45zM345 544l105 136h63l-129 -136h-39zM200 544l105 136h63l-129 -136h-39z" />
    <glyph glyph-name="OE" unicode="&#x152;" horiz-adv-x="919" 
d="M827 0h-415l5 22q-54 -22 -118 -22q-50 0 -93 16.5t-74.5 50.5t-49.5 86t-18 123q0 80 23.5 155.5t67 134t106 94t140.5 35.5q54 0 92.5 -14t56.5 -30l7 29h393l-8 -37h-353l-59 -273h316l-7 -37h-315l-65 -296h375zM107 280q0 -60 14.5 -106t40.5 -77.5t63 -47.5t81 -16
q38 0 67.5 7.5t49.5 16.5l117 557q-14 16 -51 31.5t-88 15.5q-65 0 -119 -31.5t-93 -84t-60.5 -121.5t-21.5 -144z" />
    <glyph glyph-name="oe" unicode="&#x153;" horiz-adv-x="879" 
d="M36 185q0 55 15.5 109.5t46.5 97.5t77 69.5t108 26.5q67 0 111 -36t60 -98q2 5 5 10.5l6 10.5q32 51 82 82t115 31q44 0 75 -14.5t51 -39t29.5 -57t9.5 -68.5q0 -14 -1.5 -31t-4.5 -32h-365q-4 -23 -4 -52q0 -33 7.5 -64.5t25 -55.5t46 -39t71.5 -15q37 0 65 10.5
t49 26.5t35.5 35.5t24.5 38.5l29 -20q-8 -16 -19.5 -31t-25.5 -29q-28 -27 -68.5 -45t-94.5 -18q-71 0 -115.5 33.5t-59.5 99.5q-29 -58 -80.5 -95.5t-126.5 -37.5q-85 0 -132 53.5t-47 143.5zM277 456q-51 0 -89 -24.5t-63.5 -62.5t-38 -85.5t-12.5 -92.5q0 -80 39 -125.5
t105 -45.5q51 0 90 25t64.5 64t38.5 86t13 92q0 79 -39.5 124t-107.5 45zM656 456q-40 0 -72.5 -16t-56.5 -41.5t-40 -57.5t-24 -63h323q3 21 3 39q0 27 -6.5 52t-22.5 44.5t-41.5 31t-62.5 11.5z" />
    <glyph glyph-name="Racute" unicode="&#x154;" horiz-adv-x="643" 
d="M377 308h-241l-65 -308h-39l144 680h235q50 0 82.5 -5t56.5 -16q39 -18 60.5 -50t21.5 -79q0 -22 -5 -51t-18.5 -58t-38 -54.5t-62.5 -40.5q-37 -14 -92 -17l125 -309h-43zM388 344q26 0 45 1.5t33.5 4.5t25.5 7.5t21 10.5q42 25 60.5 68t18.5 89q0 43 -19.5 67.5
t-51.5 36.5q-23 8 -47 11t-62 3h-204l-65 -299h245zM324 753l105 136h63l-129 -136h-39z" />
    <glyph glyph-name="racute" unicode="&#x155;" horiz-adv-x="312" 
d="M325 451q-15 4 -33 4q-33 0 -62.5 -15t-53 -39t-39.5 -54.5t-23 -61.5l-60 -285h-37l101 476h37l-23 -95h1q8 21 24.5 40t38 34t47 24t52.5 9q10 0 19 -1t18 -4zM123 544l105 136h63l-129 -136h-39z" />
    <glyph glyph-name="Rcommaaccent" unicode="&#x156;" horiz-adv-x="643" 
d="M377 308h-241l-65 -308h-39l144 680h235q50 0 82.5 -5t56.5 -16q39 -18 60.5 -50t21.5 -79q0 -22 -5 -51t-18.5 -58t-38 -54.5t-62.5 -40.5q-37 -14 -92 -17l125 -309h-43zM388 344q26 0 45 1.5t33.5 4.5t25.5 7.5t21 10.5q42 25 60.5 68t18.5 89q0 43 -19.5 67.5
t-51.5 36.5q-23 8 -47 11t-62 3h-204l-65 -299h245zM298 -70l-19 -86l-11.5 -48.5t-14 -39t-20.5 -27t-30 -12.5l7 32q15 5 23.5 30t14.5 57h-19l21 94h48z" />
    <glyph glyph-name="rcommaaccent" unicode="&#x157;" horiz-adv-x="312" 
d="M325 451q-15 4 -33 4q-33 0 -62.5 -15t-53 -39t-39.5 -54.5t-23 -61.5l-60 -285h-37l101 476h37l-23 -95h1q8 21 24.5 40t38 34t47 24t52.5 9q10 0 19 -1t18 -4zM45 -70l-19 -86l-11.5 -48.5t-14 -39t-20.5 -27t-30 -12.5l7 32q15 5 23.5 30t14.5 57h-19l21 94h48z" />
    <glyph glyph-name="Rcaron" unicode="&#x158;" horiz-adv-x="643" 
d="M377 308h-241l-65 -308h-39l144 680h235q50 0 82.5 -5t56.5 -16q39 -18 60.5 -50t21.5 -79q0 -22 -5 -51t-18.5 -58t-38 -54.5t-62.5 -40.5q-37 -14 -92 -17l125 -309h-43zM388 344q26 0 45 1.5t33.5 4.5t25.5 7.5t21 10.5q42 25 60.5 68t18.5 89q0 43 -19.5 67.5
t-51.5 36.5q-23 8 -47 11t-62 3h-204l-65 -299h245zM509 889h42l-144 -136h-50l-86 136h38l77 -106z" />
    <glyph glyph-name="rcaron" unicode="&#x159;" horiz-adv-x="312" 
d="M325 451q-15 4 -33 4q-33 0 -62.5 -15t-53 -39t-39.5 -54.5t-23 -61.5l-60 -285h-37l101 476h37l-23 -95h1q8 21 24.5 40t38 34t47 24t52.5 9q10 0 19 -1t18 -4zM340 680h42l-144 -136h-50l-86 136h38l77 -106z" />
    <glyph glyph-name="Sacute" unicode="&#x15a;" horiz-adv-x="589" 
d="M534 530q-27 60 -82.5 93.5t-129.5 33.5q-37 0 -70 -7.5t-58 -24t-39.5 -41.5t-14.5 -60q0 -32 10.5 -54.5t29 -38t44 -27t55.5 -22.5l91 -34q29 -11 58 -23.5t51.5 -31.5t36.5 -46t14 -65q0 -39 -14 -74t-43 -62t-73.5 -42.5t-105.5 -15.5q-106 0 -173 47t-98 129l33 26
q28 -80 87 -123.5t151 -43.5q93 0 144.5 40t51.5 114q0 31 -12 53t-32.5 38t-48 28t-58.5 24l-92 33q-23 8 -49 19.5t-47.5 30t-36 46t-14.5 68.5q0 39 15.5 71t44 55.5t70 36t93.5 12.5q46 0 85 -11t69 -29.5t52 -42.5t35 -51zM320 753l105 136h63l-129 -136h-39z" />
    <glyph glyph-name="sacute" unicode="&#x15b;" horiz-adv-x="438" 
d="M365 369q-24 41 -60.5 64t-86.5 23t-84 -23.5t-34 -69.5q0 -39 23 -58t68 -35l61 -23l41.5 -16.5t37 -21.5t26.5 -32.5t10 -47.5q0 -29 -10.5 -54.5t-31 -44.5t-51.5 -30.5t-71 -11.5q-38 0 -69 10t-55 26.5t-41.5 38.5t-29.5 46l28 25q23 -50 65 -82t104 -32
q60 0 92 29.5t32 75.5q0 21 -7.5 35t-20.5 24.5t-31.5 18l-39.5 15.5l-63 24q-17 6 -35 14t-33 21t-25 32t-10 48q0 58 41.5 94.5t112.5 36.5q64 0 107.5 -27t67.5 -67zM219 544l105 136h63l-129 -136h-39z" />
    <glyph glyph-name="Scircumflex" unicode="&#x15c;" horiz-adv-x="589" 
d="M534 530q-27 60 -82.5 93.5t-129.5 33.5q-37 0 -70 -7.5t-58 -24t-39.5 -41.5t-14.5 -60q0 -32 10.5 -54.5t29 -38t44 -27t55.5 -22.5l91 -34q29 -11 58 -23.5t51.5 -31.5t36.5 -46t14 -65q0 -39 -14 -74t-43 -62t-73.5 -42.5t-105.5 -15.5q-106 0 -173 47t-98 129l33 26
q28 -80 87 -123.5t151 -43.5q93 0 144.5 40t51.5 114q0 31 -12 53t-32.5 38t-48 28t-58.5 24l-92 33q-23 8 -49 19.5t-47.5 30t-36 46t-14.5 68.5q0 39 15.5 71t44 55.5t70 36t93.5 12.5q46 0 85 -11t69 -29.5t52 -42.5t35 -51zM262 753h-42l144 136h48l86 -136h-38l-76 105
z" />
    <glyph glyph-name="scircumflex" unicode="&#x15d;" horiz-adv-x="438" 
d="M365 369q-24 41 -60.5 64t-86.5 23t-84 -23.5t-34 -69.5q0 -39 23 -58t68 -35l61 -23l41.5 -16.5t37 -21.5t26.5 -32.5t10 -47.5q0 -29 -10.5 -54.5t-31 -44.5t-51.5 -30.5t-71 -11.5q-38 0 -69 10t-55 26.5t-41.5 38.5t-29.5 46l28 25q23 -50 65 -82t104 -32
q60 0 92 29.5t32 75.5q0 21 -7.5 35t-20.5 24.5t-31.5 18l-39.5 15.5l-63 24q-17 6 -35 14t-33 21t-25 32t-10 48q0 58 41.5 94.5t112.5 36.5q64 0 107.5 -27t67.5 -67zM159 544h-42l144 136h48l86 -136h-38l-76 105z" />
    <glyph glyph-name="Scedilla" unicode="&#x15e;" horiz-adv-x="589" 
d="M534 530q-27 60 -82.5 93.5t-129.5 33.5q-37 0 -70 -7.5t-58 -24t-39.5 -41.5t-14.5 -60q0 -32 10.5 -54.5t29 -38t44 -27t55.5 -22.5l91 -34q29 -11 58 -23.5t51.5 -31.5t36.5 -46t14 -65q0 -39 -14 -74t-43 -62t-73.5 -42.5t-105.5 -15.5h-7l-33 -35q6 2 11 2h11
q32 0 55.5 -18t23.5 -52q0 -20 -8 -34.5t-21 -23.5t-30 -13.5t-35 -4.5q-14 0 -27.5 2t-24.5 7l8 26q21 -8 45 -8t43 10.5t19 37.5q0 26 -19 36t-42 10q-12 0 -21.5 -2t-17.5 -6l-14 18l46 50q-90 8 -147.5 53.5t-85.5 120.5l33 26q28 -80 87 -123.5t151 -43.5
q93 0 144.5 40t51.5 114q0 31 -12 53t-32.5 38t-48 28t-58.5 24l-92 33q-23 8 -49 19.5t-47.5 30t-36 46t-14.5 68.5q0 39 15.5 71t44 55.5t70 36t93.5 12.5q46 0 85 -11t69 -29.5t52 -42.5t35 -51z" />
    <glyph glyph-name="scedilla" unicode="&#x15f;" horiz-adv-x="438" 
d="M365 369q-24 41 -60.5 64t-86.5 23t-84 -23.5t-34 -69.5q0 -39 23 -58t68 -35l61 -23l41.5 -16.5t37 -21.5t26.5 -32.5t10 -47.5q0 -57 -40.5 -98t-119.5 -43l-33 -35q6 2 11 2h11q32 0 55.5 -18t23.5 -52q0 -20 -8 -34.5t-21 -23.5t-30 -13.5t-35 -4.5q-14 0 -27.5 2
t-24.5 7l8 26q21 -8 45 -8t43 10.5t19 37.5q0 26 -19 36t-42 10q-12 0 -21.5 -2t-17.5 -6l-14 18l45 49q-64 8 -105 41.5t-62 78.5l28 25q23 -50 65 -82t104 -32q60 0 92 29.5t32 75.5q0 21 -7.5 35t-20.5 24.5t-31.5 18l-39.5 15.5l-63 24q-17 6 -35 14t-33 21t-25 32
t-10 48q0 58 41.5 94.5t112.5 36.5q64 0 107.5 -27t67.5 -67z" />
    <glyph glyph-name="Scaron" unicode="&#x160;" horiz-adv-x="589" 
d="M479 889h42l-145 -136h-48l-87 136h38l77 -105zM534 530q-27 60 -82.5 93.5t-129.5 33.5q-37 0 -70 -7.5t-58 -24t-39.5 -41.5t-14.5 -60q0 -32 10.5 -54.5t29 -38t44 -27t55.5 -22.5l91 -34q29 -11 58 -23.5t51.5 -31.5t36.5 -46t14 -65q0 -39 -14 -74t-43 -62
t-73.5 -42.5t-105.5 -15.5q-106 0 -173 47t-98 129l33 26q28 -80 87 -123.5t151 -43.5q93 0 144.5 40t51.5 114q0 31 -12 53t-32.5 38t-48 28t-58.5 24l-92 33q-23 8 -49 19.5t-47.5 30t-36 46t-14.5 68.5q0 39 15.5 71t44 55.5t70 36t93.5 12.5q46 0 85 -11t69 -29.5
t52 -42.5t35 -51z" />
    <glyph glyph-name="scaron" unicode="&#x161;" horiz-adv-x="438" 
d="M379 680h42l-145 -137h-48l-87 137h38l77 -106zM365 369q-24 41 -60.5 64t-86.5 23t-84 -23.5t-34 -69.5q0 -39 23 -58t68 -35l61 -23l41.5 -16.5t37 -21.5t26.5 -32.5t10 -47.5q0 -29 -10.5 -54.5t-31 -44.5t-51.5 -30.5t-71 -11.5q-38 0 -69 10t-55 26.5t-41.5 38.5
t-29.5 46l28 25q23 -50 65 -82t104 -32q60 0 92 29.5t32 75.5q0 21 -7.5 35t-20.5 24.5t-31.5 18l-39.5 15.5l-63 24q-17 6 -35 14t-33 21t-25 32t-10 48q0 58 41.5 94.5t112.5 36.5q64 0 107.5 -27t67.5 -67z" />
    <glyph glyph-name="uni0162" unicode="&#x162;" horiz-adv-x="526" 
d="M98 680h500l-8 -37h-230l-137 -643h-7l-44 -47q6 2 11 2h11q32 0 55.5 -18t23.5 -52q0 -20 -8 -34.5t-21 -23.5t-30 -13.5t-35 -4.5q-14 0 -27.5 2t-24.5 7l8 26q21 -8 45 -8t43 10.5t19 37.5q0 26 -19 36t-42 10q-12 0 -21.5 -2t-17.5 -6l-14 18l55 60l137 643h-230z
" />
    <glyph glyph-name="uni0163" unicode="&#x163;" horiz-adv-x="290" 
d="M215 6q-12 -6 -36 -12t-48 -6q-14 0 -24 3l-35 -38q6 2 11 2h11q32 0 55.5 -18t23.5 -52q0 -20 -8 -34.5t-21 -23.5t-30 -13.5t-35 -4.5q-14 0 -27.5 2t-24.5 7l8 26q21 -8 45 -8t43 10.5t19 37.5q0 26 -19 36t-42 10q-12 0 -21.5 -2t-17.5 -6l-14 18l55 60
q-22 14 -22 49q0 12 2 25t6 31l72 339h-96l6 32h97l38 183l38 8l-40 -191h118l-6 -32h-119l-72 -342q-6 -29 -6 -44q0 -17 9 -27t33 -10q21 0 43.5 7t36.5 14z" />
    <glyph glyph-name="Tcaron" unicode="&#x164;" horiz-adv-x="526" 
d="M98 680h500l-8 -37h-230l-137 -643h-40l137 643h-230zM491 889h42l-144 -136h-50l-86 136h38l77 -106z" />
    <glyph glyph-name="tcaron" unicode="&#x165;" horiz-adv-x="290" 
d="M215 6q-12 -6 -36 -12t-48 -6q-29 0 -49.5 13t-20.5 48q0 12 2 25t6 31l72 339h-96l6 32h97l38 183l38 8l-40 -191h118l-6 -32h-119l-72 -342q-6 -29 -6 -44q0 -17 9 -27t33 -10q21 0 43.5 7t36.5 14zM298 553l59 127h54l-81 -127h-32z" />
    <glyph glyph-name="Tbar" unicode="&#x166;" horiz-adv-x="526" 
d="M99 680h500l-8 -37h-230l-43 -202h135l-7 -32h-135l-87 -409h-40l87 409h-135l7 32h135l43 202h-230z" />
    <glyph glyph-name="tbar" unicode="&#x167;" horiz-adv-x="301" 
d="M23 342h104l21 100h-96l6 34h97l38 183l38 8l-40 -191h118l-6 -34h-119l-21 -100h131l-7 -32h-131l-44 -208q-6 -29 -6 -44q0 -17 9 -27t33 -10q21 0 43.5 7t36.5 14l-6 -36q-12 -6 -36 -12t-48 -6q-29 0 -49.5 13t-20.5 48q0 12 2 25t6 31l44 205h-104z" />
    <glyph glyph-name="Utilde" unicode="&#x168;" horiz-adv-x="674" 
d="M290 -13q-48 0 -88.5 11.5t-69.5 35t-45.5 59.5t-16.5 86q0 38 11 87l89 414h40l-87 -401q-5 -26 -8.5 -50t-3.5 -46q0 -161 188 -161q56 0 95 13t68 40q15 14 26.5 30.5t21 37.5t17 48t15.5 62l91 427h39l-90 -426q-16 -76 -38 -125.5t-57 -82.5q-33 -30 -80.5 -44.5
t-116.5 -14.5zM592 847q-8 -26 -27 -46.5t-54 -20.5q-20 0 -39.5 7.5t-37.5 16.5q-23 11 -38 17.5t-28 6.5q-23 0 -35.5 -18.5t-17.5 -36.5l-30 11q3 11 9 24t16.5 24.5t25.5 19t35 7.5q18 0 35.5 -7.5t40.5 -18.5q17 -8 34 -15t31 -7q25 0 35 15t17 32z" />
    <glyph glyph-name="utilde" unicode="&#x169;" horiz-adv-x="496" 
d="M112 476h37l-55 -262l-9.5 -49.5t-4.5 -47.5q0 -20 4 -38t15 -31t30 -20.5t49 -7.5q39 0 71 16.5t55 42t38.5 57.5t21.5 63l59 277h37l-101 -476h-37l20 87l-1 1q-8 -16 -23 -33.5t-37 -32.5t-50 -24.5t-62 -9.5q-63 0 -94.5 32t-31.5 92q0 23 3.5 46t8.5 46zM467 639
q-8 -26 -27 -46.5t-54 -20.5q-20 0 -39.5 7.5t-37.5 16.5q-23 11 -38 17.5t-28 6.5q-23 0 -35.5 -18.5t-17.5 -36.5l-30 11q3 11 9 24t16.5 24.5t25.5 19t35 7.5q18 0 35.5 -7.5t40.5 -18.5q17 -8 34 -15t31 -7q25 0 35 15t17 32z" />
    <glyph glyph-name="Umacron" unicode="&#x16a;" horiz-adv-x="674" 
d="M290 -13q-48 0 -88.5 11.5t-69.5 35t-45.5 59.5t-16.5 86q0 38 11 87l89 414h40l-87 -401q-5 -26 -8.5 -50t-3.5 -46q0 -161 188 -161q56 0 95 13t68 40q15 14 26.5 30.5t21 37.5t17 48t15.5 62l91 427h39l-90 -426q-16 -76 -38 -125.5t-57 -82.5q-33 -30 -80.5 -44.5
t-116.5 -14.5zM300 808h271l-7 -32h-271z" />
    <glyph glyph-name="umacron" unicode="&#x16b;" horiz-adv-x="496" 
d="M112 476h37l-55 -262l-9.5 -49.5t-4.5 -47.5q0 -20 4 -38t15 -31t30 -20.5t49 -7.5q39 0 71 16.5t55 42t38.5 57.5t21.5 63l59 277h37l-101 -476h-37l20 87l-1 1q-8 -16 -23 -33.5t-37 -32.5t-50 -24.5t-62 -9.5q-63 0 -94.5 32t-31.5 92q0 23 3.5 46t8.5 46zM178 602
h271l-7 -32h-271z" />
    <glyph glyph-name="Ubreve" unicode="&#x16c;" horiz-adv-x="674" 
d="M290 -13q-48 0 -88.5 11.5t-69.5 35t-45.5 59.5t-16.5 86q0 38 11 87l89 414h40l-87 -401q-5 -26 -8.5 -50t-3.5 -46q0 -161 188 -161q56 0 95 13t68 40q15 14 26.5 30.5t21 37.5t17 48t15.5 62l91 427h39l-90 -426q-16 -76 -38 -125.5t-57 -82.5q-33 -30 -80.5 -44.5
t-116.5 -14.5zM434 777q35 0 63.5 18.5t45.5 51.5h36q-20 -50 -57.5 -76t-91.5 -26q-53 0 -82 26.5t-29 75.5h35q2 -33 22 -51.5t58 -18.5z" />
    <glyph glyph-name="ubreve" unicode="&#x16d;" horiz-adv-x="496" 
d="M112 476h37l-55 -262l-9.5 -49.5t-4.5 -47.5q0 -20 4 -38t15 -31t30 -20.5t49 -7.5q39 0 71 16.5t55 42t38.5 57.5t21.5 63l59 277h37l-101 -476h-37l20 87l-1 1q-8 -16 -23 -33.5t-37 -32.5t-50 -24.5t-62 -9.5q-63 0 -94.5 32t-31.5 92q0 23 3.5 46t8.5 46zM296 568
q35 0 63.5 18.5t45.5 51.5h36q-20 -50 -57.5 -76t-91.5 -26q-53 0 -82 26.5t-29 75.5h35q2 -33 22 -51.5t58 -18.5z" />
    <glyph glyph-name="Uring" unicode="&#x16e;" horiz-adv-x="674" 
d="M290 -13q-48 0 -88.5 11.5t-69.5 35t-45.5 59.5t-16.5 86q0 38 11 87l89 414h40l-87 -401q-5 -26 -8.5 -50t-3.5 -46q0 -161 188 -161q56 0 95 13t68 40q15 14 26.5 30.5t21 37.5t17 48t15.5 62l91 427h39l-90 -426q-16 -76 -38 -125.5t-57 -82.5q-33 -30 -80.5 -44.5
t-116.5 -14.5zM362 826q0 35 24 58t58 23t58 -23t24 -58t-24 -58t-58 -23t-58 23t-24 58zM389 826q0 -23 15.5 -38.5t38.5 -15.5t38.5 15.5t15.5 38.5t-15.5 38.5t-38.5 15.5t-38.5 -15.5t-15.5 -38.5z" />
    <glyph glyph-name="uring" unicode="&#x16f;" horiz-adv-x="496" 
d="M112 476h37l-55 -262l-9.5 -49.5t-4.5 -47.5q0 -20 4 -38t15 -31t30 -20.5t49 -7.5q39 0 71 16.5t55 42t38.5 57.5t21.5 63l59 277h37l-101 -476h-37l20 87l-1 1q-8 -16 -23 -33.5t-37 -32.5t-50 -24.5t-62 -9.5q-63 0 -94.5 32t-31.5 92q0 23 3.5 46t8.5 46zM228 617
q0 35 24 58t58 23t58 -23t24 -58t-24 -58t-58 -23t-58 23t-24 58zM255 617q0 -23 15.5 -38.5t38.5 -15.5t38.5 15.5t15.5 38.5t-15.5 38.5t-38.5 15.5t-38.5 -15.5t-15.5 -38.5z" />
    <glyph glyph-name="Uhungarumlaut" unicode="&#x170;" horiz-adv-x="674" 
d="M290 -13q-48 0 -88.5 11.5t-69.5 35t-45.5 59.5t-16.5 86q0 38 11 87l89 414h40l-87 -401q-5 -26 -8.5 -50t-3.5 -46q0 -161 188 -161q56 0 95 13t68 40q15 14 26.5 30.5t21 37.5t17 48t15.5 62l91 427h39l-90 -426q-16 -76 -38 -125.5t-57 -82.5q-33 -30 -80.5 -44.5
t-116.5 -14.5zM443 753l105 136h63l-129 -136h-39zM298 753l105 136h63l-129 -136h-39z" />
    <glyph glyph-name="uhungarumlaut" unicode="&#x171;" horiz-adv-x="496" 
d="M112 476h37l-55 -262l-9.5 -49.5t-4.5 -47.5q0 -20 4 -38t15 -31t30 -20.5t49 -7.5q39 0 71 16.5t55 42t38.5 57.5t21.5 63l59 277h37l-101 -476h-37l20 87l-1 1q-8 -16 -23 -33.5t-37 -32.5t-50 -24.5t-62 -9.5q-63 0 -94.5 32t-31.5 92q0 23 3.5 46t8.5 46zM319 544
l105 136h63l-129 -136h-39zM174 544l105 136h63l-129 -136h-39z" />
    <glyph glyph-name="Uogonek" unicode="&#x172;" horiz-adv-x="674" 
d="M303 -216q-11 -2 -19 -3t-20 -1q-44 0 -69.5 23.5t-25.5 63.5q0 18 8 35t20.5 32.5t28.5 29t33 24.5q-42 3 -76.5 16.5t-59.5 37t-39 57.5t-14 80q0 38 11 87l89 414h40l-87 -401q-5 -26 -8.5 -50t-3.5 -46q0 -161 188 -161q56 0 95 13t68 40q15 14 26.5 30.5t21 37.5
t17 48t15.5 62l91 427h39l-90 -426q-16 -76 -38 -125.5t-57 -82.5q-33 -30 -79 -44t-114 -15q-13 -10 -28 -23t-28 -28.5t-22 -32t-9 -33.5q0 -31 18 -45t44 -14q5 0 9.5 0.5t9.5 1.5z" />
    <glyph glyph-name="uogonek" unicode="&#x173;" horiz-adv-x="496" 
d="M347 -216q-11 -2 -19 -3t-20 -1q-44 0 -69.5 23.5t-25.5 63.5q0 21 10.5 40t26 36.5t35 31.5t37.5 25l20 87l-1 1q-8 -16 -23 -33.5t-37 -32.5t-50 -24.5t-62 -9.5q-63 0 -94.5 32t-31.5 92q0 23 3.5 46t8.5 46l57 272h37l-55 -262l-9.5 -49.5t-4.5 -47.5q0 -20 4 -38
t15 -31t30 -20.5t49 -7.5q39 0 71 16.5t55 42t38.5 57.5t21.5 63l59 277h37l-101 -476h-2q-15 -10 -33.5 -24.5t-34.5 -32t-27 -36t-11 -37.5q0 -31 18 -45t44 -14q5 0 9.5 0.5t9.5 1.5z" />
    <glyph glyph-name="Wcircumflex" unicode="&#x174;" horiz-adv-x="883" 
d="M938 680l-337 -680h-39l-35 400q-3 29 -5.5 63.5t-4.5 66.5l-3.5 57.5t-1.5 37.5h-1q-5 -10 -18 -38l-29 -61.5l-32 -66l-25 -51.5l-204 -408h-41l-54 680h41l35 -461q1 -20 3.5 -43.5t4 -46t2.5 -42t1 -30.5h1q4 11 12.5 29.5l19 40.5l22 46l22.5 46l232 461h37l39 -461
l4 -48t3.5 -47.5t3 -40.5t1.5 -26h1q4 10 12.5 29l19 41.5l22 46.5l22.5 45l228 461h41zM439 753h-42l144 136h48l86 -136h-38l-76 105z" />
    <glyph glyph-name="wcircumflex" unicode="&#x175;" horiz-adv-x="649" 
d="M404 174q3 -29 4 -61.5t2 -49.5h1l23.5 48.5t34.5 66.5l158 298h38l-256 -476h-23l-27 319q-4 43 -4 64.5t-1 31.5h-1q-4 -11 -16.5 -38.5l-27.5 -58.5l-159 -318h-29l-56 476h37l35 -303q2 -14 3.5 -31t2.5 -33.5t2 -30.5t1 -22h1q9 18 24 51.5l29 63.5l152 305h28z
M282 544h-42l144 136h48l86 -136h-38l-76 105z" />
    <glyph glyph-name="Ycircumflex" unicode="&#x176;" horiz-adv-x="548" 
d="M232 0h-39l62 291l-166 389h42l150 -351l296 351h45l-329 -389zM265 753h-42l144 136h48l86 -136h-38l-76 105z" />
    <glyph glyph-name="ycircumflex" unicode="&#x177;" horiz-adv-x="431" 
d="M-62 -151q8 -5 19.5 -8.5t24.5 -3.5q29 0 47.5 18.5t40.5 53.5l65 102l-70 465h39l44 -296q3 -20 5.5 -39.5t5 -37t4 -30.5t1.5 -19h1q3 7 10.5 20l16.5 28.5l19.5 33l19.5 32.5l183 308h42l-326 -536l-31 -50t-28 -40q-20 -25 -41 -36.5t-49 -11.5q-18 0 -30.5 3.5
t-20.5 7.5zM167 544h-42l144 136h48l86 -136h-38l-76 105z" />
    <glyph glyph-name="Ydieresis" unicode="&#x178;" horiz-adv-x="548" 
d="M232 0h-39l62 291l-166 389h42l150 -351l296 351h45l-329 -389zM266 870h41l-19 -91h-41zM450 870h41l-19 -91h-41z" />
    <glyph glyph-name="Zacute" unicode="&#x179;" horiz-adv-x="560" 
d="M472 0h-510l6 28l578 615h-425l8 37h481l-6 -28l-578 -615h453zM325 753l105 136h63l-129 -136h-39z" />
    <glyph glyph-name="zacute" unicode="&#x17a;" horiz-adv-x="408" 
d="M321 0h-348l6 28l365 414h-269l7 34h319l-5 -28l-368 -414h300zM196 544l105 136h63l-129 -136h-39z" />
    <glyph glyph-name="Zdotaccent" unicode="&#x17b;" horiz-adv-x="560" 
d="M472 0h-510l6 28l578 615h-425l8 37h481l-6 -28l-578 -615h453zM367 871h41l-19 -91h-41z" />
    <glyph glyph-name="zdotaccent" unicode="&#x17c;" horiz-adv-x="408" 
d="M321 0h-348l6 28l365 414h-269l7 34h319l-5 -28l-368 -414h300zM246 656h41l-19 -91h-41z" />
    <glyph glyph-name="Zcaron" unicode="&#x17d;" horiz-adv-x="560" 
d="M472 0h-510l6 28l578 615h-425l8 37h481l-6 -28l-578 -615h453zM498 889h42l-145 -136h-48l-87 136h38l77 -105z" />
    <glyph glyph-name="zcaron" unicode="&#x17e;" horiz-adv-x="408" 
d="M321 0h-348l6 28l365 414h-269l7 34h319l-5 -28l-368 -414h300zM372 680h42l-145 -137h-48l-87 137h38l77 -106z" />
    <glyph glyph-name="florin" unicode="&#x192;" horiz-adv-x="590" 
d="M66 -155q40 -8 63 -8q19 0 32.5 3.5t25.5 14.5q11 11 19 31.5t14 55.5l85 492h-118l5 32h117l17 108q11 63 38 90.5t79 27.5q19 0 40.5 -3t41.5 -9l-9 -35q-13 4 -30 7.5t-35 3.5q-20 0 -34.5 -5t-25.5 -17q-11 -13 -17 -33.5t-11 -47.5l-14 -87h122l-6 -32h-120
l-90 -514q-6 -35 -16 -56.5t-23 -34.5q-15 -15 -34.5 -21t-45.5 -6q-18 0 -39.5 2.5t-42.5 7.5z" />
    <glyph glyph-name="Aringacute" unicode="&#x1fa;" horiz-adv-x="587" 
d="M475 0l-34 214h-315l-122 -214h-45l399 680h45l111 -680h-39zM392 514q-2 14 -5 31.5t-5.5 35.5t-4.5 34.5t-3 28.5l-27 -50l-23.5 -42l-20.5 -37l-155 -265h286zM337 763q0 23 16.5 39t39.5 16t39 -16t16 -39t-16 -39t-39 -16t-39.5 16t-16.5 39zM358 763
q0 -15 10 -24.5t24 -9.5t23.5 9.5t9.5 24.5q0 14 -9.5 23.5t-23.5 9.5t-24 -9.5t-10 -23.5zM335 840l100 79h63l-124 -79h-39z" />
    <glyph glyph-name="aringacute" unicode="&#x1fb;" 
d="M233 583q0 23 16.5 39t39.5 16t39 -16t16 -39t-16 -39t-39 -16t-39.5 16t-16.5 39zM254 583q0 -15 10 -24.5t24 -9.5t23.5 9.5t9.5 24.5q0 14 -9.5 23.5t-23.5 9.5t-24 -9.5t-10 -23.5zM231 660l100 79h63l-124 -79h-39zM413 -3q-15 -4 -32 -4q-32 0 -49 16t-17 43
q0 14 4 26h-1q-26 -41 -67.5 -65.5t-98.5 -24.5q-68 0 -102 36t-34 88q0 54 27 87q24 30 61.5 44t90.5 23l129 22q22 4 32 10t14 24q2 11 4 25t2 25q0 18 -5.5 33t-19 26.5t-37.5 18t-60 6.5q-71 0 -108.5 -33.5t-44.5 -84.5l-30 19q5 33 22.5 57.5t43.5 41t58 24.5t65 8
q26 0 53 -5t48.5 -17t35 -32.5t13.5 -51.5q0 -15 -2 -31.5t-9 -50.5l-42 -199l-4 -21t-2 -20q0 -17 9.5 -27t34.5 -10q14 0 23 3zM358 269q-4 -3 -12.5 -5.5t-19 -5t-22 -4.5t-21.5 -3l-71 -12q-30 -5 -58.5 -11.5t-50.5 -19.5t-35.5 -34t-13.5 -55q0 -50 27.5 -74.5
t78.5 -24.5q30 0 58.5 10t52.5 30.5t42.5 52.5t27.5 77z" />
    <glyph glyph-name="AEacute" unicode="&#x1fc;" horiz-adv-x="879" 
d="M361 0l43 213h-258l-167 -213h-49l544 680h436l-8 -37h-366l-59 -273h331l-8 -37h-330l-64 -296h387l-8 -37h-424zM412 250l57 270l11 53l9 42q4 21 9 38h-1l-44.5 -55.5l-55.5 -71.5l-222 -276h237zM508 753l105 136h63l-129 -136h-39z" />
    <glyph glyph-name="aeacute" unicode="&#x1fd;" horiz-adv-x="809" 
d="M386 246q-4 -23 -4 -52q0 -33 7.5 -64.5t25 -55.5t46 -39t71.5 -15q37 0 65 10.5t49 26.5t35.5 35.5t24.5 38.5l29 -20q-8 -16 -19.5 -31t-25.5 -29q-28 -27 -68.5 -45t-94.5 -18q-145 0 -175 134q-8 -22 -24.5 -46t-41.5 -43.5t-58 -32t-75 -12.5q-68 0 -102.5 36
t-34.5 88q0 54 27 87q24 30 61.5 44t90.5 23l129 22q22 4 32 10t14 24q2 11 4 25t2 25q0 18 -5.5 33t-19 26.5t-37.5 18t-60 6.5q-71 0 -108 -33.5t-45 -84.5l-30 19q5 33 22 57.5t42.5 41t58 24.5t68.5 8q23 0 47.5 -4.5t45.5 -15t36 -28.5t18 -45q32 43 78.5 68t104.5 25
q44 0 75 -14.5t51 -39t29.5 -57t9.5 -68.5q0 -14 -1.5 -31t-4.5 -32h-365zM358 269q-4 -3 -12.5 -5.5t-19 -5t-22 -4.5t-21.5 -3l-71 -12q-30 -5 -58.5 -11.5t-50.5 -19.5t-35.5 -34t-13.5 -55q0 -50 27.5 -74.5t78.5 -24.5q30 0 58.5 10t52.5 30.5t42.5 52.5t27.5 77z
M586 456q-40 0 -72.5 -16t-56.5 -41.5t-40 -57.5t-24 -63h323q3 21 3 39q0 27 -6.5 52t-22.5 44.5t-41.5 31t-62.5 11.5zM412 544l105 136h63l-129 -136h-39z" />
    <glyph glyph-name="Oslashacute" unicode="&#x1fe;" horiz-adv-x="697" 
d="M408 692q69 0 121.5 -28t83.5 -83l130 118l26 -24l-140 -127q10 -26 15.5 -57t5.5 -66q0 -80 -21.5 -158t-64.5 -140t-108 -100.5t-151 -38.5q-66 0 -114.5 24t-79.5 70l-119 -108l-24 25l126 114q-30 63 -30 155q0 80 23 156t67.5 135.5t108.5 96t145 36.5zM103 279
q0 -79 23 -137l456 411q-25 50 -70 77t-111 27q-72 0 -128 -35.5t-93.5 -91t-57 -122t-19.5 -129.5zM314 23q74 0 129.5 37.5t92.5 95t55.5 126.5t18.5 132q0 59 -15 104l-453 -408q26 -42 69 -64.5t103 -22.5zM389 753l105 136h63l-129 -136h-39z" />
    <glyph glyph-name="oslashacute" unicode="&#x1ff;" horiz-adv-x="517" 
d="M437 400q25 -48 25 -110q0 -55 -15.5 -109t-46 -97t-77 -69.5t-108.5 -26.5q-84 0 -131 53l-73 -74l-23 21l77 78q-29 49 -29 119q0 55 15.5 109.5t46.5 97.5t77 69.5t108 26.5q45 0 79 -16t57 -45l72 73l24 -21zM277 456q-51 0 -89 -24.5t-63.5 -62.5t-38 -85.5
t-12.5 -92.5q0 -56 20 -96l299 305q-40 56 -116 56zM424 287q0 48 -15 84l-298 -302q38 -49 107 -49q51 0 90 25t64.5 64t38.5 86t13 92zM274 544l105 136h63l-129 -136h-39z" />
    <glyph glyph-name="uni0218" unicode="&#x218;" horiz-adv-x="589" 
d="M534 530q-27 60 -82.5 93.5t-129.5 33.5q-37 0 -70 -7.5t-58 -24t-39.5 -41.5t-14.5 -60q0 -32 10.5 -54.5t29 -38t44 -27t55.5 -22.5l91 -34q29 -11 58 -23.5t51.5 -31.5t36.5 -46t14 -65q0 -39 -14 -74t-43 -62t-73.5 -42.5t-105.5 -15.5q-106 0 -173 47t-98 129l33 26
q28 -80 87 -123.5t151 -43.5q93 0 144.5 40t51.5 114q0 31 -12 53t-32.5 38t-48 28t-58.5 24l-92 33q-23 8 -49 19.5t-47.5 30t-36 46t-14.5 68.5q0 39 15.5 71t44 55.5t70 36t93.5 12.5q46 0 85 -11t69 -29.5t52 -42.5t35 -51zM299 -70l-19 -86l-11.5 -48.5t-14 -39
t-20.5 -27t-30 -12.5l7 32q15 5 23.5 30t14.5 57h-19l21 94h48z" />
    <glyph glyph-name="uni0219" unicode="&#x219;" horiz-adv-x="438" 
d="M365 369q-24 41 -60.5 64t-86.5 23t-84 -23.5t-34 -69.5q0 -39 23 -58t68 -35l61 -23l41.5 -16.5t37 -21.5t26.5 -32.5t10 -47.5q0 -29 -10.5 -54.5t-31 -44.5t-51.5 -30.5t-71 -11.5q-38 0 -69 10t-55 26.5t-41.5 38.5t-29.5 46l28 25q23 -50 65 -82t104 -32
q60 0 92 29.5t32 75.5q0 21 -7.5 35t-20.5 24.5t-31.5 18l-39.5 15.5l-63 24q-17 6 -35 14t-33 21t-25 32t-10 48q0 58 41.5 94.5t112.5 36.5q64 0 107.5 -27t67.5 -67zM210 -70l-19 -86l-11.5 -48.5t-14 -39t-20.5 -27t-30 -12.5l7 32q15 5 23.5 30t14.5 57h-19l21 94h48z
" />
    <glyph glyph-name="uni021A" unicode="&#x21a;" horiz-adv-x="526" 
d="M98 680h500l-8 -37h-230l-137 -643h-40l137 643h-230zM212 -70l-19 -86l-11.5 -48.5t-14 -39t-20.5 -27t-30 -12.5l7 32q15 5 23.5 30t14.5 57h-19l21 94h48z" />
    <glyph glyph-name="uni021B" unicode="&#x21b;" horiz-adv-x="290" 
d="M215 6q-12 -6 -36 -12t-48 -6q-29 0 -49.5 13t-20.5 48q0 12 2 25t6 31l72 339h-96l6 32h97l38 183l38 8l-40 -191h118l-6 -32h-119l-72 -342q-6 -29 -6 -44q0 -17 9 -27t33 -10q21 0 43.5 7t36.5 14zM98 -70l-19 -86l-11.5 -48.5t-14 -39t-20.5 -27t-30 -12.5l7 32
q15 5 23.5 30t14.5 57h-19l21 94h48z" />
    <glyph glyph-name="circumflex" unicode="&#x2c6;" horiz-adv-x="450" 
d="M170 544h-42l144 136h48l86 -136h-38l-76 105z" />
    <glyph glyph-name="caron" unicode="&#x2c7;" horiz-adv-x="450" 
d="M400 680h42l-144 -136h-50l-86 136h38l77 -106z" />
    <glyph glyph-name="breve" unicode="&#x2d8;" horiz-adv-x="420" 
d="M275 568q35 0 63.5 18.5t45.5 51.5h36q-20 -50 -57.5 -76t-91.5 -26q-53 0 -82 26.5t-29 75.5h35q2 -33 22 -51.5t58 -18.5z" />
    <glyph glyph-name="dotaccent" unicode="&#x2d9;" horiz-adv-x="450" 
d="M268 656h41l-19 -91h-41z" />
    <glyph glyph-name="ring" unicode="&#x2da;" horiz-adv-x="540" 
d="M245 616q0 35 24 58t58 23t58 -23t24 -58t-24 -58t-58 -23t-58 23t-24 58zM272 616q0 -23 15.5 -38.5t38.5 -15.5t38.5 15.5t15.5 38.5t-15.5 38.5t-38.5 15.5t-38.5 -15.5t-15.5 -38.5z" />
    <glyph glyph-name="ogonek" unicode="&#x2db;" horiz-adv-x="450" 
d="M274 -216q-11 -2 -19 -3t-20 -1q-44 0 -69.5 23.5t-25.5 63.5q0 21 11 41t27.5 37.5t37 32t38.5 25.5h35q-15 -10 -34 -24.5t-36.5 -32t-29 -37.5t-11.5 -39q0 -31 18 -45t44 -14q5 0 9.5 0.5t9.5 1.5z" />
    <glyph glyph-name="tilde" unicode="&#x2dc;" horiz-adv-x="450" 
d="M437 639q-8 -26 -27 -46.5t-54 -20.5q-20 0 -39.5 7.5t-37.5 16.5q-23 11 -38 17.5t-28 6.5q-23 0 -35.5 -18.5t-17.5 -36.5l-30 11q3 11 9 24t16.5 24.5t25.5 19t35 7.5q18 0 35.5 -7.5t40.5 -18.5q17 -8 34 -15t31 -7q25 0 35 15t17 32z" />
    <glyph glyph-name="hungarumlaut" unicode="&#x2dd;" horiz-adv-x="450" 
d="M221 544l105 136h63l-129 -136h-39zM76 544l105 136h63l-129 -136h-39z" />
    <glyph glyph-name="uni0394" unicode="&#x394;" horiz-adv-x="773" 
d="M323 680h46l269 -680h-584zM107 35h477l-238 603z" />
    <glyph glyph-name="uni03A9" unicode="&#x3a9;" horiz-adv-x="809" 
d="M406 676q-72 0 -125 -24t-88.5 -64.5t-53 -93.5t-17.5 -110q0 -53 13 -103.5t38.5 -95.5t63 -83t87.5 -64v-38h-250v36h199q-51 30 -87 69.5t-60 85.5q-45 85 -45 194q0 69 21 128.5t62 104t101.5 69.5t140.5 25t140.5 -25t101.5 -69.5t62 -104t21 -128.5
q0 -109 -45 -194q-24 -46 -60 -85.5t-87 -69.5h199v-36h-250v38q49 26 87 64t64 83t39 95.5t13 103.5q0 57 -17.5 110t-53 93.5t-89 64.5t-125.5 24z" />
    <glyph glyph-name="uni03BC" unicode="&#x3bc;" horiz-adv-x="506" 
d="M-24 -191l142 667h37l-57 -266q-9 -44 -11.5 -79t6 -59t30 -37t59.5 -13q37 0 66.5 12t52.5 31q29 25 46 58t25 65l61 288h37l-101 -476h-37l18 86h-1q-23 -41 -67 -69.5t-110 -28.5q-42 0 -71.5 17t-35.5 49l-52 -245h-37z" />
    <glyph glyph-name="pi" unicode="&#x3c0;" horiz-adv-x="607" 
d="M166 442h-118l7 34h549l-7 -34h-118l-72 -338q-6 -30 -6 -44q0 -17 8.5 -26.5t33.5 -9.5q21 0 44 7.5t37 17.5l-7 -38q-17 -10 -41.5 -15.5t-46.5 -5.5q-67 0 -67 58q0 8 2 20.5t4 23.5l74 350h-239l-94 -442h-37z" />
    <glyph glyph-name="Wgrave" unicode="&#x1e80;" horiz-adv-x="883" 
d="M938 680l-337 -680h-39l-35 400q-3 29 -5.5 63.5t-4.5 66.5l-3.5 57.5t-1.5 37.5h-1q-5 -10 -18 -38l-29 -61.5l-32 -66l-25 -51.5l-204 -408h-41l-54 680h41l35 -461q1 -20 3.5 -43.5t4 -46t2.5 -42t1 -30.5h1q4 11 12.5 29.5l19 40.5l22 46l22.5 46l232 461h37l39 -461
l4 -48t3.5 -47.5t3 -40.5t1.5 -26h1q4 10 12.5 29l19 41.5l22 46.5l22.5 45l228 461h41zM522 753l-129 136h63l105 -136h-39z" />
    <glyph glyph-name="wgrave" unicode="&#x1e81;" horiz-adv-x="649" 
d="M404 174q3 -29 4 -61.5t2 -49.5h1l23.5 48.5t34.5 66.5l158 298h38l-256 -476h-23l-27 319q-4 43 -4 64.5t-1 31.5h-1q-4 -11 -16.5 -38.5l-27.5 -58.5l-159 -318h-29l-56 476h37l35 -303q2 -14 3.5 -31t2.5 -33.5t2 -30.5t1 -22h1q9 18 24 51.5l29 63.5l152 305h28z
M362 544l-129 136h63l105 -136h-39z" />
    <glyph glyph-name="Wacute" unicode="&#x1e82;" horiz-adv-x="883" 
d="M938 680l-337 -680h-39l-35 400q-3 29 -5.5 63.5t-4.5 66.5l-3.5 57.5t-1.5 37.5h-1q-5 -10 -18 -38l-29 -61.5l-32 -66l-25 -51.5l-204 -408h-41l-54 680h41l35 -461q1 -20 3.5 -43.5t4 -46t2.5 -42t1 -30.5h1q4 11 12.5 29.5l19 40.5l22 46l22.5 46l232 461h37l39 -461
l4 -48t3.5 -47.5t3 -40.5t1.5 -26h1q4 10 12.5 29l19 41.5l22 46.5l22.5 45l228 461h41zM509 753l105 136h63l-129 -136h-39z" />
    <glyph glyph-name="wacute" unicode="&#x1e83;" horiz-adv-x="649" 
d="M404 174q3 -29 4 -61.5t2 -49.5h1l23.5 48.5t34.5 66.5l158 298h38l-256 -476h-23l-27 319q-4 43 -4 64.5t-1 31.5h-1q-4 -11 -16.5 -38.5l-27.5 -58.5l-159 -318h-29l-56 476h37l35 -303q2 -14 3.5 -31t2.5 -33.5t2 -30.5t1 -22h1q9 18 24 51.5l29 63.5l152 305h28z
M353 544l105 136h63l-129 -136h-39z" />
    <glyph glyph-name="Wdieresis" unicode="&#x1e84;" horiz-adv-x="883" 
d="M938 680l-337 -680h-39l-35 400q-3 29 -5.5 63.5t-4.5 66.5l-3.5 57.5t-1.5 37.5h-1q-5 -10 -18 -38l-29 -61.5l-32 -66l-25 -51.5l-204 -408h-41l-54 680h41l35 -461q1 -20 3.5 -43.5t4 -46t2.5 -42t1 -30.5h1q4 11 12.5 29.5l19 40.5l22 46l22.5 46l232 461h37l39 -461
l4 -48t3.5 -47.5t3 -40.5t1.5 -26h1q4 10 12.5 29l19 41.5l22 46.5l22.5 45l228 461h41zM451 871h41l-19 -91h-41zM635 871h41l-19 -91h-41z" />
    <glyph glyph-name="wdieresis" unicode="&#x1e85;" horiz-adv-x="649" 
d="M404 174q3 -29 4 -61.5t2 -49.5h1l23.5 48.5t34.5 66.5l158 298h38l-256 -476h-23l-27 319q-4 43 -4 64.5t-1 31.5h-1q-4 -11 -16.5 -38.5l-27.5 -58.5l-159 -318h-29l-56 476h37l35 -303q2 -14 3.5 -31t2.5 -33.5t2 -30.5t1 -22h1q9 18 24 51.5l29 63.5l152 305h28z
M292 656h41l-19 -91h-41zM476 656h41l-19 -91h-41z" />
    <glyph glyph-name="Ygrave" unicode="&#x1ef2;" horiz-adv-x="548" 
d="M232 0h-39l62 291l-166 389h42l150 -351l296 351h45l-329 -389zM356 753l-129 136h63l105 -136h-39z" />
    <glyph glyph-name="ygrave" unicode="&#x1ef3;" horiz-adv-x="431" 
d="M-62 -151q8 -5 19.5 -8.5t24.5 -3.5q29 0 47.5 18.5t40.5 53.5l65 102l-70 465h39l44 -296q3 -20 5.5 -39.5t5 -37t4 -30.5t1.5 -19h1q3 7 10.5 20l16.5 28.5l19.5 33l19.5 32.5l183 308h42l-326 -536l-31 -50t-28 -40q-20 -25 -41 -36.5t-49 -11.5q-18 0 -30.5 3.5
t-20.5 7.5zM255 544l-129 136h63l105 -136h-39z" />
    <glyph glyph-name="endash" unicode="&#x2013;" horiz-adv-x="637" 
d="M63 283h509l-5 -28h-509z" />
    <glyph glyph-name="emdash" unicode="&#x2014;" horiz-adv-x="827" 
d="M63 283h699l-5 -28h-699z" />
    <glyph glyph-name="quoteleft" unicode="&#x2018;" horiz-adv-x="177" 
d="M94 420l28 132l11.5 51.5t14 43t21 30t32.5 13.5l-7 -32q-15 -5 -23.5 -29.5t-16.5 -63.5l-6 -30h19l-25 -115h-48z" />
    <glyph glyph-name="quoteright" unicode="&#x2019;" horiz-adv-x="176" 
d="M197 680l-28 -132l-11.5 -51.5t-14 -43t-21.5 -30t-32 -13.5l7 32q15 5 23.5 29.5t16.5 63.5l6 30h-19l25 115h48z" />
    <glyph glyph-name="quotesinglbase" unicode="&#x201a;" horiz-adv-x="181" 
d="M80 114l-17 -80q-6 -30 -11.5 -52.5t-12.5 -41t-16 -35t-23 -35.5q-5 -7 -11 -14.5t-14 -15.5l-21 17q30 34 45 63t24 67l3 13h-19l25 114h48z" />
    <glyph glyph-name="quotedblleft" unicode="&#x201c;" horiz-adv-x="315" 
d="M94 420l28 132l11.5 51.5t14 43t21 30t32.5 13.5l-7 -32q-15 -5 -23.5 -29.5t-16.5 -63.5l-6 -30h19l-25 -115h-48zM232 420l28 132l11.5 51.5t14 43t21 30t32.5 13.5l-7 -32q-15 -5 -23.5 -29.5t-16.5 -63.5l-6 -30h19l-25 -115h-48z" />
    <glyph glyph-name="quotedblright" unicode="&#x201d;" horiz-adv-x="314" 
d="M335 680l-28 -132l-11.5 -51.5t-14 -43t-21.5 -30t-32 -13.5l7 32q15 5 23.5 29.5t16.5 63.5l6 30h-19l25 115h48zM197 680l-28 -132l-11.5 -51.5t-14 -43t-21.5 -30t-32 -13.5l7 32q15 5 23.5 29.5t16.5 63.5l6 30h-19l25 115h48z" />
    <glyph glyph-name="quotedblbase" unicode="&#x201e;" horiz-adv-x="322" 
d="M80 114l-17 -80q-6 -30 -11.5 -52.5t-12.5 -41t-16 -35t-23 -35.5q-5 -7 -11 -14.5t-14 -15.5l-21 17q30 34 45 63t24 67l3 13h-19l25 114h48zM221 114l-17 -80q-6 -30 -11.5 -52.5t-12.5 -41t-16 -35t-23 -35.5q-5 -7 -11 -14.5t-14 -15.5l-21 17q30 34 45 63t24 67
l3 13h-19l25 114h48z" />
    <glyph glyph-name="dagger" unicode="&#x2020;" horiz-adv-x="441" 
d="M272 443l-95 -443h-37l95 443h-170l7 36h170l43 201h37l-43 -201h172l-7 -36h-172z" />
    <glyph glyph-name="daggerdbl" unicode="&#x2021;" horiz-adv-x="481" 
d="M256 443h-170l7 36h170l43 201h37l-43 -201h172l-7 -36h-172l-44 -206h170l-7 -36h-170l-43 -201h-37l43 201h-172l7 36h172z" />
    <glyph glyph-name="bullet" unicode="&#x2022;" horiz-adv-x="355" 
d="M91 343q0 19 7.5 36.5t21 30.5t30.5 20.5t37 7.5t37.5 -7.5t31 -20.5t21.5 -30.5t8 -36.5q0 -20 -8 -38t-21.5 -31t-31 -20.5t-37.5 -7.5t-37 7.5t-30.5 20.5t-21 31t-7.5 38z" />
    <glyph glyph-name="ellipsis" unicode="&#x2026;" horiz-adv-x="847" 
d="M80 114l-25 -114h-48l25 114h48zM413 114l-25 -114h-48l25 114h48zM747 114l-25 -114h-48l25 114h48z" />
    <glyph glyph-name="perthousand" unicode="&#x2030;" horiz-adv-x="1321" 
d="M259 690q19 0 41 -6.5t41 -24t31 -47t12 -74.5q0 -49 -12 -98.5t-35.5 -89t-58 -64.5t-79.5 -25q-66 0 -96.5 43t-30.5 115q0 48 12.5 96.5t36.5 87.5t58.5 63t79.5 24zM107 423q0 -35 7.5 -59.5t20.5 -39.5t30.5 -22t37.5 -7q34 0 61 21t45.5 54.5t29 75.5t10.5 83
q0 57 -23.5 92t-70.5 35q-38 0 -66 -22.5t-46 -56.5t-27 -75.5t-9 -78.5zM747 416q19 0 41 -6.5t41 -24t31 -47t12 -74.5q0 -49 -12 -98.5t-35.5 -89t-58 -64.5t-79.5 -25q-66 0 -96.5 43t-30.5 115q0 48 12.5 96.5t36.5 87.5t58.5 63t79.5 24zM595 149q0 -35 7.5 -59.5
t20.5 -39.5t30.5 -22t37.5 -7q34 0 61 21t45.5 54.5t29 75.5t10.5 83q0 57 -23.5 92t-70.5 35q-38 0 -66 -22.5t-46 -56.5t-27 -75.5t-9 -78.5zM716 680l-455 -680h-41l455 680h41zM1148 416q19 0 41 -6.5t41 -24t31 -47t12 -74.5q0 -49 -12 -98.5t-35.5 -89t-58 -64.5
t-79.5 -25q-66 0 -96.5 43t-30.5 115q0 48 12.5 96.5t36.5 87.5t58.5 63t79.5 24zM996 149q0 -35 7.5 -59.5t20.5 -39.5t30.5 -22t37.5 -7q34 0 61 21t45.5 54.5t29 75.5t10.5 83q0 57 -23.5 92t-70.5 35q-38 0 -66 -22.5t-46 -56.5t-27 -75.5t-9 -78.5z" />
    <glyph glyph-name="guilsinglleft" unicode="&#x2039;" horiz-adv-x="246" 
d="M58 317l166 145l-13 -58l-126 -107l74 -136l-12 -56l-96 177z" />
    <glyph glyph-name="guilsinglright" unicode="&#x203a;" horiz-adv-x="244" 
d="M186 247l-165 -142l13 58l126 107l-74 136l12 56l95 -180z" />
    <glyph glyph-name="fraction" unicode="&#x2044;" horiz-adv-x="407" 
d="M485 680l-496 -680h-43l497 680h42z" />
    <glyph glyph-name="Euro" unicode="&#x20ac;" horiz-adv-x="619" 
d="M78 427h58q16 55 42.5 103t62.5 84t80 57t97 21q27 0 57 -8t57.5 -27.5t49 -53t31.5 -84.5l-35 -19q-14 72 -55 114.5t-110 42.5q-45 0 -82.5 -18.5t-67 -50t-51.5 -73.5t-37 -88h275l-19 -32h-265q-6 -29 -10.5 -56.5t-6.5 -54.5h270l-19 -32h-252q0 -64 13.5 -108
t37 -71t54.5 -39t67 -12q64 0 115 39.5t84 104.5l28 -20q-38 -70 -95 -114t-137 -44q-52 0 -90.5 18.5t-64 52t-38 80.5t-12.5 105v8h-82l20 32h63q2 28 6 55.5t11 55.5h-69z" />
    <glyph glyph-name="trademark" unicode="&#x2122;" horiz-adv-x="944" 
d="M132 680h321v-32h-144v-405h-34v405h-143v32zM712 243h-29l-119 329q-2 4 -5.5 15t-6.5 22q-4 13 -8 28h-2q0 -16 1 -32q0 -14 0.5 -30.5t0.5 -32.5v-299h-34v437h50l113 -313l19 -57q4 -14 7 -26q2 12 6 25q3 11 7.5 26t10.5 32l105 313h50v-437h-34v307q0 27 0.5 49.5
t1.5 37.5h-2q-1 -3 -4.5 -15.5t-14.5 -47.5z" />
    <glyph glyph-name="Omega" unicode="&#x2126;" horiz-adv-x="833" 
d="M414 676q-72 0 -125 -24t-88.5 -64.5t-53 -93.5t-17.5 -110q0 -53 13 -103.5t38.5 -95.5t63 -83t87.5 -64v-38h-250v36h199q-51 30 -87 69.5t-60 85.5q-45 85 -45 194q0 69 21 128.5t62 104t101.5 69.5t140.5 25t140.5 -25t101.5 -69.5t62 -104t21 -128.5
q0 -109 -45 -194q-24 -46 -60 -85.5t-87 -69.5h199v-36h-250v38q49 26 87 64t64 83t39 95.5t13 103.5q0 57 -17.5 110t-53 93.5t-89 64.5t-125.5 24z" />
    <glyph glyph-name="arrowleft" unicode="&#x2190;" horiz-adv-x="812" 
d="M762 221h-657l221 -221h-49l-237 238l237 238h49l-222 -220h658v-35z" />
    <glyph glyph-name="arrowup" unicode="&#x2191;" horiz-adv-x="596" 
d="M60 485l238 237l238 -237v-48l-220 219v-656h-37v657l-219 -220v48z" />
    <glyph glyph-name="arrowright" unicode="&#x2192;" horiz-adv-x="812" 
d="M50 256h658l-222 220h49l237 -238l-237 -238h-49l221 221h-657v35z" />
    <glyph glyph-name="arrowdown" unicode="&#x2193;" horiz-adv-x="596" 
d="M60 275l219 -220v657h37v-656l220 219v-48l-238 -237l-238 237v48z" />
    <glyph glyph-name="uni2196" unicode="&#x2196;" horiz-adv-x="633" 
d="M580 -10l-466 466v-314l-35 34l1 336h336l34 -34l-311 1l465 -465z" />
    <glyph glyph-name="uni2197" unicode="&#x2197;" horiz-adv-x="633" 
d="M79 14l465 465l-311 -1l34 34h336l1 -336l-35 -34v314l-466 -466z" />
    <glyph glyph-name="uni2198" unicode="&#x2198;" horiz-adv-x="633" 
d="M103 512l466 -466v314l35 -34l-1 -336h-336l-34 34l311 -1l-465 465z" />
    <glyph glyph-name="uni2199" unicode="&#x2199;" horiz-adv-x="633" 
d="M604 488l-465 -465l311 1l-34 -34h-336l-1 336l35 34v-314l466 466z" />
    <glyph glyph-name="uni21A4" unicode="&#x21a4;" horiz-adv-x="842" 
d="M725 0v221h-620l221 -221h-49l-237 238l237 238h49l-222 -220h621v220h37v-476h-37z" />
    <glyph glyph-name="uni21A5" unicode="&#x21a5;" horiz-adv-x="596" 
d="M60 485l238 237l238 -237v-48l-220 219v-621h220v-35h-476v35h219v622l-219 -220v48z" />
    <glyph glyph-name="uni21A6" unicode="&#x21a6;" horiz-adv-x="842" 
d="M565 476l237 -238l-237 -238h-49l221 221h-620v-221h-37v476h37v-220h621l-222 220h49z" />
    <glyph glyph-name="uni21A7" unicode="&#x21a7;" horiz-adv-x="596" 
d="M60 275l219 -220v622h-219v35h476v-35h-220v-621l220 219v-48l-238 -237l-238 237v48z" />
    <glyph glyph-name="uni21B0" unicode="&#x21b0;" horiz-adv-x="842" 
d="M762 0h-37v220h-621l222 -220h-49l-237 238l237 238h49l-221 -221h657v-255z" />
    <glyph glyph-name="uni21B1" unicode="&#x21b1;" horiz-adv-x="842" 
d="M80 255h657l-221 221h49l237 -238l-237 -238h-49l222 220h-621v-220h-37v255z" />
    <glyph glyph-name="uni21B2" unicode="&#x21b2;" horiz-adv-x="842" 
d="M762 221h-657l221 -221h-49l-237 238l237 238h49l-222 -220h621v220h37v-255z" />
    <glyph glyph-name="uni21B3" unicode="&#x21b3;" horiz-adv-x="842" 
d="M80 476h37v-220h621l-222 220h49l237 -238l-237 -238h-49l221 221h-657v255z" />
    <glyph glyph-name="uni21B4" unicode="&#x21b4;" horiz-adv-x="596" 
d="M60 275l219 -220v622h-219v35h256v-656l220 219v-48l-238 -237l-238 237v48z" />
    <glyph glyph-name="exclam" unicode="!" horiz-adv-x="208" 
d="M95 176h-27l28 161l73 343h39l-73 -343zM93 114l-24 -114h-51l24 114h51z" />
    <glyph glyph-name="partialdiff" unicode="&#x2202;" horiz-adv-x="493" 
d="M227 682q17 8 37.5 14.5t46.5 6.5q78 0 115 -53.5t37 -156.5q0 -38 -7 -92t-22 -111.5t-38 -113t-55 -95.5q-32 -42 -71.5 -67.5t-95.5 -25.5q-41 0 -70 13.5t-48.5 36t-28.5 53t-9 63.5q0 62 20.5 115.5t54 92.5t77 61t88.5 22q31 0 56 -9t44.5 -23.5t32 -33t17.5 -38.5
h2q9 39 13 82t4 75q0 82 -29 128t-93 46q-21 0 -39 -6t-32 -14zM395 289q-2 22 -13 44.5t-29.5 39.5t-43 28t-52.5 11q-38 0 -74 -19.5t-64 -54t-44.5 -80.5t-16.5 -99q0 -66 33 -102t86 -36q45 0 81.5 26t64 65.5t45.5 86.5t27 90z" />
    <glyph glyph-name="Delta" unicode="&#x2206;" horiz-adv-x="661" 
d="M266 680h46l269 -680h-584zM50 35h477l-238 603z" />
    <glyph glyph-name="product" unicode="&#x220f;" horiz-adv-x="904" 
d="M276 -190h-40v833h-130v37h785v-37h-130v-833h-40v833h-445v-833z" />
    <glyph glyph-name="summation" unicode="&#x2211;" horiz-adv-x="819" 
d="M402 245l-296 405v30h587v-37h-535l293 -398l-295 -398h537v-37h-587v30z" />
    <glyph glyph-name="minus" unicode="&#x2212;" horiz-adv-x="835" 
d="M80 304h673v-28h-673v28z" />
    <glyph glyph-name="uni2219" unicode="&#x2219;" horiz-adv-x="188" 
d="M138 377l-25 -114h-48l25 114h48z" />
    <glyph glyph-name="radical" unicode="&#x221a;" horiz-adv-x="522" 
d="M532 680l-181 -683h-49l-148 444h-95v35h123l116 -353l15 -46.5l13 -41.5h1l10 42t12 45l148 558h35z" />
    <glyph glyph-name="infinity" unicode="&#x221e;" horiz-adv-x="953" 
d="M908 353q0 -32 -9.5 -61t-29.5 -51t-50.5 -35.5t-71.5 -13.5q-37 0 -72 13.5t-68 33.5t-63.5 44.5l-57.5 46.5q-76 -60 -141 -99t-128 -39q-41 0 -69.5 13t-46 35t-25.5 49.5t-8 57.5q0 34 10.5 62.5t30 49.5t48 32.5t64.5 11.5q31 0 62 -9.5t63 -27.5t66.5 -43l73.5 -55
l78.5 58.5t67 42.5t61 25.5t61.5 8.5q38 0 66.5 -12t48 -33t29.5 -48t10 -57zM874 349q0 60 -36.5 92t-91.5 32q-32 0 -62.5 -12t-60 -30.5t-57.5 -40t-55 -39.5l54.5 -42.5t59 -41.5t62.5 -31.5t65 -12.5q29 0 51.5 10t38.5 27t24 40t8 49zM219 223q31 0 63 12t63 31
t60 40.5l55 41.5l-52.5 39.5t-59.5 40t-62.5 31.5t-62.5 13q-56 0 -88.5 -34.5t-32.5 -87.5q0 -59 32.5 -93t84.5 -34z" />
    <glyph glyph-name="uni2224" unicode="&#x2224;" horiz-adv-x="228" 
d="M158 377l-25 -114h-48l25 114h48z" />
    <glyph glyph-name="logicaland" unicode="&#x2227;" horiz-adv-x="188" 
d="M138 377l-25 -114h-48l25 114h48z" />
    <glyph glyph-name="integral" unicode="&#x222b;" horiz-adv-x="315" 
d="M-75 -155q40 -8 63 -8q19 0 32.5 3.5t25.5 14.5q11 11 19 31.5t14 55.5l107 632q11 63 38 90.5t79 27.5q19 0 40.5 -3t41.5 -9l-9 -35q-13 4 -30 7.5t-35 3.5q-20 0 -34.5 -5t-25.5 -17q-11 -13 -17 -33.5t-11 -47.5l-109 -633q-6 -36 -16 -57t-23 -34q-15 -15 -34.5 -21
t-45.5 -6q-18 0 -39.5 2.5t-42.5 7.5z" />
    <glyph glyph-name="approxequal" unicode="&#x2248;" horiz-adv-x="617" 
d="M540 399q-24 -29 -54.5 -45.5t-68.5 -16.5q-31 0 -60.5 11.5t-61.5 27.5q-22 11 -47 21.5t-52 10.5q-26 0 -47 -15t-46 -47l-25 25q6 10 17.5 23t27 24t34.5 19t41 8q26 0 53 -9t68 -29q22 -11 36.5 -17.5t25.5 -10.5t19.5 -5.5t17.5 -1.5q31 0 55.5 17.5t41.5 37.5z
M540 211q-24 -29 -54.5 -45.5t-68.5 -16.5q-31 0 -60.5 11.5t-61.5 27.5q-22 11 -47 21.5t-52 10.5q-26 0 -47 -15t-46 -47l-25 25q6 10 17.5 23t27 24t34.5 19t41 8q26 0 53 -9t68 -29q22 -11 36.5 -17.5t25.5 -10.5t19.5 -5.5t17.5 -1.5q31 0 55.5 17.5t41.5 37.5z" />
    <glyph glyph-name="notequal" unicode="&#x2260;" horiz-adv-x="819" 
d="M72 394h370l105 200h36l-106 -200h268v-33h-285l-74 -141h359v-33h-377l-98 -187h-36l98 187h-260v33h278l74 141h-352v33z" />
    <glyph glyph-name="lessequal" unicode="&#x2264;" horiz-adv-x="849" 
d="M761 89l-696 283v43l696 271v-36l-663 -256l663 -268v-37zM760 0h-695v33h695v-33z" />
    <glyph glyph-name="greaterequal" unicode="&#x2265;" horiz-adv-x="896" 
d="M109 126l663 268l-663 256v36l696 -271v-43l-696 -283v37zM110 33h695v-33h-695v33z" />
    <glyph glyph-name="dotmath" unicode="&#x22c5;" horiz-adv-x="188" 
d="M138 377l-25 -114h-48l25 114h48z" />
    <glyph glyph-name="lozenge" unicode="&#x25ca;" horiz-adv-x="524" 
d="M454 338l-180 313l-181 -313l181 -309zM298 680l199 -342l-199 -338h-48l-199 338l199 342h48z" />
    <glyph glyph-name="uni2B0F" unicode="&#x2b0f;" horiz-adv-x="596" 
d="M60 485l238 237l238 -237v-48l-220 219v-656h-256v35h219v622l-219 -220v48z" />
    <glyph glyph-name="uni2B10" unicode="&#x2b10;" horiz-adv-x="596" 
d="M536 227l-238 -237l-238 237v48l220 -219v656h256v-35h-219v-622l219 220v-48z" />
    <glyph glyph-name="uni2B11" unicode="&#x2b11;" horiz-adv-x="596" 
d="M536 437l-219 220v-622h219v-35h-256v656l-220 -219v48l238 237l238 -237v-48z" />
    <glyph glyph-name="uniF8FF" unicode="&#xf8ff;" horiz-adv-x="823" 
d="M40 361q0 77 29 144.5t79.5 118t118 80t144.5 29.5t144.5 -29.5t118 -80t80 -118t29.5 -144.5t-29.5 -144.5t-80 -118t-118 -79.5t-144.5 -29t-144.5 29t-118 79.5t-79.5 118t-29 144.5z" />
    <glyph glyph-name="uni21B0.salt" horiz-adv-x="972" 
d="M378 0l-340 340l340 340h51l-324 -322h785v-358h-39v321h-745l323 -321h-51z" />
    <glyph glyph-name="uni21B1.salt" horiz-adv-x="972" 
d="M543 0l323 321h-745v-321h-39v358h785l-324 322h51l340 -340l-340 -340h-51z" />
    <glyph glyph-name="uni21B2.salt" horiz-adv-x="972" 
d="M429 680l-323 -321h745v321h39v-358h-785l324 -322h-51l-340 340l340 340h51z" />
    <glyph glyph-name="uni21B3.salt" horiz-adv-x="972" 
d="M594 680l340 -340l-340 -340h-51l324 322h-785v358h39v-321h745l-323 321h51z" />
    <glyph glyph-name="uni21B4.salt" horiz-adv-x="840" 
d="M80 296l320 -324v747h-320v37h359v-781l321 321v-52l-340 -340l-340 340v52z" />
    <glyph glyph-name="carriagereturn.salt" horiz-adv-x="972" 
d="M429 680l-323 -321h745v321h39v-358h-785l324 -322h-51l-340 340l340 340h51z" />
    <glyph glyph-name="uni2B0F.salt" horiz-adv-x="840" 
d="M80 426l340 340l340 -340v-52l-321 321v-781h-359v37h320v747l-320 -324v52z" />
    <glyph glyph-name="uni2B11.salt" horiz-adv-x="840" 
d="M760 374l-320 324v-747h320v-37h-359v781l-321 -321v52l340 340l340 -340v-52z" />
    <glyph glyph-name="uni2B10.salt" horiz-adv-x="840" 
d="M760 244l-340 -340l-340 340v52l321 -321v781h359v-37h-320v-747l320 324v-52z" />
    <glyph glyph-name="caron.alt" horiz-adv-x="450" 
d="M248 553l59 127h54l-81 -127h-32z" />
    <glyph glyph-name="commaaccent" unicode="&#xf6c3;" horiz-adv-x="146" 
d="M181 -70l-19 -86l-11.5 -48.5t-14 -39t-20.5 -27t-30 -12.5l7 32q15 5 23.5 30t14.5 57h-19l21 94h48z" />
    <glyph glyph-name="commaturn" horiz-adv-x="146" 
d="M91 586l19 86l11.5 48.5t13.5 39t20.5 27t30.5 12.5l-7 -32q-15 -5 -23.5 -30t-14.5 -57h19l-21 -94h-48z" />
    <glyph glyph-name="zero.tlfslash" horiz-adv-x="590" 
d="M360 692q31 0 66.5 -11t65.5 -39t50 -76t20 -123q0 -80 -20 -161.5t-58.5 -146.5t-95.5 -106t-131 -41q-52 0 -90.5 18.5t-63.5 52t-37.5 80.5t-12.5 105q0 81 20.5 161t59.5 143.5t96 103.5t131 40zM523 432q0 85 -30 141l-368 -476q23 -41 59 -58t78 -17q61 0 109 37
t82 96t52 132t18 145zM91 250q0 -35 4 -63t12 -51l365 470q-21 24 -50 37.5t-66 13.5q-67 0 -116.5 -39t-82.5 -99t-49.5 -132t-16.5 -137z" />
    <glyph glyph-name="zero.plfslash" horiz-adv-x="608" 
d="M369 692q31 0 66.5 -11t65.5 -39t50 -76t20 -123q0 -80 -20 -161.5t-58.5 -146.5t-95.5 -106t-131 -41q-52 0 -90.5 18.5t-63.5 52t-37.5 80.5t-12.5 105q0 81 20.5 161t59.5 143.5t96 103.5t131 40zM532 432q0 85 -30 141l-368 -476q23 -41 59 -58t78 -17q61 0 109 37
t82 96t52 132t18 145zM100 250q0 -35 4 -63t12 -51l365 470q-21 24 -50 37.5t-66 13.5q-67 0 -116.5 -39t-82.5 -99t-49.5 -132t-16.5 -137z" />
    <glyph glyph-name="zero.plf" horiz-adv-x="608" 
d="M369 692q31 0 66.5 -11t65.5 -39t50 -76t20 -123q0 -80 -20 -161.5t-58.5 -146.5t-95.5 -106t-131 -41q-52 0 -90.5 18.5t-63.5 52t-37.5 80.5t-12.5 105q0 81 20.5 161t59.5 143.5t96 103.5t131 40zM100 250q0 -63 14 -106.5t37 -70.5t54 -39t66 -12q61 0 109 37t82 96
t52 132t18 145q0 50 -10.5 91.5t-31.5 71t-52.5 46t-72.5 16.5q-67 0 -116.5 -39t-82.5 -99t-49.5 -132t-16.5 -137z" />
    <glyph glyph-name="one.plf" horiz-adv-x="326" 
d="M174 0h-38l121 567q-19 -28 -57 -47t-105 -19h-15.5t-12.5 1l7 33h15q41 0 70 7.5t52 21.5q30 19 48 48t28 68h32z" />
    <glyph glyph-name="two.plf" horiz-adv-x="546" 
d="M102 426q-3 13 -4 25.5t-1 24.5q0 44 16 83.5t45 69t70.5 46.5t92.5 17q48 0 86.5 -13.5t65 -38t41 -58.5t14.5 -75q0 -59 -23.5 -108t-61 -90t-83.5 -76.5l-92 -68.5l-61.5 -41.5l-59 -38l-49 -31l-31.5 -19.5l1 -2q29 0 59 1q26 0 56 0.5t57 0.5h214l-6 -34h-451l6 29
l58 35.5l72 47l78 54l77 55.5l72 56.5t64.5 64t46.5 74t18 86.5q0 72 -45.5 113.5t-123.5 41.5q-47 0 -81.5 -15t-57.5 -40.5t-34.5 -59t-11.5 -70.5q0 -30 7 -62z" />
    <glyph glyph-name="three.plf" horiz-adv-x="557" 
d="M104 525q3 32 19.5 62t44 53.5t66.5 37.5t87 14t84.5 -13.5t61 -36t36.5 -51.5t12 -60q0 -66 -43.5 -114t-131.5 -59l-1 -1q31 -7 57.5 -21t45.5 -35t30 -48.5t11 -61.5q0 -39 -14.5 -75.5t-44 -65t-73.5 -45.5t-103 -17q-102 0 -160 46.5t-64 130.5l38 19
q3 -44 18 -74.5t40 -50t57.5 -28t69.5 -8.5q39 0 74.5 9.5t62.5 30t43 52t16 76.5q0 32 -10.5 55.5t-29.5 41.5q-20 19 -43.5 30.5t-50 16.5t-54 6.5t-54.5 1.5h-25l7 33h65q54 0 87.5 6t57.5 18q38 20 59 51t21 77q0 28 -11 51.5t-31 41t-49 27t-65 9.5q-35 0 -66 -10.5
t-55 -29.5t-39 -47t-18 -62z" />
    <glyph glyph-name="four.plf" horiz-adv-x="544" 
d="M311 0h-37l39 185h-311l6 30l412 465h37l-98 -459h149l-8 -36h-149zM321 221l56 262q8 41 18 80.5t16 60.5h-1q-29 -39 -114 -135l-141 -160l-30.5 -34.5l-31.5 -35.5l-35 -38v-1h54q23 0 47.5 0.5t43.5 0.5h118z" />
    <glyph glyph-name="five.plf" horiz-adv-x="545" 
d="M163 680h354l-9 -36h-318l-71 -274l1 -2q26 40 72.5 63t104.5 23q38 0 73 -12t62 -37t43 -63t16 -90q0 -66 -21.5 -115.5t-56.5 -82.5t-79 -49.5t-90 -16.5q-38 0 -72.5 9.5t-62 28.5t-48 48t-30.5 69l36 20q7 -36 24.5 -62.5t41.5 -44.5t52.5 -27t58.5 -9
q39 0 76.5 14.5t66.5 43t47 71.5t18 99q0 45 -14 77.5t-37 53.5t-53 31t-61 10q-29 0 -58 -8.5t-54 -25t-44.5 -40.5t-29.5 -56l-34 13z" />
    <glyph glyph-name="six.plf" horiz-adv-x="574" 
d="M522 521q-14 67 -56.5 101.5t-101.5 34.5q-48 0 -89.5 -23t-74.5 -64t-56.5 -98t-35.5 -124h1q34 47 87 71.5t111 24.5q52 0 90.5 -17t64 -45t38.5 -65t13 -76q0 -46 -15.5 -91t-46 -81t-75.5 -58.5t-105 -22.5q-47 0 -85 15.5t-66 46.5t-43 77.5t-15 107.5q0 93 22 176
t62 145.5t97 99t126 36.5q74 0 122.5 -40.5t65.5 -103.5zM102 294q-2 -13 -2 -25v-23q0 -110 47.5 -167t128.5 -57q47 0 84 18.5t62 48.5t38 68t13 77q0 45 -14.5 78t-38.5 55t-55.5 32.5t-65.5 10.5q-28 0 -56.5 -7.5t-54.5 -22t-48.5 -36t-37.5 -50.5z" />
    <glyph glyph-name="seven.plf" horiz-adv-x="507" 
d="M573 651q-65 -72 -124 -148.5t-109 -157.5t-90 -167.5t-67 -177.5h-41q23 85 64 172.5t92 170.5t109 159.5t116 141.5h-376l-34 -160h-37l42 196h461z" />
    <glyph glyph-name="eight.plf" horiz-adv-x="593" 
d="M229 373q-21 7 -40 19t-33.5 30t-23 41.5t-8.5 54.5q0 34 15.5 65.5t45 55.5t70.5 38.5t92 14.5q45 0 83 -11.5t65.5 -32.5t43 -50t15.5 -64t-12 -64.5t-33.5 -51.5t-51.5 -36.5t-66 -18.5l-1 -1q57 -21 92.5 -61.5t35.5 -109.5q0 -44 -17 -81t-48.5 -64t-77.5 -42.5
t-103 -15.5q-53 0 -96.5 12t-74 35.5t-47 58t-16.5 79.5q0 41 14.5 75t40 59.5t60.5 42t76 22.5v1zM79 178q0 -71 49 -113t140 -42q47 0 86 11t66.5 32.5t42.5 53t15 71.5q0 73 -52.5 115.5t-140.5 42.5q-53 0 -92 -14.5t-64.5 -38t-37.5 -54.5t-12 -64zM165 518
q0 -28 9.5 -52.5t30 -43t51.5 -29t74 -10.5q46 0 80 11t57 31t34.5 47.5t11.5 59.5q0 57 -44.5 92t-122.5 35q-45 0 -79 -11.5t-56.5 -31t-34 -45t-11.5 -53.5z" />
    <glyph glyph-name="nine.plf" horiz-adv-x="574" 
d="M76 159q14 -67 56.5 -101.5t101.5 -34.5q48 0 89.5 23t74.5 64t56.5 97.5t35.5 124.5h-1q-34 -47 -87 -71.5t-111 -24.5q-52 0 -90.5 17t-64 45t-38.5 65t-13 76q0 46 15.5 91t46 81t75.5 58.5t105 22.5q46 0 84.5 -15.5t66.5 -46.5t43 -77.5t15 -107.5q0 -93 -22 -176
t-62 -145.5t-97 -99t-126 -36.5q-74 0 -122.5 40.5t-65.5 103.5zM496 386q2 13 2 25v23q0 110 -47.5 167t-128.5 57q-47 0 -84 -18.5t-62 -48.5t-38 -68t-13 -77q0 -45 14.5 -78t38.5 -55t55.5 -32.5t65.5 -10.5q28 0 56.5 7.5t54.5 22t48.5 36t37.5 50.5z" />
    <glyph glyph-name="at.case" horiz-adv-x="808" 
d="M572 176q36 0 68 23t55.5 61t37 86.5t13.5 99.5q0 49 -15 95.5t-47 83t-82.5 58.5t-122.5 22q-92 0 -162.5 -36.5t-118.5 -95t-73 -132t-25 -146.5q0 -60 17.5 -114.5t54 -96t93 -66.5t133.5 -25q81 0 160.5 33t138.5 96l9 -33q-60 -64 -142 -97t-167 -33
q-87 0 -150 27.5t-104 74t-61 106t-20 124.5q0 79 28 159t82 143.5t132.5 103.5t180.5 40q78 0 134 -25t92.5 -65.5t53.5 -92.5t17 -106q0 -46 -13.5 -98.5t-41 -97t-68 -74t-94.5 -29.5q-58 0 -58 47q0 5 0.5 12t2.5 13h-1q-17 -32 -53 -54.5t-83 -22.5q-57 0 -86.5 29
t-29.5 77q0 23 6 40t16 31q20 25 52.5 37.5t75.5 19.5l107 17q19 4 27 8.5t11 19.5q5 20 5 41q0 14 -4.5 26.5t-15.5 21.5t-31 14t-50 5q-58 0 -89 -28t-37 -71l-29 19q4 27 19.5 47.5t37.5 34t49 20.5t55 7q24 0 46.5 -4t40.5 -14.5t29 -27.5t11 -42q0 -13 -1.5 -25
t-7.5 -41l-33 -155q-7 -29 -7 -45q0 -14 7.5 -22t24.5 -8zM542 376q-8 -4 -27 -8t-35 -6l-58 -10q-25 -4 -48.5 -9.5t-42 -16t-29.5 -27.5t-11 -44q0 -41 23 -61t65 -20q51 0 92 32.5t57 106.5z" />
    <glyph glyph-name="bar.case" horiz-adv-x="246" 
d="M151 -88h-37v838h37v-838z" />
    <glyph glyph-name="plus.case" horiz-adv-x="657" 
d="M355 633v-282h277v-33h-277v-278h-33v278h-276v33h276v282h33z" />
    <glyph glyph-name="minus.case" horiz-adv-x="830" 
d="M90 354h673v-28h-673v28z" />
    <glyph glyph-name="plusminus.case" horiz-adv-x="746" 
d="M380 147h-34v227h-277v33h277v226h34v-226h275v-33h-275v-227zM655 40h-586v33h586v-33z" />
    <glyph glyph-name="multiply.case" horiz-adv-x="679" 
d="M611 570l-233 -233l233 -235l-26 -26l-233 234l-233 -233l-26 26l233 232l-233 233l26 26l233 -233l233 234z" />
    <glyph glyph-name="divide.case" horiz-adv-x="823" 
d="M88 355h672v-28h-672v28zM448 214v-114h-48v114h48zM448 576v-114h-48v114h48z" />
    <glyph glyph-name="equal.case" horiz-adv-x="890" 
d="M106 260h673v-33h-673v33zM106 434h673v-33h-673v33z" />
    <glyph glyph-name="notequal.case" horiz-adv-x="810" 
d="M73 434h370l105 200h36l-106 -200h268v-33h-285l-74 -141h359v-33h-377l-98 -187h-36l98 187h-260v33h278l74 141h-352v33z" />
    <glyph glyph-name="approxequal.case" horiz-adv-x="615" 
d="M546 439q-24 -29 -54.5 -45.5t-68.5 -16.5q-31 0 -60.5 11.5t-61.5 27.5q-22 11 -47 21.5t-52 10.5q-26 0 -47 -15t-46 -47l-25 25q6 10 17.5 23t27 24t34.5 19t41 8q26 0 53 -9t68 -29q22 -11 36.5 -17.5t25.5 -10.5t19.5 -5.5t17.5 -1.5q31 0 55.5 17.5t41.5 37.5z
M546 251q-24 -29 -54.5 -45.5t-68.5 -16.5q-31 0 -60.5 11.5t-61.5 27.5q-22 11 -47 21.5t-52 10.5q-26 0 -47 -15t-46 -47l-25 25q6 10 17.5 23t27 24t34.5 19t41 8q26 0 53 -9t68 -29q22 -11 36.5 -17.5t25.5 -10.5t19.5 -5.5t17.5 -1.5q31 0 55.5 17.5t41.5 37.5z" />
    <glyph glyph-name="logicalnot.case" horiz-adv-x="541" 
d="M472 241h-37v199h-359v34h396v-233z" />
    <glyph glyph-name="parenleft.case" horiz-adv-x="239" 
d="M95 -100q-48 138 -48 291q0 158 62 299.5t175 267.5l36 -5q-53 -59 -96.5 -125t-74.5 -138t-48 -148.5t-17 -156.5q0 -69 12 -141t34 -138z" />
    <glyph glyph-name="parenright.case" horiz-adv-x="238" 
d="M162 758q24 -69 36.5 -141t12.5 -150q0 -158 -61 -299.5t-174 -267.5l-38 5q53 58 96.5 124.5t74.5 138.5t48 148.5t17 156.5q0 69 -11.5 141t-33.5 138z" />
    <glyph glyph-name="hyphen.case" horiz-adv-x="409" 
d="M78 345h277l-7 -36h-277z" />
    <glyph glyph-name="bracketleft.case" horiz-adv-x="275" 
d="M165 -98h-164l177 838h165l-7 -34h-128l-164 -770h128z" />
    <glyph glyph-name="bracketright.case" horiz-adv-x="274" 
d="M125 740h164l-177 -838h-165l7 34h128l164 770h-128z" />
    <glyph glyph-name="braceleft.case" horiz-adv-x="283" 
d="M54 365q26 6 42.5 16.5t27 28t17.5 42t14 59.5l16 75q8 39 17.5 70t25 52t41 32.5t66.5 11.5q5 0 11.5 -0.5t11.5 -0.5q6 -1 11 -1l-8 -32q-7 1 -13 1.5t-12 0.5q-31 0 -50.5 -10t-31 -27t-18 -40.5t-12.5 -50.5l-13 -63q-10 -50 -19 -82t-20 -51.5t-27.5 -30
t-41.5 -17.5v-1q25 -11 35.5 -30t10.5 -45q0 -22 -5 -51.5t-14 -70.5l-19 -84q-5 -20 -7 -37.5t-2 -30.5q0 -35 21 -51t71 -19l-7 -30q-27 1 -49.5 6t-39 15.5t-25.5 28.5t-9 45q0 23 5 50.5t13 61.5l16 71q6 28 10 49.5t4 38.5q0 26 -11 43t-40 27z" />
    <glyph glyph-name="braceright.case" horiz-adv-x="284" 
d="M250 292q-26 -6 -42.5 -16.5t-27 -28t-17.5 -42.5t-14 -59l-18 -82q-8 -39 -17.5 -70t-25 -52t-41 -32.5t-66.5 -11.5h-12t-11 1q-6 0 -11 1l8 32q7 -1 13 -1.5t12 -0.5q31 0 50.5 10t31 27t18 40.5t12.5 50.5l15 70q10 50 19 82t20 51.5t27.5 30t41.5 17.5v1
q-25 11 -35.5 30t-10.5 45q0 22 5 51.5t14 70.5l17 77q5 20 7 37.5t2 30.5q0 35 -21 51t-71 19l7 30q27 -2 49.5 -6.5t39 -15t25.5 -28.5t9 -45q0 -23 -5 -50.5t-13 -61.5l-14 -64q-6 -28 -10 -49.5t-4 -38.5q0 -26 11 -43t40 -27z" />
    <glyph glyph-name="guillemotleft.case" horiz-adv-x="378" 
d="M64 347l166 145l-13 -58l-126 -107l74 -136l-12 -56l-96 177zM197 347l166 145l-13 -58l-126 -107l74 -136l-12 -56l-96 177z" />
    <glyph glyph-name="uni00AD.case" horiz-adv-x="409" 
d="M78 345h277l-7 -36h-277z" />
    <glyph glyph-name="guillemotright.case" horiz-adv-x="375" 
d="M324 277l-165 -142l13 58l126 107l-74 136l12 56l95 -180zM191 277l-165 -142l13 58l126 107l-74 136l12 56l95 -180z" />
    <glyph glyph-name="endash.case" horiz-adv-x="621" 
d="M67 343h509l-5 -28h-509z" />
    <glyph glyph-name="emdash.case" horiz-adv-x="811" 
d="M67 343h699l-5 -28h-699z" />
    <glyph glyph-name="guilsinglleft.case" horiz-adv-x="245" 
d="M64 347l166 145l-13 -58l-126 -107l74 -136l-12 -56l-96 177z" />
    <glyph glyph-name="guilsinglright.case" horiz-adv-x="242" 
d="M191 277l-165 -142l13 58l126 107l-74 136l12 56l95 -180z" />
    <glyph glyph-name="brokenbar.case" horiz-adv-x="258" 
d="M142 357h-37v323h37v-323zM142 -158h-37v323h37v-323z" />
    <glyph glyph-name="arrowleft.salt" horiz-adv-x="940" 
d="M429 680l-342 -340l342 -340h-51l-340 340l340 340h51zM890 322h-809v37h809v-37z" />
    <glyph glyph-name="arrowup.salt" horiz-adv-x="840" 
d="M80 426l340 340l340 -340v-52l-321 321v-781h-39v784l-320 -324v52z" />
    <glyph glyph-name="arrowright.salt" horiz-adv-x="940" 
d="M562 680l340 -340l-340 -340h-51l342 340l-342 340h51zM50 359h809v-37h-809v37z" />
    <glyph glyph-name="arrowdown.salt" horiz-adv-x="840" 
d="M80 296l320 -324v784h39v-781l321 321v-52l-340 -340l-340 340v52z" />
    <glyph glyph-name="uni2196.salt" horiz-adv-x="748" 
d="M681 24l-561 561v-452l-38 36v481h481l36 -37l-455 3l564 -564z" />
    <glyph glyph-name="uni2197.salt" horiz-adv-x="748" 
d="M185 650h481v-481l-38 -36v452l-561 -561l-27 28l564 564l-455 -3z" />
    <glyph glyph-name="uni2198.salt" horiz-adv-x="748" 
d="M149 67l455 -3l-564 564l27 28l561 -561v452l38 -36v-481h-481z" />
    <glyph glyph-name="uni2199.salt" horiz-adv-x="748" 
d="M708 628l-564 -564l455 3l-36 -37h-481v481l38 36v-452l561 561z" />
    <glyph glyph-name="uni21A4.salt" horiz-adv-x="972" 
d="M851 0v322h-746l324 -322h-51l-340 340l340 340h51l-323 -321h745v321h39v-680h-39z" />
    <glyph glyph-name="uni21A5.salt" horiz-adv-x="840" 
d="M80 426l340 340l340 -340v-52l-321 321v-744h321v-37h-680v37h320v747l-320 -324v52z" />
    <glyph glyph-name="uni21A6.salt" horiz-adv-x="972" 
d="M82 0v680h39v-321h745l-323 321h51l340 -340l-340 -340h-51l324 322h-746v-322h-39z" />
    <glyph glyph-name="uni21A7.salt" horiz-adv-x="840" 
d="M80 296l320 -324v747h-320v37h680v-37h-321v-744l321 321v-52l-340 -340l-340 340v52z" />
    <glyph glyph-name="enspace" unicode="&#x2002;" horiz-adv-x="500" 
 />
    <glyph glyph-name="emspace" unicode="&#x2003;" horiz-adv-x="1000" 
 />
    <glyph glyph-name="threeperemspace" unicode="&#x2004;" horiz-adv-x="333" 
 />
    <glyph glyph-name="fourperemspace" unicode="&#x2005;" horiz-adv-x="250" 
 />
    <glyph glyph-name="thinspace" unicode="&#x2009;" horiz-adv-x="133" 
 />
    <glyph glyph-name="hairspace" unicode="&#x200a;" horiz-adv-x="75" 
 />
    <glyph glyph-name="idotaccent" horiz-adv-x="191" 
d="M54 0h-37l101 476h37zM176 575h-37l23 105h37z" />
    <glyph glyph-name="quotedbl" unicode="&#x22;" horiz-adv-x="286" 
d="M120 408h-21l28 172l21 100h37l-21 -100zM239 408h-21l28 172l21 100h37l-21 -100z" />
    </font>
</defs>
</svg>
